<svg width="84" height="32" viewBox="0 0 84 32" fill="none" xmlns="http://www.w3.org/2000/svg">
<path d="M71.8786 6.82434C73.5633 7.23923 75.2096 7.80068 76.7993 8.50245C78.4402 9.20966 79.9739 10.1495 81.3547 11.294C81.705 11.5965 82.0395 11.9174 82.3566 12.2556L82.4775 12.3818L82.602 12.5336L82.848 12.8402C83.0067 13.0486 83.1371 13.2801 83.2771 13.502C83.7736 14.4253 84.0223 15.4648 83.9984 16.5164C83.9745 17.568 83.6788 18.5947 83.1409 19.4938L83.0439 19.6616L82.932 19.8199L82.7055 20.1343C82.5423 20.3334 82.3689 20.5259 82.1894 20.7093L81.902 20.9665C81.8085 21.0544 81.7086 21.135 81.6031 21.2076C81.4083 21.3527 81.2064 21.4876 80.9981 21.6119C77.8502 23.5269 74.4151 24.8299 70.9807 25.8496C68.6866 26.5364 66.3691 27.0877 64.0568 27.5953C62.9005 27.85 61.7435 28.0844 60.5868 28.3299C59.429 28.5686 58.2671 28.7895 57.1074 29.0203C52.4609 29.9076 47.7799 30.6461 43.0683 31.1702C38.3509 31.7076 33.6082 31.9845 28.8612 31.9995C24.1003 32.0145 19.3444 31.6835 14.6301 31.0092C14.2656 30.9675 13.9053 30.8951 13.543 30.8365L12.458 30.6494C11.7345 30.5213 11.0125 30.4064 10.2881 30.2509C8.8051 29.9648 7.34874 29.5511 5.93482 29.0142C5.20958 28.7287 4.50718 28.3866 3.83393 27.991C3.66462 27.8902 3.49531 27.7896 3.33141 27.6777C3.15902 27.5706 2.99311 27.4531 2.83456 27.3259L2.33777 26.9269C2.1832 26.7806 2.0366 26.6246 1.88725 26.4725C1.73723 26.3206 1.59956 26.1566 1.47561 25.9822C1.34019 25.8169 1.21686 25.6418 1.10658 25.4582C0.997766 25.2738 0.886944 25.0905 0.783311 24.9037L0.522755 24.3172C0.211018 23.5223 0.0346504 22.6794 0.00118469 21.8246C-0.0136747 20.9719 0.111341 20.1226 0.37111 19.3116C0.638649 18.5015 1.04673 17.7464 1.5761 17.082L1.98924 16.5998C2.14029 16.4531 2.29708 16.3121 2.45209 16.1694C2.52858 16.1019 2.61079 16.0198 2.68288 15.9651L2.90173 15.7933L3.33948 15.4498C3.63202 15.2219 3.92135 14.9894 4.21684 14.7655L5.11444 14.1096C6.31022 13.2334 7.5515 12.426 8.80483 11.6413C9.43988 11.2637 10.073 10.882 10.7152 10.5175L11.6852 9.98346L12.1701 9.71652L12.6621 9.46361C15.2799 8.10809 17.9769 6.91641 20.738 5.89524C23.495 4.88054 26.3037 4.01706 29.152 3.30856C34.842 1.89002 40.6409 1.02599 46.4491 0.506796C49.9548 0.188213 53.5038 0.063136 56.9692 0.00788473C60.2891 -0.0398755 62.4377 0.135057 63.7695 0.377836C64.739 0.554652 64.7361 0.750234 63.906 0.922993C63.076 1.09575 61.4183 1.24138 59.0782 1.35547C56.1168 1.49808 52.884 1.63882 49.8309 1.83335C42.8056 2.28233 35.8075 3.19617 29.0261 4.9843C22.2574 6.77253 15.6957 9.43206 9.78778 13.1677C8.1638 14.2058 6.56215 15.3469 5.02604 16.548C4.64579 16.853 4.26638 17.1573 3.88783 17.4609C3.71464 17.6097 3.57885 17.7495 3.42041 17.8908C3.27416 18.0382 3.15141 18.2063 3.01315 18.3596C2.51094 19.0094 2.16588 19.7697 2.0057 20.5794C1.88633 21.2206 1.88033 21.8783 1.98798 22.5216L2.03387 22.7615C2.04527 22.8422 2.06383 22.9217 2.08932 22.9989L2.23358 23.4649L2.4297 23.9098L2.47844 24.0214L2.54091 24.1253L2.6646 24.334C2.70621 24.4033 2.74475 24.4747 2.78814 24.5429L2.93642 24.7343C3.02864 24.8671 3.13112 24.9923 3.24288 25.1087L3.58147 25.4555L3.96252 25.7572C4.09562 25.8646 4.23563 25.9629 4.38162 26.0514C4.52619 26.1504 4.68006 26.2368 4.83096 26.3273C5.13497 26.5054 5.45124 26.6656 5.77157 26.8196C7.10222 27.4102 8.49216 27.8523 9.9169 28.1381C11.3639 28.4613 12.867 28.658 14.3429 28.9179C15.0851 29.0329 15.8327 29.1139 16.5773 29.2136L17.6952 29.3565C18.0685 29.3985 18.4435 29.4271 18.8175 29.4631L21.0627 29.6676L23.3141 29.7984C23.6894 29.8176 24.064 29.849 24.4398 29.8582L25.5671 29.889C26.3187 29.9049 27.0696 29.9418 27.8214 29.9423C29.3251 29.9391 30.8282 29.9565 32.331 29.9008C41.2719 29.6794 50.2164 28.3522 59.0418 26.6279C62.9771 25.8396 66.9194 25.0606 70.7233 23.9295C72.6195 23.3723 74.4788 22.6931 76.2899 21.8961C76.7343 21.6857 77.1866 21.4897 77.621 21.2608C77.8396 21.149 78.0604 21.041 78.2773 20.9261L78.9212 20.5702C79.1379 20.4547 79.348 20.3287 79.5568 20.2007C79.7638 20.0743 79.9822 19.9469 80.18 19.8215C80.3533 19.707 80.5181 19.5798 80.6732 19.441C80.7529 19.3744 80.8287 19.3032 80.9003 19.2277L81.1076 18.9943C81.6386 18.34 81.955 17.5337 82.0124 16.6881C82.0434 16.2687 82.006 15.8469 81.9015 15.4398C81.8892 15.3891 81.8803 15.3372 81.8656 15.2872L81.8127 15.1399C81.7749 15.0429 81.7505 14.94 81.7042 14.8469L81.568 14.5656C81.5206 14.4728 81.4672 14.3833 81.4083 14.2976C81.2968 14.1207 81.1722 13.9526 81.0356 13.7948C80.8823 13.6291 80.7164 13.4575 80.5518 13.2934C80.2088 12.9673 79.8475 12.6615 79.4697 12.3775C78.6953 11.8028 77.8732 11.2972 77.0128 10.8665C75.2516 9.99868 73.4063 9.31885 71.5068 8.83796C69.5689 8.33374 67.6202 7.87356 65.6605 7.45741C62.5334 6.79882 59.4844 6.20781 56.547 5.70109C55.0788 5.4442 53.6385 5.2101 52.2317 4.98981C50.8259 4.75955 49.4516 4.56275 48.1165 4.37227C46.8879 4.20521 46.3169 4.04041 46.4148 3.91477C46.5121 3.79462 47.2803 3.69767 48.7255 3.72685C52.9486 3.81022 57.1628 4.15166 61.3454 4.74932C63.0892 4.98659 64.8435 5.31381 66.5976 5.67076C68.3513 6.03066 70.1038 6.42895 71.8391 6.85318C71.8515 6.84311 71.8635 6.83403 71.8786 6.82434Z" fill="black"/>
</svg>
