<svg width="619" height="516" viewBox="0 0 619 516" fill="none" xmlns="http://www.w3.org/2000/svg">
<path d="M680.407 196.874C674.104 191.078 667.13 185.892 660.112 181.049C656.223 178.352 652.14 175.968 647.893 173.867C636.33 168.145 623.738 163.093 610.894 160.888C602.758 159.487 594.413 158.325 586.113 158.161C577.843 157.997 569.558 159.279 561.393 160.501C556.699 161.201 552.065 162.289 547.579 163.853C539.727 166.61 531.725 169.724 524.483 173.926C510.744 181.913 498.108 192.761 488.303 205.308C477.992 218.51 469.096 231.936 461.213 246.673C455.089 258.132 449.307 269.755 442.572 280.871C440.635 284.06 438.593 287.174 436.477 290.244C432.678 294.669 428.565 298.782 424.139 302.582C419.893 305.458 415.482 308.08 410.878 310.36C406.884 311.761 402.786 312.878 398.644 313.743C396.498 313.832 394.352 313.832 392.221 313.757C390.731 313.43 389.271 313.012 387.796 312.58C385.814 311.522 383.862 310.375 381.984 309.153C369.334 298.201 358.903 284.939 346.49 273.689C340.306 268.101 333.616 262.99 326.761 258.251C323.349 255.882 319.743 253.885 315.899 252.246C308.657 249.147 301.519 245.943 293.696 244.766C288.332 243.961 281.909 242.903 276.158 242.963C270.227 243.022 264.207 244.036 258.381 245.004C250.379 246.33 242.571 249.758 235.388 253.423C233.57 254.347 231.872 255.42 230.218 256.597C225.286 260.069 220.264 263.72 215.823 267.833C209.833 273.376 204.886 280.349 200.341 287.01C197.704 290.899 195.558 295.072 193.725 299.408C190.462 307.112 187.079 314.815 185.172 322.981C183.235 331.236 182.162 339.819 181.581 348.238C181.253 352.828 181.313 357.447 181.775 362.022C182.713 371.156 183.846 380.305 185.843 389.276C190.909 411.985 200.267 433.532 204.29 456.479C204.707 462.41 204.677 468.341 204.305 474.286C197.048 497.517 189.776 520.762 182.549 544.023C176.947 562.083 172.193 580.962 172.372 599.946C172.581 621.106 178.243 640.954 187.556 659.744C190.536 665.764 194.098 671.471 198.061 676.865C204.469 685.597 211.025 694.24 218.535 702.078C230.739 714.818 244.865 725.636 259.156 735.933C265.563 740.552 272.224 744.918 279.421 748.271C286.037 751.34 292.906 754.246 299.91 756.332C306.943 758.418 314.483 759.104 321.725 759.789C325.122 760.117 328.505 759.983 331.902 759.596C339.099 758.746 346.237 758.165 353.062 755.721C359.424 753.441 366.413 750.864 372.165 746.989C383.355 739.435 388.407 733.996 396.245 723.237C405.141 711.063 407.972 696.043 409.373 681.47C410.118 673.781 409.462 666.092 408.702 658.448C407.316 644.426 407.108 630.538 408.449 616.561C410.55 604.118 413.813 591.915 418.209 580.068C423.573 568.088 430.115 556.689 437.759 546.005C443.421 539.18 449.575 532.787 456.311 527.036C459.172 525.128 462.122 523.37 465.162 521.79C466.876 521.239 468.619 520.777 470.362 520.375C471.361 520.36 472.359 520.405 473.343 520.434C475.995 521.03 478.588 521.746 481.151 522.61C496.827 529.911 511.102 539.895 526.897 546.988C534.645 550.475 542.587 553.857 550.768 556.256C558.681 558.566 567.055 559.43 575.206 560.16C583.655 560.92 592.193 559.475 600.508 558.134C609.359 556.733 617.957 552.904 626.003 549.149C634.258 545.304 641.515 539.269 648.534 533.652C652.78 530.239 656.625 526.365 660.112 522.193C669.946 510.421 678.663 498.008 685.235 484.165C697.886 457.537 706.513 428.942 713.144 400.317C726.153 344.245 734.334 280.811 705.157 228.479C700.94 220.894 695.382 213.936 689.988 207.2C687.023 203.52 683.834 200.063 680.347 196.874L680.407 196.874Z" fill="#FFB700"/>
<mask id="mask0_829_710" style="mask-type:alpha" maskUnits="userSpaceOnUse" x="172" y="158" width="553" height="602">
<path d="M680.41 196.874C674.107 191.078 667.133 185.892 660.115 181.049C656.226 178.352 652.143 175.968 647.896 173.867C636.333 168.145 623.741 163.094 610.897 160.888C602.761 159.488 594.416 158.325 586.116 158.161C577.846 157.997 569.561 159.279 561.396 160.501C556.702 161.201 552.068 162.289 547.582 163.854C539.73 166.61 531.728 169.725 524.486 173.927C510.747 181.914 498.111 192.761 488.306 205.308C477.995 218.51 469.099 231.936 461.216 246.673C455.092 258.132 449.31 269.755 442.575 280.871C440.638 284.06 438.596 287.174 436.48 290.244C432.681 294.669 428.568 298.782 424.142 302.582C419.896 305.458 415.485 308.08 410.881 310.36C406.887 311.761 402.789 312.879 398.647 313.743C396.501 313.832 394.355 313.832 392.225 313.758C390.734 313.43 389.274 313.013 387.799 312.58C385.817 311.523 383.865 310.375 381.988 309.153C369.337 298.201 358.906 284.939 346.493 273.689C340.309 268.101 333.619 262.99 326.764 258.251C323.352 255.882 319.746 253.885 315.902 252.246C308.66 249.147 301.522 245.943 293.699 244.766C288.335 243.961 281.912 242.903 276.161 242.963C270.23 243.023 264.21 244.036 258.384 245.004C250.382 246.331 242.574 249.758 235.391 253.423C233.573 254.347 231.875 255.42 230.221 256.597C225.289 260.069 220.267 263.72 215.826 267.833C209.836 273.376 204.889 280.35 200.344 287.01C197.707 290.9 195.561 295.072 193.728 299.408C190.465 307.112 187.082 314.816 185.175 322.981C183.238 331.237 182.165 339.819 181.584 348.239C181.256 352.828 181.316 357.447 181.778 362.022C182.716 371.156 183.849 380.306 185.846 389.276C190.912 411.985 200.27 433.532 204.293 456.479C204.71 462.41 204.68 468.341 204.308 474.286C197.051 497.517 189.779 520.762 182.552 544.023C176.95 562.083 172.196 580.962 172.375 599.946C172.584 621.106 178.246 640.954 187.559 659.744C190.539 665.764 194.101 671.471 198.064 676.865C204.472 685.597 211.028 694.24 218.538 702.078C230.742 714.818 244.869 725.636 259.159 735.933C265.566 740.552 272.227 744.918 279.424 748.271C286.04 751.341 292.909 754.246 299.913 756.332C306.946 758.419 314.486 759.104 321.728 759.789C325.125 760.117 328.508 759.983 331.905 759.596C339.102 758.746 346.24 758.165 353.065 755.721C359.427 753.442 366.416 750.864 372.168 746.99C383.358 739.435 388.41 733.996 396.248 723.237C405.144 711.063 407.975 696.043 409.376 681.47C410.121 673.781 409.465 666.092 408.705 658.448C407.319 644.426 407.111 630.538 408.452 616.561C410.553 604.119 413.816 591.915 418.212 580.068C423.576 568.088 430.118 556.689 437.762 546.005C443.424 539.18 449.578 532.788 456.314 527.036C459.175 525.128 462.125 523.37 465.165 521.791C466.879 521.239 468.622 520.777 470.365 520.375C471.364 520.36 472.362 520.405 473.346 520.435C475.998 521.031 478.591 521.746 481.154 522.61C496.83 529.912 511.105 539.895 526.9 546.988C534.648 550.475 542.591 553.858 550.771 556.257C558.684 558.566 567.058 559.431 575.209 560.161C583.658 560.921 592.196 559.475 600.511 558.134C609.362 556.733 617.96 552.904 626.006 549.149C634.262 545.304 641.518 539.269 648.537 533.652C652.784 530.239 656.628 526.365 660.115 522.193C669.949 510.421 678.667 498.009 685.238 484.166C697.889 457.537 706.517 428.942 713.147 400.318C726.156 344.245 734.337 280.812 705.161 228.479C700.944 220.895 695.385 213.936 689.991 207.201C687.026 203.52 683.837 200.063 680.35 196.874L680.41 196.874Z" fill="#F3DA41"/>
</mask>
<g mask="url(#mask0_829_710)">
<path d="M633.885 561.722C632.273 557.5 627.168 555.597 623.645 559.016C620.183 562.376 616.75 565.736 613.287 569.095C611.167 571.147 608.839 574.15 606.302 576.231C605.525 575.339 604.749 574.447 603.973 573.585C602.391 571.771 600.779 569.958 599.197 568.144C596.003 564.517 592.809 560.89 589.614 557.262C586.928 554.2 581.942 555.36 579.972 558.511C574.987 566.538 569.972 574.566 564.987 582.593C559.792 577.034 555.464 570.79 552.031 563.863C548.538 556.816 537.941 563 541.434 570.017C546.449 580.096 553.374 589.134 561.822 596.567C564.808 599.213 569.285 598.827 571.464 595.318C576.36 587.469 581.226 579.62 586.122 571.801C588.211 574.179 590.331 576.588 592.42 578.966C595.734 582.742 599.436 588.837 604.928 589.342C610.869 589.907 614.839 584.645 618.66 580.899C620.929 578.699 623.168 576.498 625.437 574.298C627.526 580.304 629.437 586.369 631.168 592.494C633.288 600.046 645.139 596.835 642.989 589.253C640.363 579.918 637.318 570.731 633.855 561.692L633.885 561.722Z" fill="white"/>
<path d="M653.497 485.788C648.214 482.696 643.378 479.158 638.87 475.145C643.318 470.298 647.796 465.423 652.244 460.576C654.691 457.93 654.781 452.727 650.99 450.973C644.124 447.792 638.183 443.511 633.079 438.129C639.497 430.786 646.094 423.65 653.02 416.812C655.826 414.047 655.169 409.201 651.766 407.209C643.766 402.541 635.765 397.873 627.765 393.205C620.929 389.221 614.75 399.776 621.586 403.76C627.347 407.12 633.109 410.479 638.84 413.839C632.541 420.291 626.422 426.891 620.601 433.759C618.272 436.524 618.421 439.616 620.601 442.411C625.437 448.595 631.377 453.827 638.064 457.901C634.034 462.301 629.974 466.701 625.944 471.101C623.705 473.539 623.526 477.315 625.944 479.753C632.303 486.175 639.497 491.735 647.318 496.313C654.154 500.297 660.333 489.743 653.497 485.759L653.497 485.788Z" fill="white"/>
<path d="M623.108 334.1C620.81 337.549 618.541 340.997 616.242 344.476C615.078 346.23 613.944 347.954 612.779 349.709C612.779 349.709 612.779 349.709 612.779 349.679C607.824 343.941 603.824 337.489 600.54 330.681C597.107 323.605 586.54 329.789 589.943 336.835C592.42 341.949 595.286 346.854 598.659 351.433C601.675 355.536 605.346 361.631 610.511 363.147C616.391 364.842 620.302 360.531 623.228 356.131C625.347 352.949 627.467 349.738 629.586 346.527C631.377 348.103 633.168 349.679 634.989 351.225C638.392 354.109 642.154 358.182 647.109 357.022C651.378 356.041 654.184 351.552 656.93 348.49C659.139 346.022 661.319 343.554 663.528 341.086C668.095 345.665 672.662 350.273 677.259 354.852C682.842 360.442 691.499 351.79 685.946 346.2C679.856 340.076 673.737 333.951 667.647 327.826C665.408 325.597 661.169 325.359 658.96 327.826C656.214 330.918 653.467 334.01 650.691 337.103C649.408 338.559 648.094 340.016 646.811 341.473C646.154 342.187 645.527 342.93 644.87 343.643C644.84 343.673 644.781 343.733 644.691 343.822C643.139 342.543 641.527 340.7 640.542 339.838C637.915 337.548 635.347 335.229 632.81 332.851C629.825 330.056 625.377 330.74 623.168 334.1L623.108 334.1Z" fill="white"/>
<path d="M625.048 253.023C618.392 255.996 612.152 259.653 606.242 263.785C605.585 259.712 605.436 255.579 605.824 251.358C606.242 246.779 600.301 243.717 596.6 246.095C592.779 248.563 588.958 251.001 585.137 253.469C583.405 254.598 581.674 255.698 579.942 256.828C579.524 257.096 579.107 257.363 578.659 257.661C578.659 257.631 578.659 257.571 578.659 257.542C578.301 255.312 577.912 253.082 577.554 250.852C576.838 246.571 576.45 242.081 575.375 237.86C574.271 233.4 570.479 229.624 565.554 230.665C561.136 231.586 558.24 235.719 559.494 240.179C560.21 242.736 562.061 244.014 564.091 244.371L564.509 246.809C564.987 249.633 565.464 252.487 565.912 255.312C566.748 260.396 566.599 268.245 571.584 271.248C577.286 274.667 583.107 269.315 587.704 266.372C589.704 265.093 591.674 263.815 593.674 262.537C594.152 267.056 595.137 271.515 596.659 275.797C598.271 280.375 603.257 281.505 606.899 278.502C611.675 274.607 616.809 271.218 622.183 268.215C621.974 271.129 621.556 274.043 620.839 276.956C618.959 284.597 630.81 287.868 632.661 280.197C634.422 273.032 635.019 265.658 634.303 258.315C633.825 253.469 629.526 251.031 625.078 253.052L625.048 253.023ZM563.524 241.041C563.524 241.041 563.524 241.041 563.494 241.041C563.255 240.03 563.255 240.03 563.524 241.041Z" fill="white"/>
<path d="M539.851 192.906C545.195 194.987 550.568 197.098 555.912 199.179C560.449 200.963 565.733 204.026 570.509 201.231C574.659 198.823 575.315 194.155 575.853 189.874C576.211 187.019 576.569 184.165 576.927 181.311C583.525 183.63 590.42 184.492 597.077 180.924C603.286 177.624 605.466 172.094 605.496 166.118C611.048 167.724 616.69 169.091 622.392 170.191C630.093 171.678 633.407 159.904 625.646 158.418C616.72 156.723 608.003 154.374 599.406 151.401C595.018 149.885 590.48 154.642 591.853 158.923C593.077 162.759 595.376 168.467 590.45 170.548C585.375 172.719 579.405 169.418 574.957 167.248C570.449 165.048 566.33 167.813 565.733 172.51C565.255 176.376 564.778 180.211 564.27 184.076C564.151 185.116 564.151 187.406 563.882 189.219C563.225 188.982 562.539 188.714 561.912 188.476C559.822 187.644 557.733 186.841 555.613 186.008C551.434 184.373 547.225 182.738 543.045 181.103C539.971 179.884 536.299 182.441 535.493 185.384C534.538 188.863 536.687 191.687 539.792 192.906L539.851 192.906ZM565.972 190.022C566.3 190.082 566.27 189.963 565.972 190.022V190.022Z" fill="white"/>
<path d="M524.866 461.23C530.717 455.373 536.538 449.487 542.389 443.63C545.434 448.684 549.135 453.233 553.703 457.187C556.18 459.328 559.942 459.684 562.389 457.187C565.733 453.738 569.076 450.289 572.45 446.841C574.151 445.086 575.793 443.243 577.524 441.429C579.644 445.562 581.614 449.843 583.674 453.946C587.226 460.963 597.824 454.779 594.271 447.792C591.913 443.124 589.555 438.456 587.196 433.788C584.928 429.329 582.301 424.929 576.42 426.623C572.181 427.842 568.33 433.551 565.375 436.583C562.897 439.14 560.449 441.667 557.971 444.224C554.628 440.567 551.822 436.405 549.911 431.797C548.21 427.723 543.225 425.523 539.672 429.091C533.553 435.245 527.433 441.37 521.313 447.524C517.671 442.5 514.059 437.475 510.417 432.48C508.477 429.805 505.074 428.496 502.029 430.28C499.372 431.826 497.88 435.959 499.82 438.635C504.984 445.77 510.119 452.876 515.283 460.011C517.552 463.133 521.91 464.263 524.925 461.26L524.866 461.23Z" fill="white"/>
<path d="M505.522 323.575C510.537 326.072 515.552 328.451 520.627 330.829C517.701 332.702 514.865 334.694 512.119 336.835C508.955 339.273 510.238 344.684 513.373 346.438C518.657 349.411 523.493 352.89 527.97 356.844C523.164 359.728 518.328 362.612 513.522 365.496C506.746 369.539 512.925 380.094 519.701 376.05C526.836 371.799 533.971 367.518 541.105 363.266C544.568 361.185 545.075 356.547 542.359 353.663C537.851 348.906 532.836 344.654 527.463 340.908C530.597 338.946 533.851 337.162 537.195 335.586C541.135 333.713 541.284 326.845 537.195 325.032C530.896 322.207 524.627 319.264 518.418 316.261C519.88 314.596 521.373 312.961 522.925 311.385C525.463 308.739 528.179 305.587 531.135 303.149C532.657 303.09 534.179 302.525 535.224 301.425C537.105 299.433 537.672 297.322 537.045 294.617C536.418 291.911 533.762 290.276 531.135 290.127C525.493 289.83 520.269 296.668 516.627 300.295C512.268 304.636 508.179 309.215 504.298 313.972C501.999 316.796 501.701 321.642 505.552 323.575L505.522 323.575Z" fill="white"/>
<path d="M433.31 287.124C438.504 297.055 442.713 307.342 446.027 318.015C448.355 325.507 460.207 322.326 457.848 314.774C455.311 306.598 452.236 298.571 448.684 290.781C451.191 290.93 453.699 291.108 456.206 291.257C461.49 291.584 467.938 292.803 471.162 287.362C473.968 282.635 471.311 276.064 470.297 271.129C469.55 267.561 468.804 263.993 468.058 260.396C470.655 260.336 473.252 260.247 475.849 260.128C480.566 259.92 485.67 259.682 487.969 254.866C489.999 250.644 487.73 245.649 486.596 241.457C485.969 239.168 485.342 236.908 484.715 234.619C490.805 234.56 496.924 234.5 503.014 234.47C510.895 234.411 510.925 222.191 503.014 222.251C494.238 222.34 485.461 222.399 476.685 222.489C472.685 222.518 469.699 226.354 470.774 230.219C471.789 233.905 472.774 237.592 473.789 241.279C474.297 243.122 474.804 244.965 475.312 246.809C475.371 247.047 475.521 247.463 475.7 247.939C473.968 248.028 472.207 248.087 470.476 248.147C467.162 248.266 463.849 248.295 460.535 248.325C456.356 248.355 453.818 252.19 454.624 256.055C455.58 260.693 456.565 265.331 457.52 269.999C457.968 272.199 458.445 274.399 458.893 276.599C459.072 277.491 459.251 278.354 459.43 279.246C459.072 279.246 458.714 279.246 458.386 279.246C456.177 279.097 453.997 278.978 451.788 278.829C447.4 278.562 443.012 278.264 438.594 277.997C433.698 277.7 431.28 283.348 433.31 287.184L433.31 287.124ZM462.475 279.454C462.893 279.454 462.893 279.127 462.475 279.454V279.454Z" fill="white"/>
<path d="M457.012 378.013C459.49 375.813 459.251 371.621 457.012 369.361C454.535 366.923 450.833 367.161 448.326 369.361C441.639 375.277 435.758 381.997 430.564 389.281C428.355 392.403 430.564 397.487 434.236 398.26C441.967 399.835 449.669 401.441 457.401 403.017C453.997 406.376 450.624 409.706 447.221 413.066C441.609 418.596 450.266 427.248 455.908 421.718C461.998 415.712 468.088 409.706 474.177 403.7C477.312 400.608 476.058 394.424 471.461 393.503C463.222 391.808 454.983 390.113 446.743 388.419C449.908 384.732 453.311 381.283 456.983 378.042L457.012 378.013Z" fill="white"/>
<path d="M554.449 509.93C557.524 511.179 561.195 508.592 562.001 505.649C562.957 502.141 560.807 499.376 557.703 498.127C553.046 496.224 548.389 494.351 543.732 492.448C539.732 490.843 535.553 488.672 531.135 489.802C526.657 490.932 524.567 494.41 523.194 498.513C522.328 501.13 521.552 503.776 520.776 506.452C516.448 505.381 512 504.757 507.492 504.608C504.746 504.519 502.357 506.571 501.581 509.098C499.88 514.598 498.805 520.247 498.327 525.955C495.551 525.242 492.775 523.696 490.208 523.161C486.267 522.328 481.819 522.328 478.207 524.38C473.968 526.788 471.938 531.099 471.461 535.767C471.252 537.669 471.401 539.543 471.341 541.475C471.341 541.772 471.013 543.467 470.804 544.508C470.326 544.21 469.879 543.913 469.819 543.883C467.67 542.426 465.55 540.94 463.401 539.513C459.639 536.956 455.102 534.875 450.684 537.283C446.266 539.661 445.639 544.181 445.34 548.729C444.982 554.17 444.684 559.611 444.355 565.052C443.878 572.901 456.147 572.871 456.624 565.052C456.833 561.603 457.042 558.125 457.251 554.676C457.341 553.189 457.43 551.703 457.52 550.216L457.52 549.919C459.192 551.078 460.863 552.565 461.878 553.278C464.684 555.181 467.461 557.262 470.983 557.441C477.342 557.768 481.7 552.386 483.073 546.708C483.76 543.854 483.461 540.999 483.551 538.115C483.64 535.737 483.79 534.696 486.357 534.964C489.372 535.261 492.148 536.837 495.014 537.669C498.626 538.71 502.089 538.918 505.761 538.056C508.388 537.432 510.238 534.786 510.268 532.169C510.328 527.085 510.925 522.209 512.059 517.333C515.88 517.839 519.582 518.76 523.284 520.069C526.448 521.198 529.941 518.76 530.836 515.787C531.791 512.547 532.776 509.306 533.732 506.035C534.06 504.965 534.777 503.36 534.926 502.17C535.194 502.26 535.433 502.319 535.702 502.438C542.031 504.727 548.21 507.492 554.449 510.019L554.449 509.93Z" fill="white"/>
<path d="M668.035 532.853C661.945 529.434 655.766 526.193 649.437 523.161C642.333 519.771 636.959 530.742 644.094 534.161C653.408 538.621 662.483 543.526 671.319 548.878C675.468 551.405 680.245 547.183 680.125 542.962C680.006 538.324 680.065 533.685 680.513 529.047C680.752 526.609 681.051 524.201 681.409 521.793C681.409 521.733 681.498 521.406 681.588 521.05C683.051 521.793 684.693 522.447 686.036 523.161C688.394 524.38 690.723 525.599 693.081 526.818C697.917 529.315 702.753 531.842 707.559 534.34C714.544 537.967 719.918 526.966 712.903 523.339C707.111 520.336 701.32 517.333 695.529 514.33C692.484 512.755 689.469 511.149 686.424 509.603C683.707 508.265 680.782 507.314 677.767 507.908C669.976 509.425 669.408 518.255 668.692 524.617C668.393 527.353 668.214 530.118 668.065 532.883L668.035 532.853Z" fill="white"/>
<path d="M445.818 493.548C447.49 487.513 449.161 481.477 450.833 475.442C451.997 471.19 447.788 466.344 443.281 467.92C437.221 470.031 431.012 471.696 424.743 472.945C424.653 468.336 424.564 463.728 424.474 459.12C424.414 455.225 420.593 452.103 416.712 453.233C410.832 454.957 404.951 456.652 399.1 458.376C399.339 454.065 399.966 449.814 401.19 445.532C402.413 441.132 398.145 436.643 393.637 438.01C388.443 439.586 383.249 441.192 378.024 442.767C379.517 434.294 381.04 425.791 382.532 417.317C383.726 410.509 375.368 406.733 371.308 412.62C370.711 413.482 370.084 414.374 369.487 415.236C367.935 417.496 368.203 419.666 369.397 421.331C367.696 430.845 366.024 440.389 364.322 449.903C363.546 454.244 367.039 458.882 371.875 457.425C377.01 455.849 382.114 454.303 387.249 452.727C386.682 457.276 386.502 461.885 386.831 466.493C387.129 470.358 390.532 473.569 394.592 472.38C400.503 470.655 406.414 468.931 412.324 467.206C412.414 471.517 412.503 475.828 412.563 480.11C412.653 484.48 416.384 486.561 420.325 485.997C425.638 485.253 430.832 484.183 435.997 482.815C435.31 485.283 434.624 487.78 433.937 490.248C431.847 497.83 443.669 501.07 445.758 493.489L445.818 493.548Z" fill="white"/>
<path d="M306.708 369.569C309.843 371.412 313.097 370.015 315.097 367.369C319.604 361.423 324.082 355.476 328.59 349.53C330.023 351.344 331.515 353.098 333.097 354.793C336.471 358.39 340.889 363.742 346.083 364.366C351.934 365.05 355.606 360.412 358.681 356.22C360.233 354.109 361.636 351.879 362.89 349.53C363.337 348.698 363.725 347.836 364.143 346.973C364.949 347.865 365.785 348.757 366.591 349.619C368.77 351.968 370.95 354.347 373.129 356.695C375.368 359.104 379.547 358.955 381.816 356.695C386.861 351.611 392.174 346.854 397.786 342.424C401.01 346.557 404.205 350.69 407.429 354.793C409.459 357.409 413.966 356.933 416.115 354.793C418.713 352.206 418.145 348.757 416.115 346.141C411.817 340.641 407.518 335.111 403.249 329.61C401.757 327.678 397.786 327.202 395.816 328.659C389.488 333.297 383.458 338.262 377.756 343.614C376.592 342.365 375.457 341.116 374.293 339.868C372.203 337.578 370.173 334.813 367.338 333.356C360.979 330.086 356.233 335.081 353.785 340.373C352.501 343.168 351.009 345.844 349.277 348.4C349.128 348.609 347.844 350.155 347.008 351.225C346.799 351.046 346.591 350.868 346.382 350.66C341.695 346.349 337.545 341.533 334.023 336.24C331.276 332.137 326.232 332.524 323.425 336.24C317.127 344.535 310.858 352.86 304.559 361.155C302.559 363.801 304.141 367.993 306.768 369.51L306.708 369.569ZM361.725 344.387L361.666 344.387C361.248 343.911 361.278 343.941 361.725 344.387Z" fill="white"/>
<path d="M358.889 252.666C358.889 260.961 357.666 268.186 354.979 276.183C353.725 279.929 357.069 283.973 360.89 283.913C368.203 283.794 375.517 283.23 382.771 282.338L378.741 288.819C377.069 291.554 378.054 295.657 380.95 297.174C383.935 298.749 387.547 297.887 389.338 294.973C392.95 289.116 396.563 283.289 400.204 277.432C401.488 275.351 401.219 272.497 399.727 270.653C398.115 268.631 395.786 268.007 393.279 268.453C385.249 269.94 377.219 270.921 369.009 271.367C370.412 265.212 371.129 258.939 371.159 252.636C371.159 249.455 368.323 246.393 365.009 246.511C361.696 246.66 358.889 249.187 358.86 252.636L358.889 252.666Z" fill="white"/>
<path d="M404.354 185.681C407.966 187.108 411.578 188.565 415.16 189.992C412.623 191.895 410.085 193.768 407.518 195.671C404.682 197.782 402.921 202.509 406.264 205.274C410.533 208.783 415.041 211.726 419.817 214.253C416.593 216.423 413.309 218.475 409.966 220.437C403.13 224.391 409.309 234.946 416.145 230.992C423.16 226.919 429.758 222.34 436.146 217.375C440.116 214.283 437.251 208.545 433.429 207.177C429.011 205.572 424.802 203.431 420.862 200.904C424.086 198.496 427.34 196.087 430.564 193.679C434.982 190.379 434.206 184.552 429.101 182.5C426.713 181.549 424.295 180.597 421.907 179.616C422.474 179.349 423.041 179.111 423.578 178.843C428.116 176.613 434.743 174.205 436.534 169.002C438.594 162.967 434.086 158.953 429.937 155.355C425.19 151.223 420.444 147.09 415.668 142.987C409.727 137.844 401.01 146.436 406.981 151.639C410.205 154.434 413.459 157.258 416.683 160.053C418.205 161.361 419.727 162.699 421.25 164.007C421.877 164.542 422.474 165.078 423.101 165.613C420.802 166.891 417.608 168.199 416.086 168.913C412.235 170.756 408.294 172.392 404.294 173.878C398.383 176.078 398.622 183.392 404.294 185.652L404.354 185.681Z" fill="white"/>
<path d="M264.259 217.434C267.423 219.278 270.618 217.88 272.647 215.234C274.737 212.529 276.827 209.823 278.887 207.147C279.245 206.701 282.23 203.253 283.812 201.171C284.051 201.379 284.29 201.588 284.528 201.796C286.021 203.134 287.514 204.442 289.036 205.78C291.663 208.099 294.29 210.418 296.917 212.737C299.813 215.294 304.499 215.086 306.559 211.488C309.604 206.136 313.097 201.171 317.067 196.533C319.067 198.555 321.037 200.577 323.037 202.569C326.023 205.542 329.306 207.801 333.694 206.523C337.695 205.363 341.128 201.469 344.232 198.882C346.202 197.277 348.143 195.641 350.113 194.036C352.203 197.396 354.053 200.874 355.665 204.531C356.979 207.564 361.427 208.247 364.054 206.731C367.188 204.918 367.576 201.409 366.263 198.377C363.696 192.549 360.531 187.079 356.74 181.965C354.233 178.605 350.382 178.011 347.098 180.716C341.904 184.998 336.71 189.309 331.515 193.59C331.515 193.59 331.515 193.59 331.485 193.62C330.799 192.579 329.366 191.568 328.56 190.736C326.112 188.268 323.664 185.8 321.216 183.303C318.918 180.984 314.828 180.954 312.53 183.303C307.813 188.149 303.574 193.382 299.843 199.001C297.813 197.217 295.783 195.404 293.753 193.62C290.2 190.468 286.379 186.544 281.125 187.792C276.767 188.833 274.379 193.055 271.841 196.355C268.558 200.606 265.304 204.828 262.02 209.08C259.99 211.696 261.602 215.918 264.229 217.434L264.259 217.434Z" fill="white"/>
<path d="M230.138 311.593C231.512 313.972 232.527 316.529 232.855 319.264C232.974 320.304 232.974 321.464 232.944 322.505C232.944 322.861 232.885 323.248 232.855 323.605C231.721 323.367 230.497 323.069 229.691 322.891C227.183 322.415 224.705 321.88 222.198 321.494C217.093 320.661 212.377 321.94 210.526 327.232C209.033 331.513 208.466 336.33 207.541 340.76C206.496 345.754 205.421 350.719 204.376 355.714C202.764 363.385 214.586 366.655 216.198 358.955C217.242 353.96 218.317 348.995 219.362 344C220.078 340.67 220.496 337.013 221.362 333.594C229.273 334.813 240.049 339.957 243.781 330.562C245.423 326.399 245.632 321.702 244.885 317.153C250.527 318.312 256.199 319.175 261.96 319.65C265.125 319.918 268.289 316.647 268.11 313.526L267.095 298.363C266.946 296.252 265.662 291.376 267.782 290.157C270.02 288.878 274.319 290.573 276.528 291.019C280.857 291.911 285.215 292.387 289.424 290.811C292.648 289.592 294.469 286.797 293.723 283.289C292.977 279.84 292.409 276.391 291.902 272.943C297.245 273.389 302.559 274.132 307.843 275.262C315.545 276.897 318.828 265.123 311.097 263.488C302.469 261.674 293.723 260.604 284.917 260.307C281.812 260.218 278.469 263.191 278.767 266.431C279.185 270.802 279.752 275.143 280.499 279.454C277.812 279.067 275.125 278.175 272.498 277.878C267.961 277.373 263.155 278.056 259.542 280.97C255.304 284.389 254.318 289.562 254.557 294.736C254.766 298.72 255.035 302.674 255.333 306.658C249.154 305.766 243.034 304.398 237.034 302.585C231.84 301.009 227.511 307.044 230.109 311.563L230.138 311.593Z" fill="white"/>
<path d="M282.29 416.663C277.185 416.188 272.14 415.444 267.125 414.463C272.558 410.301 277.812 405.901 282.767 401.173C285.991 398.141 284.588 391.897 280.051 390.976C275.901 390.113 271.722 389.251 267.573 388.359L262.916 387.378C263.692 386.456 264.498 385.535 265.274 384.613C267.812 381.64 270.379 378.637 272.916 375.664C275.663 372.453 275.095 366.418 270.2 365.466C263.423 364.099 256.617 363.058 249.751 362.196C246.467 361.779 243.602 365.288 243.602 368.291C243.602 371.948 246.438 373.969 249.751 374.415C252.169 374.713 254.587 375.099 257.005 375.486C255.93 376.734 254.856 378.013 253.781 379.261C250.497 383.097 244.617 387.824 247.214 393.414C249.542 398.379 256.438 398.527 261.155 399.508C262.498 399.776 263.841 400.073 265.214 400.341C260.199 404.533 254.975 408.457 249.512 412.085C245.214 414.939 245.691 421.807 250.975 423.264C261.214 426.058 271.692 427.902 282.26 428.883C285.573 429.18 288.409 425.85 288.409 422.758C288.409 419.19 285.573 416.961 282.26 416.634L282.29 416.663Z" fill="white"/>
<path d="M298.35 456.592C301.126 463.698 303.902 470.804 306.649 477.939C307.455 479.991 308.709 481.596 310.947 482.221C313.037 482.786 315.395 482.221 316.918 480.645C320.858 476.572 324.62 473.272 328.769 470.239C330.082 477.731 332.411 485.015 335.695 492.002C337.068 494.916 341.486 495.867 344.083 494.202C347.068 492.27 347.755 488.94 346.292 485.848C342.65 478.118 340.262 468.247 339.844 459.714C339.635 455.195 334.769 451.984 330.62 454.452C325.097 457.722 319.873 461.528 315.007 465.72C313.395 461.617 311.813 457.484 310.201 453.381C309.037 450.408 306.022 448.03 302.649 449.1C299.753 450.022 297.126 453.411 298.35 456.622L298.35 456.592Z" fill="white"/>
<path d="M380.293 529.255C379.338 527.145 376.472 520.485 378.86 518.493C380.651 516.977 384.89 518.374 386.89 518.76C390.682 519.474 394.413 520.366 398.115 521.347C405.757 523.369 409.011 511.595 401.369 509.573C392.025 507.076 377.577 501.933 369.785 510.257C366.233 514.063 365.517 518.85 366.114 523.666C363.725 523.042 361.337 522.417 358.919 521.852C353.845 520.693 348.65 521.05 345.187 525.301C342.65 528.393 342.292 532.407 342.202 536.242C342.202 537.788 341.814 539.751 342.053 541.267C342.053 541.326 342.053 541.356 342.053 541.416C341.575 541.148 340.322 540.672 340.023 540.524C338.441 539.721 336.919 538.888 335.307 538.175C331.396 536.48 326.978 535.796 323.067 537.996C315.276 542.397 316.321 552.476 317.694 560.919C310.32 559.403 303.843 554.587 297.753 550.157C295.066 548.194 290.917 549.711 289.365 552.357C287.544 555.449 288.887 558.749 291.574 560.711C301.246 567.787 312.291 574.893 324.858 573.525C327.844 573.198 331.426 570.968 331.008 567.401C330.411 562.406 329.575 557.381 329.217 552.386C329.157 551.554 329.067 550.662 329.157 549.83C329.157 549.681 329.306 549.294 329.396 548.938C329.575 548.997 329.784 549.027 329.844 549.057C336.232 551.167 341.366 556.162 348.382 552.208C354.8 548.581 354.173 541.267 354.561 534.994C354.561 534.577 354.68 533.983 354.74 533.507C355.307 533.864 357.098 534.013 357.755 534.161C362.979 535.499 368.203 536.867 373.397 538.234C378.98 539.691 382.413 533.953 380.323 529.255L380.293 529.255ZM342.023 541.683C341.963 541.951 341.784 541.802 342.023 541.683V541.683Z" fill="white"/>
<path d="M264.229 496.67C260.737 497.146 257.214 497.621 253.721 498.097C254.259 495.778 254.796 493.459 255.333 491.14C256.378 486.71 252.438 482.28 247.781 483.618C243.721 484.807 239.661 485.997 235.601 487.156C233.571 487.751 231.542 488.345 229.541 488.91L230.616 484.391C231.601 480.258 232.586 476.126 233.601 471.963C235.422 464.323 223.601 461.052 221.78 468.723C220.526 473.985 219.272 479.218 217.989 484.48C216.675 489.981 214.377 497.027 220.437 500.624C224.885 503.241 229.959 501.516 234.467 500.208C236.646 499.584 238.855 498.93 241.034 498.305C240.616 500.089 240.199 501.873 239.781 503.627C238.616 508.592 242.736 511.774 247.333 511.149C250.915 510.673 254.468 510.198 258.05 509.722C257.423 513.617 257.065 517.541 257.005 521.496C256.886 529.374 269.155 529.374 269.274 521.496C269.364 515.579 270.2 509.871 271.752 504.192C273.125 499.227 268.647 496.075 264.199 496.67L264.229 496.67ZM228.586 493.013C228.586 493.013 228.825 492.448 228.944 491.943C229.094 492.27 229.034 492.656 228.586 493.013Z" fill="white"/>
<path d="M190.853 180.419C195.988 183.095 201.122 185.8 206.257 188.476C201.809 191.657 197.331 194.809 192.883 197.99C188.943 200.785 188.734 207.98 194.346 209.169C198.794 210.12 203.242 211.042 207.72 211.994C204.675 214.283 201.63 216.542 198.585 218.832C195.092 221.448 194.197 226.948 198.585 229.386C203.929 232.33 209.511 234.827 215.242 236.938C213.004 238.603 210.526 240 207.929 241.16C204.884 242.498 204.197 246.898 205.72 249.514C207.541 252.636 211.063 253.052 214.108 251.714C221.302 248.563 227.094 243.509 231.75 237.265C234.168 234.024 231.542 229.238 228.079 228.286C222.974 226.889 218.078 225.105 213.302 222.994C217.272 220.021 221.243 217.048 225.243 214.075C229.064 211.221 229.452 204.115 223.78 202.896C219.481 201.974 215.183 201.082 210.854 200.161C214.227 197.752 217.631 195.344 221.004 192.936C224.526 190.438 225.422 184.7 221.004 182.381C213.003 178.189 205.033 174.027 197.033 169.835C190.047 166.178 183.838 176.732 190.853 180.389L190.853 180.419Z" fill="white"/>
<path d="M406.951 599.748C402.682 597.905 398.324 596.299 393.906 594.872C397.01 592.91 400.234 591.096 403.518 589.461C407.518 587.469 407.518 580.899 403.518 578.907C396.682 575.488 389.517 572.782 382.084 570.968C378.98 570.195 375.278 571.95 374.532 575.25C373.815 578.401 375.487 581.939 378.831 582.772C381.457 583.426 384.055 584.199 386.622 585.061C382.771 587.558 379.069 590.234 375.517 593.148C371.994 596.002 373.965 602.454 378.233 603.346C382.263 604.208 386.264 605.219 390.174 606.468C392.085 607.062 393.995 607.716 395.906 608.4C396.891 608.757 397.876 609.143 398.861 609.53C399.279 609.678 399.667 609.857 400.085 610.006C400.264 610.095 400.443 610.154 400.652 610.243C400.712 610.243 400.742 610.273 400.801 610.303C402.384 610.987 403.787 611.403 405.518 610.927C406.951 610.541 408.473 609.441 409.19 608.132C410.593 605.516 410.145 601.116 406.981 599.778L406.951 599.748Z" fill="white"/>
<path d="M260.737 563.744C259.811 559.7 257.333 556.43 252.766 556.46C248.796 556.46 245.303 560.206 242.378 562.436C241.064 563.446 239.721 564.665 238.318 565.676C237.631 564.071 236.646 562.584 235.154 561.246C232.228 558.63 228.228 556.995 224.258 557.024C219.541 557.084 215.242 559.225 211.66 562.168C210.138 563.417 208.824 564.874 207.57 566.39C207.242 566.806 207.033 567.074 206.854 567.282C206.735 567.252 206.615 567.193 206.496 567.074C201.481 562.287 197.57 549.859 188.197 554.17C183.779 556.192 182.137 561.633 180.166 565.706C179.122 567.876 178.047 570.077 177.002 572.247C176.435 573.406 175.898 575.101 175.241 576.647C172.166 577.569 169.808 580.572 170.226 584.05C170.883 589.134 176.644 591.661 181.002 589.104C184.764 586.904 186.435 580.809 188.226 577.123C189.391 574.715 190.555 572.306 191.719 569.928C191.928 569.512 192.107 569.066 192.286 568.59C192.316 568.649 192.376 568.739 192.406 568.798C193.45 570.522 194.466 572.187 195.749 573.763C198.048 576.617 201.272 578.639 204.914 579.323C208.675 580.007 212.526 579.085 215.242 576.32C217.66 573.852 219.481 570.285 223.153 569.452C225.243 568.976 226.676 569.749 227.332 571.533C228.049 573.555 227.78 575.279 229.422 577.004C230.586 578.223 232.139 578.907 233.751 579.263C237.422 580.066 241.094 578.609 243.99 576.439C245.691 575.161 247.393 573.852 249.094 572.544C249.303 572.366 249.542 572.217 249.751 572.039C249.781 572.217 249.811 572.366 249.841 572.544C250.288 575.101 250.766 577.628 251.214 580.185C251.781 583.426 255.781 585.269 258.766 584.466C262.199 583.515 263.632 580.215 263.065 576.944C262.289 572.574 261.692 568.085 260.707 563.744L260.737 563.744Z" fill="white"/>
<path d="M189.6 469.555C187.898 464.768 181.987 462.985 177.838 460.933C175.032 459.536 172.226 458.138 169.39 456.741C171.659 454.779 173.898 452.817 176.166 450.854C179.749 447.732 185.689 444.284 185.749 438.962C185.808 433.551 180.973 430.964 176.345 429.864C174.375 429.388 172.375 428.942 170.405 428.496C176.525 422.907 182.644 417.288 188.764 411.698C191.54 409.171 191.003 403.819 187.51 402.095C182.316 399.538 177.719 396.357 173.569 392.313C167.927 386.813 159.24 395.435 164.882 400.965C167.748 403.76 170.853 406.257 174.166 408.458C167.241 414.82 160.285 421.182 153.36 427.545C150.016 430.607 151.658 436.732 156.076 437.743C159.628 438.546 163.181 439.378 166.703 440.181C167.509 440.359 168.345 440.567 169.151 440.746C167.659 442.054 166.166 443.332 164.703 444.64C161.181 447.703 157.658 450.765 154.136 453.827C151.27 456.325 151.986 461.736 155.389 463.431C159.688 465.541 163.957 467.682 168.256 469.793C170.286 470.804 172.315 471.815 174.345 472.826C174.465 472.885 174.584 472.945 174.704 473.004C173.629 473.658 172.554 474.312 171.599 474.966C168.494 477.077 165.39 479.188 162.255 481.269C155.748 485.67 161.897 496.254 168.435 491.824C173.42 488.464 178.435 485.134 183.361 481.715C187.54 478.831 191.51 475.115 189.57 469.555L189.6 469.555Z" fill="white"/>
<path d="M138.314 293.992C144.643 293.041 150.852 291.614 156.942 289.83C155.837 292.357 154.404 294.736 152.613 296.846C148.703 301.455 152.374 308.471 158.584 307.044C162.942 306.033 167.33 305.023 171.689 304.041C169.539 308.561 167.39 313.08 165.241 317.569C163.808 320.542 164.405 324.169 167.45 325.924C170.106 327.47 174.405 326.726 175.838 323.723C179.868 315.25 183.898 306.777 187.928 298.333C190.227 293.517 186.465 288.105 181.002 289.354C177.032 290.276 173.032 291.198 169.062 292.089C170.375 288.462 171.181 284.627 171.45 280.613C171.689 276.897 167.3 273.359 163.688 274.726C157.748 276.956 151.658 278.74 145.479 280.167C147.359 273.924 149.27 267.65 151.15 261.407C153.419 253.855 141.598 250.644 139.329 258.166C136.463 267.591 133.627 277.045 130.762 286.47C129.269 291.376 133.956 294.646 138.314 293.992Z" fill="white"/>
</g>
</svg>
