<svg xmlns="http://www.w3.org/2000/svg" width="121.69" height="101.617" viewBox="0 0 121.69 101.617">
  <path id="noun-sydney-543283" d="M190.093,133.327h-2.544V125.7a2.545,2.545,0,0,0-2.544-2.544H83.251a2.545,2.545,0,0,0-2.544,2.544v7.631H78.163a2.545,2.545,0,0,0-2.544,2.544v10.176a2.545,2.545,0,0,0,2.544,2.544H190.091a2.545,2.545,0,0,0,2.544-2.544V135.871a2.542,2.542,0,0,0-2.542-2.544Zm-33.212-17.07a2.543,2.543,0,0,0,2.437,1.807h24.1a2.539,2.539,0,0,0,2.238-1.338,63.669,63.669,0,0,1,6.415-9.779,2.537,2.537,0,0,0,.295-2.753,2.384,2.384,0,0,0-2.391-1.389A63.638,63.638,0,0,0,157.915,113.4a2.555,2.555,0,0,0-1.032,2.86Zm-27.84-10.913c0,3.226-.158,6.569-.474,9.941a2.541,2.541,0,0,0,2.534,2.778h12.2a2.535,2.535,0,0,0,1.771-.722,68.623,68.623,0,0,1,26.745-16.286,2.537,2.537,0,0,0,1.709-2.91A63.328,63.328,0,0,0,114.3,46.988a2.445,2.445,0,0,0-2.391,1.389,2.547,2.547,0,0,0,.295,2.753c10.7,13.187,16.834,32.942,16.834,54.214Zm-25.86,10.4a2.541,2.541,0,0,0,2.534,2.315h15.136a2.553,2.553,0,0,0,2.534-2.284,102.2,102.2,0,0,0,.57-10.434,98.11,98.11,0,0,0-3.9-27.432,2.542,2.542,0,0,0-1.11-1.445,63.269,63.269,0,0,0-30-9.275,2.428,2.428,0,0,0-2.392,1.389,2.548,2.548,0,0,0,.3,2.753c8.929,11.009,14.728,26.78,16.331,44.415Zm-18.55,2.315H95.463a2.567,2.567,0,0,0,1.893-.84,2.518,2.518,0,0,0,.636-1.969,96.933,96.933,0,0,0-3.149-16.581,2.543,2.543,0,0,0-1.521-1.663,62.305,62.305,0,0,0-19.71-4.233,2.345,2.345,0,0,0-2.391,1.389,2.541,2.541,0,0,0,.295,2.748,69.139,69.139,0,0,1,10.73,19.491,2.547,2.547,0,0,0,2.386,1.658Z" transform="translate(-70.947 -46.974)" fill="#303336"/>
</svg>
