<svg id="Group_26269" data-name="Group 26269" xmlns="http://www.w3.org/2000/svg" xmlns:xlink="http://www.w3.org/1999/xlink" width="73.373" height="112.604" viewBox="0 0 73.373 112.604">
  <defs>
    <clipPath id="clip-path">
      <rect id="Rectangle_434" data-name="Rectangle 434" width="73.373" height="112.604" fill="#303336"/>
    </clipPath>
  </defs>
  <g id="Group_1597" data-name="Group 1597" clip-path="url(#clip-path)">
    <path id="Path_21748" data-name="Path 21748" d="M.5.5h0V112.981h9.741V25.446h4.442c0,4.648,4.805,8.416,10.733,8.416h21.8c1.724,0,3.121,1.1,3.121,2.447s-1.4,2.447-3.121,2.447h-27.3c-2.89,0-5.232,1.837-5.232,4.1s2.343,4.1,5.232,4.1h27.3c1.724,0,3.121,1.1,3.121,2.447s-1.4,2.447-3.121,2.447h-27.3c-2.89,0-5.232,1.837-5.232,4.1s2.343,4.1,5.232,4.1h27.3c1.724,0,3.121,1.1,3.121,2.447s-1.4,2.447-3.121,2.447h-27.3c-2.89,0-5.232,1.837-5.232,4.1s2.343,4.1,5.232,4.1h27.3c1.724,0,3.121,1.1,3.121,2.447s-1.4,2.447-3.121,2.447h-27.3c-2.89,0-5.232,1.837-5.232,4.1s2.343,4.1,5.232,4.1h27.3c1.724,0,3.121,1.1,3.121,2.447s-1.4,2.447-3.121,2.447h-27.3c-2.89,0-5.232,1.837-5.232,4.1s2.343,4.1,5.232,4.1h27.3c1.724,0,3.121,1.1,3.121,2.447s-1.4,2.447-3.121,2.447h-27.4c-2.833,0-5.129,1.8-5.129,4.022v4.708H73.716V57.907C73.716,26.2,40.936.5.5.5" transform="translate(-0.422 -0.438)" fill="#303336"/>
    <path id="Path_21749" data-name="Path 21749" d="M.5.5h0V112.981h9.741V25.446h4.442c0,4.648,4.805,8.416,10.733,8.416h21.8c1.724,0,3.121,1.1,3.121,2.447s-1.4,2.447-3.121,2.447h-27.3c-2.89,0-5.232,1.837-5.232,4.1s2.343,4.1,5.232,4.1h27.3c1.724,0,3.121,1.1,3.121,2.447s-1.4,2.447-3.121,2.447h-27.3c-2.89,0-5.232,1.837-5.232,4.1s2.343,4.1,5.232,4.1h27.3c1.724,0,3.121,1.1,3.121,2.447s-1.4,2.447-3.121,2.447h-27.3c-2.89,0-5.232,1.837-5.232,4.1s2.343,4.1,5.232,4.1h27.3c1.724,0,3.121,1.1,3.121,2.447s-1.4,2.447-3.121,2.447h-27.3c-2.89,0-5.232,1.837-5.232,4.1s2.343,4.1,5.232,4.1h27.3c1.724,0,3.121,1.1,3.121,2.447s-1.4,2.447-3.121,2.447h-27.3c-2.89,0-5.232,1.837-5.232,4.1s2.343,4.1,5.232,4.1h27.3c1.724,0,3.121,1.1,3.121,2.447s-1.4,2.447-3.121,2.447h-27.4c-2.833,0-5.129,1.8-5.129,4.022v4.708H73.716V57.907C73.716,26.2,40.936.5.5.5Z" transform="translate(-0.422 -0.438)" fill="#303336"/>
  </g>
</svg>
