<svg width="197" height="168" viewBox="0 0 197 168" fill="none" xmlns="http://www.w3.org/2000/svg">
<path d="M7.04515 -12.078C4.76562 -10.4567 2.73904 -8.56403 0.977053 -6.38622C-0.180414 -4.95758 0.199924 -2.82841 1.82795 -1.63063C3.45597 -0.432862 5.7142 -0.618959 6.87166 -2.0476C14.4406 -11.3716 26.9045 -12.6958 36.0527 -12.1573C52.1369 -10.6185 67.5467 -3.04129 78.8637 8.61367C77.2114 9.0953 75.7422 9.62282 74.4212 10.1551C74.3878 10.1679 74.3474 10.1856 74.3139 10.1984C68.2376 12.8688 63.4067 17.9558 61.7073 23.4795C60.4037 27.7089 60.9345 32.0097 63.2384 35.919C65.8199 40.4675 70.9403 43.4524 76.8979 43.8495C83.4134 44.2901 89.2487 41.5709 92.1239 36.7521C92.1697 36.6755 92.2096 36.5921 92.2495 36.5086C96.273 28.0992 96.0398 20.3284 91.5689 13.4141C99.5444 13.0035 108.602 14.4652 119.461 17.8376C139.611 25.632 154.141 37.8197 161.38 52.7607C158.48 51.9833 155.422 51.5161 152.197 51.3992C152.107 51.3974 152.016 51.3955 151.932 51.4005C143.2 51.6776 136.839 54.9252 133.545 60.7902C130.189 66.413 129.989 72.5657 133.035 77.6091C138.125 86.5159 149.352 90.1773 159.192 86.1183C159.232 86.1006 159.272 86.0829 159.313 86.0652C167.862 82.1313 172.746 74.4085 172.508 65.7059C180.641 72.195 186.031 81.9117 188.171 91.0899C191.181 104.37 189.296 118.293 182.856 130.249C176.258 142.514 165.348 151.584 152.137 155.784C150.294 156.368 149.435 158.278 150.21 160.05C150.984 161.821 153.106 162.778 154.948 162.194C169.782 157.478 182.012 147.339 189.378 133.656C196.505 120.409 198.587 104.971 195.241 90.1889C192.245 77.3165 183.652 63.5592 170.446 56.3844C163.543 36.9228 146.416 21.145 121.64 11.5874C121.559 11.5571 121.472 11.52 121.384 11.4946C105.828 6.65234 94.6902 6.04259 86.558 7.03803C73.7063 -7.54323 55.3606 -17.0613 36.1369 -18.8769C36.0918 -18.8778 36.0467 -18.8787 36.0026 -18.8914C24.1702 -19.6014 14.3258 -17.2561 7.03824 -12.073L7.04515 -12.078ZM83.6557 35.3446C81.8528 36.6268 79.422 37.2879 76.8478 37.1154C73.5802 36.8966 70.8567 35.3881 69.5427 33.0864C68.1719 30.7701 67.8901 28.3397 68.6698 25.8148C69.8385 22.0005 73.4063 18.2961 77.7536 16.3821C79.7508 15.5891 81.8046 14.954 83.9288 14.4669C84.3853 15.0559 84.8279 15.6547 85.2636 16.2585C88.6086 21.1445 88.7583 26.718 85.6762 33.2361C85.1682 34.0597 84.4767 34.7717 83.6547 35.3564L83.6557 35.3446ZM155.79 79.9404C148.591 82.881 142.085 79.5829 139.364 74.7922C139.341 74.7648 139.331 74.7275 139.302 74.6932C136.797 70.586 138.944 66.0976 139.987 64.365C142.186 60.4455 146.432 58.3727 152.632 58.1564C156.937 58.3309 160.899 59.3003 164.515 60.8675C164.672 61.4048 164.817 61.9403 164.955 62.4806C166.454 69.8241 162.858 76.6636 155.789 79.9522L155.79 79.9404Z" fill="#FFD9D9"/>
<path d="M151.253 156.27C150.679 156.678 150.257 157.264 150.063 157.974C149.598 159.747 150.806 161.651 152.743 162.222C159.712 164.277 166.818 166.103 173.892 167.644C175.867 168.077 177.714 166.951 178.015 165.14C178.323 163.325 176.965 161.506 174.995 161.08C168.118 159.575 161.194 157.807 154.421 155.811C153.264 155.467 152.101 155.677 151.251 156.282L151.253 156.27Z" fill="#FFD9D9"/>
<path d="M154.167 138.643C153.594 139.051 153.172 139.637 152.985 140.342C152.51 142.156 152.359 143.947 152.201 145.678C152.153 146.273 152.092 146.867 152.031 147.46C151.678 150.617 150.906 153.698 149.747 156.625C149.075 158.325 150.043 160.323 151.929 161.094C153.81 161.859 155.874 161.106 156.559 159.409C157.918 155.987 158.822 152.383 159.23 148.692C159.301 148.058 159.36 147.41 159.413 146.768C159.548 145.219 159.675 143.752 160.022 142.426C160.488 140.653 159.28 138.75 157.342 138.179C156.185 137.835 155.023 138.046 154.173 138.65L154.167 138.643Z" fill="#FFD9D9"/>
</svg>
