<svg width="354" height="451" viewBox="0 0 354 451" fill="none" xmlns="http://www.w3.org/2000/svg">
<path d="M164.838 140.074C167.22 143.651 169.933 146.992 172.835 150.155C179.989 157.975 187.831 165.306 196.374 171.554C204.847 177.749 213.996 182.94 223.164 188.002C237.458 195.896 252.426 202.685 267.566 208.743C300.112 221.784 407.653 249.293 421.697 250.885C452.378 254.364 484.311 246.539 508.367 226.65C529.592 209.107 544.303 184.332 553.13 158.385C555.764 150.637 557.819 142.719 559.835 134.795C561.36 128.806 562.718 122.715 563.014 116.523C563.562 105.143 562.673 94.5605 558.338 83.8795C554.144 73.5688 547.703 66.0622 539.817 58.5988C533.538 52.6566 525.701 48.2481 517.952 44.6332C509.973 40.9127 501.237 38.6865 492.68 36.9136C480.092 34.307 467.198 33.609 454.651 30.8453C451.144 29.7097 447.731 28.3465 444.432 26.7275C441.287 24.6832 438.286 22.4167 435.459 19.949C432.704 16.9292 430.185 13.7117 427.917 10.307C426.281 7.08901 424.871 3.7756 423.711 0.350922C423.27 -1.75307 422.864 -3.87472 422.483 -5.99991C421.388 -12.1303 419.929 -18.1583 418.074 -24.1295C415.17 -33.4532 409.542 -41.4541 402.669 -48.1932C396.222 -54.5145 388.793 -59.5865 380.283 -62.7899C372.921 -65.5531 364.822 -67.5679 356.914 -67.7203C351.891 -67.8197 346.768 -67.993 341.769 -67.3146C336.484 -66.5954 331.186 -65.0048 326.148 -63.4515C317.474 -60.7724 309.258 -55.6896 301.947 -50.4591C294.555 -45.1792 288.211 -38.487 282.073 -31.8497C277.3 -26.693 272.976 -21.1344 268.86 -15.4419C260.615 -4.0674 253.001 7.83407 243.631 18.3237C240.111 21.663 236.362 24.7201 232.362 27.4476C224.802 31.4665 216.783 34.4926 208.576 36.9156C205.895 37.5768 203.213 38.2257 200.537 38.924C193.982 40.6317 187.13 42.1173 181.165 45.4791C173.345 49.888 166.59 54.5096 161.241 61.979C156.848 68.1144 154.246 74.2453 152.369 81.381C150.433 88.8026 150.007 95.0627 150.391 102.92C150.475 104.735 150.734 106.538 151.115 108.31C152.093 112.832 153.282 117.424 154.88 121.782C157.247 128.247 161.083 134.4 164.851 140.072L164.838 140.074Z" fill="#F74E2D"/>
<mask id="mask0_649_2040" style="mask-type:alpha" maskUnits="userSpaceOnUse" x="150" y="-68" width="414" height="320">
<path d="M164.838 140.075C167.22 143.653 169.933 146.994 172.835 150.156C179.989 157.977 187.831 165.308 196.374 171.555C204.847 177.75 213.996 182.941 223.164 188.003C237.458 195.897 252.426 202.686 267.566 208.745C300.112 221.785 407.653 249.294 421.697 250.886C452.378 254.366 484.311 246.54 508.367 226.652C529.592 209.108 544.303 184.334 553.13 158.386C555.764 150.638 557.819 142.721 559.835 134.797C561.36 128.807 562.718 122.716 563.014 116.525C563.562 105.144 562.673 94.5619 558.338 83.881C554.144 73.5703 547.703 66.0637 539.817 58.6002C533.538 52.658 525.701 48.2495 517.952 44.6347C509.973 40.9141 501.237 38.688 492.68 36.9151C480.092 34.3084 467.198 33.6104 454.651 30.8468C451.144 29.7112 447.731 28.348 444.432 26.7289C441.287 24.6847 438.286 22.4182 435.459 19.9505C432.704 16.9307 430.185 13.7131 427.917 10.3085C426.281 7.09048 424.871 3.77707 423.711 0.352387C423.27 -1.7516 422.864 -3.87326 422.483 -5.99844C421.388 -12.1289 419.929 -18.1568 418.074 -24.128C415.17 -33.4517 409.542 -41.4527 402.669 -48.1918C396.222 -54.5131 388.793 -59.585 380.283 -62.7885C372.921 -65.5516 364.822 -67.5665 356.914 -67.7188C351.891 -67.8182 346.768 -67.9916 341.769 -67.3131C336.484 -66.5939 331.186 -65.0034 326.148 -63.45C317.474 -60.771 309.258 -55.6881 301.947 -50.4576C294.555 -45.1777 288.211 -38.4855 282.073 -31.8482C277.3 -26.6915 272.976 -21.1329 268.86 -15.4404C260.615 -4.06593 253.001 7.83554 243.631 18.3252C240.111 21.6644 236.362 24.7216 232.362 27.449C224.802 31.4679 216.783 34.494 208.576 36.9171C205.895 37.5783 203.213 38.2272 200.537 38.9255C193.982 40.6332 187.13 42.1188 181.165 45.4806C173.345 49.8894 166.59 54.5111 161.241 61.9805C156.848 68.1159 154.246 74.2467 152.369 81.3825C150.433 88.8041 150.007 95.0641 150.391 102.922C150.475 104.737 150.734 106.539 151.115 108.312C152.093 112.833 153.282 117.426 154.88 121.783C157.247 128.248 161.083 134.402 164.851 140.074L164.838 140.075Z" fill="#376ADA"/>
</mask>
<g mask="url(#mask0_649_2040)">
<path d="M399.957 86.5468C396.849 82.5127 390.733 87.2982 393.851 91.3454C399.533 98.7332 399.97 109.692 394.478 117.12C389.162 124.324 378.967 127.193 370.491 124.118C365.734 122.396 362.907 129.676 367.687 131.402C379.489 135.673 393.393 131.899 400.816 121.832C408.36 111.628 407.752 96.6763 399.947 86.5337L399.957 86.5468Z" fill="black"/>
<path d="M374.08 168.158C374.083 168.347 374.076 168.522 374.102 168.713C374.153 169.096 374.241 169.471 374.352 169.85C374.438 171.412 374.82 172.954 375.517 174.395C375.975 175.348 376.707 176.148 377.706 176.548C378.582 176.897 379.797 176.937 380.649 176.542C381.254 176.257 381.803 175.847 382.214 175.313C383.916 175.181 385.571 174.515 386.803 173.336C387.836 172.354 388.708 171.246 389.12 169.843C389.622 168.157 389.728 166.233 388.935 164.591C387.489 161.642 384.474 160.287 381.331 160.513C380.055 160.605 378.857 161.06 377.83 161.761C377.374 161.972 376.925 162.219 376.542 162.498C375.97 162.906 375.452 163.461 375.093 164.061C374.791 164.573 374.581 165.098 374.394 165.626C374.099 166.281 373.961 167.003 374.047 167.719C374.047 167.825 374.057 167.944 374.057 168.05C374.055 168.073 374.062 168.109 374.06 168.132L374.08 168.158Z" fill="black"/>
<path d="M453.258 137.576C448.045 134.032 441.552 131.261 435.273 132.83C426.15 135.111 423.489 144.504 422.137 152.763C421.32 157.744 429.098 158.743 429.925 153.775C431.002 147.278 433.191 138.657 441.52 140.515C448.374 142.028 452.837 148.024 458.884 151.124C462.19 152.823 465.849 153.334 469.371 152.217C473.611 150.853 476.103 147.053 479.821 144.893C486.169 141.195 494.819 143.118 497.784 150.376C499.714 155.103 506.91 152.114 504.978 147.41C502.123 140.425 495.243 135.525 487.755 135.186C484.094 135.016 480.379 135.755 477.126 137.423C473.7 139.163 471.351 142.089 468.141 144.104C462.916 147.384 457.258 140.316 453.266 137.612L453.258 137.576Z" fill="black"/>
<path d="M427.416 75.7825C429.728 84.2948 435.083 91.7695 442.026 97.1713C459.28 110.598 482.886 107.709 501.374 99.6558C505.966 97.6562 502.875 90.3701 498.283 92.3698C485.58 97.9087 470.648 101.114 456.966 96.4576C445.228 92.4535 434.95 81.6723 434.162 68.8936C433.724 61.7878 437.054 54.1965 441.254 48.7156C443.4 45.9282 446.104 43.507 449.49 42.3492C452.79 41.2157 456.429 41.7003 459.722 42.7743C467.278 45.26 474.969 49.502 480.705 55.1112C483.352 57.6874 486.082 60.4739 484.532 64.2317C483.264 67.3446 481.008 69.9649 478.35 71.9691C472.741 76.1862 462.712 78.1841 457.23 72.2907C455.217 70.126 454.284 66.2453 456.171 63.7885C457.648 61.8658 461.433 61.8759 462.467 64.3012C464.485 68.9807 471.678 66.0152 469.661 61.3357C465.567 51.8751 451.711 52.8588 448.236 61.9819C444.466 71.8656 452.422 81.0644 461.785 83.2093C471.456 85.4295 481.591 81.1897 487.81 73.8682C490.813 70.3228 493.504 65.3506 492.865 60.4978C492.174 55.1566 487.602 50.7914 483.727 47.4447C479.575 43.8505 474.786 41.0313 469.893 38.6332C465.51 36.4894 460.805 34.5151 455.939 34.0003C445.162 32.8817 436.727 39.8918 431.796 48.8257C427.246 57.0574 424.883 66.4072 427.414 75.8057L427.416 75.7825Z" fill="black"/>
<path d="M391.195 17.4686C391.195 17.4686 391.144 17.5089 391.141 17.5321C391.167 17.512 391.193 17.4918 391.208 17.4585L391.195 17.4686Z" fill="black"/>
<path d="M386.385 11.1104C380.565 16.5101 380.949 25.6061 386.875 30.9814C387.098 31.1867 387.363 31.3386 387.643 31.4572C391.506 35.9771 397.983 37.4062 403.522 35.8469C409.11 34.2704 413.018 29.1039 413.074 23.2606C413.124 17.4636 410.302 11.8925 405.09 9.08868C399.459 6.04252 391.056 6.78326 386.395 11.1235L386.385 11.1104ZM396.932 28.4115C397.276 28.4797 397.137 28.4617 396.932 28.4115V28.4115ZM405.281 22.7178C405.281 22.7178 405.278 22.5295 405.275 22.4469C405.286 22.5657 405.296 22.6846 405.281 22.7178ZM402.99 17.0042C402.872 16.9066 402.733 16.7828 402.756 16.7859C402.782 16.7657 402.897 16.8864 402.99 17.0042ZM394.259 15.6111C394.357 15.5768 394.598 15.5142 394.695 15.4799C394.947 15.4303 395.188 15.3677 395.427 15.3282C397.493 14.9741 399.424 15.1076 401.284 15.8897C401.464 15.96 401.639 16.0767 401.818 16.1471C401.818 16.1471 401.818 16.1471 401.829 16.1601C402.186 16.4298 402.543 16.6994 402.9 16.969C402.931 17.0083 402.964 17.0244 402.998 17.0404C403.08 17.1451 403.152 17.2367 403.183 17.276C403.504 17.6584 403.789 18.048 404.072 18.4607C404.147 18.6348 404.258 18.8019 404.332 18.9761C404.502 19.3506 404.672 19.7251 404.806 20.1067C404.842 20.2054 404.898 20.3302 404.945 20.442C404.952 20.4782 404.95 20.5014 404.955 20.5608C405.048 21.1016 405.167 21.6221 405.211 22.18C405.211 22.18 405.221 22.2989 405.244 22.4076C405.242 22.5366 405.24 22.6655 405.237 22.7944C405.217 23.1912 405.184 23.5981 405.118 23.9889C405.107 24.0816 405.092 24.2205 405.067 24.3465C405.041 24.3666 405.038 24.3898 405.021 24.4462C404.957 24.6024 404.824 25.1725 404.662 25.5744C404.662 25.5744 404.611 25.6148 404.526 25.7447C404.372 25.9715 404.231 26.1881 404.078 26.4148C403.967 26.565 403.847 26.7021 403.737 26.8522C403.39 27.1244 403.044 27.3966 402.698 27.6688C402.659 27.699 402.659 27.699 402.633 27.7192C402.621 27.7293 402.621 27.7293 402.595 27.7494C402.336 27.8685 402.074 28.0107 401.804 28.1166C401.62 28.1983 401.437 28.2569 401.255 28.3154C401.158 28.3498 401.037 28.3811 400.94 28.4154C400.403 28.4984 399.887 28.6076 399.332 28.6412C399.132 28.6505 398.932 28.6597 398.732 28.6689C399.697 28.6299 398.606 28.6408 398.385 28.6238C397.874 28.5809 397.381 28.4816 396.875 28.3924C396.819 28.3733 396.749 28.3643 396.716 28.3482C396.387 28.2467 396.061 28.1221 395.724 27.9844C395.545 27.914 395.367 27.8205 395.177 27.7371C395.134 27.7079 395.121 27.718 395.087 27.7019C395.067 27.6757 395.067 27.6757 395.034 27.6597C394.741 27.4454 394.196 27.1749 393.857 26.8488C393.826 26.8096 393.798 26.7472 393.746 26.6817C393.499 26.3677 393.24 26.0638 392.996 25.7266C392.569 25.1307 391.947 24.7092 391.259 24.467C391.156 24.3362 391.043 24.1922 390.94 24.0614C390.93 24.0483 390.798 23.855 390.708 23.7141C390.631 23.5631 390.544 23.399 390.534 23.386C390.449 23.1987 390.188 22.366 390.147 22.3137C390.075 21.9048 390.013 21.5091 389.941 21.1003C389.925 21.0278 389.928 21.0046 389.92 20.9683C389.923 20.9452 389.925 20.922 389.93 20.8757C389.953 20.6672 389.94 20.4658 389.973 20.2704C390.001 20.0155 390.052 19.7637 390.08 19.5089C390.093 19.4988 390.093 19.4988 390.098 19.4525C390.167 19.25 390.224 19.0576 390.29 18.8783C390.29 18.8783 390.339 18.7554 390.388 18.6325C390.457 18.5357 390.677 18.1297 390.68 18.1065C390.818 17.9131 390.98 17.7226 391.118 17.5291C391.008 17.6793 391.067 17.5694 391.172 17.4656C391.223 17.4253 391.254 17.3588 391.282 17.3155C391.229 17.3789 391.2 17.4223 391.172 17.4656C391.239 17.392 391.308 17.2953 391.372 17.2449C391.58 17.0604 391.788 16.876 392.016 16.7177C392.196 16.5766 392.383 16.4717 392.563 16.3305C392.614 16.2902 392.627 16.2801 392.652 16.26C392.691 16.2297 392.737 16.2357 392.812 16.1984C393.289 16.0137 393.735 15.7898 394.223 15.6182L394.259 15.6111Z" fill="black"/>
<path d="M330.741 108.814C327.775 110.637 325.908 113.437 324.856 116.719C320.429 113.277 320.363 106.09 321.786 101.247C323.546 95.2494 327.28 90.072 332.203 86.3297C334.479 84.6048 337.158 83.0497 340.004 81.9981C340.478 83.3402 341.139 84.6832 342.031 85.9504C344.522 89.5167 348.797 91.7874 353.113 91.4437C358.234 91.0167 361.624 86.617 360.672 81.5237C359.438 74.9371 353.975 72.8174 348.118 72.7847C349.395 70.7655 351.455 69.083 353.683 68.1154C360.756 65.0755 368.876 67.3291 376.065 69.1091C378.129 69.6242 380.174 67.6577 380.388 65.7118C380.642 63.3952 378.987 61.8173 376.922 61.3023C366.986 58.8245 356.45 56.9031 347.343 62.5571C343.043 65.2172 340.212 69.4312 339.369 74.0091C338.209 74.3283 337.126 74.6927 336.169 75.0852C327.335 78.5777 320.053 85.5496 316.058 94.1706C312.297 102.27 311.533 113.601 317.959 120.827C319.627 122.712 321.6 124.061 323.743 124.939C323.756 130.368 324.981 135.967 326.482 140.121C330.284 150.636 339.315 159.117 350.475 160.697C355.495 161.408 356.34 153.611 351.333 152.89C338.511 151.071 331.964 138.014 331.749 126.097C335.664 125.772 339.53 124.195 342.634 121.649C346.679 118.321 348.102 113.055 343.52 109.206C339.894 106.15 334.572 106.48 330.777 108.807L330.741 108.814ZM352.946 83.4685C352.64 83.8987 351.215 83.5373 350.753 83.3715C349.818 83.0267 349.101 82.4049 348.484 81.6199C348.196 81.2535 347.954 80.8931 347.749 80.5257C348.123 80.5274 348.501 80.506 348.873 80.5308C349.687 80.5896 354.287 81.6103 352.956 83.4815L352.946 83.4685ZM337.302 114.812C337.453 114.82 337.69 114.909 337.916 114.986C337.287 115.48 336.513 116.342 336.097 116.606C335.13 117.197 334.003 117.637 332.879 117.95C333.291 117.075 333.822 116.298 334.576 115.727C335.305 115.175 336.347 114.758 337.289 114.822L337.302 114.812Z" fill="black"/>
<path d="M281.773 40.6431C281.562 42.5658 283.11 45.0109 285.238 45.0526C299.801 45.3121 314.364 44.9372 328.867 43.8261C332.625 43.5392 332.895 38.9455 330.59 36.778C327.211 33.6132 324.293 29.9798 321.891 26.0257C323.244 26.0841 324.813 26.4173 325.545 26.4771C328.457 26.7498 331.382 27.0124 334.293 27.285C339.978 27.8124 345.64 28.3367 351.325 28.864C356.338 29.3274 357.218 21.5236 352.183 21.0572C346.498 20.5299 340.836 20.0056 335.151 19.4782C332.401 19.2266 329.641 18.9618 326.878 18.7203C324.243 18.4836 321.416 17.9753 318.79 18.4094C316.415 18.7939 314.059 20.0738 313.004 22.3215C311.733 25.0346 313.782 27.6152 315.178 29.9466C316.575 32.278 318.153 34.4451 319.847 36.5215C308.618 37.1768 297.349 37.4394 286.073 37.2427C283.967 37.2041 281.999 38.3699 281.75 40.6401L281.773 40.6431Z" fill="black"/>
<path d="M286.875 95.2418C287.113 94.8851 287.269 94.5294 287.379 94.1678C288.244 93.9748 289.058 93.5048 289.681 92.7399C290.26 92.0516 290.85 91.3764 291.45 90.7143C291.584 90.5671 291.73 90.4099 291.863 90.2628C291.863 90.2628 291.876 90.2527 291.889 90.2426C292.246 89.8777 292.6 89.5361 292.966 89.1843C294.313 87.9143 295.721 86.7228 297.192 85.6098C299.644 83.7668 298.786 80.0603 296.153 78.8488C295.762 78.6688 295.29 78.4899 294.907 78.2405C294.876 78.2012 294.83 78.1952 294.776 78.153C294.568 78.0202 294.347 77.8975 294.141 77.7415C293.311 77.1873 292.499 76.5766 291.754 75.8923C291.734 75.8662 291.5 75.6478 291.382 75.5502C291.33 75.4848 291.266 75.4294 291.202 75.3741C290.898 75.041 290.595 74.7079 290.294 74.3516C289.986 73.959 289.667 73.5534 289.371 73.1508C289.217 72.9546 289.089 72.7381 288.947 72.5318C288.816 72.3385 288.332 71.512 288.855 72.414C288.183 71.2694 287.487 70.4623 286.164 70.1259C285.047 69.8398 283.673 69.9667 282.799 70.7812C279.092 74.2234 275.409 77.6685 271.702 81.1107C269.719 82.9442 269.855 85.5465 271.847 87.3678C275.023 90.2477 278.176 93.1246 281.353 96.0045C282.887 97.4021 285.736 96.8561 286.818 95.2227L286.875 95.2418Z" fill="black"/>
<path d="M429.592 -8.79163C430.084 -1.74928 431.699 5.2157 434.278 11.8244C435.284 14.3988 438.291 14.7661 440.323 13.4441C441.547 12.6516 442.781 11.8721 444.036 11.1188C444.375 10.9161 444.726 10.7034 445.065 10.5007C445.191 10.423 445.278 10.3756 445.329 10.3353C445.381 10.295 445.442 10.2677 445.53 10.2203C446.156 9.85527 446.805 9.49321 447.441 9.14123C450.051 7.68291 452.71 6.31319 455.407 5.01895C456.533 4.47222 457.4 3.41003 457.697 2.20328C457.863 1.96648 458.009 1.7035 458.102 1.39827C458.765 -0.583243 457.897 -2.92812 455.84 -3.72414C448.715 -6.50627 441.715 -9.57756 434.854 -12.948C433.631 -13.5534 432.024 -13.2218 430.998 -12.4153C429.856 -11.5181 429.467 -10.2176 429.569 -8.79462L429.592 -8.79163Z" fill="black"/>
<path d="M341.639 -14.4061C342.288 -11.9956 343.478 -8.95102 342.872 -6.42169C342.365 -4.37283 342.978 -2.16671 345.133 -1.29925C346.919 -0.585599 349.68 -1.40148 350.189 -3.47352C351.409 -8.49594 349.941 -12.634 348.84 -17.5469C348.453 -19.2537 347.899 -21.5695 348.848 -23.1615C349.555 -24.3737 350.394 -24.758 351.402 -23.6872C354.64 -20.2001 355.128 -15.1438 357.876 -11.3561C360.784 -7.31285 366.626 -6.18945 369.724 -10.5919C371.139 -12.5932 371.383 -15.1343 371.599 -17.5264C371.825 -20.1168 372.408 -22.5434 373.497 -24.8808C374.081 -26.1442 375.018 -28.2779 376.414 -28.8249C376.44 -28.845 376.863 -29.1778 376.94 -29.1325C377.205 -28.9806 377.446 -27.0109 377.557 -26.5266C378.82 -21.2754 381.678 -15.9229 387.52 -15.011C392.486 -14.2363 396.419 -17.4964 397.385 -22.2346C397.837 -24.4315 396.591 -30.4792 399.33 -31.1924C401.707 -31.8116 403.789 -29.5321 404.879 -27.7222C405.615 -26.5223 406.137 -25.1973 406.665 -23.9187C406.886 -23.373 408.01 -21.2297 407.877 -20.6596C407.371 -18.6107 407.984 -16.4046 410.139 -15.5372C411.924 -14.8235 414.686 -15.6394 415.195 -17.7115C416.491 -23.0058 413.37 -29.8024 409.992 -33.9421C406.427 -38.294 400.188 -40.7143 395.012 -37.98C390.36 -35.5301 390.059 -30.6584 389.881 -25.947C389.841 -24.9419 390.033 -22.955 388.873 -22.7416C386.719 -22.3401 385.629 -26.1824 385.286 -27.5427C384.531 -30.4839 384.015 -33.4646 381.417 -35.4234C379.287 -37.0513 376.635 -37.3372 374.176 -36.5054C369.33 -34.856 366.483 -29.5282 365.049 -24.9095C364.228 -22.2319 364.046 -19.6122 363.65 -16.8675C363.403 -17.2873 363.187 -17.6678 363.162 -17.7534C360.997 -22.6987 358.855 -29.4386 353.368 -31.6671C347.412 -34.0977 341.63 -29.0455 340.716 -23.2902C340.236 -20.3098 340.858 -17.3271 341.641 -14.4293L341.639 -14.4061Z" fill="black"/>
<path d="M313.635 -14.7912C312.399 -14.9635 311.162 -14.7953 310.002 -14.3704C309.661 -14.2503 309.337 -14.0808 309.011 -13.8882C309.011 -13.8882 309.011 -13.8882 308.999 -13.8781C308.488 -13.6038 307.941 -13.3224 307.5 -12.9333C306.641 -12.1521 305.871 -11.23 305.523 -10.0887C304.932 -8.22705 304.955 -6.08595 305.919 -4.30409C306.454 -3.30645 306.961 -2.5828 307.755 -1.80995C308.549 -1.0371 309.281 -0.554223 310.278 -0.025268C311.021 0.364899 311.886 0.594853 312.695 0.699966C313.722 0.845199 314.728 0.752775 315.706 0.492191C317.685 -0.0260128 319.435 -1.23187 320.584 -2.93882C321.632 -4.48254 322.36 -6.40872 322.371 -8.32224C322.378 -8.92048 322.375 -9.53178 322.299 -10.1289C322.217 -10.7623 322.006 -11.4007 321.825 -11.9998C321.562 -12.9151 320.478 -13.8196 319.636 -14.1523C318.76 -14.5011 317.545 -14.5415 316.693 -14.147C316.544 -14.0724 316.383 -13.9877 316.231 -13.8898C315.402 -14.3384 314.5 -14.667 313.635 -14.7912Z" fill="black"/>
<path d="M262.961 59.1101C267.723 60.7862 270.573 53.5086 265.765 51.8264C259.603 49.6629 252.188 43.765 252.471 36.4945C252.713 30.1233 260.164 26.7446 265.454 25.5289C272.97 23.7918 281.612 23.6462 288.067 18.9752C290.895 16.9225 292.912 13.6014 292.341 9.94402C291.708 5.99662 288.406 2.7714 285.663 0.100666C279.131 -6.2582 271.059 -10.4556 262.269 -12.4791C257.33 -13.6143 256.519 -5.80145 261.411 -4.67227C268.509 -3.03318 275.273 0.688854 280.508 5.84523C281.778 7.09104 283.307 8.53508 284.179 10.0934C284.876 11.3236 284.476 11.765 283.439 12.5584C280.741 14.616 276.921 15.3532 273.65 15.9972C266.37 17.4008 259.105 18.2424 252.85 22.4812C246.938 26.4709 243.32 33.3785 245.145 40.6646C247.33 49.3603 254.696 56.2503 262.969 59.1463L262.961 59.1101Z" fill="black"/>
<path d="M447.361 190.193C441.704 184.183 433.159 180.887 425.392 178.715C417.739 176.581 409.446 176.114 402.399 180.086C395.953 183.712 391.5 190.535 392.94 198.229C394.205 204.961 399.51 210.972 406.664 210.938C411.377 210.916 415.285 207.888 416.556 203.354C417.892 198.558 416.259 193.893 414.309 189.458C412.255 184.785 405.059 187.774 407.115 192.423C408.211 194.927 411.807 203.912 405.819 203.051C402.565 202.581 400.615 198.992 400.484 195.708C400.31 191.104 404.081 187.717 408.018 186.126C412.958 184.148 418.517 184.753 423.556 186.254C426.7 187.191 429.767 188.4 432.777 189.696C435.821 191.008 438.939 192.494 441.248 194.956C442.718 196.509 444.99 197.051 446.748 195.67C448.287 194.461 448.834 191.724 447.353 190.157L447.361 190.193Z" fill="black"/>
<path d="M324.537 175.219C316.627 170.831 309.214 165.227 302.794 158.8C301.653 157.665 300.312 156.962 298.68 157.42C297.24 157.832 295.952 159.098 295.849 160.682C295.28 170.018 293.782 179.281 291.285 188.249C290.722 190.279 291.425 192.52 293.547 193.372C294.906 193.913 296.7 193.582 297.788 192.537C299.098 193.2 300.679 192.995 301.978 192.165C308.61 187.904 316.045 184.665 323.713 182.724C327.63 181.741 328.097 177.162 324.542 175.172L324.537 175.219ZM302.931 169.403C306.4 172.392 310.036 175.143 313.835 177.681C309.195 179.381 304.735 181.468 300.432 183.94C301.51 179.134 302.348 174.285 302.931 169.403Z" fill="black"/>
<path d="M505.896 177.464C504.464 175.986 502.106 175.256 500.395 176.749C497.802 179.02 495.229 181.317 492.676 183.641C491.427 184.771 490.175 185.924 488.936 187.067C487.436 188.458 485.817 189.857 485.622 192.064C485.396 194.654 487.123 196.324 488.934 197.863C490.276 198.989 491.604 200.125 492.935 201.238C495.713 203.584 498.491 205.931 501.269 208.277C502.266 209.123 503.74 209.256 504.984 208.807C505.901 208.891 506.815 208.681 507.543 208.024C511.45 204.466 515.367 200.922 519.274 197.365C520.706 196.071 521.46 193.467 519.88 191.852C515.215 187.051 510.573 182.254 505.908 177.454L505.896 177.464ZM498.802 196.056C497.633 195.07 496.453 194.071 495.284 193.085C495.081 192.905 494.865 192.736 494.662 192.557L495.327 191.95C496.422 190.941 497.517 189.933 498.623 188.937C499.977 187.703 501.34 186.505 502.715 185.298C505.547 188.215 508.379 191.133 511.211 194.05C508.841 196.209 506.448 198.365 504.078 200.524C502.33 199.04 500.57 197.566 498.812 196.069L498.802 196.056Z" fill="black"/>
<path d="M387.091 220.965C386.891 212.974 381.562 206.854 375.119 202.668C369.299 198.881 362.726 195.877 355.819 195.167C341.123 193.657 326.786 203.718 322.82 217.841C322.258 219.871 322.961 222.112 325.082 222.963C326.911 223.706 329.573 222.842 330.138 220.789C332.392 212.753 338.371 206.551 346.245 203.897C354.79 201.013 364.013 204.538 371.259 209.427C375.264 212.121 379.011 215.674 379.319 220.766C379.559 224.768 377.535 228.581 374.104 230.579C370.137 232.871 365.74 232.03 361.692 230.259C358.014 228.641 352.535 226.237 351.216 222.025C349.846 217.641 355.916 215.727 359.241 215.76C361.162 215.775 363.337 216.351 364.779 217.737C364.928 217.874 365.092 218.189 365.267 218.517C363.868 218.347 362.348 218.948 361.548 220.043C360.223 221.867 360.818 224.13 362.432 225.55C364.94 227.791 368.804 227.4 371.231 225.366C373.865 223.147 374.295 219.338 372.986 216.219C370.319 209.869 362.794 207.211 356.463 208.08C349.609 209.022 342.702 213.857 343.236 221.481C343.772 229.187 350.991 233.673 357.205 236.748C363.486 239.855 370.825 241.22 377.195 237.865C383.489 234.548 387.283 228.18 387.114 220.968L387.091 220.965Z" fill="black"/>
<path d="M303.6 134.716C297.935 136.564 291.193 134.454 287.448 129.715C285.042 126.653 283.564 122.925 281.474 119.657C279.463 116.518 276.902 113.577 273.666 111.676C267.312 107.949 260.017 109.28 253.945 112.591C247.961 115.855 241.834 120.415 239.16 126.941C235.792 135.197 240.283 143.182 245.473 149.601C248.684 153.554 254.8 148.769 251.579 144.802C248.019 140.404 243.885 134.827 246.834 129.101C249.325 124.244 254.967 120.571 259.869 118.518C262.241 117.522 264.908 116.823 267.499 117.454C270.537 118.177 272.724 120.67 274.47 123.129C278.365 128.64 280.385 135.117 286.196 139.08C292.304 143.234 299.809 144.256 306.701 142.015C311.478 140.462 308.338 133.193 303.61 134.729L303.6 134.716Z" fill="black"/>
<path d="M303.928 -58.1932C304.251 -52.7118 309.893 -49.7583 314.395 -48.0688C315.16 -47.7814 315.946 -47.5735 316.727 -47.3193C310.975 -40.6186 300.808 -44.8415 294.522 -48.7482C290.231 -51.4087 285.596 -45.162 289.94 -42.4593C299.189 -36.7108 312.154 -32.2534 321.176 -40.55C322.74 -41.9914 324.045 -43.7367 325.006 -45.656C332.504 -44.8813 340.149 -45.8733 347.38 -47.7884C359.691 -51.0288 374.585 -56.2361 379.782 -68.9771C381.687 -73.6285 374.372 -76.5998 372.477 -71.9354C369.191 -63.892 360.149 -60.3208 352.539 -57.6208C345.173 -55.0067 337.292 -53.0467 329.384 -53.1815C328.46 -53.1959 327.515 -53.2365 326.575 -53.3234C326.539 -53.7393 326.528 -54.1754 326.446 -54.5973C325.542 -59.6019 321.54 -64.0341 316.683 -65.4876C311.452 -67.0486 303.572 -64.8771 303.963 -58.2003L303.928 -58.1932ZM314.927 -57.8211C316.183 -57.3054 317.286 -56.3516 317.99 -55.1909C318.021 -55.1517 318.026 -55.0922 318.067 -55.0399C316.578 -55.5624 315.011 -56.1302 313.644 -56.9187C313.148 -57.2064 312.724 -57.6139 312.28 -57.9419C312.28 -57.9419 312.316 -57.949 312.326 -57.9359C312.984 -57.5215 312.801 -57.6744 312.467 -57.9411C313.271 -58.0011 313.951 -58.2181 314.927 -57.8211Z" fill="black"/>
<path d="M511.136 117.701C511.541 119.457 512.415 120.992 513.628 122.219C514.423 123.52 515.474 124.515 516.851 125.21C518.038 125.823 519.327 125.932 520.618 125.911C521.322 125.909 521.994 125.761 522.649 125.564C523.953 125.534 525.244 125.303 526.44 124.765C528.229 123.952 529.552 122.679 530.426 120.912C531.074 119.599 531.306 117.914 531.069 116.449C530.774 114.649 529.812 112.95 528.312 111.885C527.497 111.298 526.457 111.057 525.474 111.152C524.811 110.573 524.081 110.067 523.259 109.655C520.953 108.462 518.118 108.34 515.741 109.277C512.42 110.596 510.323 114.106 511.146 117.714L511.136 117.701Z" fill="black"/>
<path d="M471.642 200.574C471.132 198.498 469.423 196.878 467.2 197.165C465.261 197.418 463.394 199.478 463.892 201.564C464.606 204.453 465.066 207.414 465.069 210.375C465.076 212.549 465.327 216.988 463.619 218.669C461.213 221.046 455.121 214.616 453.082 213.446C448.444 210.741 441.971 209.5 438.355 214.352C435.755 217.856 436.694 222.219 437.74 226.138C438.122 227.573 438.596 229.55 438.523 230.539C438.538 230.4 438.41 230.712 438.482 230.698C438.189 230.801 437.786 230.737 437.134 230.488C435.256 229.762 433.611 228.409 431.872 227.384C429.329 225.89 426.668 224.828 423.715 224.609C412.173 223.731 400.167 231.241 392.169 238.754C386.913 243.71 382.603 249.447 379.326 255.917C376.366 261.736 373.282 269.429 377.963 275.36C381.11 279.363 387.239 274.568 384.069 270.561C382.619 268.716 383.605 266.036 384.335 264.087C385.449 261.095 386.879 258.215 388.558 255.519C391.675 250.508 395.563 246.056 400.122 242.325C404.783 238.513 410.092 235.421 415.844 233.525C420.418 232.004 424.629 231.976 428.827 234.624C432.75 237.108 437.438 240.196 442.052 237.776C446.071 235.655 446.893 231.263 445.973 227.055C445.581 225.288 444.973 223.565 444.653 221.784C444.418 220.509 444.134 219.356 444.809 218.973C446.036 218.264 448.312 219.628 449.345 220.256C451.477 221.543 453.248 223.348 455.393 224.625C460.973 227.923 467.831 228.016 471.021 221.593C474.017 215.556 473.189 206.978 471.629 200.584L471.642 200.574Z" fill="black"/>
<path d="M239.451 93.2494C242.611 90.6174 246.258 89.1059 250.123 87.423C251.709 86.748 252.706 85.0332 252.453 83.285C252.22 81.6687 250.722 79.9468 249.006 79.8766C247.967 79.8472 246.924 79.7352 245.902 79.5436C245.661 79.5005 245.432 79.4473 245.18 79.3911C245.134 79.3851 245.124 79.372 245.101 79.369C244.623 79.2365 244.171 79.0837 243.698 78.9048C242.764 78.5601 241.849 78.1358 240.973 77.6813C240.842 77.5938 240.269 77.2609 240.138 77.1734C239.668 76.8656 239.211 76.5476 238.779 76.2096C238.378 75.9108 238.003 75.5918 237.628 75.2729C237.435 75.1068 237.265 74.9438 237.073 74.7778C237.073 74.7778 237.062 74.7647 237.042 74.7385C236.317 73.9747 235.631 73.1806 235.021 72.3261C234.777 71.9889 234.535 71.6285 234.317 71.2712C234.348 71.3104 233.923 70.5857 233.838 70.3984C233.327 69.4038 232.925 68.3647 232.595 67.3115C231.969 65.327 229.231 64.325 227.453 65.1513C225.39 66.1167 224.742 68.1707 225.401 70.2771C227.361 76.4411 232.014 81.6744 237.724 84.7427C236.403 85.5696 235.13 86.485 233.961 87.5313C230.372 90.7539 227.77 94.8095 227.025 99.6704C226.701 101.766 228.457 103.816 230.49 104.08C232.663 104.362 234.489 102.779 234.813 100.683C235.247 97.9076 237.193 95.1295 239.476 93.2293L239.451 93.2494Z" fill="black"/>
<path d="M225.783 40.7683C225.631 40.3374 225.42 39.9105 225.068 39.4888C221.96 35.6662 218.503 32.139 214.805 28.8859C213.533 27.769 211.315 27.9037 210.056 28.9148C201.338 35.9351 192.608 42.9655 183.89 49.9859C181.756 51.7057 182.187 54.4991 184.035 56.243C187.679 59.6653 190.903 63.7144 193.403 68.0571C194.504 69.9859 197.491 71.7017 199.448 69.6769C207.553 61.2964 216.268 53.559 225.54 46.505C227.677 44.8678 227.243 42.3091 225.76 40.7653L225.783 40.7683ZM192.164 53.5164C198.914 48.0848 205.676 42.6431 212.426 37.2116C214.251 38.9524 215.97 40.7971 217.613 42.7023C210.609 48.2066 203.957 54.1326 197.642 60.4079C195.963 57.981 194.163 55.6912 192.164 53.5164Z" fill="black"/>
<path d="M228.384 15.378C229.226 14.336 230.077 13.307 230.982 12.3204C231.236 12.0362 231.488 11.7751 231.752 11.504C231.79 11.4738 231.803 11.4637 231.816 11.4536C231.854 11.4234 231.88 11.4032 231.931 11.3629C232.391 10.9174 232.839 10.4588 233.309 10.0263C235.256 8.19995 237.329 6.50739 239.504 4.94567C241.169 3.76403 241.462 0.994227 240.11 -0.567763C240.048 -0.646273 239.971 -0.691518 239.909 -0.770028C239.508 -1.28032 238.992 -1.69988 238.337 -1.92597C232.674 -4.03649 226.997 -6.13696 221.324 -8.26056C218.508 -9.30778 215.71 -7.08693 216.051 -4.11721C216.784 2.3338 218.686 8.71341 221.634 14.5242C223.023 17.2423 226.477 17.8086 228.405 15.4042L228.384 15.378Z" fill="black"/>
<path d="M240.987 -30.3176C238.651 -26.8735 237.104 -23.0331 237.596 -18.7633C237.832 -16.6415 239.995 -15.1033 242.039 -15.3547C244.19 -15.6273 245.582 -17.6315 245.347 -19.7534C245.106 -21.8288 246.221 -23.9748 247.597 -25.9458C249.21 -28.2503 250.707 -30.4642 253.668 -30.4201C256.815 -30.3753 260.18 -29.7384 263.271 -29.0781C266.191 -28.452 268.97 -27.3976 271.34 -25.5978C275.384 -22.5111 279.976 -28.787 275.921 -31.8867C272.352 -34.6062 268.197 -36.0391 263.877 -36.9411C259.958 -37.7558 255.506 -38.6165 251.531 -38.1813C246.738 -37.6529 243.545 -34.0852 240.987 -30.3176Z" fill="black"/>
<path d="M543.255 102.067C546.263 105.63 547.505 110.221 548.865 114.592C550.094 118.558 551.125 122.615 551.468 126.748C551.634 128.755 551.531 130.974 551.127 133.154C548.31 132.87 545.43 133.165 542.768 133.924C536.901 135.593 531.191 140.843 533.685 147.581C536.2 154.346 543.807 153.384 548.752 150.409C551.625 148.679 553.952 146.174 555.677 143.273C560.339 148.308 552.824 156.225 549.14 159.141C542.324 164.54 533.494 166.929 524.807 165.777C519.794 165.102 518.937 172.909 523.949 173.584C535.327 175.097 547.278 171.611 555.738 163.946C559.773 160.288 563.24 155.828 564.462 150.359C565.661 144.993 563.809 139.231 559.149 135.994C558.984 135.89 558.807 135.797 558.642 135.693C559.951 129.648 559.249 123.342 557.695 117.325C555.927 110.481 554.042 102.776 549.374 97.2587C546.086 93.3658 539.957 98.1614 543.268 102.057L543.255 102.067ZM542.173 144.784C541.1 145.056 540.672 145.329 541.007 144.092C541.457 142.447 544.17 141.648 545.592 141.293C546.303 141.115 547.068 140.979 547.861 140.906C546.441 142.742 544.565 144.132 542.163 144.771L542.173 144.784Z" fill="black"/>
<path d="M420.044 -76.2567C420.989 -77.7198 422.53 -77.6606 424.112 -77.0203C426.2 -76.185 427.18 -74.4364 427.627 -72.3107C428.723 -67.0343 426.233 -61.9656 426.014 -56.7778C425.776 -50.9817 428.427 -45.0216 434.808 -44.2158C437.224 -43.9136 439.614 -44.5429 441.875 -45.2829C443.931 -45.9673 446.13 -47.2088 448.395 -46.8087C448.706 -46.7566 449.15 -46.7458 449.415 -46.4882C449.402 -46.4781 449.389 -46.4681 449.415 -46.3825C449.588 -45.5024 448.657 -44.1783 448.293 -43.4267C447.094 -41.045 446.038 -38.5858 445.823 -35.8765C445.46 -31.1891 448.042 -26.7417 452.576 -25.2245C456.248 -23.9836 460.176 -24.7419 463.883 -25.0943C465.364 -25.2425 466.54 -25.3834 467.971 -25.0683C468.851 -24.8716 469.411 -24.6343 469.706 -23.0453C470.209 -20.2661 469.182 -17.3215 469.468 -14.4767C469.779 -11.4404 471.097 -8.17943 473.727 -6.41601C476.829 -4.34478 480.135 -5.10167 483.32 -6.25025C487.041 -7.58759 490.766 -8.94808 494.487 -10.2854C499.21 -11.9861 496.083 -19.2651 491.396 -17.5715C488.114 -16.3886 484.841 -15.1926 481.571 -14.0198C480.889 -13.7796 478.915 -12.6732 478.063 -12.9132C477.721 -13.0046 477.417 -14.078 477.303 -14.7507C476.834 -17.3023 477.665 -20.0725 477.563 -22.6587C477.45 -25.258 476.615 -27.7983 474.801 -29.7376C471.876 -32.8785 467.711 -33.267 463.719 -32.9869C460.812 -32.7772 456.78 -31.7035 454.591 -32.7986C454.602 -32.7855 454.044 -33.1516 453.939 -33.365C453.548 -34.0737 453.555 -34.7778 453.675 -35.5493C454.065 -38.2477 455.862 -40.4224 456.682 -42.971C458.594 -48.855 454.722 -54.2572 448.59 -54.6663C446.066 -54.8416 443.653 -54.3211 441.31 -53.4743C439.747 -52.902 436.557 -51.1784 434.846 -52.2466C433.376 -53.166 433.754 -55.8542 433.922 -57.2774C434.253 -60.1832 435.133 -62.9706 435.487 -65.8734C436.231 -72.0033 435.107 -79.163 429.552 -82.9041C424.599 -86.2499 417.155 -86.3478 413.718 -80.9792C411.018 -76.7835 417.339 -72.0147 420.067 -76.2538L420.044 -76.2567Z" fill="black"/>
<path d="M503.922 27.4891C508.378 31.9451 513.027 36.1442 517.886 40.1356C515.753 40.3518 513.606 40.5781 511.473 40.7942C508 41.1535 507.082 45.7688 509.75 47.8424C513.974 51.1051 518.262 54.3175 522.543 57.4936C521.732 57.6232 520.943 57.7557 520.132 57.8852C517.496 58.3063 515.435 61.9154 517.658 64.1897C519.881 66.464 522.105 68.7384 524.328 71.0127C521.187 70.7926 518.06 70.4567 514.935 69.9918C509.93 69.2474 509.072 77.0542 514.077 77.7986C520.823 78.8045 527.579 79.189 534.364 79.084C537.194 79.0405 538.851 74.8385 536.838 72.7795C534.129 70.0191 531.444 67.2617 528.735 64.5013C530.142 64.2847 531.551 64.0449 532.947 63.8152C536.228 63.29 537.549 58.8445 534.671 56.7671C530.501 53.7581 526.372 50.6956 522.269 47.613C524.343 47.4009 526.417 47.1888 528.504 46.9667C531.896 46.6085 532.972 41.9316 530.228 39.9185C523.077 34.7012 516.288 28.967 510.015 22.7006C508.506 21.177 506.31 20.5744 504.514 21.9858C503.014 23.1653 502.387 25.9857 503.909 27.4992L503.922 27.4891Z" fill="black"/>
</g>
</svg>
