<?xml version="1.0" encoding="UTF-8"?>
<svg xmlns="http://www.w3.org/2000/svg" width="104" height="22" viewBox="0 0 104 22" fill="none">
  <path d="M6.46741 3.74733C6.37759 3.4445 5.60169 1.89355 5.60169 1.89355L13.6549 1.89698C16.3521 1.89698 19.6567 2.13566 21.2923 3.99797C22.6089 5.49672 22.7261 7.85605 21.6465 11.2094C18.8594 19.8828 12.7815 20.6005 6.44602 20.6005H1.12598L6.46741 3.74733ZM8.00294 18.3114C10.2485 18.3002 12.1784 17.9367 13.3495 17.1685C14.8431 16.1838 15.8756 14.4729 16.9099 11.2616C17.8269 8.40438 18.2179 6.33249 17.2341 5.21613C16.5805 4.46761 15.0082 4.10661 12.9868 4.10661C12.8953 4.10661 12.8046 4.10662 12.7199 4.1073C12.7199 4.1073 11.8593 4.09106 11.0004 4.19625L6.75826 17.4583C6.75826 17.4583 6.53243 18.3112 7.55041 18.3112" fill="#494949"></path>
  <path d="M29.82 18.3121L38.336 18.3206L37.6029 20.6013H23.4238L28.7644 3.74805C28.6754 3.44436 27.9149 1.89087 27.9149 1.89087H42.988L42.254 4.17149H33.2983L31.5241 9.71224H37.7748L37.0409 11.9989H30.7944L29.0681 17.4113C29.0681 17.4113 28.8328 18.2898 29.82 18.3121Z" fill="#494949"></path>
  <path d="M44.4099 20.6005L48.6957 6.83293L53.872 20.6005H57.8866L63.8996 1.89014H60.6583L56.5547 14.9888L56.4914 14.8365L51.671 1.89014H45.5297C45.5297 1.89014 46.291 3.44363 46.38 3.74731L41.0386 20.6005" fill="#494949"></path>
  <path d="M79.7398 5.01852C78.9998 4.67977 77.2453 3.91671 74.7388 3.88762C74.0185 3.88215 72.2811 4.08608 71.6968 5.9099C71.2024 7.44543 72.8577 8.27179 74.7773 9.22562C77.2359 10.4506 80.0204 11.8407 78.9408 15.1992C77.7782 18.8169 74.0006 20.9709 68.5804 20.8897C64.6308 20.8315 62.7026 20.095 62.7026 20.095L63.8053 16.6501L64.6043 17.1069C65.393 17.5569 67.4812 18.6073 69.8183 18.6073C70.6001 18.6073 71.7045 18.4653 72.5933 17.9144C73.2289 17.5209 73.6815 16.8759 73.9424 16.0632C74.477 14.3977 72.7755 13.5354 70.8029 12.5345C68.4016 11.3181 65.6779 9.93908 66.7326 6.67212C67.1621 5.32393 68.0791 4.16222 69.3777 3.30934C71.0715 2.19554 72.9911 1.62668 76.069 1.607C78.2308 1.59592 80.3309 1.88159 81.212 2.11257L81.5396 2.20496L81.4173 2.60445L80.792 4.54631L80.5251 5.38038" fill="#494949"></path>
  <path d="M83.0118 11.318C84.2419 7.49242 85.9169 4.98509 88.2916 3.42647C90.2514 2.13987 92.6441 1.51367 95.6083 1.51367C98.4364 1.51367 100.354 2.13045 101.469 3.3948C102.857 4.9791 102.934 7.49413 101.705 11.318C100.371 15.4661 97.6382 20.9871 89.3455 20.9871C86.4036 20.9871 84.4199 20.3567 83.2804 19.0581C81.9023 17.4918 81.8184 15.0281 83.0118 11.318ZM90.0872 18.68C91.2592 18.68 92.2566 18.4216 93.1069 17.8365C95.0531 16.5131 96.1463 13.7731 96.9376 11.318C97.7982 8.63359 98.4364 5.96884 97.2807 4.64974C96.7879 4.09199 95.9975 3.81739 94.864 3.81739C90.7562 3.81739 89.0316 7.42141 87.7818 11.318C87.1068 13.4181 86.3497 16.3797 87.603 17.8057C88.1197 18.3934 88.9315 18.68 90.0872 18.68Z" fill="#494949"></path>
</svg>
