<?xml version="1.0" encoding="UTF-8"?>
<svg xmlns="http://www.w3.org/2000/svg" width="135" height="41" viewBox="0 0 135 41" fill="none">
  <path d="M20.638 1.46977C9.18968 1.46977 1.71057 10.892 1.71057 19.6633C1.71057 24.7011 2.93616 27.2097 4.28018 29.614C5.97549 25.0529 9.36375 15.9784 9.36375 15.9784C9.36375 15.9784 10.9422 15.1618 10.9422 15.2812L13.2178 9.48891L14.681 8.72886L16.4947 4.86652L20.4608 5.51038L28.5257 10.0134L37.5793 12.5307C35.2466 6.5649 28.6441 1.46977 20.638 1.46977ZM20.5188 40.3144C15.5545 40.3144 9.48058 38.5627 5.09723 33.1786H35.8888C32.3209 37.801 26.1921 40.3144 20.5188 40.3144ZM26.5983 32.2483H23.791L29.0002 25.7508L29.524 26.7449L26.5983 32.2483ZM29.3459 11.5924L20.4107 6.38901L17.1369 5.80246V8.2004L19.6501 10.5434L16.1434 10.2466C16.1434 10.2466 16.2571 10.4248 19.1756 13.5247L32.4989 15.7468L34.8317 17.2685L28.7625 17.5606L26.2518 26.7449L18.0112 32.2483H12.6344L14.4481 28.6756L14.154 28.5579L9.30334 32.2499H8.13736L13.1017 25.2813C13.3362 23.2948 13.2178 24.1718 13.5118 20.6008L12.7528 19.5502L10.7658 27.2701L6.6169 32.2491H5.56378L8.01735 28.7934L11.4644 18.2068L10.5869 18.6127L9.06728 22.826L8.01735 23.4094C8.01735 23.4094 5.56379 29.3776 4.27859 32.2968C2.41159 29.6164 0.306152 25.988 0.306152 19.6641C0.306152 10.1869 8.42826 0.186035 20.638 0.186035C32.3805 0.186035 38.6372 9.54621 39.6847 14.3986L29.3459 11.5924ZM35.1281 25.2805L33.428 26.7449L30.0477 32.2483H27.8239L30.0477 28.3183L31.7971 26.8635L34.3174 19.7842L36.9959 20.8953L35.1281 25.2805ZM36.709 32.2483H32.212L36.4721 25.5176L37.7573 21.1284L40.4454 22.066C40.2085 25.4588 39.1014 28.9033 36.709 32.2483ZM31.2137 24.1718L29.8697 24.4106L30.2258 21.715L29.8697 21.1881L30.2258 18.1447L33.6657 19.5502L31.2137 24.1718Z" fill="#494949"></path>
  <path d="M78.4952 14.6994C78.7762 14.502 79.0069 14.3296 79.2486 14.173C80.5244 13.3464 82.0885 13.4554 83.1914 14.4885C83.5247 14.8007 83.7142 14.7244 84.0316 14.4708C85.0065 13.6913 86.1078 13.3848 87.3405 13.7859C88.4409 14.1437 89.0044 14.9333 89.1663 16.0437C89.3785 17.5005 89.251 18.9654 89.2845 20.426C89.2932 20.802 89.3014 21.1791 89.2825 21.5547C89.252 22.1574 89.2854 22.6848 90.0588 22.825C90.3699 22.8812 90.4527 23.1781 90.4018 23.4782C90.3485 23.7909 90.1111 23.8658 89.8393 23.8668C88.8484 23.8706 87.857 23.862 86.8661 23.8721C86.2847 23.8783 86.2449 23.5071 86.2464 23.0733C86.2527 21.1085 86.2517 19.1436 86.2527 17.1787C86.2527 16.9486 86.2575 16.7186 86.2459 16.489C86.2086 15.7508 85.8646 15.3435 85.2744 15.3271C84.6358 15.3094 84.1948 15.757 84.1042 16.4765C83.9579 17.6417 83.9671 18.8112 83.9783 19.9807C83.985 20.6695 83.9957 21.3592 84.034 22.047C84.0553 22.4312 84.2157 22.7199 84.6808 22.7482C85.0617 22.7712 85.2342 23.0258 85.2148 23.3927C85.1925 23.8197 84.8814 23.8721 84.5408 23.8721C83.6129 23.8716 82.685 23.8798 81.7571 23.8668C81.1461 23.8586 80.9324 23.6233 80.9765 23.0018C81.1243 20.9139 81.0056 18.8237 81.0385 16.7349C81.0415 16.5485 81.0109 16.3603 80.9785 16.1753C80.9053 15.7575 80.7367 15.4088 80.2541 15.344C79.74 15.2748 79.3339 15.4626 79.0887 15.9145C78.8988 16.2652 78.7845 16.6427 78.7864 17.0543C78.7932 18.6426 78.7903 20.2314 78.7854 21.8198C78.784 22.3409 78.9274 22.7117 79.5452 22.7583C79.8945 22.7847 80.0365 23.0517 80.0263 23.3855C80.0142 23.7727 79.7521 23.8682 79.4231 23.8682C76.7663 23.8692 74.1091 23.863 71.4524 23.874C70.9615 23.8759 70.7876 23.6108 70.7696 23.1147C70.0593 23.6651 69.3843 24.1271 68.5286 24.1934C67.3478 24.2847 66.3564 23.9412 65.7057 22.9076C64.927 21.6709 65.3336 19.9875 66.6225 19.0927C67.6473 18.3813 68.8407 18.0855 70.039 17.8434C70.571 17.7358 70.8244 17.5245 70.7885 16.9755C70.7638 16.6009 70.7818 16.2253 70.679 15.8564C70.4445 15.0145 69.2467 14.489 68.4608 14.8877C68.1919 15.0241 68.3363 15.1173 68.4763 15.246C69.1934 15.9016 69.3005 16.3795 68.892 17.0365C68.5015 17.6652 67.7044 17.9635 67.029 17.7334C66.2949 17.4837 65.8365 16.7411 65.9296 15.9525C66.042 14.9977 66.8623 14.1615 68.0291 13.8603C69.1716 13.5654 70.3229 13.5505 71.4654 13.869C72.9389 14.2796 73.7888 15.6389 73.6595 17.3228C73.5422 18.8472 73.6284 20.3717 73.7239 21.8933C73.767 22.5772 74.0912 22.8481 74.7361 22.8236C75.4799 22.7948 75.7347 22.5604 75.7381 21.8385C75.7473 19.876 75.7401 17.9131 75.7444 15.9501C75.7454 15.4885 75.6451 15.1312 75.0922 15.0481C74.7424 14.9957 74.613 14.7201 74.6499 14.393C74.6872 14.0606 74.9406 13.9439 75.2381 13.9405C76.1238 13.9309 77.0096 13.9492 77.8948 13.9314C78.4118 13.9213 78.392 14.3325 78.4942 14.6989L78.4952 14.6994ZM70.7798 19.9865C70.7953 18.8271 70.6897 18.7526 69.7608 19.1027C68.785 19.4707 68.3828 20.0801 68.4109 21.1911C68.4245 21.728 68.4928 22.2655 69.1343 22.4398C69.6431 22.5782 70.1814 22.2376 70.461 21.6065C70.711 21.0427 70.7464 20.4336 70.7793 19.9865H70.7798Z" fill="#494949"></path>
  <path d="M61.4691 14.8785C62.0534 13.9636 62.8423 13.5861 63.8627 13.685C64.5488 13.7518 65.0513 14.1716 65.1821 14.7647C65.3328 15.4496 65.0595 16.1038 64.482 16.4395C63.9053 16.7748 63.3525 16.7339 62.8088 16.2176C62.4861 15.9112 62.3747 16.0082 62.2647 16.3497C61.9294 17.3915 61.77 18.4668 61.7084 19.5523C61.6634 20.3443 61.7065 21.1406 61.6963 21.935C61.69 22.4403 61.8906 22.7381 62.4319 22.7323C62.8796 22.7275 63.1829 22.9072 63.1819 23.3798C63.181 23.9124 62.758 23.8663 62.4028 23.8678C61.032 23.8726 59.6612 23.8706 58.2905 23.8663C57.9503 23.8654 57.5767 23.886 57.5327 23.41C57.4939 22.9893 57.7546 22.7943 58.1306 22.7458C58.6427 22.68 58.7663 22.3548 58.7862 21.9091C58.8734 19.9466 58.949 17.9846 58.7639 16.0236C58.727 15.6307 58.7135 15.2599 58.2377 15.0505C57.7192 14.8224 57.5133 14.8651 57.3291 15.4554C57.0757 16.268 56.3877 16.7733 55.6531 17.1686C54.6065 17.732 53.4703 17.8756 52.2904 17.8727C51.3213 17.8703 51.3203 17.9135 51.3203 18.8535C51.3203 19.8362 51.3116 20.8188 51.3257 21.801C51.3354 22.4797 51.5573 22.6906 52.2376 22.7338C52.4057 22.7443 52.5763 22.7395 52.7415 22.7674C53.102 22.8284 53.2159 23.0786 53.2008 23.4086C53.1863 23.7184 52.9964 23.8586 52.7042 23.8596C50.8484 23.8634 48.9926 23.8634 47.1368 23.8586C46.8461 23.8581 46.6513 23.7174 46.6382 23.4076C46.6246 23.0801 46.7472 22.8481 47.098 22.7573C48.1514 22.4855 48.1524 22.4811 48.1529 21.4034C48.1539 18.2257 48.1548 15.0486 48.1509 11.8709C48.15 10.8983 48.0952 10.8349 47.1218 10.6812C46.8301 10.6356 46.6498 10.5155 46.6387 10.2101C46.6275 9.90797 46.7308 9.66782 47.0539 9.59578C47.2163 9.55976 47.3888 9.55687 47.5569 9.56024C49.5372 9.59914 51.5209 9.45505 53.4974 9.67503C54.5866 9.79606 55.5921 10.1452 56.4473 10.8421C57.207 11.4608 57.6136 12.2979 57.6267 13.247C57.6354 13.8858 57.789 14.0433 58.4271 13.9516C59.0468 13.8627 59.6913 13.9626 60.3217 13.9242C61 13.8829 61.4599 14.0491 61.4691 14.879V14.8785ZM51.33 13.6908H51.3325C51.3325 14.4823 51.3315 15.2738 51.3329 16.0654C51.3334 16.3463 51.3518 16.5985 51.7177 16.6787C52.6388 16.8804 53.6738 16.4107 54.1501 15.5975C54.6302 14.7782 54.464 13.893 54.4524 13.0313C54.434 11.6231 53.3806 10.6678 51.9716 10.687C51.5214 10.6933 51.3169 10.8599 51.3257 11.3162C51.3402 12.1072 51.3295 12.8992 51.3295 13.6908H51.33Z" fill="#494949"></path>
  <path d="M120.591 21.5778C120.295 22.269 120.003 22.8376 119.494 23.2646C117.311 25.096 113.945 24.3102 112.775 21.6921C111.699 19.2835 112.179 16.4271 113.937 14.7797C115.393 13.4162 118.025 13.2063 119.559 14.3321C120.297 14.8734 120.608 15.9848 120.235 16.7441C119.852 17.5241 118.968 17.9016 118.045 17.6798C116.999 17.4281 116.583 16.247 117.25 15.4089C117.403 15.2163 117.578 15.0405 117.72 14.882C116.812 14.8042 116.034 15.3633 115.765 16.4713C115.528 17.4434 115.449 18.4525 115.518 19.454C115.55 19.9319 115.605 20.4088 115.62 20.8891C115.654 21.9774 116.238 22.7195 117.137 22.8352C118.044 22.952 118.899 22.3597 119.237 21.3747C119.291 21.2166 119.324 21.0519 119.362 20.8891C119.569 20.014 120.103 19.844 120.823 20.4583C121.428 19.2028 122.552 18.6451 123.812 18.2734C124.175 18.1663 124.55 18.088 124.902 17.9516C125.284 17.8032 125.87 17.9492 126.027 17.5126C126.231 16.9483 126.198 16.3066 126.026 15.7216C125.812 14.992 124.562 14.5391 123.882 14.8993C123.619 15.0386 123.757 15.1241 123.905 15.2533C124.486 15.7605 124.649 16.3657 124.389 16.9646C124.169 17.4727 123.42 17.881 122.819 17.821C122.05 17.7441 121.459 17.2336 121.336 16.4925C121.205 15.7067 121.466 15.0256 122.085 14.5377C123.55 13.383 126.112 13.2596 127.708 14.2365C128.795 14.9022 129.11 15.9795 129.15 17.1365C129.203 18.6399 129.167 20.1461 129.163 21.6508C129.162 22.1811 129.192 22.6546 129.879 22.781C130.19 22.8381 130.252 23.1599 130.237 23.4423C130.22 23.754 129.996 23.8664 129.713 23.8679C128.743 23.8727 127.773 23.8717 126.803 23.8679C126.609 23.8674 126.38 23.84 126.325 23.6345C126.189 23.1201 126.017 23.2646 125.705 23.5168C124.496 24.4918 122.916 24.5028 121.671 23.5999C121.015 23.1239 120.826 22.3987 120.591 21.5778ZM126.114 20.0716C126.114 19.842 126.109 19.612 126.115 19.3824C126.126 18.9352 125.945 18.8555 125.525 18.9986C124.105 19.4809 123.748 19.9693 123.846 21.3814C123.877 21.8261 124.024 22.257 124.459 22.3895C124.926 22.5317 125.341 22.3329 125.663 21.9164C126.096 21.3564 126.118 20.7229 126.114 20.0721V20.0716Z" fill="#494949"></path>
  <path d="M96.6307 18.8456C95.8502 18.8456 95.07 18.8476 94.2894 18.8456C93.9856 18.8447 93.7191 18.9081 93.7303 19.2784C93.7564 20.1751 93.7535 21.0853 94.2105 21.8994C94.7929 22.9368 96.0139 23.164 96.9661 22.4426C97.5916 21.969 98.0296 21.3682 98.22 20.6122C98.3223 20.2054 98.5491 20.0555 98.9512 20.1208C99.3578 20.1866 99.4581 20.469 99.4183 20.8129C99.2773 22.0314 98.5457 22.933 97.5683 23.5256C94.7725 25.2211 91.5629 23.8364 90.7092 20.7001C90.0952 18.4446 90.5027 16.4451 92.1662 14.8145C93.4589 13.5475 95.1001 13.2958 96.8091 13.8808C98.3756 14.4168 99.1683 15.6233 99.4377 17.1987C99.6254 18.296 99.1538 18.8447 98.0228 18.8447C97.5586 18.8447 97.0949 18.8447 96.6307 18.8447V18.8456ZM95.0967 17.7035C96.5818 17.703 96.8658 17.2808 96.3332 15.8616C96.2673 15.6858 96.2048 15.5062 96.1157 15.3419C95.8797 14.9087 95.5178 14.7271 95.0138 14.8035C94.2386 14.9212 93.6256 16.0057 93.7346 17.1901C93.8156 18.0685 94.5448 17.5594 94.9707 17.7021C95.0085 17.7146 95.0545 17.7035 95.0967 17.7035Z" fill="#494949"></path>
  <path d="M103.442 14.8889C103.878 14.1891 104.408 13.7746 105.13 13.6315C105.772 13.5042 106.615 13.8054 106.933 14.2895C107.251 14.7761 107.22 15.4922 106.859 16.0023C106.326 16.7525 105.437 16.8745 104.732 16.2429C104.386 15.9331 104.246 16.0906 104.167 16.4043C103.7 18.238 103.514 20.1011 103.639 21.9901C103.669 22.4435 103.892 22.7293 104.399 22.7297C104.852 22.7297 105.132 22.9406 105.095 23.419C105.058 23.8969 104.676 23.8714 104.337 23.8719C102.966 23.8753 101.595 23.8719 100.224 23.8733C99.869 23.8733 99.5318 23.8604 99.4882 23.3902C99.445 22.9247 99.698 22.747 100.122 22.7221C100.527 22.6985 100.667 22.4358 100.668 22.0857C100.672 19.9949 100.673 17.9042 100.663 15.8135C100.661 15.4254 100.505 15.1291 100.059 15.058C99.6926 14.9999 99.5899 14.7218 99.6185 14.4043C99.6476 14.0806 99.8758 13.9432 100.189 13.9346C101.01 13.9125 101.832 13.8784 102.653 13.8784C103.055 13.8784 103.188 14.0638 103.443 14.8889H103.442Z" fill="#494949"></path>
  <path d="M111.324 18.3165C111.324 19.5061 111.328 20.6958 111.322 21.886C111.32 22.324 111.412 22.6617 111.935 22.7467C112.311 22.8077 112.447 23.0964 112.4 23.4484C112.351 23.8293 112.051 23.8735 111.738 23.874C110.432 23.874 109.126 23.8773 107.821 23.8696C107.575 23.8682 107.258 23.8936 107.226 23.5536C107.196 23.2366 107.271 22.8625 107.636 22.7933C108.224 22.6823 108.276 22.3183 108.282 21.8365C108.306 20.1685 108.203 18.4985 108.361 16.8309C108.394 16.4836 108.302 16.1258 108.289 15.7723C108.276 15.3905 108.126 15.1455 107.726 15.0596C107.384 14.9861 107.243 14.7411 107.287 14.404C107.335 14.037 107.595 13.94 107.923 13.94C108.829 13.941 109.735 13.9482 110.64 13.9371C111.122 13.9314 111.324 14.1509 111.321 14.6215C111.312 15.853 111.318 17.0845 111.318 18.316H111.323L111.324 18.3165Z" fill="#494949"></path>
  <path d="M109.725 9.67172C110.68 9.68133 111.423 10.4311 111.42 11.3821C111.417 12.359 110.631 13.1937 109.716 13.1923C108.762 13.1913 107.994 12.359 108.004 11.3374C108.013 10.3585 108.733 9.66163 109.724 9.67124L109.725 9.67172Z" fill="#494949"></path>
  <line x1="43.5161" y1="28.7219" x2="134.474" y2="28.7219" stroke="#494949" stroke-width="0.891741"></line>
  <path d="M47.0835 36.1677V32.1103H47.8255V35.5069H49.4948V36.1677H47.0835ZM53.1117 36.1677V32.1103H53.8536V36.1677H53.1117ZM57.8776 36.1677V32.1103H60.3758V32.829H58.6195V33.6927H59.9758V34.4114H58.6195V36.1677H57.8776ZM64.0529 36.1677V32.1103H66.6497V32.829H64.8122V33.6927H66.2381V34.4114H64.8122V35.449H66.7076V36.1677H64.0529ZM74.9092 36.1677V32.1103H75.6512V36.1677H74.9092ZM79.6751 36.1677V32.1103H80.4055L82.1386 34.7302V32.1103H82.8805V36.1677H82.2719L80.4171 33.3855V36.1677H79.6751ZM88.08 36.2489C87.9157 36.2489 87.7467 36.2325 87.5728 36.1996C87.3989 36.1687 87.2376 36.131 87.0888 36.0866C86.94 36.0402 86.8222 35.9958 86.7352 35.9533L86.8222 35.165C86.9574 35.2307 87.0985 35.2915 87.2453 35.3475C87.3921 35.4036 87.5428 35.449 87.6974 35.4838C87.852 35.5185 88.0085 35.5359 88.1669 35.5359C88.364 35.5359 88.5224 35.4973 88.6422 35.42C88.762 35.3427 88.8219 35.2249 88.8219 35.0664C88.8219 34.9447 88.7881 34.8471 88.7205 34.7737C88.6528 34.6984 88.5495 34.6317 88.4104 34.5737C88.2712 34.5138 88.0935 34.4462 87.8771 34.3709C87.6607 34.2955 87.4665 34.2105 87.2946 34.1158C87.1226 34.0192 86.9864 33.8975 86.8859 33.7507C86.7855 33.6038 86.7352 33.4164 86.7352 33.1884C86.7352 32.9643 86.7903 32.7653 86.9004 32.5914C87.0105 32.4156 87.1748 32.2784 87.3931 32.1799C87.6134 32.0794 87.8868 32.0292 88.2133 32.0292C88.4606 32.0292 88.6963 32.0572 88.9204 32.1132C89.1446 32.1673 89.3358 32.2262 89.4943 32.29L89.4189 33.0493C89.1909 32.9469 88.9765 32.8696 88.7755 32.8175C88.5765 32.7634 88.3736 32.7363 88.1669 32.7363C87.9505 32.7363 87.7834 32.772 87.6655 32.8435C87.5477 32.915 87.4887 33.0223 87.4887 33.1652C87.4887 33.2792 87.5216 33.371 87.5873 33.4406C87.653 33.5101 87.7467 33.57 87.8684 33.6202C87.9901 33.6685 88.136 33.7197 88.306 33.7738C88.5997 33.8666 88.846 33.969 89.0451 34.0811C89.246 34.1912 89.3967 34.3255 89.4972 34.4839C89.5996 34.6404 89.6508 34.8346 89.6508 35.0664C89.6508 35.1824 89.6324 35.3089 89.5957 35.4461C89.559 35.5813 89.4865 35.7098 89.3783 35.8315C89.2701 35.9533 89.1117 36.0537 88.903 36.1329C88.6963 36.2102 88.4219 36.2489 88.08 36.2489ZM95.0302 36.2489C94.6496 36.2489 94.3346 36.1735 94.0854 36.0228C93.8381 35.8721 93.6536 35.6605 93.5319 35.3881C93.4101 35.1157 93.3493 34.7959 93.3493 34.4288V32.1103H94.0912V34.2376C94.0912 34.4308 94.1038 34.6075 94.1289 34.7679C94.154 34.9263 94.1994 35.0635 94.2651 35.1795C94.3327 35.2934 94.4284 35.3814 94.552 35.4432C94.6757 35.505 94.8351 35.5359 95.0302 35.5359C95.2253 35.5359 95.3847 35.505 95.5084 35.4432C95.6321 35.3814 95.7267 35.2934 95.7924 35.1795C95.86 35.0635 95.9064 34.9263 95.9315 34.7679C95.9566 34.6075 95.9692 34.4308 95.9692 34.2376V32.1103H96.7111V34.4288C96.7111 34.7959 96.6503 35.1157 96.5286 35.3881C96.4068 35.6605 96.2213 35.8721 95.9721 36.0228C95.7248 36.1735 95.4108 36.2489 95.0302 36.2489ZM100.686 36.1677V32.1103H102.17C102.45 32.1103 102.695 32.1547 102.903 32.2436C103.114 32.3325 103.277 32.4677 103.393 32.6494C103.509 32.831 103.567 33.0609 103.567 33.3391C103.567 33.6367 103.503 33.8733 103.376 34.0492C103.25 34.2231 103.084 34.3612 102.877 34.4636L103.793 36.1677H102.964L102.182 34.6607C102.176 34.6607 102.171 34.6607 102.167 34.6607C102.163 34.6607 102.158 34.6607 102.153 34.6607H101.428V36.1677H100.686ZM101.428 34.0405H101.973C102.278 34.0405 102.491 33.9786 102.61 33.855C102.73 33.7294 102.79 33.571 102.79 33.3797C102.79 33.1768 102.731 33.0184 102.613 32.9044C102.496 32.7885 102.292 32.7305 102.002 32.7305H101.428V34.0405ZM109.659 35.2055H107.96V34.5563H109.659V35.2055ZM108.714 32.8348H108.905L107.734 36.1677H107.016L108.459 32.1103H109.16L110.603 36.1677H109.885L108.714 32.8348ZM114.197 36.1677V32.1103H114.928L116.661 34.7302V32.1103H117.403V36.1677H116.794L114.939 33.3855V36.1677H114.197ZM123.263 36.2489C122.851 36.2489 122.489 36.1619 122.176 35.988C121.863 35.8122 121.619 35.5668 121.443 35.2519C121.269 34.935 121.182 34.5641 121.182 34.139C121.182 33.714 121.272 33.344 121.451 33.029C121.633 32.7122 121.882 32.4668 122.199 32.2929C122.516 32.1171 122.878 32.0292 123.286 32.0292C123.5 32.0292 123.697 32.0523 123.874 32.0987C124.052 32.1431 124.206 32.1992 124.335 32.2668L124.254 32.974C124.107 32.9063 123.955 32.8513 123.799 32.8088C123.644 32.7643 123.471 32.7421 123.28 32.7421C122.996 32.7421 122.759 32.802 122.567 32.9218C122.378 33.0416 122.235 33.2068 122.138 33.4174C122.042 33.628 121.993 33.8685 121.993 34.139C121.993 34.4095 122.041 34.6501 122.135 34.8607C122.23 35.0713 122.371 35.2364 122.559 35.3562C122.748 35.476 122.983 35.5359 123.263 35.5359C123.458 35.5359 123.633 35.5147 123.787 35.4722C123.942 35.4297 124.097 35.3736 124.254 35.3041L124.335 36.0112C124.182 36.0827 124.014 36.1397 123.831 36.1822C123.649 36.2267 123.46 36.2489 123.263 36.2489ZM128.088 36.1677V32.1103H130.684V32.829H128.847V33.6927H130.273V34.4114H128.847V35.449H130.742V36.1677H128.088Z" fill="#494949"></path>
</svg>
