<?xml version="1.0" encoding="UTF-8"?>
<svg xmlns="http://www.w3.org/2000/svg" width="105" height="25" viewBox="0 0 105 25" fill="none">
  <g clip-path="url(#clip0_472_10405)">
    <path d="M35.2861 0.537708C28.5547 0.537708 23.3316 5.35424 23.3316 12.25C23.3316 19.4564 28.5544 23.9627 35.2861 23.9624C42.0177 23.9621 47.2514 19.4561 47.2406 12.25C47.2307 5.71653 42.0177 0.537708 35.2861 0.537708ZM35.2861 3.76225C39.9834 3.76225 43.7913 7.238 43.7913 12.25C43.7913 17.355 39.9834 20.7382 35.2861 20.7382C30.5888 20.7382 26.7809 17.3547 26.7809 12.25C26.7809 7.23769 30.5888 3.76225 35.2861 3.76225ZM72.2025 0.924508V23.5753H75.6579V0.924508H72.2025ZM62.6634 0.924508L49.8395 12.2497L62.6634 23.5753H67.8053L54.962 12.2497L67.8053 0.924508H62.6634ZM91.5163 0.191162L89.6409 3.59669L96.0034 15.2152H83.2435L78.6401 23.5756H82.4416L85.2215 18.5596H97.8114L100.591 23.5756H104.392L91.5163 0.191162ZM0.130371 0.191162V23.5756H3.6569V8.12177L21.9822 24.3089V19.4606L0.130371 0.191162Z" fill="#494949"></path>
  </g>
  <defs>
    <clipPath id="clip0_472_10405">
      <rect width="104.262" height="24.1181" fill="white" transform="translate(0.129883 0.191162)"></rect>
    </clipPath>
  </defs>
</svg>
