<?xml version="1.0" encoding="UTF-8"?>
<svg xmlns="http://www.w3.org/2000/svg" width="77" height="28" viewBox="0 0 77 28" fill="none">
  <g clip-path="url(#clip0_472_10620)">
    <path d="M37.9833 6.61229C38.1493 6.10872 38.4014 5.65526 38.6831 5.21891C39.7457 3.57131 41.2339 2.43705 43.0345 1.68536C44.5781 1.04 46.1819 0.724659 47.8656 0.729548C53.9427 0.74666 60.0209 0.724659 66.0979 0.741771C68.8222 0.749104 71.2131 1.68536 73.2622 3.4613C74.9496 4.92313 75.893 6.80052 76.2521 8.97248C76.5706 10.9012 76.5227 12.8226 75.9704 14.7098C75.2423 17.1946 73.7197 19.0549 71.4296 20.2894C70.0816 21.0166 68.6438 21.4713 67.1212 21.6608C66.7928 21.7011 66.4632 21.7219 66.1311 21.7219C59.8807 21.7194 53.6315 21.7243 47.3811 21.717C45.7354 21.7146 44.1747 21.3124 42.6828 20.6304C40.9031 19.8164 39.4825 18.6039 38.4937 16.9135C37.7754 15.6864 37.3818 14.3541 37.2121 12.9509C37.1555 12.4816 37.1186 12.011 37.1223 11.538C37.1223 11.3987 37.1641 11.2874 37.249 11.1811C38.0903 10.1263 38.8122 8.99204 39.469 7.81744C39.5059 7.75144 39.5416 7.68544 39.5711 7.61577C39.6572 7.41532 39.6154 7.24665 39.426 7.13664C39.0988 6.94719 38.7643 6.76874 38.4297 6.59151C38.2858 6.51573 38.137 6.52551 37.9833 6.61229ZM54.5638 14.1463C54.5638 12.8788 54.5638 11.6113 54.5638 10.3451C54.5638 10.09 54.4387 9.96251 54.1886 9.96251C52.2023 9.96251 50.2148 9.96373 48.2285 9.96007C47.9382 9.96007 47.6492 9.97718 47.3614 10.0016C46.7353 10.0554 46.2028 10.559 46.1684 11.1212C46.1265 11.7873 46.4931 12.2665 47.1781 12.418C47.4671 12.4828 47.766 12.4901 48.0624 12.4901C48.9664 12.4901 49.8704 12.4914 50.7732 12.4901C51.0351 12.4901 51.2836 12.5427 51.505 12.6784C52.1371 13.0634 52.3339 13.6635 52.2872 14.3541C52.2343 15.1388 51.6784 15.9161 50.6551 15.888C49.6146 15.8599 48.5716 15.8966 47.5299 15.8783C46.1241 15.8538 44.9311 15.3026 44.0615 14.2258C42.7713 12.6283 42.6926 10.8108 43.529 9.02137C44.2804 7.41165 45.7157 6.62451 47.4819 6.58662C49.9024 6.53285 52.3241 6.57074 54.7458 6.57685C54.9512 6.57685 55.0225 6.52429 55.0176 6.31284C55.0053 5.68337 55.0127 5.05269 55.0127 4.422C55.0127 4.12621 55.0127 4.12377 54.7187 4.12621C52.2909 4.14332 49.863 4.09566 47.4352 4.15188C46.4943 4.17388 45.5792 4.30955 44.7048 4.65301C42.7418 5.42303 41.3938 6.76752 40.8404 8.82336C40.4898 10.1238 40.4579 11.4463 40.6583 12.7749C41.0125 15.1217 42.2904 16.7656 44.4772 17.7165C45.5805 18.1957 46.7489 18.3216 47.9345 18.3277C50.0524 18.3387 52.1703 18.3313 54.2883 18.3301C54.5601 18.3301 54.5625 18.3277 54.5625 18.0527C54.5625 16.751 54.5625 15.4492 54.5625 14.1475L54.5638 14.1463ZM59.08 11.2056C59.08 13.4936 59.08 15.7817 59.0776 18.0698C59.0776 18.2372 59.0972 18.3338 59.31 18.3313C61.6407 18.3069 63.9726 18.3631 66.3045 18.2959C67.2011 18.2702 68.0769 18.1248 68.9144 17.8082C70.8601 17.0712 72.2647 15.7939 72.8735 13.7686C73.2708 12.4486 73.3126 11.1004 73.1072 9.7425C72.7554 7.40799 71.4579 5.78971 69.3154 4.81557C68.1224 4.27288 66.8519 4.13232 65.5617 4.12743C63.4991 4.11888 61.4365 4.12499 59.3727 4.12499C59.1784 4.12499 59.0812 4.2244 59.0812 4.42322C59.0812 6.68441 59.0812 8.94437 59.0812 11.2056H59.08Z" fill="#494949"></path>
    <path d="M0.861015 14.0653C0.861015 12.0852 0.857325 10.1064 0.861015 8.1263C0.865935 6.25013 1.55223 4.62697 2.75632 3.20548C3.94072 1.80721 5.46582 1.01763 7.27872 0.798847C8.73986 0.621619 10.185 0.715733 11.5687 1.28286C13.1958 1.95022 14.3532 3.12359 15.1908 4.63064C15.8365 5.79545 16.128 7.04705 16.1193 8.37809C16.1071 10.3435 16.1169 12.3101 16.1157 14.2755C16.1157 15.0846 15.7996 15.5968 15.1526 15.8412C14.3975 16.1272 13.5402 15.9537 13.0507 15.411C12.7986 15.1323 12.7002 14.7986 12.7002 14.4283C12.7026 12.4287 12.7063 10.4278 12.6977 8.4282C12.6953 7.90874 12.6571 7.38806 12.5022 6.88449C12.0557 5.42877 11.089 4.53163 9.57989 4.24196C8.8075 4.09406 8.02773 4.09651 7.25904 4.27129C5.71057 4.62452 4.60857 5.81134 4.35767 7.3685C4.29986 7.72785 4.27157 8.08841 4.27157 8.45143C4.2728 12.37 4.27157 16.2873 4.27157 20.2059C4.27157 21.1972 3.62833 21.8327 2.6284 21.8425C2.29756 21.8462 1.98393 21.8046 1.68752 21.6494C1.14636 21.3658 0.859785 20.9295 0.859785 20.3123C0.862245 18.2295 0.859785 16.148 0.859785 14.0653H0.861015Z" fill="#494949"></path>
    <path d="M18.6211 8.31481C18.6211 6.35552 18.6211 4.39624 18.6211 2.43695C18.6211 1.46403 19.268 0.830902 20.2556 0.815013C20.6763 0.808901 21.0637 0.890793 21.4117 1.12791C21.8102 1.39803 22.0279 1.77571 22.0304 2.25361C22.0378 3.69222 22.0329 5.13082 22.0353 6.56942C22.0353 6.69531 21.9861 6.79187 21.9123 6.88721C20.7992 8.32459 20.2113 9.96242 20.0527 11.7567C19.9408 13.0327 20.0392 14.288 20.5397 15.4883C20.7611 16.0187 21.0735 16.493 21.4573 16.9195C21.552 17.0234 21.5581 17.1114 21.5064 17.2324C20.4241 19.7466 18.5547 21.2634 15.8021 21.6362C14.4996 21.8122 13.2008 21.7719 11.9279 21.4064C10.0891 20.8797 8.73993 19.7381 7.7769 18.1235C7.10783 17.0026 6.77698 15.7877 6.77944 14.4823C6.78313 12.4204 6.79543 10.3584 6.77452 8.29647C6.76345 7.26366 7.61824 6.76131 8.32667 6.73931C8.67474 6.72831 9.01297 6.75398 9.33398 6.91165C9.90589 7.19033 10.1937 7.63768 10.1937 8.27081C10.1937 10.312 10.19 12.3544 10.1961 14.3956C10.1974 14.904 10.2638 15.4076 10.4421 15.8879C10.8701 17.0442 11.6807 17.8106 12.8786 18.1198C14.0519 18.4217 15.24 18.4376 16.3716 17.956C17.7318 17.3779 18.428 16.295 18.5829 14.8502C18.6383 14.3308 18.6174 13.8101 18.6186 13.2906C18.6211 11.6332 18.6186 9.97464 18.6186 8.31725L18.6211 8.31481Z" fill="#494949"></path>
    <path d="M20.3104 12.8458C20.3191 10.0443 21.2169 7.84427 23.0519 6.03533C24.3704 4.73362 25.9484 3.9477 27.8117 3.79492C28.5669 3.73259 29.327 3.73503 30.0649 3.97948C31.6601 4.50506 32.462 5.89354 32.1103 7.53015C31.9049 8.48841 31.3809 9.25843 30.6602 9.89401C28.9604 11.3913 26.9532 12.2077 24.7086 12.4766C24.2905 12.5268 23.8723 12.5573 23.4504 12.5573C23.1712 12.5573 23.1417 12.5891 23.1528 12.8678C23.1798 13.551 23.2807 14.2184 23.6103 14.8319C24.0863 15.7193 24.871 16.1227 25.8488 16.1948C27.4329 16.3109 28.8547 15.8049 30.2002 15.0422C32.0094 14.0167 33.5529 12.6685 34.9538 11.1493C36.0976 9.90745 37.1049 8.56296 38.0139 7.14392C38.2623 6.75524 38.1836 6.7858 38.5661 6.99602C38.7469 7.09503 38.9289 7.19525 39.1097 7.29303C39.352 7.42382 39.3545 7.42382 39.2229 7.65971C38.6546 8.6803 38.0323 9.66544 37.33 10.6005C35.5725 12.9374 33.4644 14.8967 30.9492 16.4099C29.6418 17.197 28.252 17.7886 26.7318 18.0367C25.7799 18.1919 24.8205 18.2359 23.8772 17.9988C22.191 17.5747 21.1443 16.4747 20.6192 14.8601C20.3818 14.1316 20.2945 13.3762 20.3117 12.847L20.3104 12.8458ZM29.632 6.64524C29.632 6.52179 29.6406 6.39834 29.6307 6.27611C29.5668 5.50975 29.0859 5.08196 28.316 5.05874C27.2865 5.02696 26.4576 5.45842 25.7381 6.13678C24.7935 7.02658 24.1441 8.10706 23.7148 9.32199C23.5205 9.87323 23.3902 10.4404 23.2881 11.0136C23.2499 11.2263 23.2831 11.2691 23.4849 11.2629C23.6226 11.258 23.7591 11.2409 23.8956 11.225C25.5437 11.0417 27.0246 10.4636 28.2778 9.36843C29.1019 8.64852 29.6517 7.78316 29.632 6.64646V6.64524Z" fill="#494949"></path>
    <path d="M3.30603 26.8296C3.30603 26.5619 3.30603 26.3114 3.30603 26.0608C3.30603 25.4521 3.30972 24.8422 3.30357 24.2335C3.30111 24.0477 3.35645 23.9573 3.56062 23.9573C3.76233 23.9573 3.82259 24.0392 3.82136 24.2286C3.81521 25.2688 3.8189 26.3101 3.81767 27.3503C3.81767 27.4774 3.84719 27.6192 3.69837 27.695C3.57046 27.761 3.26052 27.7182 3.1486 27.6192C3.0748 27.5544 3.02684 27.4725 2.9801 27.3882C2.50166 26.5326 2.02323 25.677 1.54479 24.8214C1.5288 24.7933 1.51035 24.7652 1.45254 24.7408C1.45254 24.8116 1.45254 24.8825 1.45254 24.9534C1.45254 25.7821 1.455 26.6096 1.455 27.4383C1.455 27.6937 1.28651 27.8001 1.04544 27.7072C0.956888 27.673 0.943359 27.6045 0.943359 27.5251C0.943359 26.4165 0.943359 25.3067 0.943359 24.1981C0.943359 24.0355 1.03191 23.9793 1.18811 23.9573C1.53003 23.9121 1.73788 24.0465 1.89777 24.3496C2.30365 25.1197 2.73412 25.8775 3.15598 26.6377C3.19042 26.7 3.21132 26.7758 3.30357 26.8296H3.30603Z" fill="#494949"></path>
    <path d="M58.1959 25.8298C58.1959 25.303 58.1947 24.775 58.1959 24.2482C58.1959 24.005 58.2402 23.9573 58.4874 23.9622C58.9203 23.972 59.3569 23.9182 59.7874 23.9976C60.5549 24.1394 61.0604 24.7212 61.112 25.4961C61.1317 25.7919 61.1268 26.0828 61.0714 26.3737C60.9177 27.1731 60.3445 27.6754 59.5205 27.7145C59.1626 27.7316 58.8035 27.717 58.4456 27.7206C58.2574 27.7231 58.191 27.6302 58.1934 27.453C58.1983 26.9115 58.1947 26.3713 58.1947 25.8298H58.1959ZM58.742 25.8481C58.742 26.2576 58.7469 26.6683 58.7395 27.0777C58.737 27.2366 58.7961 27.3051 58.9572 27.2904C59.1761 27.2708 59.3987 27.2745 59.6152 27.2391C60.0223 27.1731 60.3064 26.9384 60.4417 26.5509C60.5955 26.106 60.6077 25.6501 60.4638 25.2003C60.3298 24.7811 60.0408 24.5159 59.6004 24.4389C59.3914 24.4022 59.1761 24.4083 58.9634 24.3887C58.7875 24.3716 58.737 24.4535 58.7395 24.6161C58.7469 25.0255 58.742 25.4362 58.742 25.8457V25.8481Z" fill="#494949"></path>
    <path d="M30.4654 26.5949C30.4654 26.8076 30.4691 27.0191 30.4654 27.2317C30.4629 27.3515 30.4383 27.4701 30.3116 27.5239C29.5626 27.849 28.8148 27.9064 28.0978 27.4542C27.6489 27.1706 27.4447 26.7208 27.3832 26.2112C27.2971 25.512 27.4336 24.8752 27.9699 24.3668C28.5885 23.7801 29.6868 23.8094 30.2944 24.1688C30.3953 24.2287 30.4604 24.313 30.4703 24.4315C30.4777 24.5269 30.4875 24.6344 30.394 24.6931C30.3092 24.7457 30.2354 24.6772 30.169 24.6332C29.811 24.3961 29.415 24.3411 29.0005 24.39C28.7078 24.4242 28.4655 24.5623 28.2773 24.7884C27.8678 25.281 27.8247 26.1843 28.174 26.7257C28.5651 27.332 29.3043 27.3405 29.7963 27.1755C29.8971 27.1413 29.9279 27.0692 29.9267 26.969C29.923 26.7294 29.9205 26.4898 29.9267 26.2503C29.9304 26.1122 29.8639 26.0718 29.7373 26.0755C29.5515 26.0804 29.3646 26.073 29.1789 26.0779C29.0251 26.0816 28.9427 26.018 28.9427 25.8628C28.9427 25.71 29.0178 25.6428 29.174 25.6453C29.5122 25.6501 29.8504 25.6526 30.1874 25.6453C30.3719 25.6404 30.4592 25.7259 30.4641 25.8983C30.4703 26.1305 30.4654 26.3639 30.4654 26.5962C30.4654 26.5962 30.4666 26.5962 30.4678 26.5962L30.4654 26.5949Z" fill="#494949"></path>
    <path d="M10.0649 26.3382C10.0649 26.722 10.0599 27.1058 10.0673 27.4884C10.071 27.6729 9.98 27.7218 9.8115 27.7218C9.64423 27.7218 9.52616 27.6913 9.52739 27.4908C9.52985 26.8748 9.52001 26.2576 9.53108 25.6415C9.53477 25.435 9.47204 25.3592 9.2605 25.3726C8.99238 25.3885 8.72302 25.3836 8.45367 25.3739C8.28886 25.3678 8.23598 25.4338 8.23844 25.5914C8.24582 26.0302 8.23598 26.4678 8.24459 26.9066C8.25197 27.2488 8.37742 27.3417 8.71933 27.2891C8.81773 27.2745 8.94195 27.1889 8.98746 27.3649C9.02927 27.5275 8.95917 27.6888 8.79928 27.7231C8.20154 27.8514 7.72802 27.7145 7.70342 26.9787C7.68866 26.5277 7.69358 26.0742 7.70342 25.6232C7.70711 25.4399 7.65423 25.3531 7.45867 25.3751C7.31354 25.391 7.24344 25.3164 7.24221 25.1697C7.24098 25.017 7.3037 24.9302 7.46359 24.9497C7.6653 24.9742 7.72064 24.874 7.70096 24.6967C7.69604 24.6491 7.70096 24.6014 7.70096 24.5525C7.70342 24.2689 7.77968 24.2078 8.06871 24.2506C8.16587 24.2653 8.21876 24.3117 8.23229 24.4058C8.23598 24.4327 8.23844 24.4608 8.23967 24.4877C8.25853 24.7941 8.42702 24.9473 8.74516 24.9473C9.1043 24.9473 9.4622 24.9522 9.82134 24.9449C9.99968 24.9412 10.071 25.0133 10.0686 25.1881C10.0636 25.5719 10.0673 25.9557 10.0673 26.3382H10.0649Z" fill="#494949"></path>
    <path d="M12.0024 27.7622C11.2681 27.7622 10.8598 27.4248 10.7417 26.7013C10.679 26.3175 10.7061 25.9361 10.8795 25.578C11.0922 25.1392 11.4563 24.9314 11.9347 24.9082C12.086 24.9009 12.241 24.896 12.3886 24.9217C12.8412 24.9999 13.1511 25.2553 13.2901 25.6978C13.4082 26.073 13.4168 26.4531 13.3147 26.8321C13.1487 27.4444 12.6961 27.7634 12.0024 27.7622ZM11.2694 26.348C11.2595 26.4837 11.2792 26.6316 11.321 26.7783C11.4145 27.1107 11.6396 27.2916 11.9729 27.3026C12.407 27.3161 12.6321 27.1755 12.7551 26.8149C12.8486 26.5412 12.8461 26.2649 12.7908 25.985C12.7145 25.5915 12.4821 25.3776 12.1106 25.369C11.6605 25.358 11.4108 25.5389 11.3112 25.9471C11.2804 26.0743 11.2632 26.2026 11.2694 26.3493V26.348Z" fill="#494949"></path>
    <path d="M32.4083 27.7623C31.6753 27.7623 31.2658 27.4237 31.1489 26.7014C31.0862 26.3176 31.1132 25.9362 31.2879 25.5781C31.5007 25.1405 31.8647 24.9315 32.3444 24.9095C32.5018 24.9022 32.6642 24.8985 32.8179 24.9267C33.2705 25.011 33.5718 25.2762 33.7047 25.7187C33.8129 26.0817 33.8215 26.4471 33.728 26.8138C33.5694 27.4347 33.1106 27.7635 32.4083 27.7623ZM31.6778 26.3555C31.6655 26.4948 31.6901 26.65 31.7356 26.8016C31.8291 27.1121 32.0517 27.2881 32.3653 27.3003C32.7958 27.3174 33.0245 27.1854 33.1512 26.8468C33.257 26.562 33.257 26.2724 33.1979 25.9778C33.1229 25.5952 32.8905 25.3777 32.535 25.3667C32.0787 25.352 31.8254 25.5268 31.7233 25.9289C31.6888 26.0621 31.6704 26.1978 31.6778 26.3543V26.3555Z" fill="#494949"></path>
    <path d="M72.1015 24.9058C72.8517 24.9058 73.2502 25.2358 73.3782 25.974C73.4446 26.3529 73.4163 26.7257 73.2453 27.0777C73.0301 27.5202 72.6636 27.739 72.1741 27.7597C72.0302 27.7659 71.8826 27.7683 71.7411 27.7487C71.259 27.6827 70.906 27.3503 70.7953 26.8663C70.7203 26.5411 70.7191 26.2148 70.7929 25.8885C70.938 25.248 71.3955 24.9058 72.1027 24.9058H72.1015ZM71.2934 26.3297C71.2861 26.4813 71.3033 26.6304 71.3451 26.7758C71.4386 27.1083 71.6637 27.2904 71.997 27.3002C72.4311 27.3136 72.6562 27.1731 72.7804 26.8125C72.8763 26.5326 72.8714 26.249 72.8136 25.9618C72.7411 25.6025 72.5098 25.3824 72.179 25.3666C71.7227 25.3446 71.4693 25.501 71.3537 25.8836C71.3094 26.0278 71.2861 26.1769 71.2947 26.3285L71.2934 26.3297Z" fill="#494949"></path>
    <path d="M55.1111 26.4471C54.8627 26.4471 54.6142 26.4495 54.367 26.4471C54.2415 26.4459 54.196 26.4923 54.2096 26.6207C54.2625 27.1047 54.5195 27.3381 55.0102 27.3455C55.255 27.3491 55.4899 27.3137 55.7162 27.2183C55.8023 27.1829 55.9081 27.1181 55.9684 27.2416C56.0274 27.3601 56.0126 27.4824 55.8933 27.5716C55.8884 27.5752 55.8823 27.5789 55.8761 27.5826C55.3559 27.8111 54.8184 27.8649 54.2944 27.6327C53.8221 27.4237 53.693 26.98 53.6561 26.5119C53.6278 26.1599 53.6746 25.8152 53.8504 25.4974C54.1641 24.9327 54.7667 24.7934 55.3768 24.9645C55.8823 25.1063 56.1934 25.6991 56.1012 26.254C56.0778 26.397 55.9917 26.4483 55.8564 26.4471C55.608 26.4471 55.3595 26.4471 55.1123 26.4471H55.1111ZM54.8762 26.056C55.0619 26.056 55.2476 26.0535 55.4346 26.056C55.5551 26.0584 55.5858 26.0108 55.5699 25.8922C55.517 25.5072 55.3165 25.3251 54.9217 25.3251C54.5429 25.3251 54.2748 25.5561 54.2231 25.9166C54.2083 26.0205 54.244 26.056 54.3399 26.056C54.5195 26.056 54.6978 26.056 54.8774 26.056H54.8762Z" fill="#494949"></path>
    <path d="M38.4343 26.4469C38.1858 26.4469 37.9374 26.4506 37.6902 26.4457C37.55 26.4433 37.5106 26.4995 37.5291 26.6339C37.5967 27.1277 37.8365 27.338 38.342 27.3441C38.588 27.3477 38.8217 27.3074 39.0468 27.2121C39.1279 27.1779 39.2239 27.1277 39.2841 27.2353C39.337 27.3306 39.3284 27.4345 39.2608 27.5262C39.2448 27.547 39.2202 27.5641 39.198 27.5775C38.8389 27.7963 37.8537 27.877 37.4368 27.5311C37.133 27.2793 37.0174 26.9456 36.9793 26.5765C36.9412 26.2098 36.9793 25.8517 37.1552 25.5192C37.4639 24.9362 38.0702 24.792 38.6889 24.9619C39.1956 25.1012 39.5043 25.683 39.4194 26.2477C39.3985 26.3895 39.3161 26.4469 39.1796 26.4469C38.9312 26.4469 38.6827 26.4469 38.4355 26.4469H38.4343ZM38.2067 26.057C38.3789 26.057 38.5511 26.0534 38.7233 26.0583C38.8549 26.0619 38.9078 26.0277 38.8844 25.8798C38.8205 25.4838 38.6151 25.3139 38.1834 25.3261C37.8464 25.3359 37.5696 25.5987 37.5364 25.9311C37.5254 26.046 37.5869 26.057 37.6705 26.057C37.8501 26.057 38.0284 26.057 38.208 26.057H38.2067Z" fill="#494949"></path>
    <path d="M24.0234 26.4472C23.7823 26.4472 23.5413 26.4533 23.3002 26.4447C23.1354 26.4398 23.1034 26.5058 23.1268 26.6574C23.2338 27.3296 23.652 27.4017 24.2891 27.3186C24.4034 27.304 24.5129 27.2514 24.6236 27.2172C24.7183 27.1878 24.8278 27.1108 24.8856 27.2575C24.9348 27.3822 24.9151 27.5032 24.7859 27.579C24.6101 27.6816 24.4133 27.7281 24.2153 27.7489C23.9828 27.7733 23.7454 27.7855 23.5142 27.7391C22.9509 27.6279 22.6496 27.2575 22.5696 26.5718C22.5278 26.2064 22.5696 25.8482 22.748 25.5146C23.0579 24.9328 23.6667 24.7898 24.2829 24.9609C24.7884 25.1014 25.0983 25.6918 25.0098 26.2492C24.9864 26.3922 24.9015 26.4447 24.7663 26.4447C24.5178 26.4447 24.2694 26.4447 24.0222 26.4447L24.0234 26.4472ZM23.8106 26.056C23.9828 26.056 24.155 26.0536 24.3272 26.0573C24.4489 26.0597 24.4994 26.0267 24.4797 25.8886C24.4231 25.5036 24.2251 25.3239 23.8278 25.3239C23.4515 25.3239 23.1797 25.561 23.1317 25.9191C23.1169 26.0255 23.16 26.0548 23.2535 26.0548C23.4392 26.0548 23.6249 26.0548 23.8118 26.0548L23.8106 26.056Z" fill="#494949"></path>
    <path d="M6.29597 27.4199C5.97004 27.712 5.65395 27.7914 5.29974 27.7609C4.92461 27.7279 4.64542 27.4993 4.56671 27.1461C4.48799 26.7904 4.63558 26.4555 4.95905 26.2758C5.23209 26.123 5.53219 26.101 5.83844 26.0925C5.96881 26.0888 6.18159 26.2098 6.20987 25.9409C6.24431 25.6146 6.12378 25.3885 5.87288 25.3445C5.64042 25.3041 5.40551 25.3053 5.18412 25.4117C5.0968 25.4532 5.01317 25.5009 4.92461 25.54C4.76472 25.6109 4.67002 25.5449 4.68109 25.3713C4.68847 25.2418 4.76472 25.1611 4.87418 25.1012C5.25423 24.8934 5.66379 24.8568 6.07827 24.9387C6.5358 25.0291 6.74489 25.3286 6.74981 25.8615C6.75596 26.3809 6.7535 26.9016 6.74981 27.4211C6.74981 27.5445 6.7867 27.701 6.58869 27.7181C6.41773 27.7328 6.24923 27.734 6.29597 27.4211V27.4199ZM6.1988 26.6877C6.18282 26.6401 6.28244 26.4604 6.08319 26.453C5.82983 26.4445 5.57032 26.4482 5.33294 26.5545C5.17428 26.6254 5.0968 26.7537 5.09803 26.9322C5.09803 27.0984 5.16076 27.2292 5.31449 27.2989C5.70315 27.4761 6.31073 27.14 6.20126 26.6877H6.1988Z" fill="#494949"></path>
    <path d="M18.6968 27.4371C18.393 27.706 18.0843 27.7879 17.7374 27.7622C17.3512 27.7329 17.0647 27.5043 16.986 27.1438C16.9072 26.7808 17.0622 26.4434 17.3992 26.265C17.6686 26.122 17.9613 26.1024 18.2614 26.0926C18.3905 26.089 18.6045 26.2087 18.6304 25.9386C18.6623 25.6098 18.5418 25.3874 18.2897 25.3434C18.0572 25.3043 17.8223 25.3055 17.6009 25.4118C17.5136 25.4534 17.43 25.5011 17.3414 25.5402C17.1827 25.6098 17.088 25.5426 17.1003 25.3678C17.109 25.2383 17.1864 25.1576 17.2959 25.0989C17.6772 24.8924 18.0855 24.8557 18.5 24.9388C18.9292 25.0244 19.142 25.2786 19.1617 25.7614C19.1851 26.3493 19.1691 26.9384 19.1691 27.5263C19.1691 27.6486 19.1149 27.7121 18.9846 27.7231C18.8038 27.7378 18.6869 27.6852 18.6968 27.4383V27.4371ZM18.6181 26.6879C18.6021 26.6402 18.7017 26.4605 18.5024 26.4532C18.2491 26.4446 17.9896 26.4483 17.7522 26.5547C17.5935 26.6255 17.5161 26.7539 17.5173 26.9323C17.5173 27.0986 17.58 27.2293 17.7337 27.299C18.1224 27.4762 18.73 27.1401 18.6205 26.6879H18.6181Z" fill="#494949"></path>
    <path d="M46.8594 27.4273C46.5506 27.6999 46.2444 27.7879 45.8976 27.7622C45.5089 27.7341 45.2211 27.5117 45.1387 27.1523C45.0538 26.782 45.2125 26.4385 45.5581 26.2589C45.8287 26.1183 46.1214 26.0987 46.4215 26.0926C46.5433 26.0902 46.7327 26.1941 46.7769 25.968C46.8323 25.6893 46.7228 25.4314 46.5076 25.3654C46.2727 25.2921 46.0304 25.3043 45.7992 25.3935C45.6971 25.4326 45.6024 25.4913 45.5015 25.5365C45.3355 25.6123 45.2322 25.539 45.2519 25.3568C45.2629 25.2468 45.3232 25.1662 45.4204 25.1136C45.868 24.8728 46.3379 24.8288 46.8188 24.9889C47.1865 25.1124 47.3021 25.4277 47.3132 25.7712C47.3316 26.3518 47.3193 26.9348 47.3206 27.5153C47.3206 27.6474 47.2652 27.7158 47.1238 27.7219C46.9516 27.7292 46.8323 27.6901 46.8594 27.4273ZM46.7696 26.6915C46.745 26.6451 46.8507 26.4679 46.6687 26.4581C46.4031 26.4434 46.1288 26.4459 45.8791 26.5681C45.7217 26.6451 45.6577 26.7832 45.6651 26.958C45.6713 27.1169 45.7389 27.2379 45.8828 27.3027C46.269 27.4762 46.8766 27.145 46.7683 26.6928L46.7696 26.6915Z" fill="#494949"></path>
    <path d="M50.4627 26.6437C50.4627 26.975 50.4578 27.2353 50.4639 27.4957C50.4688 27.7034 50.3446 27.7218 50.181 27.723C50.0138 27.723 49.9215 27.6741 49.9228 27.4895C49.9277 27.0104 49.924 26.5301 49.9228 26.0509C49.9228 25.7882 49.8908 25.5193 49.6177 25.4044C49.3312 25.2834 49.0876 25.4105 48.8712 25.6158C48.7359 25.7454 48.6793 25.8823 48.6842 26.0681C48.6953 26.5337 48.6818 26.9994 48.6904 27.4651C48.6941 27.6668 48.6031 27.723 48.4136 27.7242C48.2169 27.7254 48.1443 27.6533 48.1455 27.4578C48.1517 26.711 48.148 25.9642 48.1492 25.2174C48.1492 25.0951 48.1345 24.9546 48.3202 24.9485C48.4715 24.9436 48.6338 24.9142 48.6449 25.1501C48.6535 25.3115 48.7433 25.2149 48.7925 25.1746C49.0015 25.0047 49.2279 24.8971 49.5083 24.902C50.0322 24.9106 50.3471 25.1746 50.4295 25.6879C50.4836 26.0289 50.4516 26.3712 50.4615 26.6425L50.4627 26.6437Z" fill="#494949"></path>
    <path d="M14.0368 26.3138C14.0368 25.9434 14.0368 25.5743 14.0368 25.204C14.0368 25.0744 14.0418 24.9485 14.2238 24.9485C14.3701 24.9485 14.5239 24.9253 14.5325 25.1465C14.5374 25.3005 14.6223 25.2272 14.6776 25.1807C14.9027 24.9913 15.1524 24.8911 15.4549 24.9045C15.8682 24.9216 16.1461 25.1147 16.2741 25.5059C16.3257 25.6635 16.3478 25.8273 16.3503 25.9911C16.3552 26.4849 16.3466 26.9775 16.3552 27.4713C16.3589 27.6766 16.2618 27.7279 16.076 27.7255C15.8952 27.7243 15.8091 27.6668 15.8116 27.4762C15.8178 26.997 15.8141 26.5167 15.8116 26.0376C15.8116 25.7735 15.771 25.5083 15.4931 25.3995C15.2139 25.2908 14.9753 25.413 14.7637 25.6134C14.6284 25.7418 14.5682 25.8762 14.5719 26.0644C14.5829 26.5301 14.5694 26.9958 14.578 27.4615C14.5817 27.6583 14.5017 27.7255 14.3074 27.7267C14.1156 27.7267 14.0295 27.6668 14.0344 27.4664C14.043 27.0826 14.0368 26.6988 14.0368 26.315V26.3138Z" fill="#494949"></path>
    <path d="M42.1456 26.331C42.1456 25.9473 42.1456 25.5635 42.1456 25.1797C42.1456 25.0489 42.1727 24.945 42.3363 24.9487C42.4728 24.9511 42.6302 24.9181 42.6376 25.1296C42.6437 25.2848 42.7163 25.2408 42.7901 25.1784C43.0029 25 43.2378 24.8961 43.5256 24.9034C44.0188 24.9157 44.3435 25.1626 44.4173 25.6478C44.512 26.2809 44.453 26.9202 44.4542 27.5557C44.4542 27.7525 44.2869 27.7146 44.1602 27.7208C44.0126 27.7281 43.9216 27.6768 43.9229 27.513C43.9241 27.0473 43.9241 26.5816 43.9216 26.1159C43.9216 26.0071 43.9216 25.8947 43.8983 25.7896C43.8036 25.3752 43.4284 25.2286 43.0681 25.4632C42.8209 25.6246 42.656 25.8152 42.6806 26.1501C42.7126 26.5865 42.6819 27.0265 42.6905 27.4653C42.6942 27.6658 42.6068 27.7256 42.4162 27.7269C42.2219 27.7269 42.1419 27.6596 42.1456 27.4629C42.1542 27.0864 42.1481 26.7099 42.1481 26.3323L42.1456 26.331Z" fill="#494949"></path>
    <path d="M74.0629 26.3199C74.0629 25.9435 74.0629 25.5658 74.0629 25.1893C74.0629 25.0647 74.0752 24.9486 74.2425 24.9486C74.3852 24.9486 74.545 24.9156 74.5573 25.1392C74.5672 25.3165 74.6582 25.2162 74.7148 25.171C74.9251 25.0011 75.1526 24.8972 75.433 24.9033C75.9447 24.9131 76.2608 25.1747 76.3432 25.677C76.4034 26.0449 76.3715 26.4153 76.3776 26.7844C76.3813 27.024 76.3739 27.2635 76.3776 27.5031C76.3813 27.6974 76.2645 27.7219 76.107 27.7219C75.9496 27.7219 75.8352 27.6938 75.8377 27.5006C75.8414 27.0215 75.8377 26.5412 75.8377 26.062C75.8377 25.7919 75.8094 25.5145 75.5253 25.3996C75.2277 25.2798 74.9817 25.4203 74.7664 25.6355C74.6508 25.7504 74.5967 25.8701 74.6004 26.0339C74.609 26.5069 74.6053 26.9787 74.6029 27.4517C74.6029 27.6889 74.5635 27.7121 74.3212 27.7219C74.1158 27.7304 74.058 27.6363 74.0617 27.4493C74.0691 27.0728 74.0641 26.6964 74.0641 26.3187L74.0629 26.3199Z" fill="#494949"></path>
    <path d="M35.3419 27.0546C35.4218 27.0021 35.423 26.9287 35.4439 26.8676C35.637 26.3115 35.8277 25.7541 36.0195 25.1968C36.1019 24.9572 36.2286 24.8912 36.4771 24.9523C36.6271 24.989 36.6062 25.0917 36.5693 25.1943C36.4426 25.5488 36.3147 25.9033 36.1856 26.2565C36.0355 26.6684 35.8744 27.0766 35.7354 27.4922C35.6604 27.7183 35.4993 27.7195 35.3111 27.7232C35.1229 27.7269 35.0012 27.6755 34.9335 27.4836C34.6716 26.7405 34.3985 26.0023 34.1328 25.2616C34.0972 25.1613 33.9976 25.0403 34.1624 24.9621C34.3198 24.8876 34.5805 24.9572 34.6347 25.088C34.7048 25.2591 34.7638 25.4351 34.8241 25.6087C34.9729 26.0353 35.1205 26.4631 35.2693 26.8896C35.289 26.9446 35.3148 26.9972 35.3406 27.0558L35.3419 27.0546Z" fill="#494949"></path>
    <path d="M64.1033 27.0679C64.3234 26.4299 64.5424 25.8188 64.7428 25.2003C64.808 25.0011 64.9138 24.9253 65.118 24.9449C65.3123 24.9644 65.3627 25.0097 65.2975 25.1893C65.0159 25.9752 64.7244 26.7587 64.4403 27.5446C64.3763 27.7206 64.2361 27.7231 64.0873 27.7206C63.9299 27.7182 63.7626 27.7439 63.69 27.5458C63.4035 26.7538 63.1144 25.963 62.8266 25.171C62.7713 25.0194 62.8328 24.9559 62.9877 24.9473C63.278 24.9302 63.3174 24.9473 63.4133 25.2174C63.6039 25.7528 63.7872 26.2906 63.9766 26.8272C64.0037 26.9017 64.011 26.9873 64.1021 27.0692L64.1033 27.0679Z" fill="#494949"></path>
    <path d="M67.8484 27.7572C67.5865 27.7707 67.3774 27.7389 67.1781 27.6497C67.0773 27.6044 67.0047 27.536 66.9887 27.4235C66.974 27.327 66.9703 27.2231 67.0539 27.1571C67.1339 27.0935 67.2126 27.1595 67.2815 27.1999C67.5053 27.3294 67.7464 27.3637 67.9997 27.3343C68.1793 27.3135 68.3121 27.2304 68.3552 27.0434C68.3982 26.8576 68.2974 26.7342 68.151 26.6584C67.9382 26.5484 67.7082 26.469 67.4942 26.3614C67.2138 26.2208 67.0539 25.9996 67.0588 25.6745C67.0638 25.397 67.1818 25.1819 67.4217 25.0487C67.7894 24.8434 68.1731 24.8556 68.5556 25.012C68.6467 25.0487 68.7217 25.1098 68.7451 25.2149C68.7647 25.3041 68.7746 25.3983 68.7008 25.4643C68.6307 25.5278 68.5544 25.4728 68.4917 25.4374C68.3035 25.3274 68.1006 25.3127 67.8915 25.331C67.7316 25.3457 67.616 25.4215 67.5791 25.5816C67.5422 25.7417 67.6037 25.8725 67.7476 25.9434C67.9751 26.0558 68.2162 26.1438 68.4425 26.2575C68.8791 26.4763 69.0206 26.9261 68.7893 27.3282C68.627 27.6106 68.3601 27.7193 68.0526 27.756C67.9714 27.7658 67.8878 27.7572 67.8497 27.7572H67.8484Z" fill="#494949"></path>
    <path d="M51.6705 26.3529C51.673 26.4751 51.6705 26.5986 51.7001 26.7196C51.8329 27.288 52.3531 27.4921 52.8451 27.1657C52.8562 27.1584 52.866 27.1474 52.8783 27.1425C52.9804 27.1022 53.0567 26.9298 53.1932 27.0643C53.278 27.1486 53.2399 27.4004 53.1415 27.5043C53.1317 27.5141 53.1218 27.5238 53.1108 27.5312C52.6914 27.8575 51.5931 27.9443 51.2782 27.1621C51.0371 26.5644 51.0371 25.9704 51.3594 25.4032C51.6656 24.863 52.6336 24.7175 53.0972 25.1258C53.2252 25.2382 53.2313 25.3812 53.1919 25.5206C53.1526 25.6611 53.0456 25.6147 52.9607 25.5585C52.7861 25.4423 52.604 25.3592 52.3851 25.3641C52.0272 25.3702 51.8206 25.5193 51.7247 25.8652C51.6804 26.0241 51.6607 26.1867 51.6718 26.3529H51.6705Z" fill="#494949"></path>
    <path d="M20.5377 25.6952C20.5377 26.277 20.5377 26.8588 20.5377 27.4406C20.5377 27.6863 20.502 27.7193 20.2683 27.7205C20.0322 27.7205 19.999 27.6899 19.999 27.443C19.9977 26.2794 19.9977 25.1159 19.999 23.9535C19.999 23.7054 20.0334 23.6736 20.2671 23.6736C20.5008 23.6736 20.5377 23.7078 20.5377 23.951C20.5389 24.5328 20.5377 25.1146 20.5377 25.6964V25.6952Z" fill="#494949"></path>
    <path d="M40.605 25.2848C40.808 25.0293 41.0318 24.868 41.3602 24.9059C41.6197 24.9352 41.7489 25.1406 41.6369 25.3716C41.5988 25.4498 41.5373 25.4486 41.4635 25.4388C40.9568 25.3728 40.6173 25.6686 40.6173 26.1758C40.6173 26.6073 40.6112 27.0387 40.6198 27.4702C40.6235 27.678 40.5214 27.722 40.3382 27.7232C40.1549 27.7232 40.075 27.6609 40.0762 27.4726C40.0811 26.7332 40.0762 25.9925 40.0786 25.253C40.0786 25.1125 40.0479 24.9523 40.2767 24.945C40.514 24.9377 40.5448 24.9584 40.5755 25.2188C40.5768 25.231 40.5866 25.242 40.6063 25.2836L40.605 25.2848Z" fill="#494949"></path>
    <path d="M69.5504 26.3211C69.5504 25.9446 69.5554 25.5682 69.548 25.1929C69.5443 25.0035 69.6292 24.9436 69.8112 24.9436C69.9957 24.9436 70.0941 24.9913 70.0916 25.1978C70.0855 25.9569 70.0855 26.7159 70.0916 27.4761C70.0928 27.6864 69.9858 27.723 69.8063 27.7242C69.6205 27.7255 69.5443 27.657 69.548 27.4712C69.5554 27.0887 69.5504 26.7049 69.5504 26.3223V26.3211Z" fill="#494949"></path>
    <path d="M65.8248 26.3346C65.8248 25.9521 65.8297 25.5683 65.8224 25.1857C65.8187 24.9901 65.9171 24.9425 66.0929 24.9449C66.2651 24.9461 66.3672 24.9877 66.366 25.1857C66.3611 25.9521 66.3611 26.7184 66.366 27.4835C66.3672 27.6803 66.2676 27.7243 66.0942 27.7243C65.9208 27.7243 65.8187 27.6816 65.8224 27.4848C65.8297 27.1022 65.8248 26.7184 65.8248 26.3358V26.3346Z" fill="#494949"></path>
    <path d="M61.7682 26.3333C61.7682 25.9508 61.7731 25.567 61.7657 25.1844C61.762 24.9876 61.8617 24.9424 62.0363 24.9436C62.2097 24.9436 62.3093 24.9876 62.3081 25.1844C62.3032 25.9508 62.3032 26.7171 62.3081 27.4823C62.3093 27.6803 62.2085 27.7218 62.0363 27.723C61.8617 27.723 61.762 27.679 61.7657 27.4823C61.7731 27.0997 61.7682 26.7159 61.7682 26.3333Z" fill="#494949"></path>
    <path d="M26.2159 26.0167C26.3942 26.0167 26.5725 26.0191 26.7509 26.0167C26.8972 26.0142 26.9415 26.101 26.944 26.2257C26.9464 26.3491 26.9071 26.4444 26.7607 26.4444C26.3966 26.4457 26.0338 26.4444 25.6698 26.4444C25.5296 26.4444 25.4742 26.3613 25.4718 26.2354C25.4693 26.0998 25.5296 26.0154 25.6796 26.0167C25.8579 26.0179 26.0363 26.0167 26.2146 26.0167H26.2159Z" fill="#494949"></path>
    <path d="M69.823 24.4729C69.5844 24.4742 69.5032 24.4008 69.502 24.1808C69.5007 23.9584 69.5819 23.8789 69.8131 23.8777C70.0517 23.8765 70.1329 23.9498 70.1341 24.1698C70.1354 24.3923 70.0542 24.4705 69.823 24.4729Z" fill="#494949"></path>
    <path d="M62.0321 24.4732C61.7997 24.4732 61.7185 24.3937 61.7197 24.1725C61.721 23.9525 61.8021 23.8779 62.0395 23.8792C62.272 23.8792 62.3531 23.9586 62.3519 24.1798C62.3507 24.3998 62.2695 24.4744 62.0321 24.4732Z" fill="#494949"></path>
    <path d="M66.0828 24.4732C65.8541 24.472 65.7717 24.3901 65.7766 24.1676C65.7803 23.9488 65.8614 23.8779 66.1025 23.8792C66.3313 23.8804 66.4137 23.9623 66.4088 24.1847C66.4051 24.4023 66.3239 24.4744 66.0828 24.4732Z" fill="#494949"></path>
    <path d="M9.79511 24.4315C9.55897 24.4315 9.47779 24.3569 9.47656 24.1381C9.47656 23.9218 9.56143 23.8399 9.79265 23.8375C10.03 23.835 10.1087 23.9096 10.1087 24.1332C10.1087 24.3581 10.0313 24.4315 9.79511 24.4327V24.4315Z" fill="#494949"></path>
    <path d="M61.1777 11.2287C61.1777 10.2423 61.1777 9.25715 61.1777 8.27079C61.1777 7.38342 61.9919 6.57306 62.8824 6.57306C63.9241 6.57306 64.9646 6.57795 66.0064 6.57184C67.8623 6.56084 70.2201 7.96155 70.4747 10.5381C70.5632 11.4364 70.5177 12.3177 70.1697 13.1623C69.6617 14.3919 68.7196 15.1668 67.4884 15.6215C66.9866 15.806 66.4651 15.8879 65.9277 15.8843C64.9068 15.8769 63.8872 15.8843 62.8664 15.8818C62.003 15.8806 61.1802 15.0653 61.179 14.2073C61.1765 13.2148 61.179 12.2224 61.179 11.2287H61.1777ZM64.592 11.2164C64.592 11.5721 64.5981 11.929 64.5895 12.2847C64.5846 12.4497 64.6486 12.4998 64.8072 12.4949C65.1036 12.4864 65.4 12.5035 65.6964 12.4888C66.122 12.468 66.5549 12.4558 66.919 12.1845C67.2781 11.9168 67.4614 11.5611 67.406 11.1174C67.3249 10.477 66.8353 10.0528 66.1724 9.99784C65.7247 9.96117 65.277 9.97217 64.8306 9.95873C64.6313 9.95262 64.5846 10.0308 64.5895 10.2105C64.6006 10.5454 64.5932 10.8815 64.5932 11.2164H64.592Z" fill="#494949"></path>
  </g>
  <defs>
    <clipPath id="clip0_472_10620">
      <rect width="75.5906" height="27.0633" fill="white" transform="translate(0.860352 0.718506)"></rect>
    </clipPath>
  </defs>
</svg>
