<?xml version="1.0" encoding="UTF-8"?>
<svg xmlns="http://www.w3.org/2000/svg" width="135" height="22" viewBox="0 0 135 22" fill="none">
  <g clip-path="url(#clip0_472_10399)">
    <path d="M6.09191 6.42091V5.34771C6.09191 4.81111 6.62571 4.27451 7.69331 4.27451C8.76091 4.27451 9.29471 4.81111 9.29471 5.88431V6.95751H14.0989V5.34771C14.0989 1.05491 10.3623 0.518311 7.69331 0.518311C4.49051 0.518311 1.28771 1.59151 1.28771 4.81111V7.49411C2.35531 11.2503 8.76091 12.3235 9.82851 15.0065V16.6163C9.82851 17.1529 9.29471 17.6895 8.22711 17.6895C7.15951 17.6895 6.09191 17.1529 6.09191 16.0797V14.4699H0.753906V16.0797C0.753906 20.3725 3.95671 21.4457 7.69331 21.4457C10.8961 21.4457 14.0989 20.3725 14.6327 17.1529V13.9333C13.5651 10.1771 6.62571 9.10391 6.09191 6.42091ZM68.0128 6.42091V5.34771C68.0128 4.81111 68.5466 4.27451 69.6142 4.27451C70.6818 4.27451 71.2156 4.81111 71.2156 5.88431V6.95751H76.0198V5.88431C76.0198 1.59151 72.2832 1.05491 69.6142 1.05491C66.4114 1.05491 63.7424 2.12811 63.2086 5.34771V8.03071C64.2762 11.7869 70.6818 12.8601 71.7494 15.5431V17.1529C71.7494 17.6895 71.2156 18.2261 70.148 18.2261C69.0804 18.2261 68.0128 17.6895 68.0128 16.6163V15.0065H63.2086V16.6163C63.2086 20.9091 66.4114 21.9823 70.148 21.9823C73.3508 21.9823 76.5536 20.9091 76.5536 17.6895V14.4699C75.486 10.1771 68.5466 9.10391 68.0128 6.42091ZM111.251 17.1529L106.98 1.59151H100.041V20.3725H104.845L104.311 4.27451L109.115 20.3725H116.055V1.59151H111.251V17.1529ZM21.5721 1.59151L17.8355 20.9091H23.1735L25.8425 3.20131L28.5115 20.9091H33.8495L30.1129 1.59151H21.5721ZM49.8635 1.59151L47.1945 16.6163L45.0593 1.59151H37.0523L36.5185 20.9091H41.3227V3.20131L44.5255 20.9091H49.3297L52.5325 3.20131V20.9091H57.3368L56.8029 1.59151H49.8635ZM94.169 1.59151H89.3648V16.0797C89.3648 16.6163 88.831 17.6895 87.7634 17.6895C86.6958 17.6895 86.162 16.6163 86.162 16.0797V1.59151H81.3578V16.6163C81.8916 20.3725 84.5606 21.4457 87.7634 21.4457C91.5 21.4457 94.169 20.3725 94.169 16.6163V1.59151ZM127.265 10.1771V12.8601H129.4V16.0797C129.4 16.6163 128.866 17.6895 127.265 17.6895C125.663 17.6895 125.663 16.6163 125.129 16.0797V5.88431C125.129 5.34771 125.663 4.27451 127.265 4.27451C128.866 4.27451 128.866 5.34771 129.4 5.88431V7.49411H134.204V5.88431C133.67 2.12811 131.001 1.05491 127.265 1.05491C124.062 1.05491 120.859 2.12811 120.325 5.88431V16.0797C120.859 19.8359 123.528 20.9091 127.265 20.9091C130.467 20.9091 133.67 19.8359 134.204 16.0797V9.64051H127.265V10.1771Z" fill="#494949"></path>
  </g>
  <defs>
    <clipPath id="clip0_472_10399">
      <rect width="133.45" height="21.464" fill="white" transform="translate(0.753906 0.518311)"></rect>
    </clipPath>
  </defs>
</svg>
