<svg width="405" height="296" viewBox="0 0 405 296" fill="none" xmlns="http://www.w3.org/2000/svg">
<mask id="mask0_3849_267" style="mask-type:alpha" maskUnits="userSpaceOnUse" x="0" y="0" width="405" height="296">
<rect width="405" height="296" rx="8" fill="#ECF3FF"/>
</mask>
<g mask="url(#mask0_3849_267)">
<path opacity="0.05" d="M476.904 337.962C470.615 337.969 464.449 336.319 459.082 333.193C453.716 330.068 449.36 325.589 446.496 320.251L255.219 -36.2931L112.123 238.784L244.875 183.771C253.168 180.327 262.556 180.163 270.977 183.315C279.397 186.467 286.159 192.678 289.779 200.582C291.566 204.493 292.527 208.702 292.606 212.968C292.686 217.234 291.883 221.473 290.243 225.443C288.602 229.412 286.156 233.035 283.045 236.102C279.935 239.17 276.222 241.623 272.117 243.321L53.7237 333.831C47.3107 336.489 40.197 337.206 33.3431 335.885C26.4891 334.565 20.2252 331.271 15.3974 326.448C10.5785 321.627 7.43185 315.509 6.38471 308.925C5.33757 302.341 6.44028 295.609 9.54378 289.643L224.203 -122.973C227.017 -128.364 231.346 -132.903 236.707 -136.086C242.067 -139.269 248.25 -140.97 254.565 -141H254.769C261.052 -141.002 267.215 -139.35 272.577 -136.226C277.938 -133.102 282.291 -128.628 285.155 -123.296L507.273 290.747C509.309 294.546 510.539 298.69 510.893 302.943C511.247 307.195 510.72 311.473 509.339 315.531C507.958 319.589 505.753 323.347 502.848 326.592C499.943 329.836 496.395 332.503 492.408 334.44C487.614 336.779 482.307 338 476.921 338" fill="url(#paint0_linear_3849_267)"/>
</g>
<defs>
<linearGradient id="paint0_linear_3849_267" x1="100.688" y1="97.9827" x2="380.13" y2="97.2274" gradientUnits="userSpaceOnUse">
<stop stop-color="white"/>
<stop offset="1" stop-color="white" stop-opacity="0"/>
</linearGradient>
</defs>
</svg>
