<svg xmlns="http://www.w3.org/2000/svg" xmlns:xlink="http://www.w3.org/1999/xlink" width="141.097" height="66.663" viewBox="0 0 141.097 66.663">
  <defs>
    <clipPath id="clip-path">
      <rect width="74.362" height="3.233" fill="none"/>
    </clipPath>
  </defs>
  <g id="Group_105316" data-name="Group 105316" transform="translate(-995.171 -605.253)">
    <path id="Path_3254" data-name="Path 3254" d="M228.679,516.238a7.356,7.356,0,0,0-4.329-4.119,9.146,9.146,0,0,0-4.1-.346,6.9,6.9,0,0,0-4.683,2.464,9.782,9.782,0,0,0-1.807,3.667,26.1,26.1,0,0,0-.789,6.766,32.492,32.492,0,0,0,.2,3.59,15.854,15.854,0,0,0,1.3,4.906,7.551,7.551,0,0,0,3.66,3.854,8.439,8.439,0,0,0,4.121.672,7.249,7.249,0,0,0,4.728-1.886,8.615,8.615,0,0,0,2.181-3.562,23.1,23.1,0,0,0,1.029-7.282,27.994,27.994,0,0,0-.181-3.623,16.1,16.1,0,0,0-1.322-5.1m-3.2,14.391a5.941,5.941,0,0,1-1.13,2.406,3.679,3.679,0,0,1-5.855-.382,7.734,7.734,0,0,1-1.06-3.169,32.906,32.906,0,0,1,.055-9.839,8.111,8.111,0,0,1,.968-2.828,3.678,3.678,0,0,1,6.214,0,9.118,9.118,0,0,1,1.069,3.239,31.163,31.163,0,0,1,.327,4.724,25.243,25.243,0,0,1-.587,5.845" transform="translate(799.118 134.203)" fill="#86bc41"/>
    <path id="Path_3255" data-name="Path 3255" d="M11.192,526.605a13.81,13.81,0,0,0-6.225-.093c-.468.086-.467.089-.417-.387,0-.022,0-.043.007-.065.166-1.791.341-3.581.488-5.373.025-.3.109-.371.4-.37,2.959.011,5.918,0,8.877.012.248,0,.337-.052.333-.32q-.025-1.457,0-2.914c.005-.291-.063-.382-.372-.381-3.45.012-6.9.008-10.351.008-.732,0-1.463.005-2.195,0-.191,0-.266.051-.279.253-.082,1.2-.175,2.392-.27,3.588-.123,1.554-.251,3.108-.374,4.662-.095,1.2-.184,2.391-.277,3.587-.013.169-.011.308.174.41.5.274.981.57,1.467.862a.431.431,0,0,0,.343.056c.658-.158,1.327-.255,2-.351a11.4,11.4,0,0,1,4.356.107,3.972,3.972,0,0,1,3.053,2.45,5.409,5.409,0,0,1,.262,2.42,4.13,4.13,0,0,1-1.428,2.951,5.359,5.359,0,0,1-2.98,1.14A14.017,14.017,0,0,1,0,537.267c0,1.222,0,2.4,0,3.574,0,.143.1.182.193.232a8.579,8.579,0,0,0,1.447.6,14.905,14.905,0,0,0,3.7.624,15.678,15.678,0,0,0,5.159-.434,7.686,7.686,0,0,0,4.949-3.786,9.35,9.35,0,0,0,.957-4.849,6.889,6.889,0,0,0-5.211-6.624" transform="translate(995.171 129.576)" fill="#86bc41"/>
    <path id="Path_3256" data-name="Path 3256" d="M1422.469,518.967a1.773,1.773,0,0,0-1.755,1.436,5.857,5.857,0,0,0,0,3.132,1.857,1.857,0,0,0,2.046,1.458,1.791,1.791,0,0,0,1.821-1.479,5.8,5.8,0,0,0,.181-1.487,5.289,5.289,0,0,0-.24-1.706,1.859,1.859,0,0,0-2.056-1.354m.6,4.276c-.044.245-.135.49-.435.488s-.375-.252-.433-.494a6.371,6.371,0,0,1-.09-1.268,5.888,5.888,0,0,1,.1-1.3c.056-.216.145-.437.412-.441s.389.214.434.451a7,7,0,0,1,.01,2.564" transform="translate(-312.519 127.503)" fill="#86bc41"/>
    <path id="Path_3258" data-name="Path 3258" d="M1366.819,522.648a2.308,2.308,0,0,0-.974-.027c-.177.028-.218-.016-.19-.177a1.241,1.241,0,0,0,.032-.292c-.017-.233.085-.292.307-.285.491.016.983,0,1.474.01.208.006.265-.066.254-.263a7.622,7.622,0,0,1,0-.818c.01-.192-.064-.241-.245-.237-.48.01-.961,0-1.441,0s-.939.012-1.408,0c-.231-.008-.293.075-.3.3-.039.795-.106,1.588-.148,2.383-.01.191-.175.435.15.553.209.076.379.221.642.133a1.658,1.658,0,0,1,1.063-.008.617.617,0,0,1,.45.675c-.033.355-.319.587-.769.61a3.584,3.584,0,0,1-1.436-.274c-.2-.076-.25-.018-.244.175.008.262.015.525,0,.785a.323.323,0,0,0,.267.376,4.951,4.951,0,0,0,1.714.193,1.92,1.92,0,0,0,2.057-2.335,1.653,1.653,0,0,0-1.247-1.474" transform="translate(-260.53 126.037)" fill="#86bc41"/>
    <path id="Path_3259" data-name="Path 3259" d="M1184.291,537.594a1.389,1.389,0,0,0-1.052-1.381,4.184,4.184,0,0,0-2.626.216c-.129.051-.162.113-.1.243.11.225.212.454.3.687.06.152.13.189.29.121a2.63,2.63,0,0,1,1.107-.248.458.458,0,0,1,.474.327c.053.168.036.266-.182.254a4.972,4.972,0,0,0-1.076.067,1.442,1.442,0,0,0-1.322,2.078,1.021,1.021,0,0,0,.8.741,1.8,1.8,0,0,0,1.963-.608c.363.6.363.6,1.036.6a1.262,1.262,0,0,1,.164,0c.171.022.225-.046.223-.219-.008-.96.007-1.92-.008-2.88m-1.568,1.359a.636.636,0,0,1-.556.674c-.227.033-.456.01-.537-.252a.456.456,0,0,1,.246-.578,1.43,1.43,0,0,1,.7-.124c.229,0,.113.187.146.28" transform="translate(-91.118 111.737)" fill="#86bc41"/>
    <path id="Path_3260" data-name="Path 3260" d="M995.173,537.39c.027-.119-.028-.178-.16-.171-.785.044-1.568-.079-2.351-.059a1.426,1.426,0,0,0-1.492,1.418,1.4,1.4,0,0,0,.7,1.374c-.611.583-.636.8-.15,1.349-.638.252-.914.61-.891,1.134a1.15,1.15,0,0,0,.985,1.105,3.878,3.878,0,0,0,2.377-.147,1.389,1.389,0,0,0,.89-1.685c-.122-.57-.614-.882-1.386-.887-.392,0-.785,0-1.176-.03-.158-.01-.354-.062-.317-.289a.366.366,0,0,1,.373-.34c.185,0,.371.011.556,0a1.462,1.462,0,0,0,1.486-1.791,3.965,3.965,0,0,0-.16-.491c.194-.041.385-.082.577-.12.249-.05.107-.244.136-.373m-1.248,4.311c.4.1.429.651.069.953a1.752,1.752,0,0,1-1.011.317c-.065.007-.131,0-.224,0a1.5,1.5,0,0,1-.555-.064.621.621,0,0,1-.514-.563.656.656,0,0,1,.486-.663,3.7,3.7,0,0,1,1.75.017m-1-2.134a.785.785,0,0,1-.832-.906c.007-.59.3-.912.835-.906.515.006.78.315.781.912s-.254.9-.784.9" transform="translate(83.03 110.755)" fill="#fff"/>
    <path id="Path_3261" data-name="Path 3261" d="M1136.26,520.576c-.48.011-.961,0-1.441,0-.5,0-1,.006-1.506,0-.176,0-.25.039-.25.234q.01,2.685,0,5.369c0,.2.076.238.251.233.349-.01.7-.017,1.048,0,.23.013.27-.084.266-.285-.011-.534.011-1.07-.01-1.6-.011-.266.054-.366.336-.349.4.024.807.007,1.211.005.094,0,.213.025.209-.13-.009-.358.12-.769-.054-1.055-.113-.185-.529-.038-.809-.059-.022,0-.044,0-.066,0-.853,0-.845,0-.828-.866,0-.208.072-.257.267-.252.458.013.917,0,1.375.008.19,0,.282-.036.268-.25a5.489,5.489,0,0,1,0-.752c.015-.214-.079-.254-.268-.249" transform="translate(-47.907 126.02)" fill="#86bc41"/>
    <path id="Path_3262" data-name="Path 3262" d="M1245.532,537.99c-.288-.13-.581-.249-.87-.376-.093-.041-.185-.1-.17-.216.018-.133.143-.153.25-.168a2.032,2.032,0,0,1,.614.073c.258.042.533.321.74.162.188-.145.221-.483.345-.725.086-.168.025-.223-.124-.284a3.748,3.748,0,0,0-1.923-.268,1.434,1.434,0,0,0-1.362.9,1.349,1.349,0,0,0,.85,1.722c.305.144.621.265.929.4.117.053.262.122.234.278s-.2.184-.339.2a3.1,3.1,0,0,1-.875-.087c-.284-.054-.673-.326-.806-.175-.154.176-.034.58-.059.884-.019.224.084.307.279.356a4.361,4.361,0,0,0,1.263.147c.152,0,.306.007.458,0a1.473,1.473,0,0,0,1.55-1.14,1.375,1.375,0,0,0-.984-1.686" transform="translate(-149.063 111.675)" fill="#86bc41"/>
    <path id="Path_3263" data-name="Path 3263" d="M732.721,517.305a1.711,1.711,0,0,0-1.7.618c.056-.568.029-1.125.031-1.68,0-.657,0-.643-.666-.659-.254-.006-.3.074-.3.311.01,1.735.006,3.47.006,5.205,0,.741,0,.733.736.719.2,0,.231-.073.229-.248-.009-.6,0-1.2,0-1.8a3.359,3.359,0,0,1,.081-.942,1.028,1.028,0,0,1,1.221-.733c.45.066.672.381.674.964,0,.851.01,1.7-.005,2.553,0,.237.136.23.266.194.236-.066.665.213.691-.178a27.89,27.89,0,0,0,.011-2.879,1.334,1.334,0,0,0-1.265-1.445" transform="translate(323.071 130.615)" fill="#fff"/>
    <path id="Path_3264" data-name="Path 3264" d="M1295.133,529.612a1.3,1.3,0,0,1-.129.02c-.375.029-.524-.1-.529-.479,0-.294,0-.589,0-.883,0-.783,0-.783.8-.788a1.279,1.279,0,0,1,.131,0c.142.014.194-.05.188-.19-.013-.314.085-.692-.057-.923-.119-.193-.526-.042-.8-.066a.141.141,0,0,0-.033,0c-.169.024-.226-.045-.227-.218,0-.224.11-.537-.054-.651s-.46-.04-.7-.048c-.033,0-.066,0-.1,0a.22.22,0,0,0-.266.176,1.954,1.954,0,0,1-.918,1.207c-.236.128-.108.4-.1.6s.208.1.315.1c.187,0,.248.061.241.245-.012.316,0,.632,0,.948h.02c0,.359-.024.721.005,1.078a1.135,1.135,0,0,0,1.1,1.128,3.178,3.178,0,0,0,1.009-.035c.629-.137.63-.131.63-.771,0-.55,0-.55-.521-.455" transform="translate(-194.492 121.607)" fill="#86bc41"/>
    <path id="Path_3265" data-name="Path 3265" d="M1051.9,537.9a.222.222,0,0,0-.263.17c-.337,1.034-.68,2.067-1.021,3.1a.316.316,0,0,1-.078.234c-.066-.047-.04-.108-.034-.165-.278-1.1-.733-2.138-1.088-3.21a.167.167,0,0,0-.191-.128c-.289.006-.578,0-.9,0,.57,1.433,1.125,2.825,1.677,4.218a.468.468,0,0,1,.058.338c-.243.824-.559,1.071-1.4,1.043-.114,0-.164.012-.162.127.01.685-.121.681.577.691a1.727,1.727,0,0,0,.454-.036,1.88,1.88,0,0,0,1.3-1.313q.792-2.089,1.574-4.183l.333-.886c-.314,0-.576.008-.837,0" transform="translate(30.104 110.074)" fill="#fff"/>
    <path id="Path_3266" data-name="Path 3266" d="M854.556,538.6a1.922,1.922,0,0,0-1.772-1.526,1.952,1.952,0,0,0-2.2,1.294,3.18,3.18,0,0,0-.078,1.676,2.094,2.094,0,0,0,4.033.173,2.7,2.7,0,0,0,.1-.84,2.869,2.869,0,0,0-.077-.777m-1,1.53a1.065,1.065,0,0,1-2.024,0,2.52,2.52,0,0,1,.035-1.635.914.914,0,0,1,.938-.622.963.963,0,0,1,1,.592,2.031,2.031,0,0,1,.151.894,2.3,2.3,0,0,1-.1.774" transform="translate(212.282 110.839)" fill="#fff"/>
    <path id="Path_3267" data-name="Path 3267" d="M939.528,538.6a1.922,1.922,0,0,0-1.772-1.526,1.953,1.953,0,0,0-2.2,1.293,3.18,3.18,0,0,0-.078,1.676,2.094,2.094,0,0,0,4.033.174,2.7,2.7,0,0,0,.1-.84,2.878,2.878,0,0,0-.077-.777m-.989,1.49a1.066,1.066,0,0,1-2.045.013,2.554,2.554,0,0,1,.029-1.574.925.925,0,0,1,.977-.66.953.953,0,0,1,.992.644,2.15,2.15,0,0,1,.131.865,2.321,2.321,0,0,1-.084.711" transform="translate(134.057 110.84)" fill="#fff"/>
    <path id="Path_3268" data-name="Path 3268" d="M795.862,538.559a1.381,1.381,0,0,0-1.567-1.482,1.733,1.733,0,0,0-1.437.636c-.168-.572-.168-.558-.616-.573-.232-.008-.289.062-.287.29.012,1.156.005,2.313.005,3.47,0,.735,0,.728.749.705.177-.005.218-.061.215-.227-.009-.633,0-1.266,0-1.9a3.12,3.12,0,0,1,.076-.844,1.011,1.011,0,0,1,1.2-.755c.467.057.694.374.7.977,0,.829,0,1.658,0,2.488,0,.088-.082.244.1.252.251.01.5,0,.753,0,.139,0,.11-.11.11-.191,0-.949.025-1.9-.007-2.847" transform="translate(266.111 110.83)" fill="#fff"/>
    <path id="Path_3269" data-name="Path 3269" d="M625.35,536.994a1.951,1.951,0,0,0-2.282.9,2.957,2.957,0,0,0-.254,1.94,1.9,1.9,0,0,0,1.594,1.641,3.588,3.588,0,0,0,1.3,0c.792-.134.8-.142.761-.992a3.822,3.822,0,0,1-1.415.313,1.189,1.189,0,0,1-1.292-1.115c-.035-.209.022-.259.228-.256.677.012,1.354,0,2.031,0s.68,0,.666-.679a1.74,1.74,0,0,0-1.338-1.754m.232,1.78c-.272-.007-.545,0-.817,0s-.545-.006-.817,0c-.147,0-.177-.036-.156-.187a.99.99,0,0,1,1.006-.918.922.922,0,0,1,.95.919c.018.153-.026.189-.166.186" transform="translate(421.872 110.972)" fill="#fff"/>
    <path id="Path_3270" data-name="Path 3270" d="M576.635,520.836c.006-.228-.052-.29-.284-.287-1.167.013-2.335.006-3.5.006-.641,0-.631,0-.625.629,0,.2.074.23.246.226.414-.01.83.006,1.244-.008.187-.006.237.052.234.236-.01.753,0,1.505,0,2.258v1.865c0,.624,0,.606.624.63.29.011.359-.068.356-.356-.017-1.451,0-2.9-.014-4.352,0-.236.065-.3.291-.282.282.02.567,0,.851,0,.583,0,.571,0,.585-.57" transform="translate(468.393 126.045)" fill="#fff"/>
    <path id="Path_3271" data-name="Path 3271" d="M682.092,537.262a3.411,3.411,0,0,0-1.285-.177,1.828,1.828,0,0,0-1.817,1.406,3.314,3.314,0,0,0-.082,1.423,1.842,1.842,0,0,0,2.034,1.771c.195-.017.393-.019.584-.055.637-.12.666-.169.651-.8,0-.189-.031-.267-.236-.162a2.12,2.12,0,0,1-.721.2,1.06,1.06,0,0,1-1.291-.819,2.646,2.646,0,0,1-.047-1.038,1.13,1.13,0,0,1,1.591-1.062c.559.134.552.132.742-.429.051-.151.025-.2-.122-.255" transform="translate(370.218 110.824)" fill="#fff"/>
    <path id="Path_3272" data-name="Path 3272" d="M914.193,516.305c0-.7,0-.693-.692-.7-.21,0-.278.048-.275.268.013.938.005,1.876.005,2.814v2.487c0,.663,0,.651.659.665.241.005.31-.051.309-.3-.012-1.745-.006-3.49-.006-5.235" transform="translate(154.471 130.593)" fill="#fff"/>
    <path id="Path_3273" data-name="Path 3273" d="M1075.768,579.269a.823.823,0,0,0,.089-.186l-.111.069c.036.047.047.093.022.117" transform="translate(4.857 72.16)" fill="#fff"/>
    <text id="_2023" data-name="2023" transform="translate(1041.374 661.023)" fill="#fff" font-size="7" font-family="OpenSans-Bold, Open Sans" font-weight="700"><tspan x="0" y="0">2023</tspan></text>
    <text id="_" data-name=" " transform="translate(1060.214 659.023)" fill="#fff" font-size="5" font-family="OpenSans-Regular, Open Sans"><tspan x="0" y="0"> </tspan></text>
    <text id="INDIA" transform="translate(1062.355 660.023)" fill="#fff" font-size="6" font-family="OpenSans-Light, Open Sans" font-weight="300"><tspan x="0" y="0">INDIA</tspan></text>
    <path id="Path_3274" data-name="Path 3274" d="M1682.947,239.959a3.721,3.721,0,0,1,7.443,0,3.773,3.773,0,0,1-3.721,3.721,3.722,3.722,0,0,1-3.721-3.721" transform="translate(-554.122 387.777)" fill="#96ba3a"/>
    <path id="Path_3275" data-name="Path 3275" d="M27.248,13.38c0,4.341-1.085,7.6-3.411,9.923s-5.582,3.489-9.768,3.489H5.851V.976h8.683c4.109,0,7.21,1.008,9.381,3.179,2.248,2.093,3.334,5.194,3.334,9.226m-7.132.233c0-2.4-.465-4.109-1.4-5.272a5.143,5.143,0,0,0-4.186-1.706H12.673v14.42h1.55A5.478,5.478,0,0,0,18.8,19.195a9.878,9.878,0,0,0,1.318-5.582" transform="translate(989.784 604.355)" fill="#fff"/>
    <rect id="Rectangle_4496" data-name="Rectangle 4496" width="6.435" height="25.894" transform="translate(1039.593 605.253)" fill="#fff"/>
    <path id="Path_3276" data-name="Path 3276" d="M689.476,89c0,3.1-.775,5.582-2.481,7.365A9.176,9.176,0,0,1,680.018,99a8.717,8.717,0,0,1-6.822-2.713A10.319,10.319,0,0,1,670.637,89c0-3.1.775-5.582,2.481-7.287a9.175,9.175,0,0,1,6.977-2.636,9.894,9.894,0,0,1,4.884,1.163,7.7,7.7,0,0,1,3.256,3.411A10.3,10.3,0,0,1,689.476,89M677.3,89a8.964,8.964,0,0,0,.62,3.721,2.116,2.116,0,0,0,2.171,1.24,2.182,2.182,0,0,0,2.171-1.24,9.494,9.494,0,0,0,.62-3.721,8.965,8.965,0,0,0-.62-3.721,2.228,2.228,0,0,0-2.171-1.24,2.327,2.327,0,0,0-2.171,1.24A8.964,8.964,0,0,0,677.3,89" transform="translate(377.794 532.461)" fill="#fff"/>
    <rect id="Rectangle_4497" data-name="Rectangle 4497" width="6.435" height="19.226" transform="translate(1069.906 611.843)" fill="#fff"/>
    <rect id="Rectangle_4498" data-name="Rectangle 4498" width="6.435" height="4.341" transform="translate(1069.906 605.253)" fill="#fff"/>
    <path id="Path_3277" data-name="Path 3277" d="M1063.925,29.02a10.415,10.415,0,0,0,3.1-.62v4.884a11.336,11.336,0,0,1-2.481.775,14.444,14.444,0,0,1-2.791.233c-2.171,0-3.721-.543-4.729-1.705a7.659,7.659,0,0,1-1.473-5.039V19.64H1053.3V14.678h2.248V9.871l6.512-1.085v6.047h4.186v4.884h-4.186V27.16c.155,1.318.7,1.861,1.861,1.861" transform="translate(25.517 597.165)" fill="#fff"/>
    <path id="Path_3278" data-name="Path 3278" d="M1253.306,29.02a10.415,10.415,0,0,0,3.1-.62v4.884a11.337,11.337,0,0,1-2.481.775,14.439,14.439,0,0,1-2.791.233c-2.171,0-3.721-.543-4.729-1.705a7.66,7.66,0,0,1-1.473-5.039V19.64h-2.248V14.678h2.248V9.794l6.512-1.008v6.047h4.186v4.884h-4.186V27.16c.078,1.318.7,1.861,1.861,1.861" transform="translate(-148.824 597.165)" fill="#fff"/>
    <path id="Path_3279" data-name="Path 3279" d="M1450.81,81.319c-1.551-1.551-3.721-2.248-6.512-2.248a8.886,8.886,0,0,0-6.9,2.636c-1.628,1.783-2.4,4.264-2.4,7.52,0,3.1.853,5.582,2.558,7.287a10.064,10.064,0,0,0,7.288,2.558,18.658,18.658,0,0,0,3.876-.31,11.363,11.363,0,0,0,3.1-1.085l-.93-4.341a12.011,12.011,0,0,1-5.194,1.008,4.754,4.754,0,0,1-2.946-.853,3.274,3.274,0,0,1-1.085-2.558h11.551V87.909a9.579,9.579,0,0,0-2.4-6.59m-9.148,5.349a3.772,3.772,0,0,1,.853-2.326,2.58,2.58,0,0,1,1.938-.7,2.63,2.63,0,0,1,2.016.775,3.7,3.7,0,0,1,.775,2.248Z" transform="translate(-325.861 532.462)" fill="#fff"/>
    <path id="Path_3280" data-name="Path 3280" d="M315.5,81.319a10.447,10.447,0,0,0-13.412.388c-1.628,1.783-2.4,4.264-2.4,7.52,0,3.1.853,5.582,2.558,7.287a10.064,10.064,0,0,0,7.288,2.558,18.659,18.659,0,0,0,3.876-.31,11.363,11.363,0,0,0,3.1-1.085l-.93-4.419a12.01,12.01,0,0,1-5.194,1.008,4.754,4.754,0,0,1-2.946-.853,3.274,3.274,0,0,1-1.085-2.558H317.9V87.909a9.578,9.578,0,0,0-2.4-6.59m-9.226,5.349a3.772,3.772,0,0,1,.853-2.326,2.58,2.58,0,0,1,1.938-.7,2.522,2.522,0,0,1,2.016.775,3.7,3.7,0,0,1,.775,2.248Z" transform="translate(719.286 532.462)" fill="#fff"/>
    <line id="Line_60" data-name="Line 60" y2="25.627" transform="translate(1035.451 646.289)" fill="none" stroke="#fff" stroke-miterlimit="10" stroke-width="1"/>
    <g id="Repeat_Grid_1" data-name="Repeat Grid 1" transform="translate(1042.406 666.846)" clip-path="url(#clip-path)">
      <g transform="translate(8260 -4012)">
        <circle id="Ellipse_1" data-name="Ellipse 1" cx="1" cy="1" r="1" transform="translate(-8260 4012)" fill="#86bc41"/>
      </g>
      <g transform="translate(8265 -4012)">
        <circle id="Ellipse_1-2" data-name="Ellipse 1" cx="1" cy="1" r="1" transform="translate(-8260 4012)" fill="#86bc41"/>
      </g>
      <g transform="translate(8270 -4012)">
        <circle id="Ellipse_1-3" data-name="Ellipse 1" cx="1" cy="1" r="1" transform="translate(-8260 4012)" fill="#86bc41"/>
      </g>
      <g transform="translate(8275 -4012)">
        <circle id="Ellipse_1-4" data-name="Ellipse 1" cx="1" cy="1" r="1" transform="translate(-8260 4012)" fill="#86bc41"/>
      </g>
      <g transform="translate(8280 -4012)">
        <circle id="Ellipse_1-5" data-name="Ellipse 1" cx="1" cy="1" r="1" transform="translate(-8260 4012)" fill="#86bc41"/>
      </g>
      <g transform="translate(8285 -4012)">
        <circle id="Ellipse_1-6" data-name="Ellipse 1" cx="1" cy="1" r="1" transform="translate(-8260 4012)" fill="#86bc41"/>
      </g>
      <g transform="translate(8290 -4012)">
        <circle id="Ellipse_1-7" data-name="Ellipse 1" cx="1" cy="1" r="1" transform="translate(-8260 4012)" fill="#86bc41"/>
      </g>
      <g transform="translate(8295 -4012)">
        <circle id="Ellipse_1-8" data-name="Ellipse 1" cx="1" cy="1" r="1" transform="translate(-8260 4012)" fill="#86bc41"/>
      </g>
      <g transform="translate(8300 -4012)">
        <circle id="Ellipse_1-9" data-name="Ellipse 1" cx="1" cy="1" r="1" transform="translate(-8260 4012)" fill="#86bc41"/>
      </g>
      <g transform="translate(8305 -4012)">
        <circle id="Ellipse_1-10" data-name="Ellipse 1" cx="1" cy="1" r="1" transform="translate(-8260 4012)" fill="#86bc41"/>
      </g>
      <g transform="translate(8310 -4012)">
        <circle id="Ellipse_1-11" data-name="Ellipse 1" cx="1" cy="1" r="1" transform="translate(-8260 4012)" fill="#86bc41"/>
      </g>
      <g transform="translate(8315 -4012)">
        <circle id="Ellipse_1-12" data-name="Ellipse 1" cx="1" cy="1" r="1" transform="translate(-8260 4012)" fill="#86bc41"/>
      </g>
      <g transform="translate(8320 -4012)">
        <circle id="Ellipse_1-13" data-name="Ellipse 1" cx="1" cy="1" r="1" transform="translate(-8260 4012)" fill="#86bc41"/>
      </g>
      <g transform="translate(8325 -4012)">
        <circle id="Ellipse_1-14" data-name="Ellipse 1" cx="1" cy="1" r="1" transform="translate(-8260 4012)" fill="#86bc41"/>
      </g>
      <g transform="translate(8330 -4012)">
        <circle id="Ellipse_1-15" data-name="Ellipse 1" cx="1" cy="1" r="1" transform="translate(-8260 4012)" fill="#86bc41"/>
      </g>
    </g>
  </g>
</svg>
