<svg xmlns="http://www.w3.org/2000/svg" width="113.198" height="98.815" viewBox="0 0 113.198 98.815">
  <g id="Layer_2" data-name="Layer 2" transform="translate(0 0.063)">
    <g id="svg8" transform="translate(0 -0.063)">
      <g id="layer1" transform="translate(0 0)">
        <g id="g80302" transform="translate(0 73.701)">
          <path id="path825" d="M7.894,721.841C4,721.841,0,724.961,0,730.421c0,4.991,3.519,8.516,7.894,8.516a6.345,6.345,0,0,0,5.222-2.425v1.057a1.115,1.115,0,0,0,1.057,1.057h2.61V722.213H13.116V724.3a6.355,6.355,0,0,0-5.222-2.455Zm.653,3.355a5.233,5.233,0,0,1,.007,10.441,4.957,4.957,0,0,1-4.819-5.255A4.889,4.889,0,0,1,8.548,725.2Z" transform="translate(0 -713.823)"/>
          <path id="path829" d="M185.014,738.6a1.027,1.027,0,0,1-1.057-1.057V722.188h3.668v2.031a5.731,5.731,0,0,1,4.947-2.409,6.129,6.129,0,0,1,6.243,6.284V738.6h-2.548a1.123,1.123,0,0,1-1.118-1.118V728.9a3.48,3.48,0,0,0-3.416-3.728c-2.573,0-4.106,2.432-4.106,4.722v8.7Z" transform="translate(-163.132 -713.797)"/>
          <path id="path833" d="M347.824,660.492c-3.892,0-7.894,3.119-7.894,8.578,0,4.991,3.519,8.516,7.894,8.516a6.345,6.345,0,0,0,5.222-2.425v1.057a1.115,1.115,0,0,0,1.057,1.057h2.61V652.66h-3.668v10.287A6.355,6.355,0,0,0,347.824,660.492Zm.653,3.355a5.233,5.233,0,0,1,.007,10.441,4.961,4.961,0,0,1-4.823-5.255,4.892,4.892,0,0,1,4.817-5.186Z" transform="translate(-301.451 -652.474)"/>
          <path id="path835" d="M524.934,740.1a1.027,1.027,0,0,1-1.057-1.057V723.687h3.668v2.735a4.52,4.52,0,0,1,4.415-2.922,7.656,7.656,0,0,1,1.305.125v3.792a5.279,5.279,0,0,0-1.741-.311c-2.573,0-3.979,2.432-3.979,4.721v8.27Z" transform="translate(-464.574 -715.295)"/>
          <path id="path837" d="M795.114,741.56a1.027,1.027,0,0,1-1.057-1.057V725.15h3.668v16.414Z" transform="translate(-704.17 -716.759)"/>
          <path id="path839" d="M859.624,660.492c-3.893,0-7.894,3.119-7.894,8.578,0,4.991,3.519,8.516,7.894,8.516a6.345,6.345,0,0,0,5.222-2.425v1.057a1.115,1.115,0,0,0,1.057,1.057h2.61V652.66h-3.668v10.287A6.355,6.355,0,0,0,859.624,660.492Zm.653,3.355a5.233,5.233,0,0,1,.007,10.441,4.961,4.961,0,0,1-4.823-5.255,4.889,4.889,0,0,1,4.817-5.186Z" transform="translate(-755.316 -652.474)"/>
          <circle id="path841" cx="2.426" cy="2.426" r="2.426" transform="translate(89.266)"/>
          <path id="path843" d="M625.244,721.81a8.448,8.448,0,0,0-8.554,8.554,8.352,8.352,0,0,0,8.546,8.546,8.551,8.551,0,1,0,.009-17.1Zm.014,3.425a4.953,4.953,0,0,1,4.922,5.14,4.916,4.916,0,1,1-9.821.05,4.944,4.944,0,0,1,4.9-5.189Z" transform="translate(-546.882 -713.797)"/>
        </g>
        <path id="path80319" d="M84.758,19.057,94.147,2.8A1.906,1.906,0,0,0,93.457.2a1.881,1.881,0,0,0-2.593.7L81.355,17.357a59.314,59.314,0,0,0-48.392,0L23.455.893A1.9,1.9,0,0,0,20.172,2.8l9.384,16.255A56.023,56.023,0,0,0,.6,63.377H113.722A56.013,56.013,0,0,0,84.758,19.057ZM31.189,47.487a4.741,4.741,0,1,1,4.741-4.741,4.741,4.741,0,0,1-4.741,4.741Zm51.931,0a4.741,4.741,0,1,1,4.741-4.741,4.741,4.741,0,0,1-4.741,4.741Z" transform="translate(-0.532 0.063)" fill="#32de84"/>
      </g>
    </g>
  </g>
</svg>
