<svg xmlns="http://www.w3.org/2000/svg" width="53.902" height="28.425" viewBox="0 0 53.902 28.425">
  <g id="Group_105380" data-name="Group 105380" transform="translate(2043.361 -9638.802)">
    <g id="Group_2403" data-name="Group 2403" transform="translate(-2043.362 9638.803)">
      <path id="Path_22348" data-name="Path 22348" d="M78.313,19.126c.4,4.608-6.858,9-16.221,9.8s-17.252-2.293-17.651-6.9,6.858-9,16.221-9.8,17.252,2.271,17.651,6.9" transform="translate(-35.269 -9.596)" fill="#bbe6fb"/>
      <path id="Path_22349" data-name="Path 22349" d="M80.16,15.194A28.851,28.851,0,0,0,69.3,17.887a9.113,9.113,0,0,0-.5,2.944c0,5.47,4.944,9.909,11.045,9.909s11.066-4.423,11.066-9.909a9.149,9.149,0,0,0-1.367-4.782,72.77,72.77,0,0,0-9.383-.862" transform="translate(-54.514 -12.038)" fill="#fff"/>
      <path id="Path_22350" data-name="Path 22350" d="M88,15.157a25.561,25.561,0,0,0-8.227,1.935,8.2,8.2,0,0,0-.674,3.3,9.052,9.052,0,0,0,8.941,8.689,9.308,9.308,0,0,0,8.941-8.689A7.428,7.428,0,0,0,95.8,16.1c-2.924-.5-6.038-.82-7.8-.947" transform="translate(-62.649 -12.002)" fill="#fff"/>
      <path id="Path_22351" data-name="Path 22351" d="M91.851,20.012a5.626,5.626,0,0,1,.968-1.242,2.753,2.753,0,0,1-.127-.563.965.965,0,0,1,.968-.968.985.985,0,0,1,.357.063,7.075,7.075,0,0,1,5.89-1.283c.19.042.378.105.563.141a8.416,8.416,0,0,0-6.122,1.767,2.753,2.753,0,0,1,.19.589c0,.547-.357.674-.883.674a1.069,1.069,0,0,1-.357-.063,9.61,9.61,0,0,0-1.031,2.02,7.847,7.847,0,0,0,2.757,1.494c0-.042.042-.105.042-.141a3.046,3.046,0,0,1,3.051-2.945A2.941,2.941,0,0,1,101.024,22a6.9,6.9,0,0,0,1.956-1.494,1.706,1.706,0,0,1-.252-.8.889.889,0,0,1,.883-.883.789.789,0,0,1,.211.021,7.644,7.644,0,0,0,.61-1.767c-2.546-1.893-7.468-1.62-7.468-1.62A15.779,15.779,0,0,0,90.4,16.548a8.017,8.017,0,0,0,1.451,3.471" transform="translate(-71.571 -12.229)" fill="#373535"/>
      <path id="Path_22352" data-name="Path 22352" d="M144.2,25.648a1.566,1.566,0,0,1,.357.442c.232.422-.232.82-.737.82a.357.357,0,0,1-.141-.021,9.368,9.368,0,0,1-2.383,2.52,7.208,7.208,0,0,1,3.535,1.557,10.572,10.572,0,0,0,1.266-4.734,3.39,3.39,0,0,0-1.325-2.736,9.214,9.214,0,0,1-.563,2.146" transform="translate(-111.762 -18.6)" fill="#373535"/>
      <path id="Path_22353" data-name="Path 22353" d="M99.459,50.233A7.332,7.332,0,0,1,102,47.266a5.625,5.625,0,0,1-.463-.947,7.3,7.3,0,0,1-3.191-2.02c0,.021-.021.063-.021.084a6.173,6.173,0,0,0-.105,2.146A1.288,1.288,0,0,1,99.276,47.8a2.043,2.043,0,0,1-.589,1.158,5.956,5.956,0,0,0,.778,1.283" transform="translate(-77.706 -35.021)" fill="#373535"/>
      <path id="Path_22354" data-name="Path 22354" d="M84.318,32.528a9.4,9.4,0,0,1-1.221-2.21c-.063,0-.127.021-.19.021-.716,0-1.451-.589-1.283-1.283a1.274,1.274,0,0,1,.778-.844,8.542,8.542,0,0,1,.063-2.736c.042-.232.169-.336.232-.563a7.544,7.544,0,0,1-1.283-4.145V20.6A3.669,3.669,0,0,0,79.1,23.945a9.527,9.527,0,0,0,5.218,8.61v-.021" transform="translate(-62.649 -16.309)" fill="#373535"/>
      <path id="Path_22355" data-name="Path 22355" d="M114.032,53.4a2.963,2.963,0,0,1-2.776,1.978,2.821,2.821,0,0,1-1.809-.632A8.416,8.416,0,0,0,107,58.2a5.735,5.735,0,0,0,.61.632,11.065,11.065,0,0,0,2.5,0,8.789,8.789,0,0,0,7.532-3.85,7.933,7.933,0,0,0-3.613-1.578" transform="translate(-84.678 -42.207)" fill="#373535"/>
      <path id="Path_22356" data-name="Path 22356" d="M91.6,21.776a7.636,7.636,0,0,1,.9-1.494.953.953,0,0,1-.063-.336.965.965,0,0,1,.968-.968.985.985,0,0,1,.357.063,7.075,7.075,0,0,1,5.89-1.283c.19.042.378.105.563.141a7.84,7.84,0,0,0-5.907,1.662,1.23,1.23,0,0,1,.084.378.965.965,0,0,1-.968.968,1.069,1.069,0,0,1-.357-.063,6.351,6.351,0,0,0-.883,1.62,7.3,7.3,0,0,0,2.788,1.878V24.2a2.947,2.947,0,0,1,5.848-.5,7.551,7.551,0,0,0,1.914-1.747.844.844,0,0,1-.211-.547.889.889,0,0,1,.883-.883.789.789,0,0,1,.211.021,7.647,7.647,0,0,0,.61-1.767c-2.546-1.893-7.468-1.62-7.468-1.62A15.779,15.779,0,0,0,90.2,18.248a7.435,7.435,0,0,0,1.406,3.534" transform="translate(-71.411 -13.572)" fill="#1287b1"/>
      <path id="Path_22357" data-name="Path 22357" d="M144.882,27.374a.862.862,0,0,1,.294.653.889.889,0,0,1-.883.883.359.359,0,0,1-.141-.021A6.962,6.962,0,0,1,142,31.035a7.073,7.073,0,0,1,3.45,1.557,8.95,8.95,0,0,0,1.136-4.36,3.39,3.39,0,0,0-1.325-2.736,6.892,6.892,0,0,1-.378,1.872" transform="translate(-112.315 -20.18)" fill="#1287b1"/>
      <path id="Path_22358" data-name="Path 22358" d="M99.27,52.006a7,7,0,0,1,2.231-3.114,2.581,2.581,0,0,1-.357-.674A7.3,7.3,0,0,1,97.951,46.2c0,.021-.021.063-.021.084a6.173,6.173,0,0,0-.105,2.146,1.281,1.281,0,0,1,.632,2.21,6.932,6.932,0,0,0,.82,1.367" transform="translate(-77.389 -36.522)" fill="#1287b1"/>
      <path id="Path_22359" data-name="Path 22359" d="M84,34.087a7.119,7.119,0,0,1-1.3-1.767c-.063,0-.127.021-.19.021a1.276,1.276,0,0,1-1.283-1.283,1.3,1.3,0,0,1,.71-1.159,6.731,6.731,0,0,1,.127-2.419c.042-.232.127-.463.19-.695a7.1,7.1,0,0,1-1.242-4.018V22.6A3.669,3.669,0,0,0,78.7,25.945,8.928,8.928,0,0,0,83.98,34.1c.021,0,.021,0,.021-.021" transform="translate(-62.333 -17.887)" fill="#1287b1"/>
      <path id="Path_22360" data-name="Path 22360" d="M114.179,55.4a2.963,2.963,0,0,1-2.776,1.978,2.821,2.821,0,0,1-1.809-.632,7.291,7.291,0,0,0-2.293,3.135c.211.232.442.442.674.653a8.8,8.8,0,0,0,2.25.294,8.952,8.952,0,0,0,7.512-4.08A7.173,7.173,0,0,0,114.18,55.4" transform="translate(-84.915 -43.787)" fill="#1287b1"/>
      <path id="Path_22361" data-name="Path 22361" d="M107.493,30.085l2.715-.653-2.736-.141L109.7,27.6l-2.525.9,1.7-2.377-2.377,1.578.82-2.776-1.62,2.293-.042-2.9L104.59,26.91l-.883-2.61.042,3.072-1.536-2.757.844,2.924-2.5-1.809,1.956,2.461L99.4,27.055l2.44,1.809-3.135.105,3.219.82-3.221.7,3.177.232-2.672,1.7,2.757-.985-1.914,2.419,2.419-1.956-.862,3.235,1.872-2.651-.253,3.114,1.052-2.84.9,2.966.211-2.987,1.346,2.546-.8-2.9,2.44,1.893L106.8,31.857l2.693,1.052-2.062-2.02,2.757.211-2.693-1.01Z" transform="translate(-78.125 -19.23)" fill="#fff"/>
      <path id="Path_22362" data-name="Path 22362" d="M2.8,18.463c8.439-8.43,15.169-11.045,21.291-12.228.8-.141.968-1.935.968-1.935s.105,1.3.674,1.473,1.3-2.041,1.3-2.041-.674,1.978,0,2.11,1.935-1.935,1.935-1.935-.5,1.747-.169,1.872,2.041-2.546,2.041-2.546-1.01,1.747-.063,1.935,2.377-1.2,2.377-1.2-1.094,1.242-.61,1.43c2.11.737,3.786-1.978,3.786-1.978a9.449,9.449,0,0,1-1.406,2.5c2.21.563,3.85-2.757,3.85-2.757L37.135,6.492C37.979,6.914,41.364,3,41.364,3a15.558,15.558,0,0,1-2.776,3.682c.563.463,2.609-1.367,2.609-1.367S39.554,7.36,40.186,7.46c.9.737,4.25-3.786,4.25-3.786a22.9,22.9,0,0,1-3.219,4.755c1.6.82,5.6-4.333,5.6-4.333s-.105,1.64-3.01,4.249c2.146-.273,4.923-4.36,4.923-4.36a13.511,13.511,0,0,1-3.45,5.222c2.11-.211,5.485-5.428,5.485-5.428A14.627,14.627,0,0,1,46.806,9.5c2.945.653,7.2-3.745,7.2-3.745a13.044,13.044,0,0,1-3.85,4.4c2.44.925,5.785-2.924,5.785-2.924s-3.345,5.155-8.668,4.923c-1.747-.084-7.032-5.3-18.345-4.88-14.973.546-18.13,6.9-26.124,11.191" transform="translate(-2.401 -2.411)" fill="rgba(55,53,53,0.35)"/>
      <path id="Path_22363" data-name="Path 22363" d="M4.4,15.621C12.839,7.182,19.569,4.576,25.691,3.4c.8-.141.968-1.935.968-1.935s.105,1.3.674,1.473,1.3-2.041,1.3-2.041-.674,1.978,0,2.11,1.935-1.941,1.935-1.941-.5,1.747-.169,1.872S32.444.39,32.444.39s-1.01,1.747-.063,1.935,2.377-1.2,2.377-1.2-1.094,1.242-.61,1.43c2.11.737,3.786-1.978,3.786-1.978a9.449,9.449,0,0,1-1.406,2.5c2.21.563,3.85-2.757,3.85-2.757L38.735,3.65C39.576,4.113,42.984.2,42.984.2a15.558,15.558,0,0,1-2.776,3.682c.563.4,2.609-1.406,2.609-1.406s-1.641,2.037-1,2.142c.9.737,4.25-3.786,4.25-3.786a23.473,23.473,0,0,1-3.235,4.755c1.6.8,5.617-4.36,5.617-4.36s-.117,1.646-3.021,4.253c2.146-.273,4.923-4.36,4.923-4.36A13.511,13.511,0,0,1,46.9,6.338C49.007,6.127,52.382.91,52.382.91a14.627,14.627,0,0,1-3.955,5.723c2.945.653,7.2-3.745,7.2-3.745a13.044,13.044,0,0,1-3.85,4.4c2.446.932,5.792-2.918,5.792-2.918S54.22,9.521,48.9,9.289c-1.747-.084-7.032-5.3-18.345-4.88-14.98.574-18.158,6.9-26.152,11.212" transform="translate(-3.663 -0.2)" fill="#373535"/>
      <path id="Path_22364" data-name="Path 22364" d="M1.8,54.637c4.46,2.231,8.542-.336,13.675,1.115A33.719,33.719,0,0,0,30.6,57.268c6.459-.925,11.971-3.745,14.627-8.753.82-2.231,4.166.5,4.166.5s-2.44-1.01-2.377-.547,3.657,2.146,3.657,2.146-3.262-1.01-3.051-.252S51.7,54.2,51.7,54.2s-4.439-3.324-4.8-2.861,1.869,2.3,1.869,2.3-3.7-2.293-5.007-1.62c-.947.484,3.85,3.619,3.85,3.619s-3.114-2.377-3.85-1.747,3.516,5.723,3.516,5.723-4.838-5.218-5.322-4.965S43.289,57.4,43.289,57.4s-2.356-2.609-3.008-2.167,3.408,7.217,3.408,7.217-4.4-6.921-6.228-5.767c2.84,6.249,1.788,7.132,1.788,7.132s-.357-6.374-3.913-6.207c-1.788.084.844,4.755.844,4.755s-2.419-4.27-4.039-4.187c2.966,5.639,1.914,7.91,1.914,7.91A8.5,8.5,0,0,0,30.519,58.6c1.536,1.367-.968,7.489-.968,7.489s2.188-9.025-1.62-7.3c-.61.273-.042,4.5-.042,4.5s-.757-4.838-1.914-4.587c-.674.141-4.25,6.712-4.25,6.712s2.924-7.09,2.041-6.795c-.653.211-1.872,3.135-1.872,3.135s.589-2.882,0-3.051-3.918,3.048-3.918,3.048,2.461-2.882,2.041-3.492a1.688,1.688,0,0,0-2.293-.589,10.619,10.619,0,0,0-3.051,2.882s1.755-2.416,1.454-3.3c-.484-1.451-5.512,2.8-5.512,2.8s2.966-2.8,2.293-3.408-4.376-.422-5.512-.422c-3.387.042-4.565-.757-5.6-1.578" transform="translate(-1.611 -37.66)" fill="rgba(55,53,53,0.35)"/>
      <path id="Path_22365" data-name="Path 22365" d="M.9,52.237c4.46,2.231,8.542-.336,13.675,1.115A33.719,33.719,0,0,0,29.7,54.868c6.459-.925,11.971-3.745,14.627-8.752.82-2.231,4.166.5,4.166.5s-2.447-1.014-2.384-.547,3.657,2.146,3.657,2.146-3.262-1.01-3.051-.252S50.8,51.8,50.8,51.8s-4.391-3.346-4.748-2.883,1.872,2.293,1.872,2.293-3.7-2.293-5.007-1.62c-.947.484,3.85,3.619,3.85,3.619s-3.114-2.377-3.85-1.747,3.516,5.723,3.516,5.723-4.82-5.217-5.3-4.963,1.325,2.757,1.325,2.757-2.4-2.588-3.051-2.146,3.387,7.217,3.387,7.217-4.4-6.942-6.207-5.785c2.861,6.27,1.788,7.153,1.788,7.153s-.357-6.374-3.913-6.207c-1.788.084.844,4.755.844,4.755s-2.4-4.25-4.018-4.166c2.966,5.639,1.914,7.91,1.914,7.91a8.5,8.5,0,0,0-3.534-7.489c1.536,1.367-.968,7.489-.968,7.489s2.188-9.025-1.62-7.3c-.61.273-.042,4.5-.042,4.5s-.757-4.838-1.914-4.587c-.674.141-4.25,6.712-4.25,6.712s2.924-7.09,2.041-6.795c-.653.211-1.872,3.135-1.872,3.135s.589-2.882,0-3.051-3.913,3.051-3.913,3.051,2.461-2.882,2.041-3.492a1.688,1.688,0,0,0-2.293-.589,10.619,10.619,0,0,0-3.051,2.882s1.747-2.419,1.451-3.3c-.485-1.454-5.509,2.8-5.509,2.8s2.966-2.8,2.293-3.408-4.376-.422-5.512-.422c-3.432.022-4.61-.775-5.641-1.6" transform="translate(-0.9 -35.765)" fill="#373535"/>
    </g>
  </g>
</svg>
