<svg id="Layer_2" data-name="Layer 2" xmlns="http://www.w3.org/2000/svg" width="86.955" height="80.829" viewBox="0 0 86.955 80.829">
  <g id="Layer_1" data-name="Layer 1" transform="translate(0)">
    <path id="path9" d="M82.034,60.33H71.809l.712-8.617H67.494l-.712,8.617H45.593l-.712-8.617H39.859l.712,8.617H30.346L24.62,22.973,38.967,0H73.412L87.76,22.973ZM70.529,11.5H61.314l.626,4.311h-11.5l.626-4.311H41.851L36.084,22.952l2.863,22.973H73.392l2.863-22.973ZM65.507,38.339c-.818,0-1.427-2.376-1.427-5.35s.654-5.35,1.427-5.35,1.427,2.376,1.427,5.35S66.308,38.339,65.507,38.339Zm-18.1.446c-.818,0-1.427-2.376-1.427-5.35s.654-5.35,1.427-5.35,1.427,2.376,1.427,5.35S48.178,38.784,47.4,38.784Z" transform="translate(-14.551)" fill="#32383d"/>
    <g id="g13" transform="translate(0.246 63.675)">
      <path id="path15" d="M.605,158.09l1.08-2.344a.057.057,0,0,1,.061-.037h.037a.057.057,0,0,1,.061.037l1.067,2.344c.025.049,0,.086-.061.086h-.3c-.049,0-.074-.025-.1-.074l-.172-.372H1.235l-.172.372a.106.106,0,0,1-.1.074h-.3a.065.065,0,0,1-.061-.086Zm1.513-.744-.348-.769h0l-.348.769Z" transform="translate(-0.602 -155.701)" fill="#a5b0b8"/>
      <path id="path17" d="M7.89,155.858a.057.057,0,0,1,.045-.061h.818a.777.777,0,1,1,0,1.55H8.344v.818a.065.065,0,0,1-.061.061H7.963a.065.065,0,0,1-.061-.061v-2.307Zm.863,1.055a.36.36,0,0,0,.36-.36.348.348,0,0,0-.36-.335H8.344v.7Z" transform="translate(-4.909 -155.752)" fill="#a5b0b8"/>
      <path id="path19" d="M12.672,158.09l1.08-2.344a.057.057,0,0,1,.061-.037h.037a.057.057,0,0,1,.061.037l1.067,2.344c.025.049,0,.086-.061.086h-.3c-.049,0-.074-.025-.1-.074l-.172-.372H13.306l-.172.372a.106.106,0,0,1-.1.074h-.3c-.061,0-.086-.049-.061-.086Zm1.5-.744-.348-.769h0l-.348.769h.708Z" transform="translate(-7.733 -155.701)" fill="#a5b0b8"/>
      <path id="path21" d="M20.729,155.694a1.19,1.19,0,0,1,.843.323.057.057,0,0,1,0,.1l-.213.225a.061.061,0,0,1-.086,0,.875.875,0,0,0-.532-.213.806.806,0,1,0,.532,1.411.061.061,0,0,1,.086,0l.213.225a.074.074,0,0,1,0,.1,1.162,1.162,0,0,1-.843.335,1.254,1.254,0,0,1,0-2.507Z" transform="translate(-11.756 -155.69)" fill="#a5b0b8"/>
      <path id="path23" d="M26.58,155.861a.065.065,0,0,1,.061-.061h.323a.065.065,0,0,1,.061.061v.92h1.129v-.92a.057.057,0,0,1,.061-.061h.323a.065.065,0,0,1,.061.061v2.307a.065.065,0,0,1-.061.061h-.323a.065.065,0,0,1-.061-.061v-.957H27.026v.957a.057.057,0,0,1-.061.061h-.323a.065.065,0,0,1-.061-.061Z" transform="translate(-15.955 -155.755)" fill="#a5b0b8"/>
      <path id="path25" d="M33.988,155.861a.057.057,0,0,1,.061-.061h1.415a.065.065,0,0,1,.061.061v.286a.057.057,0,0,1-.061.061H34.426v.573h.855a.065.065,0,0,1,.061.061v.286a.065.065,0,0,1-.061.061h-.855v.622h1.031a.065.065,0,0,1,.061.061v.286a.057.057,0,0,1-.061.061H34.041a.065.065,0,0,1-.061-.061Z" transform="translate(-20.329 -155.755)" fill="#a5b0b8"/>
    </g>
    <g id="g29" transform="translate(82.636 69.008)">
      <path id="path31" d="M203.477,168.78h-1.3a.123.123,0,0,0-.123.123v.249a.123.123,0,0,0,.123.123h.409v1.611a.123.123,0,0,0,.123.123h.274a.123.123,0,0,0,.123-.123v-1.607h.409a.123.123,0,0,0,.123-.123v-.249a.16.16,0,0,0-.135-.123Z" transform="translate(-202.05 -168.759)" fill="#32383d"/>
      <path id="path33" d="M209.062,170.824l-.348-2a.11.11,0,0,0-.11-.1h-.049a.131.131,0,0,0-.11.061l-.609,1.3-.609-1.3a.131.131,0,0,0-.11-.061h-.037a.1.1,0,0,0-.11.1l-.36,2.008a.135.135,0,0,0,.025.1.115.115,0,0,0,.086.037h.274a.11.11,0,0,0,.11-.1l.147-.945.446.994a.131.131,0,0,0,.11.061h.049a.11.11,0,0,0,.11-.074l.446-.994.147.945a.119.119,0,0,0,.11.086h.274a.139.139,0,0,0,.1-.037v-.086Z" transform="translate(-204.743 -168.729)" fill="#32383d"/>
    </g>
    <g id="g35" transform="translate(0 68.845)">
      <path id="path37" d="M9.071,176.887a.524.524,0,0,0-.372-.147.54.54,0,0,0-.36.135,3.534,3.534,0,0,1-2.282.855,3.448,3.448,0,0,1,0-6.887,3.558,3.558,0,0,1,2.282.867.56.56,0,0,0,.372.16.5.5,0,0,0,.372-.172l.969-.994a.524.524,0,0,0,.16-.409.548.548,0,0,0-.188-.409A5.64,5.64,0,0,0,6,168.347a5.98,5.98,0,1,0-.012,11.959,5.726,5.726,0,0,0,4.045-1.611.622.622,0,0,0,.172-.434.462.462,0,0,0-.16-.348l-.982-1.043Z" transform="translate(0 -168.339)" fill="#32383d"/>
      <path id="path39" d="M33.86,168.33a5.939,5.939,0,1,0,4.25,1.745A5.992,5.992,0,0,0,33.86,168.33Zm0,9.407a3.413,3.413,0,0,1,0-6.826,3.468,3.468,0,0,1,3.415,3.419,3.407,3.407,0,0,1-3.415,3.391Z" transform="translate(-16.466 -168.33)" fill="#32383d"/>
      <path id="path41" d="M72.819,172.381A3.681,3.681,0,0,0,69.1,168.7H63.924a.552.552,0,0,0-.544.544v10.536a.552.552,0,0,0,.544.544h1.464a.552.552,0,0,0,.544-.544v-3.8h1.861l2.172,4.09a.511.511,0,0,0,.47.286h1.677a.552.552,0,0,0,.483-.262.585.585,0,0,0,0-.573l-2.045-3.808a3.681,3.681,0,0,0,2.27-3.333Zm-2.556.037A1.374,1.374,0,0,1,68.95,173.8h-2.99v-2.679h2.99A1.333,1.333,0,0,1,70.263,172.417Z" transform="translate(-37.458 -168.548)" fill="#32383d"/>
      <path id="path43" d="M97.477,168.714H93.7a.548.548,0,0,0-.532.544v10.536a.548.548,0,0,0,.532.544h3.771a5.814,5.814,0,1,0,0-11.628Zm3.141,5.808a3.272,3.272,0,0,1-3.337,3.4H95.714v-6.785h1.562a3.272,3.272,0,0,1,3.337,3.386Z" transform="translate(-55.065 -168.554)" fill="#32383d"/>
      <path id="path45" d="M128.484,168.33a2.484,2.484,0,1,1,0,.008Zm0,9.407a3.413,3.413,0,0,1,0-6.826,3.468,3.468,0,0,1,3.411,3.419,3.407,3.407,0,0,1-3.411,3.391Z" transform="translate(-72.387 -168.33)" fill="#32383d"/>
      <path id="path47" d="M164.288,168.969a.536.536,0,0,0-.47-.249h-1.636a.523.523,0,0,0-.495.323l-2.892,6.466-2.863-6.454a.544.544,0,0,0-.495-.335H153.8a.536.536,0,0,0-.47.249.519.519,0,0,0-.025.519l4.908,10.72a.532.532,0,0,0,.495.311h.164a.536.536,0,0,0,.495-.323l4.936-10.707a.552.552,0,0,0-.037-.519Z" transform="translate(-90.572 -168.56)" fill="#32383d"/>
      <path id="path49" d="M188.092,179.39l-4.908-10.72a.528.528,0,0,0-.495-.311h-.16a.536.536,0,0,0-.495.323l-4.949,10.7a.519.519,0,0,0,.025.519.564.564,0,0,0,.47.249h1.391a.716.716,0,0,0,.683-.458l.72-1.575h4.442l.72,1.575a.712.712,0,0,0,.683.458H187.6a.536.536,0,0,0,.47-.249.528.528,0,0,0,.025-.507Zm-4.294-3.538h-2.433l1.2-2.7,1.227,2.7Z" transform="translate(-104.626 -168.347)" fill="#32383d"/>
    </g>
  </g>
</svg>
