<svg xmlns="http://www.w3.org/2000/svg" xmlns:xlink="http://www.w3.org/1999/xlink" width="51.892" height="72.665" viewBox="0 0 51.892 72.665">
  <defs>
    <linearGradient id="linear-gradient" x1="908.711" y1="-14.457" x2="910.369" y2="-10.116" gradientUnits="objectBoundingBox">
      <stop offset="0.38" stop-color="#faa100"/>
      <stop offset="0.66" stop-color="#bf73f2"/>
      <stop offset="0.66" stop-color="#c370e6"/>
      <stop offset="0.69" stop-color="#cc68c7"/>
      <stop offset="0.71" stop-color="#d461ab"/>
      <stop offset="0.73" stop-color="#db5b95"/>
      <stop offset="0.76" stop-color="#e05784"/>
      <stop offset="0.8" stop-color="#e35479"/>
      <stop offset="0.85" stop-color="#e55272"/>
      <stop offset="1" stop-color="#e65270"/>
    </linearGradient>
    <linearGradient id="linear-gradient-2" x1="602.358" y1="-17.279" x2="603.528" y2="-11.865" xlink:href="#linear-gradient"/>
    <linearGradient id="linear-gradient-3" x1="262.846" y1="-7.221" x2="262.878" y2="-5.631" gradientUnits="objectBoundingBox">
      <stop offset="0" stop-color="#faa7b5"/>
      <stop offset="0.38" stop-color="#faa100"/>
      <stop offset="0.73" stop-color="#bf73f2"/>
    </linearGradient>
    <linearGradient id="linear-gradient-4" x1="858.723" y1="-13.515" x2="857.61" y2="-12.301" gradientUnits="objectBoundingBox">
      <stop offset="0" stop-color="#f6e8a0"/>
      <stop offset="1" stop-color="#e65271"/>
    </linearGradient>
    <linearGradient id="linear-gradient-5" x1="911.924" y1="-13.48" x2="910.9" y2="-12.388" xlink:href="#linear-gradient-4"/>
    <linearGradient id="linear-gradient-6" x1="1703.052" y1="-15.808" x2="1703.272" y2="-14.337" xlink:href="#linear-gradient-4"/>
    <linearGradient id="linear-gradient-7" x1="917.009" y1="-14.716" x2="917.694" y2="-16.952" gradientUnits="objectBoundingBox">
      <stop offset="0" stop-color="#e65271"/>
      <stop offset="0.38" stop-color="#faa100"/>
    </linearGradient>
    <linearGradient id="linear-gradient-8" x1="509.025" y1="-14.083" x2="507.621" y2="-12.717" xlink:href="#linear-gradient-4"/>
    <linearGradient id="linear-gradient-9" x1="917.226" y1="-13.095" x2="919.687" y2="-12.686" xlink:href="#linear-gradient-3"/>
    <linearGradient id="linear-gradient-10" x1="228.575" y1="-10.146" x2="231.475" y2="-7.609" xlink:href="#linear-gradient-3"/>
    <radialGradient id="radial-gradient" cx="-1.179" cy="-1.859" r="1" gradientTransform="matrix(-0.258, -0.291, -0.15, 1.831, 1374.698, 1263.366)" gradientUnits="objectBoundingBox">
      <stop offset="0.01" stop-color="#fff"/>
      <stop offset="1" stop-color="#fff" stop-opacity="0"/>
    </radialGradient>
    <radialGradient id="radial-gradient-2" cx="-7.705" cy="-1.706" r="0.819" gradientTransform="matrix(-2.833, 0, 0, 1, 23551.115, 0)" xlink:href="#radial-gradient"/>
    <radialGradient id="radial-gradient-3" cx="-4.144" cy="-0.871" r="0.592" gradientTransform="matrix(-1.928, 0, 0, 1, 8848.241, 0)" xlink:href="#radial-gradient"/>
    <linearGradient id="linear-gradient-11" x1="1067.104" y1="-30.135" x2="1067.866" y2="-28.133" gradientUnits="objectBoundingBox">
      <stop offset="0" stop-color="#faa7b5"/>
      <stop offset="0.38" stop-color="#faa100"/>
    </linearGradient>
    <linearGradient id="linear-gradient-12" x1="1176.371" y1="-16.284" x2="1177.053" y2="-13.489" xlink:href="#linear-gradient-3"/>
    <linearGradient id="linear-gradient-13" x1="1358.19" y1="-16.018" x2="1358.976" y2="-13.335" xlink:href="#linear-gradient-3"/>
    <linearGradient id="linear-gradient-14" x1="1828.811" y1="-17.161" x2="1828.336" y2="-15.059" xlink:href="#linear-gradient-3"/>
    <linearGradient id="linear-gradient-15" x1="4485.742" y1="-28.776" x2="4486.259" y2="-22.547" xlink:href="#linear-gradient-3"/>
    <linearGradient id="linear-gradient-16" x1="4547.652" y1="-108.549" x2="4548.974" y2="-106.384" xlink:href="#linear-gradient-3"/>
  </defs>
  <g id="Layer_2" data-name="Layer 2" transform="translate(0.01)">
    <g id="Layer_1" data-name="Layer 1" transform="translate(-0.01)">
      <path id="path7735" d="M35.532,107.573h-14.5a16.788,16.788,0,0,1-4.145-.521A17.859,17.859,0,0,1,5.306,97.984a17.428,17.428,0,0,1-2.054-7.443,17.947,17.947,0,0,1,.192-3.669c.022-.148.05-.279.075-.44l.059-.335.1.1a.318.318,0,0,1,.081.148c.05.164.1.329.145.493.1.343.2.7.318,1.034a24.066,24.066,0,0,0,4.062,7.15.931.931,0,0,1,.162.279,11.3,11.3,0,0,0,3.253,4.984,14.3,14.3,0,0,0,5.3,2.969,15.907,15.907,0,0,1-3.6-2.13,11.708,11.708,0,0,1-3.8-5.085.956.956,0,0,1-.036-.7,2.831,2.831,0,0,0,.081-.279c.017-.064.033-.128.053-.2a6.986,6.986,0,0,1,1.865-3.144,7.449,7.449,0,0,1,3.094-1.673,23.433,23.433,0,0,1,3.666-.663l.521-.067c.68-.089,1.369-.2,2.032-.3l.4-.061c.148-.022.3-.056.452-.089l.374-.078-.1.167a.189.189,0,0,1-.025.039A10.3,10.3,0,0,0,20.4,91.332a.335.335,0,0,1-.181.162l-.279.089a7.248,7.248,0,0,1-.873.251c-.321.064-.647.109-.965.153-.254.036-.507.072-.761.117a4.181,4.181,0,0,0-2,.836c.109-.025.223-.042.332-.059a2.507,2.507,0,0,0,.457-.095,8.062,8.062,0,0,1,2.707-.4h.142a5.673,5.673,0,0,1,.574.02l.374.017-.028.092a11.574,11.574,0,0,0,.061,7.281,12.659,12.659,0,0,1-.19-4.494,9.5,9.5,0,0,1,2.857-5.575,13.824,13.824,0,0,1,4.081-2.64A25.294,25.294,0,0,1,31.125,85.7l.279-.067c1.023-.245,2.08-.5,3.105-.8a9.868,9.868,0,0,0,3.967-2.2,4.383,4.383,0,0,0,.5-.513,9.2,9.2,0,0,1,3.733-2.944.293.293,0,0,0,.12-.114A4.92,4.92,0,0,1,44.584,77.3a.934.934,0,0,1,.466-.137.945.945,0,0,1,.571.217,1.853,1.853,0,0,1,.192.17,3.066,3.066,0,0,1,.63.962.1.1,0,0,0,.095.07c.178.022.362.047.558.084a6.681,6.681,0,0,1,5.43,6c0,.084.017.167.022.251a2.61,2.61,0,0,0,.092.585,4.919,4.919,0,0,0,.3.68c.047.1.1.2.142.3s.078.17.12.254c.095.2.192.4.279.613a1.505,1.505,0,0,1,.042.981c-.042.142-.128.164-.176.164a.22.22,0,0,1-.114-.036,2.841,2.841,0,0,1-.234-.173l-.109-.084-.123-.095a2.147,2.147,0,0,0-.279-.2.228.228,0,0,0-.109-.031.2.2,0,0,0-.109.033l.142.125c.251.223.5.446.75.675a.279.279,0,0,1,.081.206,1.742,1.742,0,0,1-.485,1.151,1.547,1.547,0,0,1-1.115.527,1.5,1.5,0,0,1-.265-.025.279.279,0,0,1-.181.279,5.076,5.076,0,0,1-2.461.666H48.6a3.485,3.485,0,0,0-1.734.5,2.508,2.508,0,0,1-.574.245,7.383,7.383,0,0,1-1.55.217,4.854,4.854,0,0,0,.658.042,4.569,4.569,0,0,0,.468-.017h.3a.594.594,0,0,1,.229.039c.432.176.856.39,1.252.594a.4.4,0,0,0,.187.056.234.234,0,0,0,.086-.017l.117-.042c.217-.081.44-.167.652-.262a3.345,3.345,0,0,1,1.377-.332,2.507,2.507,0,0,1,.346.025,2.4,2.4,0,0,1,.953.3.691.691,0,0,1,.379.558.131.131,0,0,0,.036.045l.117.1c.039.033.081.067.12.1a.962.962,0,0,1,.318.836c0,.092-.031.312-.217.312a.491.491,0,0,1-.215-.067.591.591,0,0,0-.106-.045c.092.056.178.111.279.17a.694.694,0,0,1,.3.638,1.374,1.374,0,0,1-1.338,1.2,1.114,1.114,0,0,1-.231-.025.836.836,0,0,1-.588-.382.089.089,0,0,0-.025-.02h-.114a2.189,2.189,0,0,0-.4.039h-.036a3.013,3.013,0,0,1-.672.1,1.377,1.377,0,0,1-.262-.025c-.1-.02-.2-.045-.307-.07l-.075-.017a3.32,3.32,0,0,1-.558,1.076,4.8,4.8,0,0,1-2.369,1.592,7.5,7.5,0,0,1-2.347.362,9.615,9.615,0,0,1-1.349-.1A4.535,4.535,0,0,1,37.924,96.3a6.969,6.969,0,0,1-.279-.878c-.036-.142-.075-.279-.114-.426a9.107,9.107,0,0,0-.836-1.985,5.854,5.854,0,0,0-2.364-2.378,5.335,5.335,0,0,0-2.509-.613,6.617,6.617,0,0,0-1.165.106l-.243.05a8.6,8.6,0,0,1,4.2,1.2,5.453,5.453,0,0,1,2.54,3.264,11.646,11.646,0,0,0,.836,2.211,5.438,5.438,0,0,0,.853,1.31,4.519,4.519,0,0,0,2.18,1.235c.259.072.518.153.775.234a.468.468,0,0,1,.3.3,2.085,2.085,0,0,1,.109,1.168,3.451,3.451,0,0,1-.836,1.614,5.946,5.946,0,0,1-1.215.99,6.338,6.338,0,0,0-.594.449.6.6,0,0,0-.229.493c0,.3.036.315.092.315a.917.917,0,0,0,.243-.056,1.53,1.53,0,0,0,.176-.07l.354-.153.6-.259a3.367,3.367,0,0,1,1.293-.279,2.86,2.86,0,0,1,.663.078,1.971,1.971,0,0,1,1.525,1.394.6.6,0,0,1-.028.5.371.371,0,0,1-.279.17.4.4,0,0,1-.251-.159.259.259,0,0,1-.056-.145c0-.017,0-.031,0-.045a.959.959,0,0,0-.309-.544,1.726,1.726,0,0,1,.354,1.146.725.725,0,0,1-.8.686h-.053a.279.279,0,0,1-.279-.24,2.771,2.771,0,0,1,0-.3V106.4a2.433,2.433,0,0,0,0-.329.535.535,0,0,0-.4-.457h-.05a.443.443,0,0,1,.176.178,2.077,2.077,0,0,1,.2.468.817.817,0,0,1-.318.931,1.282,1.282,0,0,1-.532.167,1.553,1.553,0,0,1-.212,0,3.345,3.345,0,0,1-.767-.12l-.125-.031a2.347,2.347,0,0,0-1.162-.017l-.081.014a20.11,20.11,0,0,1-3.579.348Z" transform="translate(-2.326 -55.651)" fill="#e65270"/>
      <path id="path7737" d="M138.319,122.577a4.518,4.518,0,0,1-5.182.978c-2.988-1.2-1.9-4.516-1.9-4.516a4.836,4.836,0,0,0,2.077,2.832A9.478,9.478,0,0,0,138.319,122.577Z" transform="translate(-94.511 -85.856)" fill="#430a1d" opacity="0.2"/>
      <path id="path7739" d="M119.656,130.454a2.529,2.529,0,0,1,.558,1.394,6.785,6.785,0,0,0,1.182,2.668,5.09,5.09,0,0,0,2.272,1.7c.814.312,1.859.22,1.7,1.43l-.279,1.02a4.881,4.881,0,0,1-4.817-3.011c-.694-1.809.123-3.995-1.985-7.053C118.463,128.792,119.441,130.234,119.656,130.454Z" transform="translate(-85.312 -92.751)" fill="#430a1d" opacity="0.2"/>
      <g id="g7743" transform="translate(33.51 36.797)" opacity="0.2">
        <path id="path7741" d="M120.21,132c.031.128.061.259.089.39A.463.463,0,0,1,120.21,132Z" transform="translate(-120.199 -132)" fill="#2b2b2b"/>
      </g>
      <path id="path7766" d="M10.511,119.659c-7.839-.775-8.753-8.575-8.753-8.575a20.966,20.966,0,0,1,.558-7.164c.641,6.453,5.818,10.922,5.818,10.922S9.27,118.519,10.511,119.659Z" transform="translate(-1.197 -74.951)" fill="url(#linear-gradient)"/>
      <path id="path7768" d="M16.456,143.229s-1.645.156-3.836-2.509c2.116,3.836,4.856,3.9,4.856,3.9Z" transform="translate(-9.099 -101.493)" fill="#2b2b2b" opacity="0.2"/>
      <path id="path7791" d="M29.052,131.014c-.41-7.214,3.825-3.866,6.013-7.694a12.419,12.419,0,0,1,2.467-5.464S24.416,115.4,24.21,124.962c.457,2.071,2.464,4.073,3.721,5.157-.245-.558-3.376-9.171,7.05-8.469-3.6-.307-8.795,3.454-6.32,9.088A3.78,3.78,0,0,0,29.052,131.014Z" transform="translate(-17.458 -84.798)" fill="url(#linear-gradient-2)"/>
      <path id="path7793" d="M35.743,128.47c-2.712,1.02-7.315,1.015-6,7.934-.209.156-1.257-1.466-1-1.31C27.536,128.9,32.949,129.264,35.743,128.47Z" transform="translate(-20.603 -92.657)" fill="#fff" opacity="0.2"/>
      <path id="path7795" d="M41.537,119.008c2.637-1.043.5,1.915.123,2.386-.864,1.1-3.066.739-4.223,1.115-.672.209-3.362.6-4.251,3.15a7.692,7.692,0,0,0,.3,5.218c-.209.159-1.6-1.36-1.335-1.2C29.935,119.722,40.419,123.29,41.537,119.008Z" transform="translate(-22.963 -85.674)" fill="#8b4fba" opacity="0.6"/>
      <path id="path7797" d="M160.478,103.121a1.673,1.673,0,0,1,.348-.6,1.084,1.084,0,0,1,.1.036,1.924,1.924,0,0,1,.987-.145,2.024,2.024,0,0,1,.661.02c.279.106.24.39.354.608.212.4.87.41.873.981a3.792,3.792,0,0,1,0,.9c-.05.2-.279.137-.457.137-.558,0-1.14.017-1.712.017l-.781-.585c-.212.067-.376-.374-.4-.524A1.739,1.739,0,0,1,160.478,103.121Z" transform="translate(-115.692 -73.851)" fill="#f9e0e7"/>
      <path id="path7799" d="M169.364,106.832a.917.917,0,0,0,.3-.279c.042-.064.031-.106.123-.1.243,0,.243.332.231.5-.014.215-.1.413-.134.624-.078-.02-.123-.117-.209-.142a.836.836,0,0,0-.243,0c-.106,0-.256.075-.351.036Z" transform="translate(-121.944 -76.775)" fill="#fff"/>
      <path id="path7808" d="M42.492,22.44l.056-.067a6.537,6.537,0,0,0,1.912-3.588A3.552,3.552,0,0,0,44,16.31a.368.368,0,0,0-.033-.042c-.081.254-.156.5-.243.75a5.5,5.5,0,0,1-.878,1.692c-.162.2-7,3.986-6.3,12.374a.452.452,0,0,0,.02.159c.125-.117.237-.24.365-.34a4.338,4.338,0,0,1,1.528-.736q1.505-.418,3.025-.783a28.319,28.319,0,0,0,3.418-.967,8.5,8.5,0,0,0,1.77-.928,9.692,9.692,0,0,0,2.163-2.035,3.624,3.624,0,0,0,.689-1.346,3.306,3.306,0,0,1-.106,1.542A3.805,3.805,0,0,1,48.625,27a1.316,1.316,0,0,0,.254-.084,7.228,7.228,0,0,0,2.484-2.185,4,4,0,0,0,.728-2.088.311.311,0,0,1,0-.039A4.231,4.231,0,0,1,51.2,26.29c.376-.134.714-.279,1.062-.368a1.084,1.084,0,0,0,.636-.507,11.97,11.97,0,0,0,1.589-3.537,5.809,5.809,0,0,0,.031-2.966,4.9,4.9,0,0,0-1.9-2.665,8.8,8.8,0,0,0-2.082-1.115l-.134-.053-.039-.042c.256.07.485.131.714.2a9.548,9.548,0,0,1,2.974,1.394,4.5,4.5,0,0,1,1.723,2.28,4.878,4.878,0,0,1,.053,2.6,10.314,10.314,0,0,1-1.6,3.468l-.064.1a.185.185,0,0,0,0,.033l.075-.031a11.833,11.833,0,0,0,3.9-3.08,10.468,10.468,0,0,0,2.149-4.34,6.127,6.127,0,0,0-1.369-5.467A10.1,10.1,0,0,0,55.9,9.787,14.011,14.011,0,0,0,51.2,8.2a8.48,8.48,0,0,0-2.843.017,4.048,4.048,0,0,0-1.436.558c.072-.061.142-.128.22-.184a4.181,4.181,0,0,1,1.742-.725,9.9,9.9,0,0,1,3.128-.086,14.008,14.008,0,0,1,4.625,1.36l.443.226V9a.279.279,0,0,1,.243-.3.187.187,0,0,1,.237.164c.022.112.028.223.042.335a1.19,1.19,0,0,0,.326.652.323.323,0,0,0,.059.05.2.2,0,0,1,.061.014V9.154c0-.042.031-.109.059-.117a.159.159,0,0,1,.137.042.939.939,0,0,1,.167.279c.067.22.095.452.164.669a1.333,1.333,0,0,0,.206.4c.1.128.2.1.237-.056a4.513,4.513,0,0,0,.07-.449.931.931,0,0,1,.025-.153.583.583,0,0,1,.067-.114c.033.031.084.056.1.095a.881.881,0,0,1,.072.279v.613a.781.781,0,0,0,.1.318c.059.1.153.092.184-.025.047-.167.07-.34.1-.51l.075-.371a.516.516,0,0,1,.181.371c.036.332.053.666.081,1a1.394,1.394,0,0,0,.256.683c.279.387.5.8.744,1.207.123.209.237.229.354,0s.229-.5.337-.761c.047-.112.089-.226.139-.335a1.132,1.132,0,0,1,.1-.153.321.321,0,0,1,.137.343c-.036.187-.106.365-.153.558a6.132,6.132,0,0,0-.139.6.5.5,0,0,0,.064.262c.053.114.137.128.229.039s.164-.2.254-.3a1.09,1.09,0,0,1,.181-.128c.033.075.1.153.1.226a1.625,1.625,0,0,1-.106.452,8.233,8.233,0,0,0-.365.861,3.169,3.169,0,0,0-.109.675.2.2,0,0,0,.084.17.22.22,0,0,0,.176-.072c.187-.206.362-.421.558-.633a1.359,1.359,0,0,1,.156-.134l.053.025a1.644,1.644,0,0,1-.056.36,3.345,3.345,0,0,1-.279.532c-.167.279-.357.516-.527.778a4.892,4.892,0,0,0-.647,1.6c-.095.4-.229.8-.346,1.2a.636.636,0,0,0-.033.153c.1-.164.2-.329.309-.493a2.908,2.908,0,0,1,.82-.881,2.754,2.754,0,0,1,.558-.279,27.949,27.949,0,0,0,2.947-1.182,5.743,5.743,0,0,0,.772-.479.82.82,0,0,0,.332-.92l-.2-.8c-.162.256-.3.5-.463.733a1.555,1.555,0,0,1-.661.558.948.948,0,0,1,.047-.092,5.782,5.782,0,0,0,.836-1.907.577.577,0,0,0-.014-.229,6.846,6.846,0,0,1-.022-1.483,1.563,1.563,0,0,0,0-.3.167.167,0,0,0-.081-.12.184.184,0,0,0-.117.056,2.386,2.386,0,0,0-.279.415c-.259.6-.507,1.207-.753,1.812a7.805,7.805,0,0,1-1.182,2.119,2.788,2.788,0,0,1-.836.708,1.288,1.288,0,0,1-.2.081,2.7,2.7,0,0,0,.655-1.9c.031-.886,0-1.773.022-2.659A9.809,9.809,0,0,1,64.1,9.567a.192.192,0,0,0-.028-.125c-.081-.156-.184-.3-.251-.468-.139-.34-.256-.691-.4-1.034-.081-.2-.109-.217-.323-.2a.558.558,0,0,1-.493-.279c-.095-.125-.134-.123-.2.025s-.125.323-.2.479c-.025.053-.092.089-.142.131-.036-.056-.1-.109-.106-.167-.02-.19-.014-.382-.028-.558a1.015,1.015,0,0,0-.05-.279A.17.17,0,0,0,61.755,7c-.033,0-.089.053-.1.095-.047.137-.075.279-.117.413s-.084.123-.148.031A5.9,5.9,0,0,0,59.6,6.024c-.2-.12-.4-.245-.6-.368h-.042l.075.661-.053.028a1.522,1.522,0,0,1-.187-.162c-.131-.156-.251-.321-.385-.477a1.8,1.8,0,0,0-.917-.6l.293,1.006-.047.02a1.191,1.191,0,0,1-.1-.123c-.078-.125-.153-.251-.226-.382a1.815,1.815,0,0,0-1.394-.962c-.421-.061-.836-.1-1.268-.128a2.411,2.411,0,0,1-.895-.2,6.535,6.535,0,0,0-.624-.223.346.346,0,0,0-.123,0,.39.39,0,0,0,0,.134c.1.192.206.382.307.574a2.155,2.155,0,0,1,.089.22l-.028.031A1.531,1.531,0,0,1,53.286,5c-.279-.134-.558-.256-.817-.407a2.013,2.013,0,0,0-.859-.19,7.15,7.15,0,0,0-2.679.226,3.933,3.933,0,0,0-1.469.783.542.542,0,0,0,.164-.017,6.908,6.908,0,0,1,1.614-.2,2.23,2.23,0,0,1,1.057.265.641.641,0,0,1,.128.139.558.558,0,0,1-.22.067c-.17-.02-.337-.084-.507-.1a4.494,4.494,0,0,0-1.592.22A10.889,10.889,0,0,0,44.65,7.484c-.259.184-.527.354-.794.524a4.165,4.165,0,0,0-1.28,1.282,1.026,1.026,0,0,0-.1.2.329.329,0,0,0,.167.44,1.787,1.787,0,0,0,.413.151,4.583,4.583,0,0,1,3.5,3.942,13.364,13.364,0,0,1,.145,2.169,6.885,6.885,0,0,1-1.8,4.382A9.288,9.288,0,0,1,42.59,22.4Z" transform="translate(-26.321 -2.957)" fill="url(#linear-gradient-3)"/>
      <path id="path7810" d="M130.224,30c-.8,6.241-3.568,4.828-5.383,8.313-.1-.131-.329.934.128-1.045s1.767-1.087,3.008-3.345C129.549,31.057,129.24,30.8,130.224,30Z" transform="translate(-89.931 -21.637)" fill="#8b4fba" opacity="0.2"/>
      <path id="path7812" d="M80.714,26.306c-.3,1.787-2.824,1.706-4.984.948-2.35-.836-7.228-1.087-7.621-.106-.2.226-.588-.7-.588-.7s3.708-4.045,9.91.223c-.254-.393,2.23-1.542,2.23-1.542S80.4,24.9,80.714,26.306Z" transform="translate(-48.695 -17.823)" fill="#fff" opacity="0.3"/>
      <path id="path7814" d="M66.531,66.035c.134.335,1.232.109,1.335-.413-1.62-1.845,2.643-5.216-1.288-9.623C69.151,62.8,63.673,63.072,66.531,66.035Z" transform="translate(-47.368 -40.389)" fill="#8b4fba" opacity="0.2"/>
      <path id="path7816" d="M66.531,66.1c.134.335.111.24.215-.279-1.62-1.834,2.693-4.508-.167-9.732C69.151,62.861,63.673,63.137,66.531,66.1Z" transform="translate(-47.368 -40.454)" fill="#8b4fba" opacity="0.6"/>
      <path id="path7823" d="M74.94,48.886c7.78-8.187-2.054-6.816-5.266-12.371v-.279a4.738,4.738,0,0,0-.513-2.143c3.021,4.434,10.623.518,9.154,9.614C78.173,44.174,77.117,48.782,74.94,48.886Z" transform="translate(-49.879 -24.589)" fill="url(#linear-gradient-4)"/>
      <path id="path7830" d="M74.689,54.127c-3.2,1.572-6,1.628-5.871,1.151,6.364-4.318,1.227-8.767.028-12.96.081-.337.594-.466.594-.836V41.36a1.394,1.394,0,0,0,.521.772C72.916,45.1,82.319,46.1,74.689,54.127Z" transform="translate(-49.629 -29.83)" fill="url(#linear-gradient-5)"/>
      <path id="path7832" d="M74.87,58.029c4.937-7.357-4.262-8.756-4.2-11.089-.733,4.8,8.084,6.852-.2,12.594C70.329,60,71.667,59.6,74.87,58.029Z" transform="translate(-50.813 -33.855)" fill="#e65271"/>
      <path id="path7839" d="M124.563,19.932c.39.652-.042,1.424-.5,2.146-.421.666-1.436.449-2.124,2.057L122,22.882c.764-1.33-.527-3.161-.886-4.4-.613-2.107-1.277-4.053-.466-6.194.056-.145.1-.3.156-.449a4.973,4.973,0,0,1,1.065,1.054c.229.3.151-.778.452-.558.223.164,0,.928.2,1.115s.382-.962.558-.7c.4.6.633.22.8.4s.516,1.427.663,1.6.279.337.415.51a11.817,11.817,0,0,1-.558,2.788A1.7,1.7,0,0,0,124.563,19.932Z" transform="translate(-86.741 -8.539)" fill="url(#linear-gradient-6)"/>
      <path id="path7841" d="M95.517,3.794a.176.176,0,0,0,.056,0c.215,0-.58-1-.351-1,.387,0,.931.4,1.31.429a6.8,6.8,0,0,1,2.333.368c.708.326.978,1.274,1.132,1.316s-.368-1.115-.22-1.062a1.926,1.926,0,0,1,.624.348c.669.956.886,5.7-.095,5.575-1.031-.128,1.625.365,1.636.323a5.783,5.783,0,0,0-1-5.3.917.917,0,0,0,.321.321c.212.081-.131-.808.061-.691a15.9,15.9,0,0,1,1.394.906c0,.017,0,.053.031.045.262-.109,1.887-.491.652,5.347,1.879-3.8.407-5.3.558-5.138.666.719.8,2.478.889,3.521a6.526,6.526,0,0,1-1.33,3.944c-.558.518-.558-.123-.761-.619a8.692,8.692,0,0,0-1.555-2.141,18.455,18.455,0,0,0-1.422-1.31,20.923,20.923,0,0,1-1.243-1.7c-.41-.477-.914-.859-1.3-1.355-.438-.558-.73-1.2-1.215-1.709A4.151,4.151,0,0,0,95.517,3.794Z" transform="translate(-68.645 -2.012)" fill="#e65271"/>
      <path id="path7848" d="M104.4,4.468a5.614,5.614,0,0,1,2.818,1.07c.786.438,1.753.44,2.42,1.045a4.162,4.162,0,0,1,1.43,2.768,14.5,14.5,0,0,1-.039,4.371A6.454,6.454,0,0,1,109.91,16.3l-.613-.39c-1.21-3.128-4.862-4.41-6.241-7.485a8.084,8.084,0,0,1-.558-3.066C102.461,4.334,103.56,4.471,104.4,4.468Z" transform="translate(-73.922 -3.219)" fill="url(#linear-gradient-7)"/>
      <path id="path7850" d="M59.222,11.1a4.77,4.77,0,0,0-2.966-2.077c-.315-.07-.881-.279-.321-.942a5.792,5.792,0,0,1,1.923-1.636c1.862-1.394,1.093-1.525,2.18-1.65.424-.05.312-.086.527,0s-.164-.061-.3-.151c-1.213-.8-1.115.8-.6.452a11.946,11.946,0,0,1,6.133-1.87c.145.025,1.154.608,1.307.6.215,0-.58-1-.351-1,.387,0,.931.4,1.31.429A3.941,3.941,0,0,1,71.2,7.282a10.834,10.834,0,0,1-.07,2.066C70.264,13.546,61.483,7.65,59.222,11.1Z" transform="translate(-40.169 -2.041)" fill="#f6e8a0"/>
      <path id="path7852" d="M76.271,18.876a12.972,12.972,0,0,0-3.05-1.424s-4.391-1.514-8.441,2.788c2.071-1.645,5.706-.953,8.338-.65.365.059-.75-.3-.454-.41.978-.368,1.882.652,2.855.468A.836.836,0,0,0,76.271,18.876Z" transform="translate(-46.719 -12.401)" fill="#fff"/>
      <path id="path7854" d="M84.855,18.857a7.583,7.583,0,0,0-3.535.215c.145-.22.385-.725,1.578-.9a10.313,10.313,0,0,1,1.115,0,2.648,2.648,0,0,1,1.293.343,3.3,3.3,0,0,0,1.215.254s2.473.187,1.653,1.023-2.013-1.082-4.63-.468A1.656,1.656,0,0,1,84.855,18.857Z" transform="translate(-58.648 -13.095)" fill="#f6e8a0"/>
      <g id="g7858" transform="translate(15.519 1.087)">
        <path id="path7856" d="M63.893,5.1c-1.02-.675-2.788-.095-3.033-.1,0-.022,0-.05.05-.075A6.687,6.687,0,0,1,65.767,4h.047c.217.084.925.482,1.185.558,1.511.856,3.9,2.665,4.109,5.528a9.581,9.581,0,0,1-1.951-1.115c-.159-.123-3.772-3.9-13.328.638a.357.357,0,0,1-.114-.488c2.158-3.468,6.1-4.46,12.374-1.179A6.729,6.729,0,0,0,63.893,5.1Z" transform="translate(-55.662 -3.899)" fill="#f8d285"/>
      </g>
      <path id="path7865" d="M76.657,42.443c3.54-3.621,4.99-6.325,3.27-9.235-2.788-4.719-11.321.2-15.036-4.558a8.673,8.673,0,0,0,2.041,1.778c2.754,1.8,7.939,1.221,9.592,2.612C78.647,34.827,79.191,38.437,76.657,42.443Z" transform="translate(-46.798 -20.663)" fill="url(#linear-gradient-8)"/>
      <path id="path7874" d="M44.366,51a12.586,12.586,0,0,1,.466,1.965c-.744,2.751-3.978,4.1-3.978,4.1s-3.624,1.455-4.181,8.112c-.661.474-.558-.535-.558-.987C36.525,55.46,43.786,56.439,44.366,51Z" transform="translate(-26.04 -36.783)" fill="url(#linear-gradient-9)"/>
      <path id="path7883" d="M45.615,75.878a1.358,1.358,0,0,0-.178-.081c-.318-.089-.636-.17-.953-.259-.1-.028-.2-.075-.3-.112v-.064a2.13,2.13,0,0,1,.34-.059H45.9a6.487,6.487,0,0,0,1.912-.19,4.577,4.577,0,0,0,.878-.387,13.818,13.818,0,0,0,6.267-7.136,12.915,12.915,0,0,0,.6-1.951.333.333,0,0,1,.025-.139l-.109.064a15.432,15.432,0,0,1-5.9,2.473,14.737,14.737,0,0,1-2.319.24.279.279,0,0,0-.17.064,14.457,14.457,0,0,1-4.025,2.788A14.68,14.68,0,0,1,39.329,72.3c-1.65.321-3.3.624-4.954.942a45.317,45.317,0,0,0-6,1.483,15.307,15.307,0,0,0-3.546,1.647,6.593,6.593,0,0,0-2.088,2.046c-.184.3-.312.638-.471.956a.6.6,0,0,1-.1.162,4.46,4.46,0,0,0-1.355,3.875,7.694,7.694,0,0,0,1.093,3.094c.067.111.125.231.176.329.028-.243.05-.516.086-.786A5.018,5.018,0,0,1,24.8,82.2a9.954,9.954,0,0,1,2.788-1.045c1.07-.237,2.152-.435,3.234-.63a31.5,31.5,0,0,0,3.9-.836c.248-.078.493-.167.736-.259a3.571,3.571,0,0,0,.881-.471,12.72,12.72,0,0,1,2.938-1.583l.084-.033v-.02H35.809a22.8,22.8,0,0,0-3.125.162A18.582,18.582,0,0,0,28.5,78.557a29.269,29.269,0,0,0-4.569,2.264.374.374,0,0,1-.131.056l.081-.067A21.345,21.345,0,0,1,29.1,77.821a15.89,15.89,0,0,1,4.064-.987,20.8,20.8,0,0,1,3.7-.028q1.6.117,3.2.229A.778.778,0,0,0,40.344,77a21.309,21.309,0,0,1,3.222-.663c.644-.092,1.28-.245,1.915-.374a.75.75,0,0,0,.125-.05Z" transform="translate(-14.977 -47.241)" fill="url(#linear-gradient-10)"/>
      <path id="path7885" d="M39.46,106.326c4.181-4.99,15.017-2.375,19.636-3.6a9.419,9.419,0,0,1-5.3,1.394S43.811,103.02,39.46,106.326Z" transform="translate(-28.457 -74.093)" fill="#fff" opacity="0.2"/>
      <path id="path7887" d="M127.141,47.69a2.7,2.7,0,0,0-.34.061,8.225,8.225,0,0,0-1.115.376,4.908,4.908,0,0,0-.937.627c-.558.457-1.115.945-1.673,1.411a3.624,3.624,0,0,1-2.082,1.02,4.3,4.3,0,0,0,1.606-1.742.419.419,0,0,0-.061,0,19.482,19.482,0,0,0-3.284,1.932,2.046,2.046,0,0,0-.638.764c-.245.51-.558.992-.836,1.486l-.061.1c.248-.05.463-.086.675-.139a12.212,12.212,0,0,0,2.551-1.04,33.2,33.2,0,0,0,3.674-2.241.418.418,0,0,1,.12-.064.309.309,0,0,1-.033.045A14.911,14.911,0,0,1,119.9,53.6a8.773,8.773,0,0,1-2.475.641.151.151,0,0,0-.092.036c-.19.231-.376.466-.588.725.521-.112,1.015-.209,1.5-.323a21.161,21.161,0,0,0,3.989-1.3,9.3,9.3,0,0,0,2.606-1.653,8.067,8.067,0,0,0,2.174-3.387A5.579,5.579,0,0,0,127.141,47.69Z" transform="translate(-84.194 -34.396)" fill="#e65271"/>
      <path id="path7889" d="M69.16,71.608c.407-.137.867-.3,1.36-.493,5.815-1.809,7.736-3.326,7.736-3.326l5.854-4.324A1.786,1.786,0,0,0,86.3,63.24c-.836,1.009-3.426,1.8-3.426,1.8a2.364,2.364,0,0,1-.962,1.413c2.3-.781,6.161-.558,8.84-2.969-2.041,5.729-7.072,1.363-11.937,4.926-.558.337-7.978,2.23-4.293,2.1s6.113,2.386,9.2,1.561c-2.891,1.048-5.444-.633-9.478-.914A3.446,3.446,0,0,1,76.1,72.1a7.549,7.549,0,0,0-4.99-.842A17.718,17.718,0,0,0,69.16,71.608Z" transform="translate(-49.878 -45.611)" fill="#8b4fba" opacity="0.6"/>
      <path id="path7891" d="M52.007,96.491C47.77,98.164,32.8,93.3,26.082,100.862c0,0-.5-.226,2.174-3.225C38.777,92.605,46.613,97.364,52.007,96.491Z" transform="translate(-18.781 -68.726)" fill="#2b2b2b" opacity="0.2"/>
      <path id="path7898" d="M108.847,75.133c1.254-.705.234,1.017-1.017,2.035-4.934,3.445-7.164-.474-12.059,1.411C103.258,74.453,103.991,79.6,108.847,75.133Z" transform="translate(-69.07 -54.07)" opacity="0.7" fill="url(#radial-gradient)"/>
      <path id="path7900" d="M108.455,78.352c1.254-.705.619.039-.636,1.059-4.934,3.445-7.164-.474-12.059,1.411C100.58,78.14,103.6,82.815,108.455,78.352Z" transform="translate(-69.063 -56.311)" fill="#8b4fba" opacity="0.2"/>
      <g id="g7916" transform="translate(12.562 16.689)">
        <path id="path7907" d="M47.528,72.44c-2.283,2.088-.493,6.662-.493,6.662l-1.625.348S43.77,75.03,47.528,72.44Z" transform="translate(-45.054 -68.936)" opacity="0.7" fill="url(#radial-gradient-2)"/>
        <path id="path7914" d="M56.074,59.87c1.72,3.066-2.841,7.273-.393,8.764-.039.2-1.394.884-1.338.686-3.025-4.639,1.951-5.745,1.307-8.642-3.5,4.767-3.532,5.709-1.823,8.728-.022.017-.209.259-.393.123C50.761,67.539,50.02,65.3,56.074,59.87Z" transform="translate(-49.661 -59.87)" opacity="0.7" fill="url(#radial-gradient-3)"/>
      </g>
      <path id="path7918" d="M75.226,51.307c.109,1.433,1.115-.895,1.263-2.509.131-6.016-5.968-4.561-6.247-9.428C69.648,44.912,76.249,44.789,75.226,51.307Z" transform="translate(-50.631 -28.395)" fill="#8b4fba" opacity="0.2"/>
      <path id="path7920" d="M80.389,43.331c.109,1.433,2.986-2.255,3.139-3.864-.965-10.314-11.588-4.045-14.367-7.847C71.454,35.785,86.3,29.989,80.389,43.331Z" transform="translate(-49.878 -22.806)" fill="#fff" opacity="0.3"/>
      <path id="path7927" d="M162.55,145.72c-.156.137-.279.262-.424.368a2.249,2.249,0,0,1-.365.226.984.984,0,0,1-.937,0,2.6,2.6,0,0,0-1.55-.22.385.385,0,0,0-.329.237,4.575,4.575,0,0,1-2.551,2.261.279.279,0,0,0-.212.251,2.629,2.629,0,0,0,0,1.048,2.093,2.093,0,0,0,.953,1.271,5.134,5.134,0,0,0,1.606.658,8.491,8.491,0,0,0,2.071.279,3.641,3.641,0,0,0,1.054-.145,1.951,1.951,0,0,0,1.416-1.519,12.953,12.953,0,0,0,.279-1.525,4.011,4.011,0,0,0-.97-3.128A.529.529,0,0,1,162.55,145.72Z" transform="translate(-112.605 -105.099)" fill="url(#linear-gradient-11)"/>
      <g id="g7931" transform="translate(45.274 40.192)">
        <path id="path7929" d="M164.856,144.687c.059.351.719.449,1.026.438a1.7,1.7,0,0,0,1.24-.744,1.339,1.339,0,0,0,.139-.2A2.011,2.011,0,0,1,168.12,146c-.167,1.188-1.631,1.951-3.267,1.734a3.273,3.273,0,0,1-2.453-1.505c.3-.382.415-.87.811-1.2A2.808,2.808,0,0,1,164.856,144.687Z" transform="translate(-162.4 -144.18)" fill="#f6e8a0" opacity="0.3"/>
      </g>
      <path id="path7940" d="M24.886,73.775a1.026,1.026,0,0,0,.82.134,17.1,17.1,0,0,1-.337-3.9,10.289,10.289,0,0,1,.934-4.165,3.37,3.37,0,0,1,.279-.485.614.614,0,0,1-.02.075A8.424,8.424,0,0,0,26,68.105a15.438,15.438,0,0,0,.4,4.229.522.522,0,0,0,.031.117c.2-.137.4-.279.591-.4.022-.017.022-.078.02-.12a11.376,11.376,0,0,1,0-2.537,14.362,14.362,0,0,1,.864-3.507,19.178,19.178,0,0,1,2.378-4.43l.067-.095a.2.2,0,0,0,0-.042l-.41.145a21.322,21.322,0,0,0-2.64,1.143,1.873,1.873,0,0,0-.374.256,7.005,7.005,0,0,0-2.23,3.961c-.047.231-.081.468-.145.7.014-.259.022-.518.045-.775a14.412,14.412,0,0,1,.75-3.6,1.592,1.592,0,0,0,0-.836.992.992,0,0,0-.114-.248,1.187,1.187,0,0,0-.2.2,6.9,6.9,0,0,0-.739,1.745,19.793,19.793,0,0,0-.574,2.857,19.032,19.032,0,0,0-.2,2.715,8.263,8.263,0,0,0,.382,2.71,3.685,3.685,0,0,0,.624,1.151c.1.123.226.226.337.34Z" transform="translate(-16.96 -44.226)" fill="url(#linear-gradient-12)"/>
      <path id="path7942" d="M31.575,61.43a5.034,5.034,0,0,0-3.25,1.893A12.459,12.459,0,0,0,27.082,67.6s-.491,4.025,1.146,6.378C27.19,65.369,31.575,61.43,31.575,61.43Z" transform="translate(-19.48 -44.306)" fill="#2b2b2b" opacity="0.2"/>
      <path id="path7951" d="M13.1,85.517h-.025a2.62,2.62,0,0,1-1.14-.9,4.719,4.719,0,0,1-.811-1.951,11.167,11.167,0,0,1-.139-3.167c.05-.6.139-1.207.215-1.812V77.6a.869.869,0,0,0-.084.072,17.6,17.6,0,0,0-3.922,6.258.357.357,0,0,0,0,.209,19.968,19.968,0,0,0,2.166,4.636c.385.613.808,1.2,1.215,1.8.031.047.07.089.128.167.014-.3.176-.558.05-.836a2.7,2.7,0,0,1-.24-1.19.769.769,0,0,1,.153-.44,1.951,1.951,0,0,0,.427.836.418.418,0,0,0,.039-.365,4.011,4.011,0,0,1-.248-1.519,2.4,2.4,0,0,1,.089-.479,3.2,3.2,0,0,0,.661,1,.523.523,0,0,0,.039-.059,9,9,0,0,1,1.394-2.068C13.088,85.6,13.085,85.55,13.1,85.517Z" transform="translate(-5.171 -55.968)" fill="url(#linear-gradient-13)"/>
      <path id="path7953" d="M13.445,88.936s-2.57-5.032-1.369-9.352a9.911,9.911,0,0,0-.705.722c-.07.081-.934,5.787.817,8.3-2.353-2.788-1.238-7.775-1.338-7.63a4.429,4.429,0,0,0-.524,1.012,9.509,9.509,0,0,0,2.955,9.026Z" transform="translate(-7.287 -57.38)" fill="#2b2b2b" opacity="0.2"/>
      <path id="path7955" d="M155.15,168.779c-.106.162-.229.323-.326.5a.655.655,0,0,0-.047.53.374.374,0,0,0,.46.279,4.926,4.926,0,0,1,.558-.064c.2,0,.215.02.24.217a.58.58,0,0,0,.031.153.53.53,0,0,0,.415.39.507.507,0,0,0,.491-.262.792.792,0,0,0-.558-1.254,3.684,3.684,0,0,0-.583,0h-.111l-.028-.033a.766.766,0,0,1,.159-.181.733.733,0,0,1,.46-.092,4.052,4.052,0,0,0,2.935-.633,3.7,3.7,0,0,0,1.137-1.338h0c.036-.1.106-.215,0-.279a.349.349,0,0,0-.279,0c-.39.128-.772.279-1.168.4a5.545,5.545,0,0,1-1.773.131,7.839,7.839,0,0,1-2.356-.457,6.822,6.822,0,0,1-2.289-1.394,1.964,1.964,0,0,0-.24-.2c-.145-.1-.245-.05-.251.128a1.464,1.464,0,0,0,.036.374,3.931,3.931,0,0,0,2.155,2.7C154.551,168.55,154.866,168.659,155.15,168.779Z" transform="translate(-109.645 -119.106)" fill="#e65270"/>
      <path id="path7964" d="M4.477,95.19a16.5,16.5,0,0,0,4.4,11.68c-.042-.3-.1-.608-.123-.912-.042-.518-.07-1.04-.095-1.561a.491.491,0,0,0-.092-.279,33.329,33.329,0,0,1-2.98-5.1,12.6,12.6,0,0,1-.967-2.835C4.561,95.865,4.528,95.538,4.477,95.19Z" transform="translate(-3.226 -68.655)" fill="url(#linear-gradient-14)"/>
      <path id="path7973" d="M135.927,24.358a8.881,8.881,0,0,0,1.291-2.868,2.278,2.278,0,0,0,0-.558,7.752,7.752,0,0,1,.376-2.98.8.8,0,0,0,.064-.265.371.371,0,0,0-.086-.215c-.061-.072-.145-.047-.226,0a1.62,1.62,0,0,0-.585.6,4.843,4.843,0,0,0-.569,1.6,19.633,19.633,0,0,0-.279,4.633A.387.387,0,0,0,135.927,24.358Z" transform="translate(-97.999 -12.569)" fill="url(#linear-gradient-15)"/>
      <path id="path7975" d="M135.293,18.346a3.647,3.647,0,0,1,.661-.794l.362-.231a7.722,7.722,0,0,0-.5,2.871c0,.836.256,1.614.3,2.445a2.517,2.517,0,0,1-.622,1.589c-.162.251-.379.794-.728.8a3.7,3.7,0,0,1-.139-1.319c0-.507-.086-1-.067-1.516a20.948,20.948,0,0,1,.73-3.841Z" transform="translate(-97.047 -12.492)" fill="#8b4fba" opacity="0.4"/>
      <path id="path7977" d="M161.023,161.185,161,161.2a2.209,2.209,0,0,1-1.951,1.24,7.914,7.914,0,0,1-4.028-.73,2.439,2.439,0,0,1-1.257-1.162,6.371,6.371,0,0,1-.251-.769.689.689,0,0,0-.633.558.622.622,0,0,0,.078.3,2.665,2.665,0,0,0,.769.892,6.727,6.727,0,0,0,2.69,1.285,7.248,7.248,0,0,0,3.872-.064,4.966,4.966,0,0,0,.873-.4.541.541,0,0,0,.3-.577A.722.722,0,0,0,161.023,161.185Z" transform="translate(-110.26 -115.239)" fill="#e65270"/>
      <path id="path7979" d="M161.023,161.185,161,161.2a2.209,2.209,0,0,1-1.951,1.24,7.914,7.914,0,0,1-4.028-.73,2.439,2.439,0,0,1-1.257-1.162,6.371,6.371,0,0,1-.251-.769.689.689,0,0,0-.633.558.622.622,0,0,0,.078.3,2.665,2.665,0,0,0,.769.892,6.727,6.727,0,0,0,2.69,1.285,7.248,7.248,0,0,0,3.872-.064,4.966,4.966,0,0,0,.873-.4.541.541,0,0,0,.3-.577A.722.722,0,0,0,161.023,161.185Z" transform="translate(-110.26 -115.239)" fill="#2b2b2b" opacity="0.4"/>
      <g id="g7987" transform="translate(36.67 23.221)">
        <path id="path7981" d="M131.538,118.53a3.086,3.086,0,0,0,.312,1.422,3.866,3.866,0,0,0,2.066,1.876,5.478,5.478,0,0,0,2.473.407l.059-.017a7.652,7.652,0,0,1-1.689-.454,5.692,5.692,0,0,1-2.389-1.689,4.555,4.555,0,0,1-.775-1.394A1.319,1.319,0,0,0,131.538,118.53Z" transform="translate(-131.537 -108.709)" fill="#0d0d0d"/>
        <path id="path7983" d="M156.55,85.932a1.868,1.868,0,0,0,.53-2.632A3.947,3.947,0,0,1,156.55,85.932Z" transform="translate(-149.577 -83.3)" fill="#0d0d0d"/>
        <path id="path7985" d="M160.487,103.377a2.289,2.289,0,0,0,1.553.46c.226,0,.449-.042.675-.053a1.436,1.436,0,0,1,.368.028c.229.05.329.017.407-.2a3.431,3.431,0,0,0,.2-1.539,2.636,2.636,0,0,0-.181-.742,1.767,1.767,0,0,0-2.461-.792,2.324,2.324,0,0,0-.321.223c-.106.086-.2.187-.315.279.05.059.089.111.137.159a.4.4,0,0,1,.114.382.836.836,0,0,0,.477.987,5.263,5.263,0,0,0,.864.354,3.773,3.773,0,0,0,.468.123.148.148,0,0,0,.109-.039,1.282,1.282,0,0,0,.513-.619,1.165,1.165,0,0,1,0,.6.887.887,0,0,0,.05.493v.017l-.084-.045a2.4,2.4,0,0,0-.992-.279,2.715,2.715,0,0,1-1.213-.4,1.516,1.516,0,0,1-.7-1.243v-.075A1.361,1.361,0,0,0,160.487,103.377Z" transform="translate(-151.995 -95.572)" fill="#0d0d0d"/>
      </g>
      <path id="path7996" d="M164.08,103.025a.875.875,0,1,0,.875-.875A.875.875,0,0,0,164.08,103.025Z" transform="translate(-118.338 -73.674)" fill="url(#linear-gradient-16)"/>
      <path id="path8000" d="M177.594,151.652a.357.357,0,0,0,.488-.114,2.414,2.414,0,0,0-.025-2.244.355.355,0,0,0-.63.326,1.706,1.706,0,0,1,.053,1.55A.357.357,0,0,0,177.594,151.652Z" transform="translate(-127.936 -107.538)" fill="#fff"/>
      <g id="g8004" transform="translate(11.288 38.712)">
        <path id="path8002" d="M40.808,146.319c-.22-6.336,3.685-4.276,5.422-6.95a1.985,1.985,0,0,0,.279-.5C44.569,139.946,39.1,139.227,40.808,146.319Z" transform="translate(-40.483 -138.87)" fill="#430a1d" opacity="0.2"/>
      </g>
      <g id="g8008" transform="translate(6.806 29.715)">
        <path id="path8006" d="M26.242,110.692c5.363-4.619,15.954-4.115,16.726-4.048-4.443,3.17-17.768.19-18.256,9.835A5.177,5.177,0,0,1,26.242,110.692Z" transform="translate(-24.403 -106.596)" fill="#2b2b2b" opacity="0.2"/>
      </g>
      <path id="path8010" d="M57.273,139.78v2.389c0,1-1.243.449-1.723-.909a3.5,3.5,0,0,0,1.723-1.48Z" transform="translate(-40.062 -100.815)" fill="#430a1d" opacity="0.2"/>
      <path id="path8012" d="M55.508,123.948a2.619,2.619,0,0,0-.167-3.016c.51-.028,1.491-.984,1.726-1.3a3.4,3.4,0,0,0,.418-1.818,9.678,9.678,0,0,0,1.893-.633,7.57,7.57,0,0,0-1.673,1.854,14.545,14.545,0,0,0-.764,2.021,14.891,14.891,0,0,0-.415,1.65,5.885,5.885,0,0,0-.279,1.394,18.486,18.486,0,0,0,.647,5.508,4.544,4.544,0,0,1-2.389-2.063c-.279-.5-.836-1.745-.159-2.537A2.551,2.551,0,0,0,55.508,123.948Z" transform="translate(-38.961 -84.515)" fill="#430a1d" opacity="0.2"/>
      <path id="path8014" d="M3.421,44.226A18.744,18.744,0,0,0,14.7,51.691a20.564,20.564,0,0,0,4.739.454c3.917-.017,7.833,0,11.753,0h7.906a5.594,5.594,0,0,0,1.851-.251,2.063,2.063,0,0,0,1.3-1.148,2.107,2.107,0,0,0-.728-2.475,2.927,2.927,0,0,0-1.926-.51c-.187,0-.374.039-.558.056a.407.407,0,0,1-.128,0,1.36,1.36,0,0,1-.173-.064.655.655,0,0,1,.1-.142,4.363,4.363,0,0,0,1.447-2.272,2.935,2.935,0,0,0,.081-1.009v-.078c0-.176.053-.231.226-.24.513-.022,1.023-.045,1.536-.084.245-.02.485-.078.761-.095-.033.042-.056.1-.1.123a1.466,1.466,0,0,0-.808.923,4.393,4.393,0,0,0-.245,1.522,3.624,3.624,0,0,0,.9,2.23,5.246,5.246,0,0,0,1.745,1.338c.086.042.109.078.078.176a1.3,1.3,0,0,0,.022.836.677.677,0,0,0,.323.379,1.288,1.288,0,0,0,1.143.064.707.707,0,0,0,.033.17c.111.421.382.588.794.836h.279s.022-.031.033-.033a1.187,1.187,0,0,0,.945-1.411c-.022-.162-.07-.321-.1-.466a8.808,8.808,0,0,0,.987-.279A4.268,4.268,0,0,0,51.8,47.175a1.528,1.528,0,0,0-.413-1.617.2.2,0,0,1-.025-.151c.092-.58.234-1.154.279-1.734a4.605,4.605,0,0,0-1.3-3.6.176.176,0,0,1-.045-.181c.064-.309.137-.619.173-.931a1.951,1.951,0,0,0-.574-1.606.426.426,0,0,1-.095-.134,1.288,1.288,0,0,0-.683-.753,3.245,3.245,0,0,0-2.043-.279,5.018,5.018,0,0,0-1.307.471.432.432,0,0,1-.527-.02c-.028-.025-.075-.031-.1-.056s-.128-.106-.117-.145a.248.248,0,0,1,.139-.148,2.743,2.743,0,0,1,1.017-.2,6.69,6.69,0,0,0,.794-.039,5.9,5.9,0,0,0,2.325-.836.449.449,0,0,1,.156-.061,2.23,2.23,0,0,0,1.843-1.8.761.761,0,0,1,.064-.279,2.113,2.113,0,0,0,.2-1.923c-.145-.421-.346-.836-.5-1.24a2.679,2.679,0,0,1-.192-.686,10.76,10.76,0,0,0-.321-1.951,6.646,6.646,0,0,0-5.94-5.032.259.259,0,0,1-.245-.176A2.562,2.562,0,0,0,42.8,20.628a.733.733,0,0,0-.558,0,4.656,4.656,0,0,0-.744.4,5.486,5.486,0,0,0-1.466,1.555c-.031.047-.064.106-.112.123a.259.259,0,0,1-.2,0c-.036-.025-.045-.125-.031-.181a.633.633,0,0,1,.109-.19,12.2,12.2,0,0,0,2-4.97A.334.334,0,0,1,41.9,17.2c.256-.262.521-.513.775-.775a3.117,3.117,0,0,0,.806-1.489,2.827,2.827,0,0,0,.061-.449c0-.045-.042-.095-.064-.142-.05.028-.112.045-.142.086-.07.095-.117.2-.181.3a2.3,2.3,0,0,1-.148.181.089.089,0,0,1,0-.075,8.8,8.8,0,0,0,.558-2.149c.025-.206.042-.415.047-.624,0-.151-.095-.248-.2-.206a.46.46,0,0,0-.142.109,6.5,6.5,0,0,1-1.372.981c0-.017-.02-.022-.02-.031a1.966,1.966,0,0,0-.036-.217,16.8,16.8,0,0,0-.619-2.509,4.128,4.128,0,0,1-.2-1.951,1.483,1.483,0,0,1,.521-.992.557.557,0,0,0,.072-.084.443.443,0,0,0-.089-.045,1.018,1.018,0,0,0-1.26.513c-.031.061-.072.12-.128.212A1.539,1.539,0,0,1,40,7.566,4.343,4.343,0,0,1,39.92,6.23a4.51,4.51,0,0,1,.493-1.578,2.637,2.637,0,0,0,.162-.4.307.307,0,0,0-.323-.424,1.162,1.162,0,0,0-.4.07A2.632,2.632,0,0,0,38.417,5.16c-.025.05-.05.1-.078.156a2.23,2.23,0,0,1-.608-.82,4.948,4.948,0,0,0-.279-.613c-.075-.142-.134-.139-.226,0-.025.036-.047.072-.075.106-.07.086-.125.086-.181,0a1.7,1.7,0,0,1-.123-.279A2.523,2.523,0,0,0,36.039,2.6a1.239,1.239,0,0,0-.114-.07c.022.142.039.251.053.362s.028.226.042.343a.19.19,0,0,1-.05,0l-.109-.072A14.468,14.468,0,0,0,30.935.953a4.974,4.974,0,0,1-1.6-.479L29.3.457a.2.2,0,0,0-.243.059.3.3,0,0,1-.2.067c-.217,0-.435-.053-.65-.07A3.794,3.794,0,0,1,27.615.4c-.321-.086-.638-.4-.962-.4h-.234c-.075,0-.164.215-.226.279a.7.7,0,0,1-.4.3,18.228,18.228,0,0,0-3.281.51,13.1,13.1,0,0,0-4.563,2.032,8.377,8.377,0,0,0-2.489,2.684,6.721,6.721,0,0,0-.323.694.789.789,0,0,0-.031.558.279.279,0,0,0,.329.217,3.092,3.092,0,0,1,2.369.7,4.279,4.279,0,0,1,1.539,1.979A3.011,3.011,0,0,1,18.7,13.2c-.086.1-.181.184-.279.279-.039-.148-.072-.279-.109-.413a4.374,4.374,0,0,0-.928-1.773c-.279-.3-.376.056-.309.594a3.445,3.445,0,0,1-1,2.952.488.488,0,0,1-.19.106c-.836.3-1.673.58-2.509.889a25.568,25.568,0,0,0-4.287,2.038l-.059.031a.374.374,0,0,1-.19-.343A4.79,4.79,0,0,1,8.9,17V16.94c.045-.326-.084-.432-.385-.279a1.271,1.271,0,0,0-.4.323,5.322,5.322,0,0,0-.767,1.394c-.109.259-.2.53-.307.789a.705.705,0,0,1-.181.256,20.7,20.7,0,0,0-3.2,3.334,18.451,18.451,0,0,0-2.029,3.406c0,.031-.031.064-.045.092s0,0-.031.028A11.822,11.822,0,0,1,1.445,23.1c-.084.318-.178.633-.254.951a13.1,13.1,0,0,0-.307,3.9.558.558,0,0,1-.033.2A17.98,17.98,0,0,0,3.419,44.217ZM2.351,30.368a33.329,33.329,0,0,0,2.98,5.1.5.5,0,0,1,.092.279c.025.521.053,1.043.095,1.561.025.307.081.61.123.912a16.525,16.525,0,0,1-4.4-11.686c.05.348.084.672.145.992a12.606,12.606,0,0,0,.965,2.841ZM13.387,17.091a.2.2,0,0,1,0,.042l-.067.095a19.187,19.187,0,0,0-2.386,4.432,14.367,14.367,0,0,0-.853,3.507,11.376,11.376,0,0,0,0,2.537c0,.039,0,.1-.02.12-.192.137-.39.279-.591.4a.546.546,0,0,0-.031-.117,15.4,15.4,0,0,1-.4-4.229A8.444,8.444,0,0,1,9.6,21.211a.666.666,0,0,0,.02-.075,3.429,3.429,0,0,0-.279.485A10.284,10.284,0,0,0,8.4,25.786a17.1,17.1,0,0,0,.34,3.886,1.029,1.029,0,0,1-.82-.134c0,.042,0,.1-.033.125a9.018,9.018,0,0,0-1.394,2.068.557.557,0,0,1-.039.059A3.214,3.214,0,0,1,5.8,30.767a2.381,2.381,0,0,0-.089.479,4.011,4.011,0,0,0,.248,1.519.418.418,0,0,1-.039.365,1.951,1.951,0,0,1-.427-.836.769.769,0,0,0-.153.44,2.7,2.7,0,0,0,.24,1.19c.123.3-.036.541-.05.836-.059-.075-.095-.12-.128-.167-.407-.6-.836-1.19-1.215-1.8a19.968,19.968,0,0,1-2.169-4.636.357.357,0,0,1,0-.209,17.6,17.6,0,0,1,3.919-6.253c.022-.022.047-.039.084-.072v.086c-.072.6-.162,1.207-.215,1.812a11.164,11.164,0,0,0,.139,3.167,4.739,4.739,0,0,0,.811,1.951,2.618,2.618,0,0,0,1.143.9,4.786,4.786,0,0,1-.337-.34,3.691,3.691,0,0,1-.624-1.151,8.246,8.246,0,0,1-.382-2.71,18.883,18.883,0,0,1,.2-2.715,19.823,19.823,0,0,1,.571-2.852,6.883,6.883,0,0,1,.753-1.745,1.21,1.21,0,0,1,.2-.2,1.029,1.029,0,0,1,.114.248,1.589,1.589,0,0,1,0,.836,14.412,14.412,0,0,0-.75,3.6c-.022.259-.031.519-.045.775.064-.231.1-.468.145-.7a7.005,7.005,0,0,1,2.23-3.961,1.873,1.873,0,0,1,.374-.256,21.4,21.4,0,0,1,2.64-1.143ZM39.661,5.121a.8.8,0,0,1-.064.265,7.736,7.736,0,0,0-.376,2.977,2.278,2.278,0,0,1,0,.558,9.246,9.246,0,0,1-1.291,2.88.365.365,0,0,1-.02-.053,19.692,19.692,0,0,1,.279-4.633,4.851,4.851,0,0,1,.571-1.6,1.628,1.628,0,0,1,.585-.6c.078-.045.162-.07.226,0a.368.368,0,0,1,.089.2Zm.641,8.237a5.79,5.79,0,0,1-.772.479,28.155,28.155,0,0,1-2.947,1.182,2.754,2.754,0,0,0-.558.279,2.9,2.9,0,0,0-.82.881c-.106.162-.206.329-.309.493a.667.667,0,0,1,.033-.153c.117-.4.251-.794.346-1.2a4.892,4.892,0,0,1,.652-1.578c.17-.262.36-.513.527-.778a3.3,3.3,0,0,0,.279-.532,1.634,1.634,0,0,0,.056-.36l-.053-.025a1.358,1.358,0,0,0-.156.134c-.181.209-.357.427-.558.633a.217.217,0,0,1-.176.072.2.2,0,0,1-.084-.17,3.17,3.17,0,0,1,.109-.675c.1-.3.251-.558.365-.861a1.625,1.625,0,0,0,.106-.452c0-.072-.064-.151-.1-.226a1.07,1.07,0,0,0-.181.128c-.089.095-.162.2-.254.3s-.176.075-.229-.039a.5.5,0,0,1-.064-.259q.063-.3.156-.591c.047-.184.117-.365.153-.558a.318.318,0,0,0-.137-.343,1.067,1.067,0,0,0-.1.153c-.05.109-.092.226-.139.335-.112.254-.209.516-.337.761s-.229.2-.354,0c-.24-.407-.477-.817-.744-1.207a1.394,1.394,0,0,1-.256-.683c-.031-.332-.047-.666-.081-1a.518.518,0,0,0-.181-.371c-.028.139-.053.256-.075.371-.033.17-.056.343-.1.51-.033.117-.125.128-.184.025a.781.781,0,0,1-.1-.315c-.014-.2,0-.407,0-.613a.867.867,0,0,0-.072-.279c-.014-.039-.064-.064-.1-.095a.557.557,0,0,0-.067.114.93.93,0,0,0-.025.153c-.022.151-.033.3-.07.449s-.137.187-.237.056a1.327,1.327,0,0,1-.206-.4c-.07-.217-.1-.449-.164-.669a.962.962,0,0,0-.167-.279.153.153,0,0,0-.137-.042c-.031,0-.059.075-.059.117v.767a.279.279,0,0,1-.061,0,.326.326,0,0,1-.059-.05,1.188,1.188,0,0,1-.326-.652c-.017-.112-.022-.226-.042-.335a.187.187,0,0,0-.237-.164.28.28,0,0,0-.243.3v.362l-.443-.226A14.008,14.008,0,0,0,25.7,4.864a9.882,9.882,0,0,0-3.128.086,4.181,4.181,0,0,0-1.742.725c-.075.056-.145.123-.22.184A4.039,4.039,0,0,1,22.046,5.3a8.494,8.494,0,0,1,2.843-.017A13.988,13.988,0,0,1,29.608,6.86a10.1,10.1,0,0,1,3,2.367c.064.075.123.153.181.231-1.714-.82-3.652.722-5.589.039,2.657,1.369,4.229-.393,5.726.747.382.279.449,1.037-.421.912s1.252.279,1.625,2.456a6.969,6.969,0,0,1-.151,1.082,10.462,10.462,0,0,1-2.149,4.34,11.839,11.839,0,0,1-3.9,3.08l-.075.025a.174.174,0,0,1,0-.031l.064-.1a10.314,10.314,0,0,0,1.6-3.468,4.867,4.867,0,0,0-.053-2.6,4.5,4.5,0,0,0-1.728-2.283,9.553,9.553,0,0,0-2.974-1.394c-.226-.067-.457-.128-.714-.2.028.031.031.039.039.042l.134.053A8.781,8.781,0,0,1,26.3,13.277a4.9,4.9,0,0,1,1.9,2.665,5.809,5.809,0,0,1-.031,2.966,11.948,11.948,0,0,1-1.589,3.535,1.087,1.087,0,0,1-.636.507c-.348.1-.686.234-1.062.368a4.24,4.24,0,0,0,.889-3.688.278.278,0,0,0,0,.039,4,4,0,0,1-.728,2.088,7.248,7.248,0,0,1-2.484,2.185,1.316,1.316,0,0,1-.254.084,3.786,3.786,0,0,0,.783-1.36,3.306,3.306,0,0,0,.106-1.542,3.624,3.624,0,0,1-.689,1.346,9.64,9.64,0,0,1-2.172,2.06,8.472,8.472,0,0,1-1.767.937,28.171,28.171,0,0,1-3.418.967c-1.012.248-2.021.5-3.025.783a4.332,4.332,0,0,0-1.528.736,4.48,4.48,0,0,1-.24-1.33c-.059-6,4.7-9.2,6.149-10.877a5.076,5.076,0,0,0,.878-1.692c.086-.245.162-.493.243-.75a.354.354,0,0,1,.033.042,3.554,3.554,0,0,1,.46,2.475,6.589,6.589,0,0,1-1.9,3.593l-.056.067.086-.045a9.266,9.266,0,0,0,2.311-1.829,6.885,6.885,0,0,0,1.8-4.379,13.381,13.381,0,0,0-.145-2.169,4.583,4.583,0,0,0-3.507-3.931,1.82,1.82,0,0,1-.407-.162.329.329,0,0,1-.151-.432,1.026,1.026,0,0,1,.1-.2,4.181,4.181,0,0,1,1.28-1.282c.279-.17.535-.34.794-.524a10.872,10.872,0,0,1,3.457-1.689,4.516,4.516,0,0,1,1.592-.22c.17.014.337.078.507.1a.616.616,0,0,0,.223-.064.619.619,0,0,0-.148-.151A2.23,2.23,0,0,0,22.9,2.25a6.911,6.911,0,0,0-1.614.2,1.586,1.586,0,0,1-.164.017A3.922,3.922,0,0,1,22.6,1.673a7.142,7.142,0,0,1,2.7-.251,2,2,0,0,1,.859.19c.265.148.541.279.817.407a1.53,1.53,0,0,0,.19.064l.028-.031a2.163,2.163,0,0,0-.089-.22c-.1-.192-.206-.382-.307-.574a.376.376,0,0,1,0-.134.36.36,0,0,1,.123,0,5.589,5.589,0,0,1,.624.226,2.414,2.414,0,0,0,.895.2c.424.031.836.07,1.268.128a1.815,1.815,0,0,1,1.394.962c.072.128.148.256.226.382a1.2,1.2,0,0,0,.1.123l.047-.02-.293-1a1.792,1.792,0,0,1,.917.6c.134.156.254.321.385.477a1.608,1.608,0,0,0,.187.162l.053-.028c-.025-.22-.053-.44-.075-.661h.042l.6.368a5.9,5.9,0,0,1,1.79,1.516c.064.089.114.078.148-.031s.07-.279.117-.413c0-.042.07-.1.1-.095a.17.17,0,0,1,.125.089,1.012,1.012,0,0,1,.05.279,3.643,3.643,0,0,0,.028.558c0,.059.067.112.106.167.05-.042.117-.078.142-.131.075-.156.131-.321.2-.479s.1-.151.2-.025a.558.558,0,0,0,.493.279c.215-.017.243,0,.323.2.137.343.254.691.4,1.034.067.162.17.309.251.468a.2.2,0,0,1,.028.125,9.807,9.807,0,0,0-.374,2.832c0,.886,0,1.773-.022,2.659a2.7,2.7,0,0,1-.655,1.9,1.288,1.288,0,0,0,.2-.081,2.768,2.768,0,0,0,.836-.708,7.805,7.805,0,0,0,1.182-2.119c.245-.6.493-1.213.753-1.812a2.386,2.386,0,0,1,.279-.415c.022-.031.092-.07.117-.056a.17.17,0,0,1,.081.12,1.653,1.653,0,0,1,0,.3,6.846,6.846,0,0,0,.022,1.483.577.577,0,0,1,.014.229,5.77,5.77,0,0,1-.836,1.907c0,.017-.022.039-.047.092A1.564,1.564,0,0,0,40,12.363c.162-.231.3-.479.463-.733l.2.8a.836.836,0,0,1-.354.923Zm.337,3.97a9.322,9.322,0,0,1-2.606,1.653,21.161,21.161,0,0,1-3.989,1.3c-.488.114-.981.212-1.5.323.209-.262.4-.493.588-.725a.151.151,0,0,1,.092-.036,8.787,8.787,0,0,0,2.475-.641A14.925,14.925,0,0,0,40.5,15.889a.332.332,0,0,0,.033-.045.41.41,0,0,0-.12.064,33.407,33.407,0,0,1-3.677,2.25,12.212,12.212,0,0,1-2.551,1.04c-.212.053-.427.089-.675.139l.061-.1c.279-.493.591-.973.836-1.486a2.046,2.046,0,0,1,.638-.764,19.463,19.463,0,0,1,3.284-1.932.435.435,0,0,1,.061,0A4.3,4.3,0,0,1,36.789,16.8a3.624,3.624,0,0,0,2.088-1.017c.558-.466,1.1-.953,1.673-1.411a4.957,4.957,0,0,1,.937-.627,8.065,8.065,0,0,1,1.115-.376,2.724,2.724,0,0,1,.34-.061,5.636,5.636,0,0,1-.128.641,8.067,8.067,0,0,1-2.174,3.381ZM33.7,27.489a4.577,4.577,0,0,1-.878.387,6.487,6.487,0,0,1-1.912.19H29.544a2.119,2.119,0,0,0-.34.059c0,.02,0,.042,0,.064a2.914,2.914,0,0,0,.3.112c.318.089.638.173.953.259a1.352,1.352,0,0,1,.178.081v.036a.8.8,0,0,1-.125.05c-.638.125-1.274.279-1.915.374a21.387,21.387,0,0,0-3.231.663.817.817,0,0,1-.279.033l-3.2-.229a20.751,20.751,0,0,0-3.7.028,15.825,15.825,0,0,0-4.064.987,21.356,21.356,0,0,0-5.2,2.98l-.081.067a.385.385,0,0,0,.131-.056,29.228,29.228,0,0,1,4.569-2.264,18.582,18.582,0,0,1,4.181-1.076,22.722,22.722,0,0,1,3.125-.162h3.554v.017l-.084.036a12.72,12.72,0,0,0-2.938,1.583,3.571,3.571,0,0,1-.881.471c-.243.092-.488.181-.736.259a31.386,31.386,0,0,1-3.9.836c-1.082.2-2.16.393-3.234.63A9.949,9.949,0,0,0,9.83,34.951,5.018,5.018,0,0,0,7.2,38.8c-.039.279-.059.544-.086.786-.053-.1-.109-.215-.176-.329a7.691,7.691,0,0,1-1.093-3.094A4.46,4.46,0,0,1,7.2,32.292a.6.6,0,0,0,.1-.162,9.8,9.8,0,0,1,.471-.956,6.593,6.593,0,0,1,2.088-2.046,15.332,15.332,0,0,1,3.529-1.642,45.318,45.318,0,0,1,6-1.483c1.65-.318,3.3-.636,4.954-.942a14.615,14.615,0,0,0,3.721-1.185,14.459,14.459,0,0,0,4.025-2.788.279.279,0,0,1,.17-.064,14.674,14.674,0,0,0,2.319-.24,15.441,15.441,0,0,0,5.9-2.473l.109-.064a.5.5,0,0,1-.025.139,12.879,12.879,0,0,1-.6,1.951,13.815,13.815,0,0,1-6.261,7.15ZM50.945,43.81a13.149,13.149,0,0,1-.279,1.525,1.951,1.951,0,0,1-1.416,1.519A3.655,3.655,0,0,1,48.2,47a8.516,8.516,0,0,1-2.071-.279,5.129,5.129,0,0,1-1.606-.658,2.094,2.094,0,0,1-.953-1.271,2.629,2.629,0,0,1,0-1.048.279.279,0,0,1,.212-.251,4.569,4.569,0,0,0,2.551-2.261.382.382,0,0,1,.329-.237,2.592,2.592,0,0,1,1.55.22.984.984,0,0,0,.937,0,2.214,2.214,0,0,0,.365-.226,5.461,5.461,0,0,0,.424-.368.447.447,0,0,0,.036.059,4.014,4.014,0,0,1,.976,3.131ZM42.666,46.1a1.952,1.952,0,0,1,.24.2,6.821,6.821,0,0,0,2.289,1.394,7.842,7.842,0,0,0,2.356.457,5.575,5.575,0,0,0,1.773-.131c.4-.109.775-.279,1.168-.4a.348.348,0,0,1,.279,0c.095.072.022.19,0,.279h0a3.7,3.7,0,0,1-1.137,1.338,4.078,4.078,0,0,1-2.935.633.73.73,0,0,0-.46.092c-.067.036-.106.12-.159.181l.028.033h.111a3.624,3.624,0,0,1,.583,0,.792.792,0,0,1,.558,1.254.51.51,0,0,1-.491.262.53.53,0,0,1-.415-.39.6.6,0,0,1-.031-.153c-.022-.2-.036-.223-.24-.217a4.818,4.818,0,0,0-.558.064.374.374,0,0,1-.46-.279.655.655,0,0,1,.047-.53c.1-.178.22-.34.326-.5-.279-.12-.6-.226-.889-.379a3.928,3.928,0,0,1-2.155-2.7,1.436,1.436,0,0,1-.036-.374C42.42,46.049,42.521,46,42.666,46.1Zm.58-1.555a6.459,6.459,0,0,0,.251.769,2.442,2.442,0,0,0,1.257,1.162,7.917,7.917,0,0,0,4.023.73,2.232,2.232,0,0,0,1.951-1.24l.022-.017a.722.722,0,0,1,.44.6.541.541,0,0,1-.3.563,4.965,4.965,0,0,1-.873.4,7.248,7.248,0,0,1-3.872.064,6.724,6.724,0,0,1-2.69-1.285,2.654,2.654,0,0,1-.769-.892.624.624,0,0,1-.078-.3.689.689,0,0,1,.633-.555Zm-40.7-6.526A13.6,13.6,0,0,1,.963,33.992a17.98,17.98,0,0,1,.206-2.754c.031-.212.075-.421.112-.633a.245.245,0,0,1,.064.117c.153.51.279,1.029.463,1.53A24.311,24.311,0,0,0,5.88,39.425a.881.881,0,0,1,.148.279,11.323,11.323,0,0,0,1.617,3.183,5.555,5.555,0,0,1-2.729-1.673,8.335,8.335,0,0,0,4.385,3.5,14.471,14.471,0,0,0,5.924,3.158c.178.05.36.089.541.131a.348.348,0,0,0-.128-.07,15.926,15.926,0,0,1-4.535-2.5,11.56,11.56,0,0,1-3.774-5.054.878.878,0,0,1-.036-.652c.059-.153.086-.318.137-.477a6.947,6.947,0,0,1,1.845-3.114,7.384,7.384,0,0,1,3.066-1.673,26.481,26.481,0,0,1,4.181-.733c.814-.106,1.625-.234,2.436-.36.217-.033.435-.086.666-.134a.462.462,0,0,1-.031.05,10.364,10.364,0,0,0-1.581,2.35.256.256,0,0,1-.139.123,10.886,10.886,0,0,1-1.132.335c-.558.114-1.154.156-1.723.279-3.066.608-4,2.247-3.986,2.23a6.013,6.013,0,0,1,2.807-1.394,8.249,8.249,0,0,1,2.824-.4c.279,0,.558.02.836.031A11.555,11.555,0,0,0,17.92,45.1a.558.558,0,0,0-.022-.148,13.1,13.1,0,0,1-.382-5.28,9.386,9.386,0,0,1,2.827-5.542A13.774,13.774,0,0,1,24.415,31.5a25.323,25.323,0,0,1,4.4-1.394c1.129-.279,2.264-.538,3.379-.867a9.913,9.913,0,0,0,4-2.23,4.271,4.271,0,0,0,.5-.524,9.213,9.213,0,0,1,3.61-2.88,3.175,3.175,0,0,1,.5-.973,6.085,6.085,0,0,1,1.271-1.2,1.224,1.224,0,0,1,.479-.19.279.279,0,0,1,.357.217,1.173,1.173,0,0,1,.036.151,1.012,1.012,0,0,1,.279.159,1.935,1.935,0,0,1,.187.162,3.036,3.036,0,0,1,.613.945A.17.17,0,0,0,44.19,23c.181.022.362.047.541.084A6.576,6.576,0,0,1,50.1,29.016a4.511,4.511,0,0,0,.117.836,9.056,9.056,0,0,0,.44.984c.131.279.279.558.39.864a1.43,1.43,0,0,1,.042.934c-.031.109-.095.137-.181.084s-.226-.17-.34-.254a3.68,3.68,0,0,0-.418-.3.279.279,0,0,0-.368.072.771.771,0,0,1,.064.05c.3.279.6.53.892.8a.206.206,0,0,1,.056.148,1.673,1.673,0,0,1-.466,1.115,1.419,1.419,0,0,1-1.394.466c-.014.209-.028.245-.148.309a5.018,5.018,0,0,1-2.509.655,3.56,3.56,0,0,0-1.82.513,2.462,2.462,0,0,1-.558.237,8.084,8.084,0,0,1-1.87.226h-.153a.17.17,0,0,0,.1.056,5.018,5.018,0,0,0,1.53.1,1.185,1.185,0,0,1,.5,0c.424.173.836.379,1.246.591a.385.385,0,0,0,.332.045c.259-.1.521-.192.772-.307a3.066,3.066,0,0,1,1.673-.3,2.333,2.333,0,0,1,.925.279.613.613,0,0,1,.343.491.167.167,0,0,0,.059.095c.075.07.162.134.237.2a.892.892,0,0,1,.3.775c-.025.256-.1.3-.323.187a.279.279,0,0,0-.335,0c.142.092.279.173.418.279a.622.622,0,0,1,.279.574,1.285,1.285,0,0,1-1.48,1.115.761.761,0,0,1-.541-.348.123.123,0,0,0-.092-.056,3.176,3.176,0,0,0-.524.047,2.272,2.272,0,0,1-.939.084c-.148-.028-.293-.07-.446-.1a3.25,3.25,0,0,1-.577,1.115,4.756,4.756,0,0,1-2.336,1.567,7.97,7.97,0,0,1-3.663.259A4.46,4.46,0,0,1,35.6,40.6a12.82,12.82,0,0,1-.382-1.3,9.23,9.23,0,0,0-.836-2,5.968,5.968,0,0,0-2.395-2.406,5.642,5.642,0,0,0-3.721-.513c-.245.045-.488.106-.758.167.474.028.909.039,1.341.084A7.591,7.591,0,0,1,32.2,35.76a5.4,5.4,0,0,1,2.509,3.22,11.642,11.642,0,0,0,.836,2.23,5.444,5.444,0,0,0,.864,1.327,4.63,4.63,0,0,0,2.216,1.257c.259.072.516.153.772.234a.4.4,0,0,1,.256.259,2,2,0,0,1,.106,1.115,3.387,3.387,0,0,1-.811,1.581,5.854,5.854,0,0,1-1.2.976,6.323,6.323,0,0,0-.6.454.677.677,0,0,0-.254.558c.017.393.042.454.432.323.061-.02.123-.045.181-.07.321-.137.638-.279.959-.413a3.027,3.027,0,0,1,1.912-.2,1.9,1.9,0,0,1,1.472,1.332.535.535,0,0,1-.022.443.3.3,0,0,1-.212.134c-.067,0-.145-.072-.2-.134s-.033-.106-.047-.159a.945.945,0,0,0-.474-.666.981.981,0,0,0-.17-.05,1.737,1.737,0,0,1,.541,1.338.655.655,0,0,1-.73.633.2.2,0,0,1-.212-.176,3.441,3.441,0,0,1,0-.415A4.372,4.372,0,0,0,40.3,50.4a.61.61,0,0,0-.454-.518.454.454,0,0,0-.354.039.519.519,0,0,1,.393.231,2,2,0,0,1,.2.452.747.747,0,0,1-.279.873,1.224,1.224,0,0,1-.5.156,2.952,2.952,0,0,1-1.079-.137,2.963,2.963,0,0,0-.652-.084,3.468,3.468,0,0,0-.619.081,19.9,19.9,0,0,1-3.761.114c-1.369-.017-2.74,0-4.109,0H18.7a16.642,16.642,0,0,1-4.128-.521,17.418,17.418,0,0,1-11.535-8.8,17.091,17.091,0,0,1-1.982-6.576c-.028-.279,1.508,2.587,1.494,2.308Z" transform="translate(0.01)" fill="#0d0d0d"/>
      <path id="path8016" d="M146.551,80.473a1.908,1.908,0,0,1,.042-2.18c.36-.658,1.316-.072,1.188-.806A3.336,3.336,0,0,0,146.944,76c-.114-.153-.237-.357-.463-.312a1.461,1.461,0,0,0-.558.265,7.507,7.507,0,0,0-1.583,1.491c-.794,1.059-.466,1.7.463,2.545A3.2,3.2,0,0,0,146.551,80.473Z" transform="translate(-103.778 -54.582)" fill="#e65270"/>
      <path id="path8018" d="M148.408,78.419a5.418,5.418,0,0,1,.956-.739c.2-.131-.39,1.475-.558,1.9a3.514,3.514,0,0,0-.028,2.166,2.6,2.6,0,0,1-1.115-1.572A2.723,2.723,0,0,1,148.408,78.419Z" transform="translate(-106.493 -56.021)" fill="#2b2b2b" opacity="0.2"/>
      <g id="g8022" transform="translate(39.944 21.034)">
        <path id="path8020" d="M145.933,80.227a1.908,1.908,0,0,1,.042-2.18,3.038,3.038,0,0,0,.4-2.054,1.673,1.673,0,0,0-.056-.245c-.075-.22-.212-.329-.438-.279a1.511,1.511,0,0,0-.591.234,7.507,7.507,0,0,0-1.567,1.505,1.43,1.43,0,0,0-.081,1.982.457.457,0,0,0,.385.2c.22.042.279-.279.2-.387a2.132,2.132,0,0,1-.279-.8,2.23,2.23,0,0,1,.638-1.567,4.379,4.379,0,0,1,1.544-1.115,4.132,4.132,0,0,1-.279,1.776c-.192.53-.775,1.5-.627,2.127a2.013,2.013,0,0,0,.424.73C145.835,80.3,145.933,80.227,145.933,80.227Z" transform="translate(-143.279 -75.457)" fill="#0d0d0d"/>
      </g>
      <path id="path8029" d="M144.53,30" transform="translate(-104.238 -21.637)" fill="#fff"/>
      <g id="g8033" transform="translate(16.221 36.389)" opacity="0.2">
        <path id="path8031" d="M58.339,130.567a.3.3,0,0,1-.159-.028A.365.365,0,0,1,58.339,130.567Z" transform="translate(-58.18 -130.538)" fill="#8b4fba"/>
      </g>
      <path id="path8035" d="M151.284,148.152A8.759,8.759,0,0,1,153,146.524c.641-.6,1.076-1.263,1.673-1.826a9.9,9.9,0,0,0,1.5.045c.348.861,2.041.042,2.2-.513l.226.337c.488.962-1.263,1.026-2.258.925-.7-.07-3.719.725-3.624,4.616-.34.521-1.14,0-1.143.691s0,1.923.613,2.367c-.173.608-.769-.036-.937-.279a7.261,7.261,0,0,1-1.017-2.155C150.038,149.632,150.732,148.988,151.284,148.152Z" transform="translate(-108.321 -104.024)" fill="#430a1d" opacity="0.2"/>
      <path id="Path_14245" data-name="Path 14245" d="M24,213.48h8.505v2.043H26.353v3.6h5.8V221.1h-5.8v5.536H24Z" transform="translate(-17.307 -153.97)"/>
      <path id="Path_14246" data-name="Path 14246" d="M62,210.28h2.23v14.047H62Z" transform="translate(-44.714 -151.662)"/>
      <path id="Path_14247" data-name="Path 14247" d="M78.7,214.339a1.285,1.285,0,0,1,.4-.939,1.372,1.372,0,0,1,1.015-.4,1.475,1.475,0,0,1,1.031.382,1.3,1.3,0,0,1,0,1.912,1.475,1.475,0,0,1-1.031.382,1.372,1.372,0,0,1-1.012-.4A1.282,1.282,0,0,1,78.7,214.339Zm.315,3.027h2.23v8.92h-2.23Z" transform="translate(-56.758 -153.622)"/>
      <path id="Path_14248" data-name="Path 14248" d="M97.538,228h2.119v1.43h.036a2.883,2.883,0,0,1,1.031-1.179,2.963,2.963,0,0,1,1.737-.51,3.345,3.345,0,0,1,1.5.307,2.952,2.952,0,0,1,1.023.808,3.278,3.278,0,0,1,.585,1.151,4.856,4.856,0,0,1,.187,1.338v5.575h-2.23v-4.942a6.35,6.35,0,0,0-.056-.817,2.211,2.211,0,0,0-.243-.772,1.606,1.606,0,0,0-.51-.558,1.5,1.5,0,0,0-.864-.223,1.909,1.909,0,0,0-.928.215,1.974,1.974,0,0,0-.641.558,2.417,2.417,0,0,0-.39.75,3.066,3.066,0,0,0-.131.884v4.906H97.53V228Z" transform="translate(-70.339 -164.251)"/>
      <path id="Path_14249" data-name="Path 14249" d="M136.49,210.28h2.23v8.881h.056l3.381-3.752h2.86l-3.864,4.031,4.106,4.887H142.3l-3.529-4.572h-.056v4.572h-2.23Z" transform="translate(-98.439 -151.662)"/>
    </g>
  </g>
</svg>
