<svg xmlns="http://www.w3.org/2000/svg" width="100.384" height="49.808" viewBox="0 0 100.384 49.808">
  <path id="ios-logo" d="M1.139,49.585h8.3V14.247h-8.3V49.585ZM5.273,9.613a4.519,4.519,0,1,0,0-9.035,4.518,4.518,0,1,0,0,9.035ZM37.078.678c-14.035,0-22.837,9.568-22.837,24.871s8.8,24.837,22.837,24.837c14,0,22.8-9.535,22.8-24.837S51.081.678,37.078.678Zm0,7.334c8.568,0,14.035,6.8,14.035,17.536,0,10.7-5.467,17.5-14.035,17.5-8.6,0-14.035-6.8-14.035-17.5,0-10.735,5.434-17.536,14.035-17.536ZM63.384,36.05c.367,8.868,7.634,14.336,18.7,14.336,11.635,0,18.97-5.734,18.97-14.869,0-7.168-4.134-11.2-13.9-13.435L81.62,20.815c-5.9-1.4-8.335-3.267-8.335-6.468,0-4,3.667-6.668,9.1-6.668,5.5,0,9.268,2.7,9.668,7.2h8.2c-.2-8.468-7.2-14.2-17.8-14.2-10.468,0-17.9,5.767-17.9,14.3,0,6.868,4.2,11.135,13.068,13.169l6.234,1.467c6.068,1.434,8.535,3.434,8.535,6.9,0,4-4.034,6.868-9.834,6.868-5.868,0-10.3-2.9-10.835-7.334H63.384Z" transform="translate(-0.672 -0.578)"/>
</svg>
