<svg xmlns="http://www.w3.org/2000/svg" width="95.645" height="27.252" viewBox="0 0 95.645 27.252">
  <g id="mongodb-seeklogo.com" transform="translate(0 -0.203)">
    <g id="Group_105773" data-name="Group 105773" transform="translate(0 0.203)">
      <path id="Path_78891" data-name="Path 78891" d="M399.622,56.337c-.086.017-.172.207-.172.311-.017.69-.035,2.52-.035,3.762a.128.128,0,0,0,.1.1c.259.017.88.035,1.415.035a3.69,3.69,0,0,0,1.415-.207,1.833,1.833,0,0,0,.915-1.726c0-1.674-1.174-2.313-2.917-2.313a2.776,2.776,0,0,0-.725.035Zm4.453,7.715c0-1.709-1.26-2.658-3.538-2.658a9.993,9.993,0,0,0-1,.017c-.052.017-.121.052-.121.1,0,1.225-.017,3.176.035,3.935a1.3,1.3,0,0,0,.57.932,3.951,3.951,0,0,0,1.5.207,2.356,2.356,0,0,0,2.554-2.537ZM396.1,55.388c.172,0,.69.052,2.019.052,1.26,0,2.261-.034,3.486-.034,1.5,0,3.572.535,3.572,2.779a2.706,2.706,0,0,1-1.795,2.416c-.052.017-.052.052,0,.069,1.45.363,2.727,1.26,2.727,2.951a3.623,3.623,0,0,1-2.537,3.365,8.255,8.255,0,0,1-3.21.535c-.88,0-3.245-.1-4.556-.069-.138-.052.121-.673.242-.777a3.221,3.221,0,0,0,.88-.138c.466-.121.518-.259.587-.966.035-.6.035-2.744.035-4.263,0-2.088.017-3.5,0-4.194-.017-.535-.207-.708-.587-.811-.293-.052-.777-.121-1.174-.172-.086-.086.207-.673.311-.742Zm-9.958,10.735a3.478,3.478,0,0,0,1.95.466,3.825,3.825,0,0,0,2.761-.984,5.246,5.246,0,0,0,1.553-4.142,4.944,4.944,0,0,0-2.261-4.47,6.107,6.107,0,0,0-3.245-.759,2.585,2.585,0,0,0-.966.121.508.508,0,0,0-.173.276c-.035.345-.035,3-.035,4.556,0,1.605,0,3.849.035,4.107a1.071,1.071,0,0,0,.38.829Zm-3.918-10.735c.328,0,1.588.052,2.192.052,1.087,0,1.864-.052,3.918-.052a6.385,6.385,0,0,1,4.211,1.346,5.6,5.6,0,0,1,1.916,4.418,5.783,5.783,0,0,1-2.382,4.971,7.981,7.981,0,0,1-4.953,1.4c-1.174,0-3.193-.035-4.867-.052h-.017c-.086-.155.138-.759.276-.777a2.744,2.744,0,0,0,.794-.155c.362-.138.431-.328.483-.966.052-1.191.034-2.623.034-4.246,0-1.156.017-3.417-.017-4.142-.052-.6-.311-.759-.828-.863-.259-.052-.6-.121-1.087-.172-.069-.121.242-.656.328-.759Z" transform="translate(-310.467 -45.067)" fill="#8e714e" fill-rule="evenodd"/>
      <path id="Path_78892" data-name="Path 78892" d="M118.078,84.2a3.474,3.474,0,0,1-1.122-.293.526.526,0,0,1-.138-.276c-.035-.6-.035-2.33-.035-3.486a4.068,4.068,0,0,0-.552-2.313,2.357,2.357,0,0,0-2-1.036,4.616,4.616,0,0,0-2.623,1.243c-.017.017-.155.138-.138-.052,0-.19.035-.57.052-.828a.449.449,0,0,0-.121-.363,11.521,11.521,0,0,1-2.675.69c-.414.086-.518.483-.086.621h.017a3.834,3.834,0,0,1,1.018.449.537.537,0,0,1,.155.483c.017,1.294.017,3.279-.034,4.366-.017.431-.138.587-.449.656l.034-.017a6.793,6.793,0,0,1-.725.138,1.01,1.01,0,0,0,0,.777c.19,0,1.191-.052,2.019-.052,1.139,0,1.726.052,2.019.052a1.123,1.123,0,0,0,.086-.777,3.2,3.2,0,0,1-.794-.121c-.311-.069-.4-.224-.414-.587-.034-.915-.034-2.848-.034-4.159a.831.831,0,0,1,.207-.639,2.61,2.61,0,0,1,1.605-.587,1.784,1.784,0,0,1,1.191.4,1.7,1.7,0,0,1,.552,1.087c.086.742.052,2.209.052,3.486,0,.69-.052.863-.311.949a3.287,3.287,0,0,1-.794.155,1.01,1.01,0,0,0,0,.777c.5,0,1.087-.052,1.95-.052,1.07,0,1.76.052,2.037.052a1.2,1.2,0,0,0,.052-.742Zm4.781-6.593c-.915,0-1.484.708-1.484,1.812,0,1.122.5,2.416,1.916,2.416a1.338,1.338,0,0,0,.9-.345,2.286,2.286,0,0,0,.552-1.588c0-1.432-.708-2.3-1.881-2.3Zm-.121,7.628a1.483,1.483,0,0,0-.742.19c-.725.466-1.053.915-1.053,1.45a1.526,1.526,0,0,0,.6,1.243,3.066,3.066,0,0,0,2.071.639c1.76,0,2.537-.949,2.537-1.881a1.319,1.319,0,0,0-1-1.329,6.973,6.973,0,0,0-2.416-.311Zm.121,4.487A3.819,3.819,0,0,1,120.39,89a2.275,2.275,0,0,1-.915-1.709,1.322,1.322,0,0,1,.345-.863,9.15,9.15,0,0,1,1.588-1.277c.034-.017.052-.035.052-.069a.114.114,0,0,0-.069-.086,1.642,1.642,0,0,1-1.122-1.087v-.035c-.017-.1-.052-.207.1-.311.121-.086.293-.19.483-.311a7.083,7.083,0,0,0,.794-.518.127.127,0,0,0,.035-.1.114.114,0,0,0-.069-.086A2.517,2.517,0,0,1,119.8,79.9a2.62,2.62,0,0,1,1.1-2.175,5.073,5.073,0,0,1,2.485-.846h.052a5.29,5.29,0,0,1,1.9.414,3.194,3.194,0,0,0,1.122.172,1.494,1.494,0,0,0,1.208-.449.942.942,0,0,1,.069.345,1.3,1.3,0,0,1-.224.794.98.98,0,0,1-.759.328h-.086a3.845,3.845,0,0,1-.449-.069l-.069.035c-.017.035,0,.069.017.121l.017.035a6.381,6.381,0,0,1,.1.742,2.8,2.8,0,0,1-1.174,2.5,3.973,3.973,0,0,1-2.019.777,2.16,2.16,0,0,0-.242.017c-.086,0-.207.017-.224.017h-.017c-.138.034-.483.207-.483.5,0,.259.155.57.9.621.155.017.311.017.483.035a15.152,15.152,0,0,1,2.779.345,1.934,1.934,0,0,1,1.294,1.847,3.789,3.789,0,0,1-2.433,3.21,5.553,5.553,0,0,1-2.3.5ZM132.7,77.694a1.6,1.6,0,0,0-.932.259,2.669,2.669,0,0,0-1.018,2.451c0,2.261,1.139,3.849,2.761,3.849a1.756,1.756,0,0,0,1.191-.414,3.067,3.067,0,0,0,.759-2.4c0-2.244-1.122-3.745-2.761-3.745Zm.311,7.387c-2.934,0-3.987-2.157-3.987-4.177a3.736,3.736,0,0,1,1.709-3.279,5.2,5.2,0,0,1,2.641-.777,3.7,3.7,0,0,1,3.814,3.918,4.007,4.007,0,0,1-1.812,3.572,4.786,4.786,0,0,1-2.364.742Zm-30.755-7.387a1.6,1.6,0,0,0-.932.259A2.669,2.669,0,0,0,100.3,80.4c0,2.261,1.139,3.849,2.761,3.849a1.756,1.756,0,0,0,1.191-.414,3.067,3.067,0,0,0,.759-2.4c0-2.244-1.1-3.745-2.761-3.745Zm.311,7.387c-2.934,0-3.987-2.157-3.987-4.177a3.736,3.736,0,0,1,1.709-3.279,5.2,5.2,0,0,1,2.641-.777,3.7,3.7,0,0,1,3.814,3.918,4.007,4.007,0,0,1-1.812,3.572,4.675,4.675,0,0,1-2.364.742Zm-19.727-.173a.739.739,0,0,1-.052-.4.583.583,0,0,1,.052-.259,6.331,6.331,0,0,0,.759-.155c.345-.086.483-.276.5-.708.052-1.036.052-3,.035-4.366v-.035a.523.523,0,0,0-.19-.483,3.89,3.89,0,0,0-1.036-.449c-.155-.052-.259-.138-.242-.242,0-.1.1-.224.328-.259a12.638,12.638,0,0,0,2.64-.673.427.427,0,0,1,.086.276l-.017.19c-.017.19-.035.414-.035.639a.133.133,0,0,0,.138.121.246.246,0,0,0,.1-.035A4.867,4.867,0,0,1,88.531,76.9a2.234,2.234,0,0,1,2,1.225.13.13,0,0,0,.121.069.123.123,0,0,0,.1-.052,5.245,5.245,0,0,1,2.71-1.243c1.605,0,2.554,1.191,2.554,3.21,0,.57,0,1.312-.017,1.985,0,.6-.017,1.156-.017,1.553a.543.543,0,0,0,.311.414,3.682,3.682,0,0,0,1,.242h.017a1.386,1.386,0,0,1-.1.656,4.221,4.221,0,0,1-.431-.017c-.328-.017-.794-.035-1.312-.035-1.07,0-1.622.017-2.157.052a1.68,1.68,0,0,1,0-.656,5.322,5.322,0,0,0,.656-.155c.345-.1.431-.259.449-.708,0-.328.069-3.124-.035-3.8a1.7,1.7,0,0,0-1.76-1.5,3.06,3.06,0,0,0-1.76.673.307.307,0,0,0-.069.173v.017a7.977,7.977,0,0,1,.069,1.415v1.122c0,.777-.017,1.5,0,2.054a.506.506,0,0,0,.414.535c.1.017.172.034.259.052.155.035.311.069.552.121a.932.932,0,0,1-.017.483A.331.331,0,0,1,92,84.96c-.587-.017-1.191-.035-2.071-.035-.259,0-.708.017-1.087.017-.311,0-.6.017-.777.017a.915.915,0,0,1-.052-.345.538.538,0,0,1,.069-.311,1.162,1.162,0,0,1,.242-.034c.207-.035.38-.069.552-.1.293-.086.4-.242.414-.621a29.953,29.953,0,0,0-.017-3.952,1.626,1.626,0,0,0-1.691-1.5,3.168,3.168,0,0,0-1.76.673.559.559,0,0,0-.155.4v1.018c0,1.243,0,2.8.017,3.469a.535.535,0,0,0,.483.535,3.56,3.56,0,0,0,.4.069l.311.052a1.45,1.45,0,0,1-.052.656c-.173,0-.38-.017-.621-.017-.362-.017-.828-.035-1.346-.035-.6,0-1.036.017-1.381.035a4.175,4.175,0,0,0-.638-.035Z" transform="translate(-67.202 -62.472)" fill="#442d22" fill-rule="evenodd"/>
      <g id="Group_105772" data-name="Group 105772" transform="translate(0 0)">
        <path id="Path_78893" data-name="Path 78893" d="M25.437,41.286l-.708-.242s.086-3.607-1.208-3.866c-.863-1,.138-42.456,3.245-.138a2.524,2.524,0,0,0-1.26,1.45,13.313,13.313,0,0,0-.069,2.8Z" transform="translate(-18.881 -14.707)" fill="#fff" fill-rule="evenodd"/>
        <path id="Path_78894" data-name="Path 78894" d="M25.437,41.286l-.708-.242s.086-3.607-1.208-3.866c-.863-1,.138-42.456,3.245-.138a2.524,2.524,0,0,0-1.26,1.45,13.313,13.313,0,0,0-.069,2.8Z" transform="translate(-18.881 -14.707)" fill="#a6a385" fill-rule="evenodd"/>
        <path id="Path_78895" data-name="Path 78895" d="M32.357,23.6A12.539,12.539,0,0,0,37.1,11.048c-1.4-6.161-4.694-8.18-5.057-8.957A8.707,8.707,0,0,1,31.27.572l.259,17.138c0,.017-.535,5.247.828,5.885" transform="translate(-25.422 -0.503)" fill="#fff" fill-rule="evenodd"/>
        <path id="Path_78896" data-name="Path 78896" d="M32.357,23.6A12.539,12.539,0,0,0,37.1,11.048c-1.4-6.161-4.694-8.18-5.057-8.957A8.707,8.707,0,0,1,31.27.572l.259,17.138c0,.017-.535,5.247.828,5.885" transform="translate(-25.422 -0.503)" fill="#499d4a" fill-rule="evenodd"/>
        <path id="Path_78897" data-name="Path 78897" d="M5.486,23.519S-.33,19.55.015,12.56A14.721,14.721,0,0,1,5.244,1.515,1.607,1.607,0,0,0,5.814.2c.362.777.293,11.615.345,12.892.155,4.919-.276,9.492-.673,10.424Z" transform="translate(0 -0.203)" fill="#fff" fill-rule="evenodd"/>
        <path id="Path_78898" data-name="Path 78898" d="M5.486,23.519S-.33,19.55.015,12.56A14.721,14.721,0,0,1,5.244,1.515,1.607,1.607,0,0,0,5.814.2c.362.777.293,11.615.345,12.892.155,4.919-.276,9.492-.673,10.424Z" transform="translate(0 -0.203)" fill="#58aa50" fill-rule="evenodd"/>
      </g>
    </g>
  </g>
</svg>
