<svg xmlns="http://www.w3.org/2000/svg" width="93.19" height="48.348" viewBox="0 0 93.19 48.348">
  <g id="mysql" transform="translate(0 -0.144)">
    <path id="Path_78879" data-name="Path 78879" d="M0,118.466H3.131V106.284l4.81,10.589a2.627,2.627,0,0,0,2.846,1.793,2.627,2.627,0,0,0,2.846-1.793l4.81-10.589v12.182h3.131V106.284a1.848,1.848,0,0,0-1.509-2.078c-2.362-.769-3.871-.085-4.64,1.509l-4.725,10.5-4.64-10.5c-.655-1.594-2.277-2.163-4.64-1.509A1.858,1.858,0,0,0,0,106.284v12.182Z" transform="translate(0 -74.216)" fill="#00678f"/>
    <path id="Path_78880" data-name="Path 78880" d="M84.4,119.985h3.131V126.7c0,.37.085,1.224,1.793,1.224h6.717V119.9h3.131v10.959c0,2.733-3.3,3.3-4.924,3.3H84.4v-2.078h9.735c1.992-.2,1.793-1.224,1.793-1.509v-.854H89.41c-3.017,0-5.01-1.423-5.01-2.932v-6.8Z" transform="translate(-60.377 -85.669)" fill="#00678f"/>
    <path id="Path_78881" data-name="Path 78881" d="M237.433,26.546a11.693,11.693,0,0,0-4.64.655c-.37.2-.939.2-.939.569.2.2.2.484.37.769a4.575,4.575,0,0,0,1.224,1.423c.484.37,1.053.769,1.509,1.139.939.569,1.992.939,2.846,1.509.569.37,1.053.769,1.594,1.139.285.2.484.484.769.655v-.085c-.2-.2-.2-.569-.37-.769a3.924,3.924,0,0,0-.769-.655,9.66,9.66,0,0,0-2.448-2.362c-.769-.569-2.448-1.224-2.733-2.078h-.085c.569-.085,1.139-.285,1.594-.37.854-.2,1.509-.2,2.362-.37a5.9,5.9,0,0,0,1.139-.37v-.2c-.484-.484-.769-1.053-1.224-1.423a37.4,37.4,0,0,0-3.871-2.932c-.769-.484-1.708-.769-2.448-1.224-.285-.2-.769-.2-.939-.484a7.763,7.763,0,0,1-.939-1.793c-.655-1.309-1.309-2.733-1.992-4.156a26.5,26.5,0,0,0-1.224-2.733,24.094,24.094,0,0,0-9.165-8.881,8.735,8.735,0,0,0-3.017-.939c-.569,0-1.224-.085-1.793-.085-.37-.2-.769-.655-1.139-.854-1.053-.854-4.526-2.733-5.493-.285-.655,1.509.939,3.017,1.509,3.871a13.261,13.261,0,0,1,1.224,1.793,5.744,5.744,0,0,0,.285,1.224c.37,1.053.769,2.163,1.224,3.131.285.484.569,1.053.854,1.509.2.285.569.37.569.854a6.29,6.29,0,0,0-.569,1.793,10.341,10.341,0,0,0,.655,7.941c.37.569,1.309,1.879,2.448,1.423,1.053-.484.854-1.793,1.139-2.932.085-.285,0-.484.2-.655v.085a18.114,18.114,0,0,1,.939,1.992,14.57,14.57,0,0,0,3.131,3.216,7.966,7.966,0,0,0,1.708,1.423V27.94h-.085c-.2-.2-.37-.285-.569-.484a7.782,7.782,0,0,1-1.224-1.423,25.034,25.034,0,0,1-2.647-4.355c-.37-.769-.769-1.509-1.053-2.277-.2-.285-.2-.769-.37-.854a10.759,10.759,0,0,0-1.139,1.594,12.561,12.561,0,0,0-.655,3.586c-.085,0-.085,0-.085.085-.769-.2-1.053-.939-1.309-1.594a9.653,9.653,0,0,1-.2-6.347c.2-.484.854-2.078.569-2.562-.2-.484-.655-.769-.854-1.053a16.612,16.612,0,0,1-.854-1.509c-.569-1.309-.854-2.846-1.509-4.156A8.339,8.339,0,0,0,207.717,4.8a12.316,12.316,0,0,1-1.309-1.879c-.085-.285-.285-.655-.085-.939a.383.383,0,0,1,.37-.285c.285-.285,1.224.085,1.509.2a10.956,10.956,0,0,1,2.363,1.224,4.965,4.965,0,0,0,1.139.854h.484c.769.2,1.594.085,2.362.285a20.9,20.9,0,0,1,3.416,1.594,20.377,20.377,0,0,1,7.372,8.141c.285.569.37,1.053.655,1.594.484,1.139,1.139,2.362,1.594,3.5a12.018,12.018,0,0,0,1.708,3.216c.37.484,1.793.769,2.448,1.053a8.112,8.112,0,0,1,1.594.655c.854.484,1.594,1.053,2.362,1.594a1.863,1.863,0,0,1,1.736.939Z" transform="translate(-146.975 0)" fill="#00678f"/>
    <path id="Path_78882" data-name="Path 78882" d="M230.839,20.5c-.37,0-.655.085-.939.085v.085h.085a9.075,9.075,0,0,0,.769.939c.2.37.37.769.569,1.139v-.085c.285-.2.37-.569.37-1.139a1.083,1.083,0,0,0-.285-.484c-.114-.256-.4-.342-.569-.541Z" transform="translate(-164.462 -14.562)" fill="#00678f"/>
    <path id="Path_78883" data-name="Path 78883" d="M143.814,118.9h8.881a6.768,6.768,0,0,0,2.846-.569c1.309-.655,1.992-1.423,1.992-2.562v-2.277c0-.854-.769-1.708-2.163-2.277a7.819,7.819,0,0,0-2.647-.484h-3.786c-1.224,0-1.879-.37-1.992-1.224v-1.992c.2-.655.484-.854,1.594-.939h9.08V104.5h-8.71a8.449,8.449,0,0,0-2.562.285c-1.793.569-2.647,1.509-2.647,3.017V109.6c0,1.423,1.594,2.562,4.241,2.846h4.526c.939.085,1.423.285,1.708.655a.783.783,0,0,1,.285.569v1.793a1.4,1.4,0,0,1-.484.769,2.631,2.631,0,0,1-1.309.484h-8.8v2.163h-.057Z" transform="translate(-102.798 -74.653)" fill="#e38d1a"/>
    <path id="Path_78884" data-name="Path 78884" d="M260.028,115.574c0,2.078,1.594,3.3,4.725,3.5.285,0,.569.085.939.085h8.027v-2.078h-8.141c-1.793,0-2.448-.484-2.448-1.509V104.9H260v10.674Z" transform="translate(-185.994 -74.939)" fill="#e38d1a"/>
    <path id="Path_78885" data-name="Path 78885" d="M199.3,115.688v-7.372c0-1.879,1.309-3.017,3.871-3.416h7.571c2.562.37,3.871,1.509,3.871,3.416v7.372a2.677,2.677,0,0,1-1.793,2.846l3.017,2.733h-3.586L209.8,118.99l-2.448.2h-3.3a6.013,6.013,0,0,1-1.793-.285c-1.936-.484-2.96-1.537-2.96-3.216Zm3.387-.2c0,.085.085.2.085.285.2.854.939,1.309,2.163,1.309h2.846l-2.562-2.362h3.5L211,116.8a1.438,1.438,0,0,0,.769-1.053v-7.571c-.2-.854-.939-1.224-2.163-1.224h-4.64c-1.423,0-2.277.569-2.277,1.509v7.031Z" transform="translate(-142.572 -74.939)" fill="#e38d1a"/>
    <path id="Path_78886" data-name="Path 78886" d="M311.555,149.878h.484V148.17h.569v-.37H310.9v.37h.655v1.708Zm3.387,0h.484V147.8h-.655l-.569,1.423-.569-1.423h-.655v2.078h.37v-1.594h0l.569,1.594h.285l.569-1.594h0v1.594Z" transform="translate(-222.406 -105.628)" fill="#e38d1a"/>
  </g>
</svg>
