<svg id="pwa-logo" xmlns="http://www.w3.org/2000/svg" width="140.446" height="52.879" viewBox="0 0 140.446 52.879">
  <path id="Path_74480" data-name="Path 74480" d="M1436.62,43.408l4.057-10.26h11.715l-5.56-15.564L1453.786,0,1473.7,52.879h-14.687l-3.4-9.471Z" transform="translate(-1333.255 0)" fill="#3d3d3d"/>
  <path id="Path_74481" data-name="Path 74481" d="M556.541,52.88,577.862,0H563.727L549.143,34.173,538.772,0H527.907L516.772,34.173,508.919,18.6,501.812,40.5l7.215,12.384h13.91L533,22.236l9.594,30.644Z" transform="translate(-465.707 -0.001)" fill="#706cf5"/>
  <path id="Path_74482" data-name="Path 74482" d="M13.417,34.727h8.706a25.67,25.67,0,0,0,7.045-.883l2.252-6.937L37.712,7.52A15.49,15.49,0,0,0,36.07,5.365Q31.224,0,21.889,0H0V52.879H13.417ZM24.941,12.166a6.916,6.916,0,0,1,1.893,5.1,7.441,7.441,0,0,1-1.665,5.105q-1.825,2.1-6.721,2.1H13.417V10.26h5.068Q23.048,10.26,24.941,12.166Z" transform="translate(0 0)" fill="#3d3d3d"/>
</svg>
