<svg xmlns="http://www.w3.org/2000/svg" width="99.391" height="106.478" viewBox="0 0 99.391 106.478">
  <g id="Layer_2" data-name="Layer 2" transform="translate(-0.003 0.003)">
    <g id="Layer_1" data-name="Layer 1" transform="translate(0.003 -0.003)">
      <path id="Path_74483" data-name="Path 74483" d="M99.79,193.361v8.11c0,.385-.11.5-.5.5-.86,0-.86,0-.86-.85v-9.145c0-.39.095-.5.5-.5,1.38,0,1.38,0,2.065,1.28l3.72,6.95c.06.11.08.26.29.335v-8.025c0-.455.11-.665.585-.585a.46.46,0,0,0,.15,0c.47-.08.63.085.625.59-.025,2.645,0,5.285,0,7.93v1.615c0,.255-.075.345-.34.36-1.5.08-1.5.085-2.21-1.25q-1.885-3.57-3.78-7.135c-.04-.075-.085-.14-.125-.215Z" transform="translate(-49.217 -95.705)" fill="#4dc8ed"/>
      <path id="Path_74484" data-name="Path 74484" d="M158.7,203.26c.775-2.08,1.5-4.075,2.265-6.07.07-.18.07-.45.315-.47a4.075,4.075,0,0,1,1.1,0c.165.03,0,.265-.035.39q-.75,2.033-1.5,4.055c-.38,1-.77,2-1.13,3a.465.465,0,0,1-.5.37c-1.385.03-1.38.035-1.87-1.285q-1.125-3-2.27-6.035c-.21-.555-.21-.555.365-.555.81,0,.805,0,1.085.765q1,2.67,2,5.335A1.4,1.4,0,0,0,158.7,203.26Z" transform="translate(-77.473 -98.329)" fill="#4dc8ed"/>
      <path id="Path_74485" data-name="Path 74485" d="M78.239,198.094v2.12c0,.785.305,1.045,1.09,1.065h.86c.645,0,.865.315.675.93-.045.15-.145.17-.265.165a14.283,14.283,0,0,1-1.765-.035c-1.38-.19-1.885-.82-1.9-2.31q-.025-2,0-4.035c0-.375-.1-.54-.5-.475s-.47-.15-.46-.5,0-.585.445-.5.5-.13.5-.5v-1.31c0-.295.07-.42.395-.41,1.14.03.89-.12.92.89a5.971,5.971,0,0,1,0,.855c-.05.42.135.5.5.5.585-.025,1.18,0,1.765,0,.46,0,.345.295.36.54s0,.5-.375.5c-.62-.025-1.245,0-1.865,0-.31,0-.41.1-.4.4v2.17Z" transform="translate(-37.986 -96.148)" fill="#4dc8ed"/>
      <path id="Path_74486" data-name="Path 74486" d="M137.66,198.11a16.5,16.5,0,0,0,.075,2.365c.12.59.325.76.925.785h1.315c.44,0,.35.26.315.5s.2.605-.27.615a9,9,0,0,1-2.16-.105,1.71,1.71,0,0,1-1.425-1.66c-.145-1.325-.05-2.655-.08-4a5.033,5.033,0,0,1,0-.655c.04-.36-.115-.5-.46-.445-.45.08-.47-.18-.5-.53s.085-.545.5-.5.5-.135.465-.5,0-.84,0-1.26c0-.335.08-.5.45-.5,1.05.03.83-.1.865.85,0,.435-.18,1,.08,1.27s.86.075,1.305.1a3.394,3.394,0,0,0,.705,0c.46-.06.575.13.56.565,0,.355-.115.47-.47.455h-1.82c-.29,0-.38.1-.37.38C137.7,196.555,137.66,197.245,137.66,198.11Z" transform="translate(-67.697 -96.109)" fill="#4dc8ed"/>
      <path id="Path_74487" data-name="Path 74487" d="M67.231,198.016a10.9,10.9,0,0,0-1.675-.5,2.589,2.589,0,0,0-3.16,2.525,4.725,4.725,0,0,0,.125,1.6,2.579,2.579,0,0,0,3.235,1.825,5.82,5.82,0,0,0,1.195-.395c.18-.08.26-.075.29.16.1.765,0,1-.775,1.17a4.323,4.323,0,0,1-4.18-.715,3.355,3.355,0,0,1-1.03-1.64,5.5,5.5,0,0,1-.03-3,3.574,3.574,0,0,1,3.84-2.67,7.069,7.069,0,0,1,1.635.255c.43.12.62.335.545.785A3.781,3.781,0,0,0,67.231,198.016Z" transform="translate(-30.518 -98.184)" fill="#4dc8ed"/>
      <path id="Path_74488" data-name="Path 74488" d="M149.914,200.688v3.435c0,.34-.075.5-.44.465-1.03-.035-.86.115-.865-.845v-6.46c0-.2-.115-.5.195-.545a1.89,1.89,0,0,1,1.04.045c.125.055.065.245.065.375C149.914,198.343,149.914,199.513,149.914,200.688Z" transform="translate(-74.296 -98.341)" fill="#4ec8ee"/>
      <path id="Path_74489" data-name="Path 74489" d="M148.622,191.434a2.932,2.932,0,0,0,0-.355c-.04-.32.07-.45.415-.44,1.09.035.865-.12.89.87v.355c.03.295-.065.455-.385.41h-.05C148.457,192.254,148.647,192.389,148.622,191.434Z" transform="translate(-74.309 -95.318)" fill="#50c8ee"/>
      <path id="Path_74490" data-name="Path 74490" d="M99.292,42.8a10.973,10.973,0,0,0-3.585-6A32.862,32.862,0,0,0,85.6,30.534a58.2,58.2,0,0,0-7.24-2.5c-.33-.09-.425-.22-.32-.545s.18-.715.265-1.075a52.35,52.35,0,0,0,1.46-11.47,30.529,30.529,0,0,0-.3-4.5A17.035,17.035,0,0,0,77.5,4.2,7.675,7.675,0,0,0,72.7.3,10.92,10.92,0,0,0,67.6.3a26.858,26.858,0,0,0-8.81,3.89,52.14,52.14,0,0,0-8.68,7.05c-.275.275-.435.3-.715,0-.825-.865-1.725-1.655-2.63-2.435a42.915,42.915,0,0,0-10.715-7.02,16.68,16.68,0,0,0-7.92-1.65,7.4,7.4,0,0,0-5.06,2.315,11.385,11.385,0,0,0-2.5,4.66,29.841,29.841,0,0,0-.775,11.15,52.686,52.686,0,0,0,1.65,9.16c.1.4-.065.5-.385.57A50.5,50.5,0,0,0,8.732,33,22.5,22.5,0,0,0,2,38.659a8.26,8.26,0,0,0-.315,10.385,20.245,20.245,0,0,0,5.5,5.29,46.3,46.3,0,0,0,13.655,6.12c.635.185.64.17.5.79a53.5,53.5,0,0,0-1.75,11.58,29.091,29.091,0,0,0,.275,5.03,16.865,16.865,0,0,0,1.865,6.03,7.9,7.9,0,0,0,4.5,3.895,10.8,10.8,0,0,0,5.33.215,25.935,25.935,0,0,0,8.655-3.5,49.885,49.885,0,0,0,9.385-7.37c.235-.23.365-.29.625,0,1.08,1.11,2.24,2.135,3.42,3.135a41.85,41.85,0,0,0,8.555,5.77,17.846,17.846,0,0,0,8.6,2.215,7.545,7.545,0,0,0,5.375-2.3,12.41,12.41,0,0,0,2.895-5.47,30.764,30.764,0,0,0,.79-10.4c-.07-1-.205-1.97-.335-2.95a51.422,51.422,0,0,0-1.27-6.365c-.075-.285,0-.38.265-.45q.925-.255,1.835-.545a45.363,45.363,0,0,0,12.555-6,18.275,18.275,0,0,0,5.14-5.255A7.96,7.96,0,0,0,99.292,42.8ZM51.717,13.039a44.691,44.691,0,0,1,12.565-9.09,14.53,14.53,0,0,1,6.265-1.5,5.285,5.285,0,0,1,4.7,2.715A14.1,14.1,0,0,1,77,10.419a24.725,24.725,0,0,1,.33,3.77,53.27,53.27,0,0,1-1.64,12.695c-.075.305-.205.4-.5.325-2.46-.61-4.95-1.07-7.455-1.455-1.74-.27-3.5-.5-5.24-.665l-1.255-.115a.84.84,0,0,1-.66-.39,98.307,98.307,0,0,0-6-7.79c-.93-1.085-1.895-2.14-2.855-3.2C51.537,13.384,51.5,13.274,51.717,13.039Zm-22.82,34c1.215,2.4,2.455,4.72,3.775,7s2.72,4.5,4.2,6.77c-1.5-.08-2.9-.27-4.305-.46-2.595-.355-5.175-.775-7.725-1.375-.25-.06-.39-.075-.29-.4a101.172,101.172,0,0,1,4.2-11.28,2.357,2.357,0,0,1,.14-.255ZM27.032,36.844q-1.315-3.345-2.375-6.805c-.12-.39,0-.5.34-.58,3.135-.685,6.285-1.27,9.47-1.65.75-.09,1.5-.19,2.375-.3a130.111,130.111,0,0,0-7.955,13.76C28.2,39.779,27.607,38.314,27.032,36.844Zm5.535,12c-.72-1.37-1.4-2.765-2.12-4.135a1.075,1.075,0,0,1,0-1.085,127.337,127.337,0,0,1,7.235-12.955c.67-1.05,1.375-2.075,2.05-3.12a.7.7,0,0,1,.62-.34c2.5-.195,5.04-.245,7.56-.335,2.26-.075,4.5.05,6.76.075,1.5,0,3,.185,4.5.265a.665.665,0,0,1,.55.365c1.84,2.675,3.54,5.44,5.165,8.255q2.23,3.87,4.21,7.875a.745.745,0,0,1,0,.745,140,140,0,0,1-9.32,16.225.84.84,0,0,1-.73.4c-3.175.23-6.35.33-9.735.3-2.05.04-4.305-.035-6.56-.125-.82-.035-1.64-.12-2.465-.165a.57.57,0,0,1-.5-.305,120.377,120.377,0,0,1-7.22-11.965Zm38-1.94c.77,1.655,1.45,3.245,2.1,4.845q1.29,3.2,2.34,6.5c.11.345.07.5-.32.575-2.655.6-5.32,1.12-8,1.465l-3.6.465a4.459,4.459,0,0,1-.455,0,148.6,148.6,0,0,0,7.955-13.87Zm0-5.63a147.633,147.633,0,0,0-7.975-13.725c2.7.3,5.285.67,7.86,1.145,1.335.25,2.665.54,4,.835.4.09.5.2.365.59-.88,2.79-1.86,5.545-3,8.24-.39.92-.815,1.85-1.25,2.9Zm-21.25-25.81c.36-.4.545-.355.88,0A98.867,98.867,0,0,1,57.4,24.3c.065.1.12.2.235.375a125.769,125.769,0,0,0-15.88,0c.61-.81,1.155-1.545,1.715-2.275C45.312,20,47.282,17.7,49.317,15.464Zm-27.275-.9a19.159,19.159,0,0,1,1.64-8.78,5.445,5.445,0,0,1,5.3-3.255,16.175,16.175,0,0,1,6.63,1.715,39.685,39.685,0,0,1,8.765,5.715c1.18,1,2.31,2,3.41,3.075.235.225.215.33,0,.545a100.651,100.651,0,0,0-8.9,10.95.97.97,0,0,1-.785.45c-1.875.13-3.74.37-5.6.64-2.31.335-4.61.725-6.885,1.235-.46.1-.925.185-1.375.31-.27.075-.39.035-.465-.26a63.075,63.075,0,0,1-1.415-7.26,36.409,36.409,0,0,1-.315-5.08Zm-.375,43.62a56.951,56.951,0,0,1-7.165-2.56,32.215,32.215,0,0,1-7.915-4.785,12.435,12.435,0,0,1-3.805-4.88,6.225,6.225,0,0,1-.38-1.865,7.03,7.03,0,0,1,1.77-4.3,20.965,20.965,0,0,1,6.05-4.885,49.33,49.33,0,0,1,11.5-4.6c.36-.1.5-.035.61.33a99.6,99.6,0,0,0,5.02,13.115.92.92,0,0,1-.04.85,103.676,103.676,0,0,0-4.685,12c-.135.415-.275.83-.38,1.255-.085.36-.245.425-.58.325Zm26.225,17.23a44.014,44.014,0,0,1-11.805,8.54,17.285,17.285,0,0,1-6.915,1.85c-2.76-.075-4.625-1.03-6-4.445a18.45,18.45,0,0,1-1.135-5.66,46.813,46.813,0,0,1,1.545-13.715c.03-.13.085-.255.11-.39.055-.285.195-.385.5-.31,1.955.5,3.94.845,5.93,1.15,1.71.265,3.42.5,5.145.65,1.035.09,2.07.205,3.11.29a.675.675,0,0,1,.5.355q2.34,3.29,4.9,6.41c1.305,1.585,2.665,3.12,4.065,4.625C48.1,75,48.162,75.154,47.892,75.414Zm2.295-2.385c-.23.25-.37.3-.625,0A104.5,104.5,0,0,1,42,63.914c-.05-.065-.085-.135-.175-.275a155.094,155.094,0,0,0,15.845-.04,12.259,12.259,0,0,1-1.13,1.63,88.415,88.415,0,0,1-6.355,7.8Zm25.935,8.5a6.519,6.519,0,0,1-3.355,3.85,7.4,7.4,0,0,1-4.315.285,23.994,23.994,0,0,1-8.75-3.855,51.29,51.29,0,0,1-7.825-6.42c-.21-.205-.285-.33-.035-.6a88.557,88.557,0,0,0,7.375-9.075c.45-.63.92-1.245,1.33-1.9a1.035,1.035,0,0,1,.9-.5c1.91-.125,3.81-.365,5.705-.635,2.76-.39,5.5-.89,8.21-1.545.385-.095.5,0,.58.365a49.806,49.806,0,0,1,1.42,8.225c.09,1.14.19,2.275.18,3.42a22.352,22.352,0,0,1-1.425,8.38Zm19.2-33.345a22.4,22.4,0,0,1-6.845,5.5,50.28,50.28,0,0,1-10.53,4.29c-.375.11-.5,0-.6-.325a94.823,94.823,0,0,0-5.225-13.155.85.85,0,0,1,0-.805,100.375,100.375,0,0,0,4.74-12.05c.11-.35.225-.7.32-1.06.065-.24.145-.315.42-.235a45.461,45.461,0,0,1,13.945,6.19,14.518,14.518,0,0,1,4.76,5A5.675,5.675,0,0,1,97,44a7,7,0,0,1-1.68,4.185Z" transform="translate(-0.003 0.003)" fill="#4dc8ed"/>
      <path id="Path_74491" data-name="Path 74491" d="M16.34,201.6c-.455-.885-.89-1.775-1.34-2.66a4.39,4.39,0,0,0-1.565-1.865,3.245,3.245,0,0,0,1.125-.78,2.905,2.905,0,0,0-1.65-4.635,21.908,21.908,0,0,0-4-.19c-.4,0-.5.095-.5.5v9c0,1.055,0,1.045,1.045,1,.285,0,.375-.1.37-.38v-2.775c0-1.285,0-1.255,1.28-1.295a2.42,2.42,0,0,1,2.455,1.5,20.212,20.212,0,0,1,1,2.035,1.311,1.311,0,0,0,1.605.93C16.475,201.945,16.47,201.855,16.34,201.6ZM12.2,196.325a14.185,14.185,0,0,1-2.11.075c-.275,0-.285-.16-.285-.36v-3c0-.145-.035-.34.195-.33a10.2,10.2,0,0,1,2.36.09,1.821,1.821,0,0,1-.16,3.525Z" transform="translate(-4.207 -95.734)" fill="#4dc8ed"/>
      <path id="Path_74492" data-name="Path 74492" d="M50.062,198.9a2.56,2.56,0,0,0-1.925-2.285,6.21,6.21,0,0,0-3.805.28.285.285,0,0,0-.215.3v.95a6.651,6.651,0,0,1,2.065-.615,2.3,2.3,0,0,1,2.545,1.09c.33.815.21.89-.59.895a8.711,8.711,0,0,0-3,.285,2.4,2.4,0,0,0-1.625,2.465,2.28,2.28,0,0,0,1.865,2.31,3.175,3.175,0,0,0,3.46-1.22c.06,1.185.06,1.185,1,1.11h.05c.19,0,.275-.075.27-.27A42.472,42.472,0,0,0,50.062,198.9Zm-1.22,2.525a2.311,2.311,0,0,1-2.675,2.125,1.445,1.445,0,0,1-1.33-1.23,1.35,1.35,0,0,1,1-1.62,6.2,6.2,0,0,1,1.895-.19h.35c.855,0,.91.065.755.915Z" transform="translate(-21.754 -98.217)" fill="#4dc8ed"/>
      <path id="Path_74493" data-name="Path 74493" d="M125.409,199.388a2.82,2.82,0,0,0-2.54-2.91,7.29,7.29,0,0,0-2.89.27c-.46.135-.67.325-.62.83s0,.55.5.345a4.765,4.765,0,0,1,2.8-.345,1.715,1.715,0,0,1,1.44,1.5c.025.325-.055.445-.4.445a15.826,15.826,0,0,0-2.62.09,2.469,2.469,0,0,0-2.25,2.965,2.379,2.379,0,0,0,2.59,2.09,3.085,3.085,0,0,0,2.655-1.275c.075,1.11.075,1.1.96,1.08.28,0,.38-.085.38-.375C125.409,202.523,125.459,200.953,125.409,199.388Zm-3.625,4.165c-1.25,0-1.915-.8-1.62-1.945a1.15,1.15,0,0,1,.78-.855,9.215,9.215,0,0,1,2.945-.245c.17,0,.225.1.235.255a2.4,2.4,0,0,1-2.33,2.8Z" transform="translate(-59.41 -98.217)" fill="#4dc8ed"/>
      <path id="Path_74494" data-name="Path 74494" d="M27.571,200.772h4.545c.925,0,.95,0,.895-.945a3.32,3.32,0,0,0-1.715-3.05,3.785,3.785,0,0,0-3.76.14,3.74,3.74,0,0,0-1.76,3.125,3.873,3.873,0,0,0,2.235,4.225,6.044,6.044,0,0,0,4.5-.185.265.265,0,0,0,.185-.27c0-.315,0-.625,0-1l-.425.175a5.89,5.89,0,0,1-2.75.5,2.5,2.5,0,0,1-2.39-2.255C27.116,200.907,27.2,200.767,27.571,200.772Zm-.395-1.3a2.335,2.335,0,0,1,2.345-2,2.1,2.1,0,0,1,2.14,1.625c.155.605.09.7-.545.7H27.491C27.271,199.777,27.146,199.737,27.176,199.467Z" transform="translate(-12.878 -98.171)" fill="#4dc8ed"/>
      <path id="Path_74495" data-name="Path 74495" d="M174.38,200.758c1.5.035,2.96,0,4.445,0,.94,0,.965,0,.915-.93a3.342,3.342,0,0,0-1.705-3.06,3.78,3.78,0,0,0-3.8.15,3.721,3.721,0,0,0-1.725,3.09c-.17,1.885.5,3.625,2.405,4.31a5.45,5.45,0,0,0,3.5,0c1.215-.375,1-.09,1-1.43a.148.148,0,0,0-.04-.08,6.47,6.47,0,0,1-2.955.67,2.5,2.5,0,0,1-2.54-2.145C173.82,200.958,173.87,200.743,174.38,200.758Zm-.5-1.275a2.344,2.344,0,0,1,2.275-2.035,2.07,2.07,0,0,1,2.19,1.555c.2.675.14.76-.545.765h-3.56c-.2,0-.365.01-.345-.285Z" transform="translate(-86.241 -98.162)" fill="#4dc8ed"/>
      <path id="Path_74496" data-name="Path 74496" d="M90.385,70a9.03,9.03,0,1,1-6.4,2.618A9.045,9.045,0,0,1,90.385,70Z" transform="translate(-40.657 -34.999)" fill="#4dc8ed"/>
    </g>
  </g>
</svg>
