<svg id="Layer_2" data-name="Layer 2" xmlns="http://www.w3.org/2000/svg" width="113.251" height="106.478" viewBox="0 0 113.251 106.478">
  <g id="Layer_1" data-name="Layer 1">
    <g id="Page-1" transform="translate(0 81.056)">
      <g id="xamarin-logo">
        <path id="Logo" d="M13.444,125.747l-4.3-8.263-4.4,8.263H0l6.71-10.661L.668,104.49H5.5l3.918,8.046,4.248-8.046h4.393l-6.227,10.532,6.308,10.725Zm15.351,0V123.43h-.064a5.576,5.576,0,0,1-4.964,2.727,5.455,5.455,0,0,1-3.9-1.344,4.827,4.827,0,0,1-1.424-3.645q0-4.892,5.487-5.56l4.9-.676q0-3.427-3.218-3.427a9.188,9.188,0,0,0-5.5,1.867v-3.347A10.516,10.516,0,0,1,22.8,109a13.131,13.131,0,0,1,3.218-.459q6.485,0,6.485,6.565v10.653H28.8Zm-3.588-7.692a4.393,4.393,0,0,0-2.414.8,2.414,2.414,0,0,0-.668,1.891,2.188,2.188,0,0,0,.8,1.722,3,3,0,0,0,2.011.66,3.661,3.661,0,0,0,2.784-1.167,4.071,4.071,0,0,0,1.094-2.9v-1.513l-3.621.475Zm31.483,7.692v-9.51a6.485,6.485,0,0,0-.74-3.476,2.816,2.816,0,0,0-2.591-1.151,3.025,3.025,0,0,0-2.5,1.408,5.358,5.358,0,0,0-1.014,3.3v9.438H46.062v-9.816q0-4.3-3.291-4.3a3.073,3.073,0,0,0-2.542,1.287,5.447,5.447,0,0,0-.982,3.379v9.438H35.465v-16.8h3.781v2.591h.064a5.841,5.841,0,0,1,5.31-3,5.053,5.053,0,0,1,2.953.885,4.6,4.6,0,0,1,1.818,2.414,6.147,6.147,0,0,1,5.632-3.3q5.471,0,5.471,6.823v10.387Zm16.381,0V123.43h-.064a5.576,5.576,0,0,1-4.964,2.727,5.455,5.455,0,0,1-3.9-1.344,4.827,4.827,0,0,1-1.384-3.645q0-4.892,5.487-5.56l4.9-.676q0-3.427-3.218-3.427a9.188,9.188,0,0,0-5.56,1.867v-3.347A10.516,10.516,0,0,1,67.077,109a13.131,13.131,0,0,1,3.218-.459q6.485,0,6.485,6.565v10.653H73.071Zm-3.588-7.692a4.393,4.393,0,0,0-2.414.8,2.414,2.414,0,0,0-.668,1.891,2.188,2.188,0,0,0,.8,1.722,3,3,0,0,0,2.011.66A3.661,3.661,0,0,0,72,121.966a4.071,4.071,0,0,0,1.094-2.9v-1.513l-3.621.475Zm20-5.415a4.1,4.1,0,0,0-2.2-.571,3.17,3.17,0,0,0-2.671,1.408,6.147,6.147,0,0,0-1.014,3.677v8.6H79.821V108.948H83.6v3.267h.072q1.215-3.564,4.3-3.564a3.942,3.942,0,0,1,1.521.233v3.757Zm3.765-7.45a2.317,2.317,0,0,1-1.609-.628A2.068,2.068,0,0,1,90.973,103a2.108,2.108,0,0,1,.668-1.609,2.414,2.414,0,0,1,3.291,0,2.164,2.164,0,0,1,0,3.138,2.341,2.341,0,0,1-1.674.66Zm-1.931,20.557v-16.8H95.1v16.8Zm18.087,0v-9.438q0-4.675-3.355-4.675a3.637,3.637,0,0,0-2.832,1.3,4.747,4.747,0,0,0-1.134,3.267v9.55H98.3v-16.8h3.781v2.687h.1a5.938,5.938,0,0,1,5.439-3.1q5.632,0,5.632,6.9v10.323h-3.83Z" transform="translate(0 -100.745)" fill="#3498db"/>
      </g>
    </g>
    <path id="Path_74497" data-name="Path 74497" d="M100.587,33.414,83.232,3.218A6.509,6.509,0,0,0,77.729,0h-34.7a6.509,6.509,0,0,0-5.5,3.218L20.17,33.414a6.589,6.589,0,0,0,0,6.38L37.525,70a6.509,6.509,0,0,0,5.5,3.218H77.737A6.509,6.509,0,0,0,83.24,70L100.595,39.77a6.589,6.589,0,0,0-.008-6.356ZM77.27,55.515H71.284a.8.8,0,0,1-.676-.41L60.479,37.01a.8.8,0,0,1-.1-.29.8.8,0,0,1-.1.29L50.124,55.121a.8.8,0,0,1-.652.41H43.486a.8.8,0,0,1-.676-1.167l9.912-17.757L42.811,18.827a.8.8,0,0,1,.531-1.126h6.131a.8.8,0,0,1,.652.386L60.286,36.206a.8.8,0,0,1,.1.29.8.8,0,0,1,.1-.29l10.13-18.135a.8.8,0,0,1,.676-.37H77.27a.8.8,0,0,1,.676,1.142l-9.9,17.765,9.912,17.757a.8.8,0,0,1-.684,1.151Z" transform="translate(-3.781)" fill="#3498db"/>
  </g>
</svg>
