<?xml version="1.0" encoding="UTF-8"?>
<svg xmlns="http://www.w3.org/2000/svg" width="116" height="29" viewBox="0 0 116 29" fill="none">
  <g clip-path="url(#clip0_449_9761)">
    <path d="M112.066 16.7183C112.962 17.6117 114.412 17.6117 115.306 16.7183C116.199 15.8228 116.199 14.372 115.306 13.4786C114.41 12.5852 112.96 12.5852 112.066 13.4786C111.638 13.909 111.396 14.4909 111.396 15.0974C111.396 15.706 111.638 16.2879 112.069 16.7183" fill="#494949"></path>
    <path d="M108.221 20.5622C108.91 21.2507 110.026 21.2528 110.717 20.5622C111.405 19.8738 111.407 18.757 110.717 18.0665C110.029 17.378 108.912 17.3759 108.221 18.0665C107.889 18.3984 107.703 18.8472 107.705 19.3144C107.705 19.7815 107.889 20.2303 108.221 20.5602" fill="#494949"></path>
    <path d="M108.226 12.1303C108.914 12.8188 110.031 12.8208 110.719 12.1303C111.408 11.4418 111.41 10.325 110.719 9.63652C110.031 8.94803 108.914 8.94598 108.226 9.63652C107.894 9.96848 107.709 10.4172 107.709 10.8844C107.709 11.3516 107.894 11.8004 108.226 12.1303Z" fill="#494949"></path>
    <path d="M104.292 24.4925C104.82 25.0232 105.681 25.0232 106.209 24.4925C106.74 23.9638 106.74 23.1032 106.209 22.5745C105.681 22.0438 104.82 22.0438 104.292 22.5745C104.037 22.8286 103.894 23.1749 103.894 23.5335C103.894 23.8942 104.037 24.2384 104.292 24.4925Z" fill="#494949"></path>
    <path d="M104.295 16.0605C104.824 16.5892 105.683 16.5892 106.213 16.0605C106.744 15.5319 106.742 14.6733 106.213 14.1426C105.685 13.6139 104.826 13.6139 104.295 14.1426C104.041 14.3967 103.898 14.7409 103.898 15.1016C103.898 15.4622 104.041 15.8065 104.295 16.0605Z" fill="#494949"></path>
    <path d="M104.302 7.62848C104.83 8.1592 105.691 8.1592 106.22 7.62848C106.75 7.09982 106.75 6.2392 106.22 5.71054C105.691 5.17982 104.83 5.17982 104.302 5.71054C104.048 5.96462 103.904 6.31092 103.904 6.66951C103.904 7.03015 104.048 7.3744 104.302 7.62848Z" fill="#494949"></path>
    <path d="M100.298 20.0583C100.706 20.466 101.365 20.466 101.773 20.0583C102.181 19.6505 102.181 18.9907 101.773 18.5829C101.365 18.1752 100.706 18.1752 100.298 18.5829C100.103 18.7776 99.9927 19.044 99.9927 19.3206C99.9927 19.5972 100.101 19.8636 100.298 20.0583Z" fill="#494949"></path>
    <path d="M100.305 11.6261C100.713 12.0339 101.372 12.0339 101.78 11.6261C102.188 11.2184 102.188 10.5586 101.78 10.1508C101.372 9.74303 100.713 9.74303 100.305 10.1508C100.11 10.3455 99.9995 10.6118 99.9995 10.8885C99.9995 11.1651 100.108 11.4315 100.305 11.6261Z" fill="#494949"></path>
    <path d="M96.2566 15.6731C96.5701 15.9866 97.0782 15.9866 97.3917 15.6731C97.7052 15.3596 97.7052 14.8514 97.3917 14.5379C97.0782 14.2244 96.5701 14.2244 96.2566 14.5379C96.107 14.6875 96.021 14.8924 96.021 15.1055C96.021 15.3186 96.105 15.5235 96.2566 15.6731Z" fill="#494949"></path>
    <path d="M28.8142 10.9356V8.95619C29.7793 9.28404 30.7873 9.46231 31.8056 9.48895C33.0022 9.48895 33.6004 9.17339 33.6004 8.54023C33.6045 8.31278 33.5082 8.09557 33.3382 7.94394C33.1579 7.77387 32.701 7.53822 31.9675 7.23495C30.65 6.69195 29.7895 6.2309 29.3879 5.84772C28.8716 5.34774 28.5909 4.6531 28.6114 3.93592C28.6114 2.94621 28.9884 2.19215 29.7444 1.67168C30.4902 1.15736 31.4635 0.89917 32.6621 0.89917C33.6271 0.936054 34.586 1.05695 35.5284 1.26391V3.16751C34.7068 2.81917 33.8279 2.63065 32.9366 2.61016C31.8118 2.61016 31.2504 2.91957 31.2504 3.5384C31.2545 3.77404 31.3835 3.99125 31.5905 4.10395C31.779 4.22074 32.2973 4.47073 33.1476 4.85391C34.3708 5.39692 35.1842 5.86821 35.5899 6.26983C36.0775 6.75957 36.3378 7.42962 36.3132 8.11811C36.346 9.14676 35.7968 10.1078 34.8953 10.6037C34.1311 11.0668 33.1394 11.2963 31.9224 11.2963C30.8754 11.2963 29.8325 11.1713 28.8142 10.9315" fill="#494949"></path>
    <path d="M37.8936 11.0956H40.6923V1.07349H37.8936V11.0956Z" fill="#494949"></path>
    <path d="M43.2593 1.07349V11.0976H50.5533V9.18173H45.9577V6.80274H49.8567V5.15117H45.9577V2.88693H50.4386V1.07349H43.2593Z" fill="#494949"></path>
    <path d="M61.1173 1.07349L58.5316 7.47689L56.0115 1.07349H52.3809V11.0976H54.3539V4.00164L57.2347 11.198H58.9721L61.9102 4.00164V11.0976H64.5635V1.07349H61.1173Z" fill="#494949"></path>
    <path d="M67.1309 1.07349V11.0976H74.427V9.18173H69.8292V6.80274H73.7303V5.15117H69.8292V2.88693H74.3102V1.07349H67.1309Z" fill="#494949"></path>
    <path d="M82.9541 1.07349V7.78426L79.5119 1.07349H76.2686V11.0976H78.2396V4.2967L81.7739 11.0976H84.9251V1.07349H82.9541Z" fill="#494949"></path>
    <path d="M86.9132 10.9356V8.95619C87.8782 9.28405 88.8862 9.46436 89.9045 9.48895C91.1011 9.48895 91.6994 9.17339 91.6994 8.54023C91.7035 8.31483 91.6113 8.09762 91.4433 7.94394C91.265 7.77387 90.8061 7.53822 90.0664 7.23496C88.7531 6.69604 87.8925 6.23295 87.4869 5.84772C86.9685 5.34774 86.6857 4.649 86.7083 3.92977C86.7083 2.94416 87.0853 2.19215 87.8413 1.67168C88.5892 1.15736 89.5603 0.89917 90.761 0.89917C91.642 0.923759 92.5189 1.03236 93.3795 1.22293L93.6274 1.26596V3.16956C92.8037 2.82122 91.9227 2.63065 91.0273 2.61221C89.9086 2.61221 89.3493 2.92162 89.3493 3.54045C89.3513 3.77609 89.4804 3.99125 89.6874 4.106C89.8677 4.2187 90.3881 4.46868 91.2527 4.85596C92.4657 5.39897 93.2791 5.87026 93.6888 6.27188C94.1765 6.76162 94.4387 7.43167 94.4121 8.12016C94.4449 9.14676 93.9019 10.1078 93.0025 10.6057C92.2341 11.0688 91.2404 11.2983 90.0213 11.2983C88.9743 11.2983 87.9315 11.1733 86.9132 10.9336" fill="#494949"></path>
    <path d="M69.3293 21.3595C69.3293 22.55 67.723 22.8287 66.6002 22.8615C66.6514 21.6689 67.2743 20.5112 68.4483 20.5112C68.8929 20.4702 69.2863 20.798 69.3273 21.2427C69.3314 21.2816 69.3314 21.3205 69.3293 21.3595ZM71.4356 21.341C71.4356 19.6997 70.3128 18.8186 68.5692 18.8186C65.7356 18.8186 64.2686 21.1341 64.2686 23.6729C64.2686 26.2117 65.4426 28.0948 68.3786 28.0948C69.5076 28.1071 70.6119 27.769 71.5401 27.1277L70.8496 25.5212C70.2206 25.9802 69.4686 26.2404 68.6921 26.2629C67.3788 26.2629 66.8256 25.3818 66.7047 24.552C68.7946 24.4659 71.4376 23.9454 71.4376 21.339" fill="#494949"></path>
    <path d="M77.7077 21.3595C77.7077 22.55 76.1014 22.8287 74.9786 22.8615C75.0298 21.6689 75.6527 20.5112 76.8267 20.5112C77.2713 20.4702 77.6647 20.798 77.7057 21.2427C77.7098 21.2816 77.7098 21.3205 77.7077 21.3595ZM79.816 21.341C79.816 19.6997 78.6932 18.8186 76.9476 18.8186C74.114 18.8186 72.647 21.1341 72.647 23.6729C72.647 26.2117 73.821 28.0948 76.757 28.0948C77.886 28.1071 78.9924 27.769 79.9205 27.1277L79.23 25.5212C78.6031 25.9802 77.8491 26.2404 77.0726 26.2629C75.7592 26.2629 75.206 25.3818 75.0851 24.552C77.175 24.4659 79.8181 23.9454 79.8181 21.339" fill="#494949"></path>
    <path d="M15.3864 21.3595C15.3864 22.55 13.7801 22.8287 12.6573 22.8615C12.7085 21.6689 13.3314 20.5112 14.5054 20.5112C14.95 20.4702 15.3434 20.798 15.3844 21.2427C15.3885 21.2816 15.3885 21.3205 15.3864 21.3595ZM17.4927 21.341C17.4927 19.6997 16.3699 18.8186 14.6263 18.8186C11.7927 18.8186 10.3257 21.1341 10.3257 23.6729C10.3257 26.2117 11.4997 28.0948 14.4358 28.0948C15.5647 28.1071 16.669 27.769 17.5972 27.1277L16.9067 25.5212C16.2777 25.9802 15.5258 26.2404 14.7492 26.2629C13.4359 26.2629 12.8827 25.3818 12.7618 24.552C14.8517 24.4659 17.4947 23.9454 17.4947 21.339" fill="#494949"></path>
    <path d="M6.00423 16.3496V20.9273H2.48219V16.3496H0.0112305V27.8368H2.48219V23.087H6.00423V27.8368H8.47519V16.3496H6.00423Z" fill="#494949"></path>
    <path d="M24.2452 25.0397C24.2452 25.679 23.7269 26.3347 22.8295 26.3347C21.5509 26.3347 21.2559 25.1073 21.2559 23.7078C21.2559 22.0152 21.7394 20.5993 23.1573 20.5993C23.5281 20.5911 23.899 20.6567 24.2452 20.7878V25.0376V25.0397ZM26.8022 27.8387L26.6301 26.095V19.4621C25.6118 19.083 24.5382 18.8658 23.4503 18.8228C20.3933 18.8228 18.873 20.8104 18.873 23.8492C18.873 26.181 19.7192 28.0805 22.223 28.0805C23.1573 28.0805 24.0199 27.7363 24.5382 26.9412L24.6243 26.9597L24.7452 27.8408H26.8002L26.8022 27.8387Z" fill="#494949"></path>
    <path d="M28.8062 16.3658V25.2281C28.8062 26.6789 28.9434 28.0948 31.4328 28.0948C32.1991 28.0969 32.9531 27.9063 33.6272 27.5416L33.1088 25.9351C32.7769 26.0908 32.4204 26.1851 32.0557 26.2117C31.4164 26.2117 31.2095 25.8306 31.2095 24.8818V16.3638H28.8082L28.8062 16.3658Z" fill="#494949"></path>
    <path d="M43.7822 27.8367V22.1873C43.7535 21.3779 44.3866 20.6976 45.1959 20.6689C45.2143 20.6689 45.2328 20.6689 45.2512 20.6689C46.1671 20.6689 46.3556 21.3595 46.3556 22.257V27.8367H48.7569V21.8943C48.7569 19.8391 47.7734 18.8186 45.9581 18.8186C45.1385 18.8022 44.3517 19.128 43.7822 19.7161V16.3474H41.3809V27.8346H43.7822V27.8367Z" fill="#494949"></path>
    <path d="M50.8809 27.8367H53.2822V19.0789H50.8809V27.8367Z" fill="#494949"></path>
    <path d="M50.7701 16.3412C50.7599 16.6731 50.8869 16.9969 51.1226 17.2325C51.3828 17.4682 51.7229 17.5911 52.0732 17.5768C52.4236 17.587 52.7637 17.4641 53.0239 17.2325C53.5095 16.751 53.5157 15.9662 53.0342 15.4806C53.0301 15.4765 53.028 15.4744 53.0239 15.4703C52.7658 15.2306 52.4256 15.0994 52.0732 15.1056C51.7229 15.0974 51.3828 15.2285 51.1287 15.4703C50.8951 15.6998 50.766 16.0154 50.7681 16.3412" fill="#494949"></path>
    <path d="M57.8084 27.8365V22.2219C57.7756 21.3982 58.4148 20.7015 59.2406 20.6687C59.2651 20.6687 59.2877 20.6687 59.3123 20.6687C60.2281 20.6687 60.3838 21.3777 60.3838 22.3264V27.8385H62.7851V21.8593C62.7851 19.7856 61.7484 18.8184 60.0396 18.8184C59.007 18.7836 58.0256 19.2692 57.4314 20.1134L57.2572 19.0766H55.2534L55.4091 20.7015V27.8365H57.8104H57.8084Z" fill="#494949"></path>
    <path d="M84.0813 22.3963C84.1161 21.4804 84.6693 20.8943 85.5319 20.8943C85.9601 20.8964 86.3802 21.0029 86.7572 21.2058L87.1895 19.1342C86.7428 18.917 86.2511 18.8104 85.7553 18.8248C84.9439 18.8248 84.0977 19.3083 83.6818 20.3267L83.4564 19.0829H81.5059L81.678 20.6034V27.8408H84.0793V22.3984L84.0813 22.3963Z" fill="#494949"></path>
    <path d="M93.8095 19.5807L93.8157 19.5602C92.9654 19.0172 91.9635 18.757 90.9554 18.8164C89.1811 18.9086 87.7858 19.968 87.8821 21.7958C87.9784 23.6236 89.3122 24.058 90.6235 24.3695C91.3775 24.5539 92.0065 24.6953 92.0414 25.3694C92.0762 26.0251 91.6234 26.3099 90.9862 26.3427C90.2055 26.3837 89.218 26.0354 88.5808 25.7096L87.8657 27.357C88.3697 27.6951 89.6687 28.1767 91.1993 28.0947C93.199 27.9902 94.5062 26.937 94.4037 24.9862C94.3095 23.1912 92.8732 22.7999 91.5947 22.4679C90.8059 22.2671 90.226 22.0724 90.1892 21.4003C90.1605 20.8307 90.6133 20.5807 91.1829 20.552C91.773 20.5213 92.4081 20.7794 93.0822 21.2528L93.8075 19.5848L93.8095 19.5807Z" fill="#494949"></path>
    <path d="M37.1315 20.9621H39.3935V19.079H37.1315V16.3496H34.7302V19.079H33.3984V20.9621H34.7302V25.2283C34.7302 26.6791 34.8675 28.095 37.3569 28.095C38.1232 28.097 38.8772 27.9065 39.5512 27.5417L39.0329 25.9353C38.701 26.091 38.3445 26.1852 37.9798 26.2119C37.3405 26.2119 37.1336 25.8307 37.1336 24.882V20.9601L37.1315 20.9621Z" fill="#494949"></path>
  </g>
  <defs>
    <clipPath id="clip0_449_9761">
      <rect width="115.965" height="27.2017" fill="white" transform="translate(0.0107422 0.89917)"></rect>
    </clipPath>
  </defs>
</svg>
