<?xml version="1.0" encoding="UTF-8"?>
<svg xmlns="http://www.w3.org/2000/svg" width="114" height="31" viewBox="0 0 114 31" fill="none">
  <g clip-path="url(#clip0_449_9819)">
    <path d="M5.35012 18.5096L1.57673 16.3318L0.692871 17.8751L4.46626 20.0529C4.53525 20.0934 4.5892 20.1555 4.6199 20.2298C4.65059 20.3042 4.65633 20.3866 4.63623 20.4645L3.49742 24.7001L5.19714 25.1631L6.33596 20.9275C6.46825 20.4714 6.4427 19.9835 6.26351 19.544C6.08433 19.1046 5.7622 18.7397 5.35012 18.5096Z" fill="#494949"></path>
    <path d="M11.4353 3.93365C11.3987 4.00659 11.3375 4.06394 11.2627 4.09539C11.1879 4.12683 11.1045 4.13028 11.0274 4.10513L6.82904 2.9562L6.37012 4.67101L10.5684 5.81994C11.0251 5.93812 11.5074 5.90335 11.9428 5.72086C12.3781 5.53837 12.7429 5.21806 12.982 4.8082L15.1407 1.00132L13.6109 0.109619L11.4353 3.93365Z" fill="#494949"></path>
    <path d="M4.46626 10.9471L0.692871 13.1249L1.57673 14.6682L5.35012 12.4904C5.76191 12.2549 6.08411 11.8876 6.26573 11.4465C6.44736 11.0055 6.47805 10.516 6.35296 10.0554L5.21414 5.81982L3.51442 6.28282L4.65323 10.5184C4.67546 10.6007 4.66902 10.6881 4.63499 10.7662C4.60095 10.8442 4.54139 10.9081 4.46626 10.9471Z" fill="#494949"></path>
    <path d="M10.5513 25.1801L6.35303 26.329L6.81195 28.0438L11.0103 26.8949C11.0875 26.8746 11.1692 26.8804 11.2428 26.9114C11.3165 26.9423 11.3781 26.9968 11.4182 27.0664L13.5769 30.8733L15.1066 29.9816L12.948 26.1747C12.714 25.7646 12.3518 25.4444 11.918 25.2644C11.4843 25.0844 11.0036 25.0547 10.5513 25.1801Z" fill="#494949"></path>
    <path d="M27.3955 20.0529L31.1688 17.8751L30.285 16.3318L26.5116 18.5096C26.0998 18.7451 25.7776 19.1125 25.596 19.5535C25.4144 19.9945 25.3837 20.484 25.5088 20.9446L26.6476 25.1802L28.3473 24.7172L27.2085 20.4816C27.1976 20.3997 27.2092 20.3164 27.2422 20.2408C27.2752 20.1651 27.3282 20.1001 27.3955 20.0529Z" fill="#494949"></path>
    <path d="M20.7497 5.90556C20.9389 5.90815 21.1276 5.88508 21.3106 5.83697L25.509 4.68804L25.05 2.97323L20.8517 4.12216C20.7746 4.14731 20.6911 4.14386 20.6164 4.11242C20.5416 4.08098 20.4804 4.02362 20.4438 3.95068L18.2851 0.143799L16.7554 1.0355L18.914 4.84238C19.1008 5.16635 19.3687 5.4351 19.6909 5.6217C20.0131 5.8083 20.3782 5.90619 20.7497 5.90556Z" fill="#494949"></path>
    <path d="M27.2425 10.5528L28.3813 6.31725L26.6816 5.85425L25.5428 10.0898C25.4137 10.546 25.4407 11.0327 25.6196 11.4715C25.7985 11.9102 26.1187 12.2753 26.5286 12.5077L30.302 14.6855L31.1859 13.1422L27.4125 10.9644C27.3435 10.9239 27.2895 10.8618 27.2588 10.7875C27.2282 10.7131 27.2224 10.6307 27.2425 10.5528Z" fill="#494949"></path>
    <path d="M18.914 26.1918L16.7554 29.9987L18.2851 30.8904L20.4438 27.0835C20.4839 27.0139 20.5455 26.9595 20.6191 26.9285C20.6928 26.8976 20.7745 26.8918 20.8517 26.9121L25.05 28.061L25.509 26.3462L21.3106 25.1972C20.8586 25.0638 20.375 25.0896 19.9394 25.2703C19.5038 25.4511 19.1422 25.7761 18.914 26.1918Z" fill="#494949"></path>
    <path d="M50.1552 10.9814C48.7954 10.9814 47.4016 11.4101 46.7387 12.0103C46.724 12.0215 46.7061 12.0275 46.6877 12.0275C46.6693 12.0275 46.6514 12.0215 46.6367 12.0103C46.0758 11.3587 45.056 10.9814 43.8322 10.9814C42.8288 10.9819 41.852 11.3064 41.0446 11.9074C41.0106 11.9417 40.9937 11.9417 40.9597 11.9246C40.9483 11.9174 40.9391 11.9072 40.9331 11.8951C40.9271 11.883 40.9245 11.8695 40.9257 11.856V11.393C40.9248 11.3342 40.9012 11.278 40.86 11.2363C40.8187 11.1947 40.763 11.171 40.7047 11.1701H39.2429C39.1846 11.171 39.1289 11.1947 39.0877 11.2363C39.0464 11.278 39.0228 11.3342 39.022 11.393V19.5726C39.0228 19.6315 39.0464 19.6877 39.0877 19.7293C39.1289 19.7709 39.1846 19.7947 39.2429 19.7956H40.7047C40.763 19.7947 40.8187 19.7709 40.86 19.7293C40.9012 19.6877 40.9248 19.6315 40.9257 19.5726V14.291C41.0956 13.3136 42.1665 12.5934 43.4413 12.5934C44.818 12.5934 45.4639 13.1421 45.4639 14.3596V19.5726C45.4648 19.6315 45.4884 19.6877 45.5296 19.7293C45.5709 19.7709 45.6266 19.7947 45.6849 19.7956H47.1637C47.222 19.7947 47.2777 19.7709 47.3189 19.7293C47.3602 19.6877 47.3837 19.6315 47.3846 19.5726V14.2739C47.4526 13.2964 48.5234 12.5934 49.9002 12.5934C51.277 12.5934 51.9399 13.1421 51.9399 14.3253V19.5726C51.9408 19.6315 51.9643 19.6877 52.0056 19.7293C52.0468 19.7709 52.1025 19.7947 52.1608 19.7956H53.6226C53.6842 19.7881 53.7424 19.7633 53.7906 19.7238C53.8387 19.6843 53.8748 19.6319 53.8946 19.5726V14.3425C53.8946 12.902 53.5036 10.9814 50.1552 10.9814Z" fill="#494949"></path>
    <path d="M64.9424 11.1872H63.4806C63.4223 11.188 63.3666 11.2118 63.3253 11.2534C63.2841 11.2951 63.2605 11.3512 63.2596 11.4101V12.0274C63.2596 12.0789 63.2426 12.096 63.2256 12.096C63.1962 12.1005 63.1661 12.0944 63.1407 12.0789C62.3248 11.3929 61.118 10.9985 59.8262 10.9985C57.0046 10.9985 55.1689 12.6962 55.1689 15.3027C55.1689 18.1493 57.1576 19.9841 60.2341 19.9841C61.3729 19.9841 62.4098 19.624 63.1237 18.9895C63.1343 18.9781 63.1482 18.9704 63.1634 18.9673C63.1787 18.9642 63.1945 18.966 63.2086 18.9724C63.2256 18.9724 63.2596 18.9895 63.2596 19.041V19.5897C63.2605 19.6486 63.2841 19.7048 63.3253 19.7464C63.3666 19.788 63.4223 19.8118 63.4806 19.8127H64.9424C65.0007 19.8118 65.0564 19.788 65.0976 19.7464C65.1389 19.7048 65.1624 19.6486 65.1633 19.5897V11.4101C65.1624 11.3512 65.1389 11.2951 65.0976 11.2534C65.0564 11.2118 65.0007 11.188 64.9424 11.1872ZM63.2596 15.4913V15.6114C63.2086 17.309 62.0358 18.4237 60.2851 18.4237C58.4494 18.4237 57.2086 17.2233 57.2086 15.4056C57.2086 13.9652 58.1265 12.5247 60.1661 12.5247C62.0018 12.5247 63.2766 13.7422 63.2596 15.4913Z" fill="#494949"></path>
    <path d="M75.6681 11.17H74.0874C74.0438 11.17 74.0011 11.183 73.9648 11.2075C73.9285 11.2319 73.9002 11.2666 73.8834 11.3072L71.0449 17.4977C71.042 17.5133 71.0334 17.5272 71.0208 17.5367C71.0082 17.5462 70.9925 17.5507 70.9769 17.5491C70.9623 17.5467 70.9485 17.5408 70.9366 17.5318C70.9248 17.5228 70.9153 17.5111 70.9089 17.4977L68.1044 11.3072C68.0876 11.2666 68.0593 11.2319 68.023 11.2075C67.9867 11.183 67.944 11.17 67.9004 11.17H66.3366C66.2993 11.169 66.2623 11.1781 66.2295 11.1961C66.1966 11.2142 66.1691 11.2407 66.1497 11.2729C66.1264 11.3047 66.1125 11.3425 66.1095 11.3819C66.1065 11.4213 66.1145 11.4608 66.1327 11.4958L69.9741 19.2468C69.9824 19.2562 69.987 19.2684 69.987 19.2811C69.987 19.2937 69.9824 19.3059 69.9741 19.3154C69.2772 20.8758 68.5803 21.9219 67.4925 21.9219C67.192 21.9138 66.8943 21.8618 66.6086 21.7675C66.5807 21.7592 66.5514 21.7566 66.5225 21.7599C66.4936 21.7632 66.4657 21.7723 66.4403 21.7867C66.4149 21.8011 66.3927 21.8205 66.3749 21.8437C66.3571 21.8669 66.3441 21.8935 66.3366 21.9219L66.0137 22.9165C65.9941 22.9688 65.9956 23.0268 66.0178 23.0781C66.04 23.1294 66.0813 23.1698 66.1327 23.1908C66.593 23.3709 67.0838 23.4583 67.5774 23.4481C69.5491 23.4481 70.6369 22.0248 71.8608 19.5726L75.8721 11.4958C75.8861 11.4598 75.8918 11.421 75.8889 11.3824C75.8859 11.3438 75.8744 11.3064 75.8551 11.2729C75.8371 11.2394 75.8099 11.2118 75.7767 11.1935C75.7435 11.1753 75.7058 11.1671 75.6681 11.17Z" fill="#494949"></path>
    <path d="M85.6787 11.1872H84.2169C84.1586 11.188 84.1029 11.2118 84.0617 11.2534C84.0204 11.2951 83.9968 11.3512 83.996 11.4101V12.0274C83.996 12.0789 83.979 12.096 83.962 12.096C83.9325 12.1005 83.9025 12.0944 83.877 12.0789C83.0611 11.3929 81.8543 10.9985 80.5625 10.9985C77.741 10.9985 75.9053 12.6962 75.9053 15.3027C75.9053 18.1493 77.8939 19.9841 80.9705 19.9841C82.1093 19.9841 83.1461 19.624 83.877 18.9895C83.8876 18.9781 83.9015 18.9704 83.9168 18.9673C83.932 18.9642 83.9478 18.966 83.962 18.9724C83.979 18.9724 84.013 18.9895 84.013 19.041V19.5897C84.0138 19.6486 84.0374 19.7048 84.0786 19.7464C84.1199 19.788 84.1756 19.8118 84.2339 19.8127H85.6787C85.737 19.8118 85.7927 19.788 85.834 19.7464C85.8752 19.7048 85.8988 19.6486 85.8997 19.5897V11.4101C85.8988 11.3512 85.8752 11.2951 85.834 11.2534C85.7927 11.2118 85.737 11.188 85.6787 11.1872ZM83.996 15.4913V15.6114C83.945 17.309 82.7722 18.4237 81.0214 18.4237C79.1857 18.4237 77.9449 17.2233 77.9449 15.4056C77.9449 13.9652 78.8628 12.5247 80.9025 12.5247C82.7382 12.5247 84.013 13.7422 83.996 15.4913Z" fill="#494949"></path>
    <path d="M100.5 11.3756C100.498 11.3545 100.49 11.3342 100.479 11.3162C100.468 11.2983 100.453 11.283 100.435 11.2716C100.417 11.2601 100.397 11.2528 100.376 11.25C100.355 11.2472 100.334 11.2492 100.313 11.2556H99.1747C99.1383 11.2584 99.1033 11.2711 99.0734 11.2922C99.0435 11.3133 99.0198 11.3421 99.0047 11.3756L96.2851 17.4804C96.2697 17.5151 96.2447 17.5447 96.213 17.5654C96.1813 17.5861 96.1444 17.5971 96.1067 17.5971C96.0689 17.5971 96.032 17.5861 96.0003 17.5654C95.9686 17.5447 95.9436 17.5151 95.9282 17.4804L93.1916 11.3756C93.1765 11.3421 93.1528 11.3133 93.1229 11.2922C93.093 11.2711 93.058 11.2584 93.0217 11.2556H91.8658C91.8238 11.2534 91.7823 11.2658 91.7483 11.2908C91.7142 11.3158 91.6897 11.3518 91.6789 11.3928L89.6052 19.5381C89.5986 19.5667 89.5984 19.5964 89.6047 19.625C89.611 19.6536 89.6235 19.6805 89.6415 19.7035C89.6595 19.7266 89.6823 19.7452 89.7084 19.7582C89.7345 19.7711 89.7631 19.778 89.7922 19.7782H91.016C91.0596 19.7768 91.1016 19.7609 91.1353 19.733C91.1691 19.7051 91.1929 19.6667 91.2029 19.6239L92.5457 14.1879C92.5545 14.1488 92.5753 14.1135 92.6051 14.087C92.6349 14.0605 92.6723 14.0441 92.7119 14.0403C92.7515 14.0365 92.7912 14.0454 92.8255 14.0658C92.8598 14.0861 92.8868 14.1169 92.9027 14.1536L95.3503 19.641C95.3654 19.6745 95.3891 19.7034 95.419 19.7245C95.4489 19.7456 95.4839 19.7582 95.5203 19.7611H96.6761C96.7125 19.7582 96.7474 19.7456 96.7773 19.7245C96.8072 19.7034 96.8309 19.6745 96.846 19.641L99.3106 14.1193C99.3273 14.0835 99.3545 14.0537 99.3886 14.034C99.4227 14.0144 99.462 14.0058 99.5011 14.0096C99.5402 14.0134 99.5772 14.0292 99.607 14.055C99.6368 14.0808 99.6579 14.1152 99.6676 14.1536L100.959 19.6067C100.969 19.6496 100.993 19.6879 101.027 19.7158C101.061 19.7437 101.103 19.7596 101.146 19.7611H102.404C102.433 19.7608 102.462 19.754 102.488 19.741C102.514 19.7281 102.537 19.7094 102.555 19.6864C102.573 19.6633 102.585 19.6365 102.592 19.6078C102.598 19.5792 102.598 19.5495 102.591 19.521L100.5 11.3756Z" fill="#494949"></path>
    <path d="M107.827 11.2385H104.122C104.072 11.239 104.025 11.259 103.99 11.2943C103.955 11.3295 103.935 11.3773 103.935 11.4272V19.5896C103.935 19.6395 103.955 19.6873 103.99 19.7225C104.025 19.7578 104.072 19.7778 104.122 19.7783H108.252C110.682 19.7783 113.096 18.6637 113.079 15.4741C113.113 12.4732 111.022 11.2385 107.827 11.2385ZM107.997 18.5779H105.804C105.755 18.5775 105.708 18.5574 105.673 18.5222C105.638 18.4869 105.618 18.4392 105.617 18.3893V12.6104C105.62 12.5595 105.64 12.5112 105.674 12.4736C105.708 12.4361 105.754 12.4117 105.804 12.4046H107.997C109.714 12.4046 111.243 13.1077 111.243 15.4398C111.243 17.3775 110.139 18.5779 107.997 18.5779Z" fill="#494949"></path>
  </g>
  <defs>
    <clipPath id="clip0_449_9819">
      <rect width="112.386" height="30.7808" fill="white" transform="translate(0.693359 0.109619)"></rect>
    </clipPath>
  </defs>
</svg>
