<?xml version="1.0" encoding="UTF-8"?>
<svg xmlns="http://www.w3.org/2000/svg" width="57" height="41" viewBox="0 0 57 41" fill="none">
  <g clip-path="url(#clip0_449_9791)">
    <path d="M34.5033 11.351C40.3724 11.351 46.2401 11.351 52.1092 11.351C54.6091 11.351 56.0918 12.8058 56.0932 15.2563C56.0946 21.2267 56.0946 27.1971 56.0932 33.1675C56.0932 35.4669 54.8425 36.8127 52.5032 37.0293C51.9946 37.0756 51.4817 37.1028 50.9703 37.1042C41.5853 37.1083 32.199 37.1845 22.8154 37.0647C19.6796 37.0252 16.9365 37.6926 14.4869 39.582C14.132 39.8558 13.7672 40.3816 13.2222 40.1132C12.6451 39.8299 12.8939 39.2183 12.8925 38.7497C12.8785 30.9186 12.8813 23.0861 12.8855 15.255C12.8855 13.4623 13.7225 12.1914 15.2527 11.5853C15.7627 11.3837 16.2881 11.3496 16.8275 11.3496C22.719 11.3537 28.6118 11.3523 34.5033 11.3523V11.351ZM22.2509 30.1408C23.3213 30.1408 24.3917 30.1408 25.4621 30.1408C26.9461 30.1408 26.9294 30.1408 26.8805 28.6642C26.8637 28.1643 26.6625 27.9831 26.1636 27.9885C24.9073 28.0049 23.6497 28.0103 22.3934 27.9831C21.9714 27.9735 21.2895 28.2078 21.1805 27.8183C21.0351 27.3034 21.7031 27.0391 22.1167 26.7748C23.0502 26.1768 24.0326 25.6524 24.9507 25.034C26.1049 24.2575 26.7854 23.1773 26.8344 21.7825C26.907 19.727 25.4733 18.2313 23.0963 17.8485C20.6886 17.4617 18.5058 18.802 18.0167 20.9665C17.6883 22.42 17.8658 22.6447 19.3541 22.657C19.4002 22.657 19.4477 22.6529 19.4938 22.6597C20.1073 22.7414 20.3923 22.6189 20.3728 21.8792C20.3462 20.8344 20.9876 20.2146 21.9868 20.0457C22.9104 19.8891 23.7796 20.2814 24.1052 20.9979C24.4699 21.8029 24.1639 22.7905 23.3464 23.4184C23.1452 23.5724 22.9314 23.7113 22.7134 23.8407C22.1181 24.1976 21.5284 24.5613 20.9191 24.8937C19.1277 25.8704 18.0838 27.3156 17.8504 29.3275C17.782 29.9187 17.8994 30.1639 18.5519 30.1462C19.7845 30.1135 21.0184 30.1367 22.2523 30.1367L22.2509 30.1408ZM35.9412 21.7947C35.9412 20.7976 35.9175 19.7992 35.951 18.802C35.9692 18.2313 35.74 18.0297 35.1727 18.0638C34.6165 18.0964 34.0547 18.0964 33.4986 18.0638C32.9815 18.0324 32.6392 18.2109 32.3303 18.6263C31.1453 20.2242 29.9855 21.8465 28.6943 23.3612C27.8181 24.3883 27.4296 25.4535 27.5526 26.7735C27.6057 27.3469 27.7413 27.5772 28.3603 27.5635C29.7787 27.5295 31.1984 27.5785 32.6154 27.5417C33.2666 27.5254 33.4972 27.7679 33.4497 28.3767C33.4175 28.7827 33.4566 29.1927 33.4441 29.6C33.4315 30.025 33.6802 30.213 34.0533 30.1258C34.6752 29.9814 35.4591 30.5644 35.9203 29.7416C35.9706 29.6531 35.9384 29.5182 35.9398 29.4052C35.9412 29.111 35.9398 28.8154 35.9412 28.5211C35.9468 27.5717 35.9608 27.5581 36.8998 27.5513C36.9935 27.5513 37.0871 27.5417 37.1793 27.5513C37.7998 27.6262 38.0499 27.4014 38.0303 26.7571C37.987 25.2465 38.11 25.3936 36.6972 25.4168C36.1117 25.4263 35.9189 25.1947 35.9342 24.6485C35.9608 23.6977 35.9412 22.7442 35.9398 21.792L35.9412 21.7947ZM47.0715 18.0719C45.955 18.0719 44.8385 18.0719 43.7206 18.0719C42.3469 18.0719 42.3721 18.0719 42.3567 19.396C42.3497 20.0048 42.5412 20.2446 43.1937 20.231C44.798 20.1955 46.405 20.2187 48.0092 20.2228C48.1643 20.2228 48.3683 20.1629 48.455 20.3263C48.5528 20.5102 48.3488 20.6042 48.2454 20.7105C45.867 23.1515 44.6037 26.091 44.1132 29.3888C44.0252 29.98 44.225 30.1857 44.8091 30.1448C45.1557 30.1203 45.5106 30.1094 45.8544 30.1476C46.5168 30.2225 46.7459 29.9228 46.8242 29.3126C47.2364 26.0583 48.564 23.191 50.9479 20.8753C51.6257 20.216 51.7221 19.5758 51.7193 18.7694C51.7165 18.234 51.5209 18.0529 50.9801 18.0638C49.6777 18.0896 48.3739 18.0719 47.0715 18.0719ZM40.6728 24.1785C40.6728 21.6367 40.6728 19.0936 40.6728 16.5517C40.6728 16.3474 40.67 16.1431 40.6519 15.9401C40.6323 15.7276 40.4996 15.6173 40.2788 15.6173C40.058 15.6173 39.9266 15.7263 39.9043 15.9388C39.8861 16.1186 39.8833 16.3011 39.8833 16.4823C39.8833 21.6122 39.8833 26.7421 39.8833 31.8734C39.8833 32.0764 39.8889 32.2821 39.9196 32.4837C39.9476 32.6676 40.0943 32.7398 40.2774 32.7398C40.4604 32.7398 40.6072 32.6676 40.6351 32.4851C40.6658 32.2848 40.6714 32.0791 40.6714 31.8748C40.6742 29.3098 40.6728 26.7449 40.6728 24.1799V24.1785Z" fill="#494949"></path>
    <path d="M11.9509 9.32557C11.9509 10.9043 11.9523 12.3755 11.9509 13.8466C11.9495 14.796 11.9341 14.8083 10.9937 14.8069C10.0909 14.8056 10.07 14.7892 10.0686 13.8834C10.0672 10.6646 10.063 7.44577 10.0756 4.22696C10.0756 3.91638 9.90927 3.42328 10.3844 3.37288C10.8833 3.31975 11.5163 3.02144 11.8922 3.63033C12.0431 3.87552 12.1074 3.74748 12.2471 3.66847C14.2468 2.52697 16.287 3.3974 16.7649 5.60139C16.8739 6.10812 16.9103 6.62029 16.8697 7.15154C16.6867 9.57076 14.3376 10.9997 11.9537 9.32693L11.9509 9.32557ZM14.9581 6.57807C14.9763 6.25251 14.8952 5.87519 14.7485 5.51694C14.4914 4.89306 13.8933 4.53345 13.2756 4.60428C12.405 4.70508 11.9201 5.45428 11.9355 6.67887C11.9509 7.88303 12.4288 8.54504 13.3329 8.6186C14.3614 8.70169 14.9651 7.96748 14.9595 6.5767L14.9581 6.57807Z" fill="#494949"></path>
    <path d="M5.42209 0.886706C6.26612 0.668758 6.61826 1.07469 6.88377 1.81434C7.75994 4.25263 8.71157 6.6664 9.62547 9.09243C9.90915 9.84707 9.86583 9.90564 9.04136 9.90292C7.51679 9.90019 7.77811 10.0391 7.32954 8.6865C7.14788 8.13891 6.8698 7.91415 6.28149 7.95365C5.65685 7.99588 5.02522 7.98362 4.39779 7.95774C3.90311 7.93594 3.59289 8.10758 3.48529 8.58978C3.47131 8.65517 3.44197 8.71919 3.41961 8.78321C3.03392 9.87159 2.42046 10.1862 1.26481 9.89474C0.779913 9.77215 1.03843 9.47792 1.12088 9.25725C1.81399 7.42785 2.51968 5.6039 3.22118 3.7786C3.46572 3.1411 3.74101 2.5145 3.94363 1.86474C4.17421 1.12236 4.52635 0.621082 5.42488 0.886706H5.42209ZM5.47519 3.4326C5.42348 3.43941 5.37318 3.44623 5.32147 3.45167C5.0392 4.24173 4.75552 5.03179 4.47744 5.82458C4.42713 5.96624 4.29438 6.19781 4.47884 6.24685C5.04199 6.39941 5.6303 6.3531 6.20323 6.27137C6.41843 6.24004 6.36254 6.02618 6.31083 5.87498C6.03555 5.0604 5.75467 4.24718 5.47519 3.4326Z" fill="#494949"></path>
    <path d="M33.2759 10.0503C31.1924 10.0462 29.8258 8.70447 29.8271 6.66121C29.8271 4.52941 31.198 3.16452 33.3318 3.16724C35.4335 3.17133 36.7974 4.52396 36.8016 6.60536C36.8044 8.71672 35.4363 10.0544 33.2773 10.0503H33.2759ZM34.8424 6.61081C34.8187 6.33974 34.8215 6.06458 34.7642 5.80032C34.6063 5.07019 34.0683 4.62068 33.364 4.59752C32.6667 4.57436 32.1748 4.92989 31.9274 5.65593C31.6927 6.34791 31.7248 7.04262 31.9638 7.72506C32.1552 8.27266 32.5703 8.5628 33.1614 8.61865C33.779 8.67586 34.2457 8.45519 34.5629 7.92803C34.8103 7.51665 34.8285 7.06714 34.841 6.61081H34.8424Z" fill="#494949"></path>
    <path d="M20.6249 10.0502C18.4883 10.0461 17.1915 8.74795 17.1929 6.6107C17.1929 4.48572 18.512 3.16713 20.6333 3.16577C22.7979 3.16577 24.1086 4.48163 24.1002 6.65157C24.0918 8.77247 22.7839 10.0515 20.6249 10.0488V10.0502ZM22.2095 6.69243C22.2095 5.44877 21.645 4.65871 20.7632 4.59741C19.8242 4.53067 19.2624 5.14501 19.1059 6.38731C19.0514 6.82865 19.1367 7.25229 19.2722 7.66094C19.5852 8.60492 20.7507 8.95091 21.5486 8.34475C22.1271 7.90476 22.1201 7.23866 22.2095 6.69243Z" fill="#494949"></path>
    <path d="M26.4633 5.44871C26.4633 6.6733 26.441 7.89789 26.4731 9.12112C26.4885 9.70413 26.2901 9.92617 25.6724 9.91663C24.4972 9.89756 24.4958 9.92753 24.4944 8.81327C24.4944 6.45536 24.4916 4.0988 24.4944 1.74088C24.4958 0.875901 24.5251 0.855469 25.4642 0.855469C26.4368 0.855469 26.4578 0.867728 26.4619 1.70955C26.4675 2.95594 26.4619 4.20369 26.4619 5.45007L26.4633 5.44871Z" fill="#494949"></path>
    <path d="M27.5314 5.40802C27.5314 4.11668 27.558 2.82398 27.5216 1.53264C27.5021 0.833849 27.9297 0.836574 28.4244 0.854282C28.8967 0.87199 29.4249 0.7276 29.4165 1.51085C29.3914 4.09489 29.4011 6.67893 29.4123 9.26296C29.4137 9.72338 29.2391 9.8991 28.7583 9.91272C27.5328 9.94677 27.53 9.96312 27.5286 8.73989C27.5286 7.62972 27.5286 6.51819 27.5286 5.40802H27.5314Z" fill="#494949"></path>
    <path d="M33.4287 20.9653C33.4287 22.3152 33.4343 23.6651 33.4245 25.0151C33.4217 25.2957 33.2051 25.3992 32.9452 25.4006C32.1068 25.406 31.2683 25.4087 30.4299 25.4046C30.1029 25.4033 29.9003 25.282 30.1476 24.9538C31.1649 23.6052 32.1948 22.2662 33.2205 20.9231C33.2904 20.9381 33.3588 20.9517 33.4287 20.9667V20.9653Z" fill="#494949"></path>
  </g>
  <defs>
    <clipPath id="clip0_449_9791">
      <rect width="55.1192" height="39.3708" fill="white" transform="translate(0.976074 0.814697)"></rect>
    </clipPath>
  </defs>
</svg>
