<?xml version="1.0" encoding="UTF-8"?>
<svg xmlns="http://www.w3.org/2000/svg" width="145" height="31" viewBox="0 0 145 31" fill="none">
  <g clip-path="url(#clip0_449_9801)">
    <path d="M0.0942383 21.1582C1.08945 19.5025 1.60462 17.6449 2.38615 15.8998C3.34624 13.7566 4.18924 11.5615 5.07029 9.38375C5.38642 8.60494 5.84012 8.11747 6.80021 8.15785C7.6959 8.19535 8.05885 8.69148 8.35449 9.4126C9.86194 13.0961 11.4045 16.7623 12.8973 20.4515C13.0583 20.8467 13.6584 21.4957 12.83 21.7438C12.1861 21.937 11.1469 22.0841 10.9713 21.1611C10.5147 18.7728 8.87844 18.6516 6.96119 18.8535C6.48115 18.9054 5.98355 18.9112 5.5035 18.8535C3.98434 18.666 3.01255 19.1189 2.68179 20.74C2.37152 22.263 1.1275 21.8217 0.0942383 21.7322V21.1553L0.0942383 21.1582ZM6.72703 10.6039C5.92793 12.525 5.26056 14.1605 4.56683 15.7873C4.20973 16.6296 4.37657 17.0651 5.39227 17.0276C6.367 16.993 7.34172 16.993 8.31644 17.0276C9.14481 17.0565 9.22091 16.6555 8.96918 16.0383C8.26668 14.3162 7.54954 12.5971 6.72703 10.601V10.6039Z" fill="#494949"></path>
    <path d="M144.693 18.8506C143.317 22.087 140.776 22.8832 137.425 20.913C137.425 22.0668 137.428 23.0908 137.425 24.1148C137.422 24.7754 137.349 25.3984 136.459 25.4244C135.513 25.4532 135.522 24.7956 135.522 24.1466C135.522 20.5035 135.507 16.8575 135.531 13.2144C135.54 11.7865 136.026 11.4865 137.302 12.1932C137.753 12.4413 137.998 12.3057 138.35 12.1759C141.452 11.0337 143.03 11.6192 144.696 14.5268V18.8535L144.693 18.8506ZM137.428 16.794C137.428 19.5343 137.963 20.2323 140.088 20.2496C142.047 20.264 142.939 19.1622 142.928 16.7507C142.916 14.4489 142.02 13.3845 140.097 13.3874C137.96 13.3903 137.431 14.0682 137.428 16.7969V16.794Z" fill="#494949"></path>
    <path d="M102.036 14.4979C105.747 14.5008 105.256 14.0969 105.279 17.7285C105.294 20.0505 104.486 21.0947 102.22 21.7293C98.6844 22.7215 95.5144 21.4697 93.603 18.3227C92.1394 15.9142 92.7014 12.2191 94.8821 9.90001C97.0774 7.56357 101.79 7.26936 104.249 9.34618C104.682 9.71251 105.464 10.1135 104.916 10.8403C104.407 11.5182 103.798 11.4692 103.06 10.8923C100.435 8.83852 97.6511 9.60867 96.1056 11.6192C94.1562 14.1517 94.6831 17.6997 97.177 19.4044C98.8747 20.564 100.672 20.4168 102.455 19.5861C103.453 19.1188 103.394 18.1987 103.292 17.3333C103.172 16.3209 102.317 16.6064 101.685 16.5603C101.052 16.5141 100.417 16.5459 99.785 16.5084C99.1966 16.4738 98.942 16.1276 98.9332 15.5507C98.9244 14.9219 99.1615 14.521 99.8377 14.5036C100.569 14.4835 101.301 14.5008 102.033 14.5008L102.036 14.4979Z" fill="#494949"></path>
    <path d="M58.2494 15.0546C58.2494 13.2316 58.2817 11.4086 58.2348 9.58563C58.2085 8.6251 58.5451 8.15493 59.5608 8.16647C61.7503 8.19243 63.9426 8.16647 66.1321 8.18666C66.7263 8.19243 67.3761 8.25012 67.3498 9.07508C67.3264 9.88274 66.6795 9.92023 66.0853 9.92889C64.5749 9.94908 63.0645 9.97216 61.5571 9.93177C60.556 9.90581 60.1082 10.2952 60.2018 11.2904C60.2369 11.6711 60.2428 12.0605 60.2018 12.4413C60.0877 13.4883 60.5033 13.9239 61.6068 13.8749C63.0645 13.8085 64.5281 13.8576 65.9887 13.8662C66.6034 13.8662 67.1771 13.9095 67.2034 14.7431C67.2298 15.6459 66.6268 15.7354 65.9448 15.7382C64.4842 15.744 63.0235 15.7757 61.5629 15.7382C60.5589 15.7123 60.2106 16.1219 60.1872 17.1055C60.1228 19.9381 60.0877 19.9381 62.9855 19.9381C64.1066 19.9381 65.2247 19.9467 66.3458 19.9496C66.9722 19.9496 67.3761 20.1948 67.382 20.8726C67.3878 21.5389 67.0278 21.8187 66.378 21.8187C64.0422 21.813 61.7034 21.8014 59.3676 21.8187C58.4339 21.8274 58.2348 21.314 58.2436 20.5294C58.2641 18.7064 58.2494 16.8834 58.2494 15.0604V15.0546Z" fill="#494949"></path>
    <path d="M53.0952 20.2466C58.8323 25.2396 64.9851 28.3058 72.4608 28.3953C79.9893 28.4847 86.2387 25.6319 91.7328 20.7052C91.2147 23.832 82.0646 29.3644 76.8866 30.224C65.9891 32.0326 56.2799 25.4762 53.0952 20.2466Z" fill="#494949"></path>
    <path d="M92.3563 10.4915C86.824 5.61675 80.5425 2.59092 73.014 2.50439C65.4563 2.41786 59.1338 5.33696 53.5869 10.4108C54.7841 7.19457 62.4706 1.48617 69.0566 0.675626C79.0643 -0.55605 87.4651 3.69857 92.3563 10.4886V10.4915Z" fill="#494949"></path>
    <path d="M85.0471 17.4893C84.1222 17.4893 83.1972 17.4893 82.2722 17.4893C81.2565 17.4865 81.1248 17.9739 81.4966 18.7903C82.2225 20.3969 84.4997 20.9046 86.4492 19.8979C86.9 19.6643 87.3361 18.9489 87.8893 19.7912C88.4484 20.6421 87.6786 20.8815 87.1985 21.2103C85.2315 22.5603 82.3132 22.2516 80.4896 20.5267C78.8856 19.0124 78.6456 15.7067 79.995 13.6991C81.2741 11.7925 83.7972 11.0916 86.0833 12.0059C87.7283 12.6636 89.0075 14.7924 88.864 16.5432C88.8084 17.2297 88.4425 17.4634 87.8249 17.4663C86.9 17.472 85.975 17.4663 85.05 17.4663C85.05 17.472 85.05 17.4807 85.05 17.4865L85.0471 17.4893ZM83.8821 15.9086V15.8971C84.5641 15.8971 85.2462 15.8856 85.9252 15.8971C86.8736 15.9144 86.9819 15.4702 86.6658 14.7087C86.2355 13.6703 85.3018 13.3588 84.3388 13.2117C83.247 13.0415 82.3542 13.5463 81.6634 14.3683C81.3795 14.7058 81.1394 15.1443 81.277 15.5625C81.4556 16.1106 82.0205 15.8654 82.4215 15.8971C82.9045 15.9346 83.3933 15.9058 83.8821 15.9058V15.9086Z" fill="#494949"></path>
    <path d="M118.323 11.5962C121.27 11.5876 123.331 13.7394 123.316 16.8114C123.302 19.8372 121.162 22.0727 118.314 22.0496C115.501 22.0265 113.279 19.7103 113.276 16.7969C113.271 13.8403 115.439 11.6049 118.326 11.5962H118.323ZM121.276 16.9094C121.323 14.5845 120.392 13.425 118.446 13.3846C116.405 13.3413 115.363 14.5067 115.352 16.8431C115.34 18.9286 116.42 20.2035 118.235 20.2468C120.231 20.2929 121.229 19.1997 121.276 16.9094Z" fill="#494949"></path>
    <path d="M48.8656 19.1216C50.1681 17.0592 50.5516 14.8324 51.6141 12.894C51.898 12.3777 52.0561 11.8383 52.8113 11.8354C53.5782 11.8297 53.9529 12.0316 53.6045 12.845C51.9595 16.6871 50.3555 20.5466 48.6548 24.3656C48.2011 25.3839 46.5151 25.88 45.4497 25.5483C45.0691 25.43 44.8525 25.2223 44.9111 24.8243C44.9725 24.3858 45.0838 24.0541 45.6575 23.9243C47.5864 23.4888 48.1514 22.3003 47.3845 20.5004C46.3688 18.115 45.3443 15.7295 44.3696 13.3267C44.1969 12.9056 43.6671 12.2796 44.3491 11.9595C45.0867 11.6133 45.7336 11.8845 46.0907 12.7325C46.96 14.8093 47.8821 16.8631 48.8656 19.1216Z" fill="#494949"></path>
    <path d="M73.3127 19.0785C74.5275 17.0392 75.0017 14.8008 76.0671 12.8163C76.2954 12.3923 76.4272 11.9163 77.0331 11.8615C77.8556 11.7894 78.4586 11.9221 78.0254 12.9317C76.4184 16.6815 74.829 20.44 73.1518 24.161C72.5839 25.4244 71.3604 25.6696 70.0549 25.5773C69.5895 25.5455 69.3202 25.3609 69.3524 24.8677C69.3787 24.435 69.3758 24.0629 69.9905 23.9244C71.9399 23.486 72.5195 22.3755 71.7643 20.5063C70.8276 18.193 69.7915 15.9171 68.8606 13.6009C68.6499 13.0759 67.9474 12.3115 68.9016 11.9134C69.7856 11.5442 70.2627 12.1817 70.6432 12.9749C71.5916 14.9508 72.0775 17.1257 73.3127 19.0785Z" fill="#494949"></path>
    <path d="M32.0873 16.9758C32.0873 18.2248 32.1253 19.4738 32.0756 20.7228C32.0346 21.7698 31.215 22.2227 30.4306 21.5448C29.8686 21.0603 29.5934 21.2074 29.0782 21.4727C27.761 22.1564 26.3765 22.3064 25.0184 21.5852C24.0671 21.0804 23.7129 20.1978 23.71 19.1738C23.6982 17.1575 23.6982 15.1384 23.71 13.1221C23.7129 12.5539 23.6514 11.9164 24.5237 11.8674C25.4369 11.8155 25.554 12.4154 25.5599 13.0875C25.5745 14.8153 25.5862 16.546 25.5745 18.2767C25.5657 19.5315 26.0077 20.2872 27.4391 20.2613C29.1397 20.2324 30.1349 19.543 30.1759 18.1498C30.2227 16.5172 30.1847 14.8846 30.1993 13.2491C30.2052 12.5626 30.1876 11.8357 31.2209 11.8761C32.1897 11.9107 32.0785 12.6231 32.0873 13.2318C32.1049 14.4807 32.0931 15.7297 32.0931 16.9787C32.0931 16.9787 32.0902 16.9787 32.0873 16.9787V16.9758Z" fill="#494949"></path>
    <path d="M133.33 16.8429C133.33 18.138 133.368 19.4332 133.315 20.7283C133.277 21.6773 132.25 22.2773 131.787 21.6369C131.14 20.7399 130.76 21.2994 130.212 21.5533C127.236 22.9292 124.885 21.5417 124.783 18.3255C124.73 16.6496 124.759 14.968 124.78 13.2892C124.789 12.6258 124.721 11.8527 125.763 11.8758C126.849 11.8989 126.624 12.7296 126.636 13.3527C126.668 14.8382 126.63 16.3266 126.653 17.8121C126.679 19.6034 127.25 20.2408 128.772 20.2466C130.64 20.2524 131.413 19.5601 131.43 17.8208C131.448 16.2372 131.43 14.6565 131.439 13.0729C131.439 12.4729 131.483 11.896 132.323 11.8672C133.245 11.8354 133.327 12.4354 133.33 13.1046C133.336 14.3507 133.33 15.5997 133.33 16.8458V16.8429Z" fill="#494949"></path>
    <path d="M13.749 16.9356C13.3655 12.7935 17.5425 10.3215 21.3067 12.3003C21.9126 12.6204 22.4483 13.0445 22.0795 13.7396C21.7019 14.4492 21.134 14.279 20.4901 13.8665C19.1875 13.0271 17.1825 13.2954 16.3395 14.3107C15.3443 15.5107 15.4233 18.3058 16.4829 19.4422C17.4225 20.4489 19.3485 20.5932 20.6189 19.6355C21.1779 19.2144 21.5204 19.2057 21.9595 19.6961C22.4951 20.2989 22.0473 20.6537 21.6316 20.997C20.0744 22.2863 18.2684 22.3815 16.5561 21.5883C14.6096 20.6855 13.5295 19.0673 13.7519 16.9356H13.749Z" fill="#494949"></path>
    <path d="M42.0396 22.0408C40.6288 22.0408 39.8619 21.3283 39.815 19.8832C39.7623 18.2073 39.7799 16.5285 39.8004 14.8526C39.8092 14.0623 39.7623 13.396 38.6852 13.4421C38.1027 13.4681 37.9768 13.0614 37.9885 12.571C38.0002 12.1037 38.2227 11.8297 38.6939 11.8528C39.6423 11.8989 39.8267 11.374 39.8062 10.5836C39.7916 9.99228 39.657 9.26828 40.6522 9.2452C41.8318 9.21924 41.4893 10.0817 41.4864 10.673C41.4864 11.4201 41.6766 11.8816 42.5401 11.8441C43.0963 11.821 43.4856 12.0258 43.4797 12.6633C43.4739 13.2085 43.1665 13.445 42.6572 13.4566C41.7937 13.4739 41.6415 14.019 41.6357 14.7171C41.624 16.1045 41.5713 17.4948 41.5742 18.8823C41.5742 19.5082 41.5918 20.2264 42.4992 20.2091C43.1812 20.1976 43.8661 20.137 43.8368 21.0456C43.8105 21.9023 42.988 21.8187 42.4201 21.9975C42.2855 22.0408 42.1333 22.0321 42.0396 22.0437V22.0408Z" fill="#494949"></path>
    <path d="M107.753 16.7795C107.753 15.4844 107.715 14.1892 107.765 12.8999C107.803 11.9797 108.86 11.3769 109.31 12.0086C109.948 12.9028 110.352 12.398 110.906 12.1239C111.163 11.997 111.438 11.8788 111.719 11.8268C112.191 11.7403 112.744 11.599 112.84 12.3259C112.917 12.8912 112.82 13.2835 112.103 13.4796C109.691 14.1402 109.659 14.2267 109.653 16.6093C109.65 17.9506 109.65 19.2919 109.647 20.6361C109.647 21.262 109.539 21.7899 108.716 21.7956C107.911 21.8014 107.744 21.3081 107.744 20.6678C107.741 19.3727 107.744 18.0804 107.744 16.7853C107.744 16.7853 107.75 16.7853 107.753 16.7853V16.7795Z" fill="#494949"></path>
    <path d="M34.8413 16.8345C34.8413 15.5394 34.8413 14.2443 34.8413 12.9491C34.8413 12.2828 35.0432 11.8357 35.8423 11.8617C36.5653 11.8847 36.741 12.3232 36.741 12.9116C36.7468 15.548 36.741 18.1873 36.7439 20.8238C36.7439 21.568 36.3282 21.8189 35.6228 21.8074C34.8208 21.7958 34.8325 21.268 34.8354 20.717C34.8354 19.4219 34.8354 18.1268 34.8354 16.8316H34.8442L34.8413 16.8345Z" fill="#494949"></path>
  </g>
  <defs>
    <clipPath id="clip0_449_9801">
      <rect width="144.598" height="30.065" fill="white" transform="translate(0.0952148 0.467529)"></rect>
    </clipPath>
  </defs>
</svg>
