<?xml version="1.0" encoding="UTF-8"?>
<svg xmlns="http://www.w3.org/2000/svg" width="110" height="35" viewBox="0 0 110 35" fill="none">
  <path d="M19.9765 34.629H15.7778L35.5788 4.94629L37.8065 8.15034L19.9765 34.629Z" fill="#494949"></path>
  <path d="M27.4047 34.6293H23.2061L39.2638 10.2456L41.4915 13.4497L27.4047 34.6293Z" fill="#494949"></path>
  <path d="M32.8788 1.06884C32.738 0.863451 32.4896 0.362305 31.943 0.362305C31.3964 0.362305 31.148 0.879882 30.9989 1.06884L8.34912 34.6292H12.5478L34.1624 2.90912L32.8788 1.06884Z" fill="#494949"></path>
  <path d="M22.1131 6.00634C21.9724 5.80095 21.7239 5.2998 21.169 5.2998C20.6142 5.2998 20.374 5.81738 20.2332 6.00634L0.920898 34.6292H5.11959L23.3719 7.88769L22.1131 6.01455V6.00634Z" fill="#494949"></path>
  <path d="M22.1138 6.01464C21.973 5.80925 21.7245 5.30811 21.178 5.30811C20.6314 5.30811 20.3829 5.82568 20.2422 6.01464L18.9751 7.90421L37.186 34.6293H41.3847L22.1138 6.01464Z" fill="#494949"></path>
  <path d="M32.8784 1.06884C32.7376 0.863451 32.4892 0.362305 31.9426 0.362305C31.396 0.362305 31.1476 0.879882 31.0068 1.06884L29.7397 2.95019L52.0334 34.621H56.2321L32.8784 1.06884Z" fill="#494949"></path>
  <path d="M37.8062 8.15034L35.5785 4.94629L33.417 8.1832L35.6447 11.3544L37.8062 8.15034Z" fill="#494949"></path>
  <path d="M41.4918 13.4497L39.2641 10.2456L37.1357 13.4743L39.3635 16.6373L41.4918 13.4414V13.4497Z" fill="#494949"></path>
  <path d="M44.6055 34.6293H48.8042L28.4319 4.90552L26.229 8.15065L44.6055 34.6375V34.6293Z" fill="#494949"></path>
  <path d="M32.8794 1.06884C32.7386 0.863451 32.4901 0.362305 31.9436 0.362305C31.869 0.362305 31.8111 0.362305 31.7448 0.386951C31.3225 0.493753 31.132 0.904529 31.0078 1.06884L29.8566 2.76945L29.7324 2.95841L31.9684 6.1296L34.163 2.90912L32.8794 1.06884Z" fill="#494949"></path>
  <path d="M28.4319 4.90552L26.229 8.15065L28.4319 11.3218L30.6265 8.10957L28.4319 4.90552Z" fill="#494949"></path>
  <path d="M32.1086 16.6125L34.2618 13.4084L32.0672 10.2043L29.9058 13.4413L32.1003 16.6125H32.1086Z" fill="#494949"></path>
  <path d="M35.8186 21.9688L37.9387 18.7812L35.7441 15.5771L33.624 18.7976L35.8186 21.9606V21.9688Z" fill="#494949"></path>
  <path d="M22.1133 6.01464C21.9725 5.80925 21.724 5.30811 21.1775 5.30811C21.1112 5.30811 21.045 5.30811 20.9787 5.33275C20.5563 5.43955 20.3659 5.85033 20.2417 6.01464L18.9663 7.90421L21.1609 11.1329L23.372 7.89599L23.3555 7.87135L22.1133 6.02286V6.01464Z" fill="#494949"></path>
  <path d="M27.0494 13.3426L24.888 10.1304L22.7017 13.3755L24.8714 16.5549L27.0577 13.3509L27.0494 13.3426Z" fill="#494949"></path>
  <path d="M30.676 18.7321L28.5145 15.5281L26.3613 18.7568L28.5228 21.928L30.676 18.7321Z" fill="#494949"></path>
  <path d="M34.3445 24.1872L32.183 20.9832L30.063 24.1954L32.2244 27.3666L34.3362 24.1872H34.3445Z" fill="#494949"></path>
  <path d="M38.138 0.904541C38.4693 0.904541 38.7923 0.986696 39.0987 1.15101C39.4051 1.31532 39.6453 1.55357 39.8192 1.86576C39.9931 2.17795 40.0842 2.49835 40.0842 2.83519C40.0842 3.17202 40.0014 3.49243 39.8275 3.7964C39.6535 4.10038 39.4134 4.33863 39.107 4.51115C38.8006 4.68368 38.4776 4.76584 38.138 4.76584C37.7985 4.76584 37.4755 4.68368 37.1691 4.51115C36.8627 4.33863 36.6225 4.10038 36.4486 3.7964C36.2747 3.49243 36.1919 3.17202 36.1919 2.83519C36.1919 2.49835 36.283 2.16973 36.4569 1.86576C36.6308 1.55357 36.871 1.31532 37.1774 1.15101C37.4838 0.986696 37.8068 0.904541 38.138 0.904541ZM38.138 1.28245C37.873 1.28245 37.6163 1.34818 37.3679 1.47963C37.1194 1.61108 36.9289 1.80003 36.7882 2.05471C36.6474 2.30118 36.5728 2.56408 36.5728 2.83519C36.5728 3.1063 36.6391 3.3692 36.7799 3.60745C36.9207 3.85391 37.1111 4.04287 37.3596 4.18253C37.608 4.3222 37.8647 4.38792 38.138 4.38792C38.4113 4.38792 38.668 4.3222 38.9165 4.18253C39.1649 4.04287 39.3554 3.85391 39.4962 3.60745C39.637 3.36098 39.7032 3.1063 39.7032 2.83519C39.7032 2.56408 39.6287 2.30118 39.4879 2.05471C39.3471 1.80825 39.1484 1.61108 38.9082 1.47963C38.6598 1.34818 38.403 1.28245 38.138 1.28245ZM37.2519 3.87034V1.82468H37.6743C38.0635 1.82468 38.2871 1.82468 38.3368 1.82468C38.4776 1.84111 38.5852 1.86576 38.6598 1.90683C38.7343 1.94791 38.8006 2.01364 38.8502 2.10401C38.8999 2.19438 38.9248 2.29296 38.9248 2.39977C38.9248 2.54764 38.8751 2.67088 38.7757 2.77768C38.6763 2.88448 38.5438 2.95021 38.3616 2.97485C38.4279 2.9995 38.4693 3.02414 38.5024 3.04879C38.5355 3.07344 38.5852 3.13095 38.6432 3.20489C38.6598 3.22953 38.7095 3.31169 38.7923 3.45135L39.0407 3.87034H38.519L38.3451 3.53351C38.2291 3.31169 38.1298 3.17202 38.0552 3.11452C37.9807 3.05701 37.8813 3.02414 37.7654 3.02414H37.6577V3.87034H37.2354H37.2519ZM37.6743 2.70374H37.8482C38.0883 2.70374 38.2374 2.69552 38.3037 2.67909C38.3616 2.66266 38.4113 2.6298 38.4445 2.58051C38.4776 2.53121 38.4941 2.48192 38.4941 2.42441C38.4941 2.3669 38.4776 2.31761 38.4445 2.26832C38.4113 2.22724 38.3616 2.19438 38.3037 2.16973C38.2457 2.1533 38.0966 2.13687 37.8565 2.13687H37.6826V2.69552L37.6743 2.70374Z" fill="#494949"></path>
  <path d="M62.396 19.0235C63.2904 19.0235 63.9695 18.8428 63.9695 17.1339V9.79747L62.661 9.73175V9.1731L66.6692 9.23882L69.2365 16.2138H69.253L71.8534 9.23882L75.812 9.1731V9.73175L74.4704 9.79747V18.9578L75.812 19.0235V19.5822C75.1494 19.5822 73.9072 19.5164 73.2447 19.5164C72.5822 19.5164 71.4062 19.5822 70.7437 19.5822V19.0235L72.0687 18.9578V10.5204H72.0356L68.7727 19.5493H67.9611L64.6651 10.5204H64.632V17.1421C64.632 18.851 65.2779 19.0317 66.338 19.0317V19.5904C65.5098 19.5904 65.0295 19.5246 64.367 19.5246C63.7045 19.5246 63.2241 19.5904 62.396 19.5904V19.0317V19.0235Z" fill="#494949"></path>
  <path d="M76.084 15.8692C76.084 13.0759 77.9887 11.7778 80.1088 11.7778C82.2288 11.7778 84.1501 12.9116 84.1501 15.7049C84.1501 18.4981 82.2951 19.7962 80.1088 19.7962C77.9225 19.7962 76.084 18.6789 76.084 15.8692ZM81.7319 15.787C81.7319 13.5524 81.2847 12.3365 80.1088 12.3365C78.9328 12.3365 78.5022 13.5524 78.5022 15.787C78.5022 18.0216 78.9659 19.2375 80.1088 19.2375C81.2516 19.2375 81.7319 18.0381 81.7319 15.787Z" fill="#494949"></path>
  <path d="M85.5501 13.5195C85.5501 12.6158 85.2685 12.6158 84.4238 12.6158V12.0571L87.7364 11.8928V16.4114C87.7364 17.9887 87.7695 18.7939 88.7964 18.7939C89.608 18.7939 90.6349 17.8409 90.6349 16.2306V13.5195C90.6349 12.6158 90.254 12.6158 89.5252 12.6158V12.0571L92.8212 11.8928V18.9171L93.9475 18.95V19.5086L90.7674 19.6729L90.7177 18.2106H90.7012C90.1712 19.0978 89.2436 19.7551 87.9352 19.7551C86.1961 19.7551 85.5501 18.8678 85.5501 16.9947V13.5113V13.5195Z" fill="#494949"></path>
  <path d="M98.6933 19.0235V19.5822C97.8983 19.5822 97.4677 19.5164 96.507 19.5164C95.5464 19.5164 95.0992 19.5822 94.2876 19.5822V19.0235L95.4139 18.9414V13.4862C95.4139 12.6154 95.1323 12.6154 94.2876 12.6154V12.0567L97.4677 11.8924L97.5008 13.3219H97.5174C98.0805 12.4182 98.9749 11.761 100.283 11.761C101.675 11.761 102.668 12.599 102.668 14.6693V18.9414L103.811 19.0235V19.5822C103 19.5822 102.552 19.5164 101.592 19.5164C100.631 19.5164 100.217 19.5822 99.4055 19.5822V19.0235L100.499 18.9414V15.1458C100.499 13.3712 100.3 12.7304 99.4221 12.7304C98.6105 12.7304 97.6002 13.6834 97.6002 15.2937V18.9414L98.6933 19.0235Z" fill="#494949"></path>
  <path d="M106.842 17.3972C106.809 18.416 106.842 18.9746 107.521 18.9746C108.134 18.9746 108.481 18.1038 108.481 18.1038L109.011 18.3009C109.011 18.3009 108.664 19.8126 106.924 19.8126C104.887 19.8126 104.672 18.7117 104.672 17.4301V12.698H103.43V12.0571H104.672V9.31316C105.914 9.31316 106.842 9.00098 106.842 9.00098V12.0571H108.697V12.698H106.842V17.3972Z" fill="#494949"></path>
  <path d="M63.7369 30.3529C63.8694 31.0923 64.946 33.8856 67.1157 33.8856C68.4739 33.8856 69.0205 33.1297 69.0205 32.2753C69.0205 29.2356 63.3063 30.928 63.3063 26.7709C63.3063 24.3227 65.3435 23.5176 66.8507 23.5176C68.2254 23.5176 68.9376 23.9612 69.2026 23.9612C69.4842 23.9612 69.567 23.5997 69.567 23.5997H70.1136C70.1136 24.142 70.0805 24.5363 70.0805 25.0621C70.0805 25.8344 70.1136 26.278 70.1136 26.8038H69.567C69.4345 26.0808 68.4904 24.0762 66.7182 24.0762C65.7244 24.0762 65.0454 24.6842 65.0454 25.5386C65.0454 28.3319 70.9252 26.7216 70.9252 31.1252C70.9252 33.5405 69.0867 34.5099 67.066 34.5099C65.3104 34.5099 64.3994 33.9184 64.1013 33.9184C63.7535 33.9184 63.6872 34.3128 63.6872 34.3128H63.1406C63.1406 33.5241 63.1903 33.0476 63.1903 32.2589C63.1903 31.4702 63.1406 31.0266 63.1406 30.3529H63.7369Z" fill="#494949"></path>
  <path d="M75.9701 33.6148V34.1735C75.1751 34.1735 74.7113 34.1077 73.7507 34.1077C72.79 34.1077 72.3428 34.1735 71.5312 34.1735V33.6148L72.6575 33.5327V28.1104C72.6575 27.2067 72.3594 27.2067 71.5312 27.2067V26.6481L74.8438 26.4837V33.5244L75.9701 33.6066V33.6148ZM73.7672 22.5649C74.4463 22.5649 75.0923 23.0086 75.0923 23.8137C75.0923 24.6188 74.4463 25.0625 73.7672 25.0625C73.0882 25.0625 72.4256 24.6188 72.4256 23.8137C72.4256 23.0086 73.0716 22.5649 73.7672 22.5649Z" fill="#494949"></path>
  <path d="M80.7212 33.6148V34.1735C79.9261 34.1735 79.4955 34.1077 78.5349 34.1077C77.5742 34.1077 77.127 34.1735 76.3154 34.1735V33.6148L77.4417 33.5327V28.0776C77.4417 27.2067 77.1601 27.2067 76.3154 27.2067V26.6481L79.4955 26.4837L79.5286 27.9132H79.5452C80.1083 27.0095 81.0027 26.3523 82.3112 26.3523C83.7025 26.3523 84.6963 27.1903 84.6963 29.2606V33.5327L85.8391 33.6148V34.1735C85.0275 34.1735 84.5803 34.1077 83.6197 34.1077C82.659 34.1077 82.245 34.1735 81.4334 34.1735V33.6148L82.5265 33.5327V29.7371C82.5265 27.9625 82.3278 27.3217 81.4499 27.3217C80.6383 27.3217 79.628 28.2747 79.628 29.885V33.5327L80.7212 33.6148Z" fill="#494949"></path>
  <path d="M94.6607 32.9161C94.6607 32.9161 94.4288 34.4113 92.7229 34.4113C91.9113 34.4113 91.2322 34.0827 90.9506 33.2611H90.9175C90.5531 33.9512 89.8575 34.477 88.6484 34.477C87.4393 34.477 86.1143 33.9512 86.1143 32.226C86.1143 30.09 88.6484 29.8928 90.9009 29.9092V29.1041C90.9506 27.7896 90.8347 26.9188 89.7581 26.9188C88.93 26.9188 88.5656 27.3295 88.4828 27.4938C88.4828 27.4938 88.8471 27.691 88.8471 28.2497C88.8471 28.8083 88.4165 29.2355 87.7374 29.2355C87.0583 29.2355 86.6277 28.8412 86.6277 28.184C86.6277 27.0174 88.1349 26.3601 89.9237 26.3601C92.8222 26.3601 93.0707 27.9868 93.0376 29.5313L92.9547 32.6368C92.9382 33.1461 93.1038 33.4912 93.4682 33.4912C93.9485 33.4912 94.1141 32.7846 94.1141 32.7846L94.6607 32.9161ZM90.8678 30.4679C88.814 30.435 88.3503 30.9772 88.3503 32.0124C88.3503 32.9818 88.7312 33.4748 89.4268 33.4748C90.0728 33.4748 90.8016 32.9161 90.8347 31.7331L90.8678 30.4679Z" fill="#494949"></path>
  <path d="M99.1078 33.6148V34.1735C98.3128 34.1735 97.849 34.1077 96.8884 34.1077C95.9277 34.1077 95.4805 34.1735 94.6689 34.1735V33.6148L95.7952 33.5327V28.1104C95.7952 27.2067 95.4971 27.2067 94.6689 27.2067V26.6481L97.9815 26.4837V33.5244L99.1078 33.6066V33.6148ZM96.9049 22.5649C97.584 22.5649 98.23 23.0086 98.23 23.8137C98.23 24.6188 97.584 25.0625 96.9049 25.0625C96.2259 25.0625 95.5633 24.6188 95.5633 23.8137C95.5633 23.0086 96.2093 22.5649 96.9049 22.5649Z" fill="#494949"></path>
</svg>
